<svg width="119" height="41" viewBox="0 0 119 41" fill="none" xmlns="http://www.w3.org/2000/svg">
<path d="M30.0441 5.49817V23.4344C29.7714 23.2495 29.5033 23.0554 29.2422 22.8566V5.49817H30.0441Z" fill="#6D6D6D"/>
<path d="M37.5091 21.4516C37.509 22.2055 37.4638 22.9586 37.3739 23.707C37.0865 26.1192 36.3302 28.4518 35.1475 30.5733C34.8958 31.0258 34.6261 31.4666 34.3386 31.8958C33.9047 32.5424 33.4314 33.1617 32.9212 33.75C32.6601 34.0485 32.3897 34.3424 32.1123 34.6222C31.6624 35.0793 31.1893 35.513 30.6949 35.9213C30.4314 36.1406 30.161 36.3505 29.8859 36.5557C29.4197 36.8916 28.9534 37.2111 28.4685 37.5073C28.2028 37.6683 27.9323 37.8222 27.6596 37.9738C27.1933 38.2226 26.7209 38.4558 26.2422 38.6735C25.9741 38.7901 25.706 38.9067 25.4332 39.0047C24.967 39.1796 24.5007 39.3405 24.0158 39.4711C23.7477 39.5504 23.4796 39.6227 23.2069 39.688C22.7406 39.8031 22.2682 39.8987 21.7895 39.9749C21.5214 40.0192 21.251 40.0565 20.9805 40.0892C20.5143 40.1452 20.048 40.1825 19.5631 40.2035C19.2951 40.2151 19.0246 40.2221 18.7542 40.2221C18.2755 40.2221 17.8031 40.2035 17.3368 40.1662C17.064 40.1475 16.796 40.1218 16.5279 40.0892C16.0616 40.0332 15.5744 39.9586 15.1105 39.8676C14.8377 39.814 14.5673 39.7533 14.2992 39.688C13.819 39.5714 13.3473 39.4361 12.8841 39.2822C12.6114 39.1936 12.3409 39.098 12.0728 38.9977C11.5926 38.8134 11.1194 38.6082 10.6578 38.3866C10.3827 38.256 10.1123 38.1184 9.84651 37.9738C9.29034 37.6726 8.7503 37.3425 8.22862 36.9849C7.95353 36.8006 7.68311 36.6047 7.41734 36.4041C6.92545 36.031 6.45454 35.6321 6.00228 35.2123C5.72253 34.9558 5.45443 34.6875 5.191 34.4147C4.68697 33.8879 4.21446 33.3319 3.77594 32.7494C3.49152 32.3716 3.2211 31.9828 2.96466 31.5832C2.42292 30.741 1.94971 29.8565 1.54959 28.9384C1.23114 28.2088 0.96015 27.4593 0.738319 26.6947C0.022668 24.2187 -0.175552 21.6217 0.156013 19.0657C0.487578 16.5097 1.34182 14.0494 2.6655 11.8382C3.98918 9.62694 5.75391 7.71218 7.84972 6.21323C9.94552 4.71428 12.3275 3.66328 14.8471 3.12573C17.3667 2.58818 19.97 2.5756 22.4947 3.08879C25.0194 3.60197 27.4113 4.62991 29.5215 6.10854C31.6317 7.58717 33.4148 9.4848 34.7598 11.6831C36.1047 13.8815 36.9827 16.3334 37.3389 18.8861C37.3552 18.9887 37.3669 19.0913 37.3785 19.1963C37.4669 19.9448 37.5105 20.6979 37.5091 21.4516Z" fill="#F38B20"/>
<path d="M10.5689 19.085V38.4055C10.2962 38.2761 10.0281 38.1397 9.76465 37.9964V19.085H10.5689Z" fill="#FF7300"/>
<path d="M12.7759 19.085V39.2906C12.5055 39.2028 12.2375 39.1081 11.9717 39.0087V19.085H12.7759Z" fill="#FF7300"/>
<path d="M14.983 19.085V39.8707C14.7126 39.8176 14.4445 39.7575 14.1787 39.6928V19.085H14.983Z" fill="#FF7300"/>
<path d="M17.1896 19.085V40.1665C16.9192 40.1481 16.6535 40.1226 16.3877 40.0903V19.085H17.1896Z" fill="#FF7300"/>
<path d="M19.3967 19.085V40.2035C19.1309 40.2151 18.8628 40.222 18.5947 40.222V19.085H19.3967Z" fill="#FF7300"/>
<path d="M21.6037 19.085V39.977C21.3379 40.0209 21.0698 40.0579 20.8018 40.0903V19.085H21.6037Z" fill="#FF7300"/>
<path d="M23.8039 19.085V39.4778C23.5381 39.5564 23.2723 39.6281 23.002 39.6928V19.085H23.8039Z" fill="#FF7300"/>
<path d="M26.0178 19.085V38.6805C25.752 38.7961 25.4862 38.9116 25.2158 39.0087V19.085H26.0178Z" fill="#FF7300"/>
<path d="M28.2258 19.085V37.5365C27.9623 37.696 27.6942 37.8485 27.4238 37.9988V19.085H28.2258Z" fill="#FF7300"/>
<path d="M30.4328 19.085V35.9558C30.1716 36.173 29.9036 36.381 29.6309 36.5844V19.085H30.4328Z" fill="#FF7300"/>
<path d="M32.6389 19.085V33.8134C32.38 34.1092 32.1119 34.4004 31.8369 34.6778V19.085H32.6389Z" fill="#FF7300"/>
<path d="M34.8459 19.085V30.6657C34.5963 31.1141 34.329 31.5509 34.0439 31.9761V19.085H34.8459Z" fill="#FF7300"/>
<path d="M37.0529 19.085V23.8619C36.9068 25.0875 36.6381 26.2953 36.251 27.4672V19.085H37.0529Z" fill="#FF7300"/>
<path d="M1.5396 19.085V29.0457C1.22391 28.3227 0.955262 27.5801 0.735352 26.8224V19.085H1.5396Z" fill="#FF7300"/>
<path d="M3.74664 19.085V32.822C3.46468 32.4476 3.1966 32.0624 2.94238 31.6664V19.085H3.74664Z" fill="#FF7300"/>
<path d="M5.95367 19.085V35.2625C5.67634 35.0082 5.41056 34.7425 5.14941 34.4721V19.085H5.95367Z" fill="#FF7300"/>
<path d="M8.1607 19.085V37.0189C7.88799 36.8363 7.61991 36.6422 7.35645 36.4434V19.085H8.1607Z" fill="#FF7300"/>
<path d="M18.5949 37.4119C28.8645 37.4119 37.1897 29.0867 37.1897 18.817C37.1897 8.54738 28.8645 0.222168 18.5949 0.222168C8.32521 0.222168 0 8.54738 0 18.817C0 29.0867 8.32521 37.4119 18.5949 37.4119Z" fill="#FBD609"/>
<path d="M18.5949 34.3961C15.5136 34.3966 12.5013 33.4833 9.9391 31.7717C7.37685 30.0602 5.3797 27.6272 4.20022 24.7806C3.02073 21.934 2.71189 18.8015 3.31274 15.7793C3.9136 12.7572 5.39716 9.98105 7.57582 7.80207C9.75448 5.62308 12.5304 4.13911 15.5525 3.5378C18.5745 2.9365 21.7071 3.24488 24.5539 4.42394C27.4007 5.60301 29.8339 7.59979 31.5458 10.1618C33.2578 12.7238 34.1715 15.7359 34.1715 18.8172C34.1666 22.9471 32.524 26.9065 29.604 29.827C26.6839 32.7474 22.7248 34.3906 18.5949 34.3961ZM18.5949 4.16503C15.6963 4.16457 12.8627 5.02371 10.4524 6.63379C8.04217 8.24387 6.16351 10.5326 5.05406 13.2104C3.94461 15.8883 3.6542 18.835 4.21958 21.6779C4.78495 24.5208 6.1807 27.1322 8.23031 29.1818C10.2799 31.2314 12.8913 32.6272 15.7342 33.1925C18.5771 33.7579 21.5238 33.4675 24.2017 32.3581C26.8796 31.2486 29.1683 29.37 30.7783 26.9597C32.3884 24.5494 33.2476 21.7158 33.2471 18.8172C33.2428 14.9325 31.6977 11.2082 28.9508 8.46128C26.204 5.71439 22.4796 4.16931 18.5949 4.16503Z" fill="#F38B20"/>
<path d="M14.1285 18.0925C14.0943 18.0925 14.0771 17.9701 14.0771 17.7253C14.0771 17.4804 14.0943 17.358 14.1285 17.358H19.527C20.5381 16.4835 21.0437 15.2592 21.0437 13.6851C21.0437 12.7582 20.8209 12.0324 20.3753 11.5077C19.9469 10.9655 19.3385 10.6944 18.5501 10.6944C17.8646 10.6944 17.2905 10.8955 16.8278 11.2978C16.365 11.7 15.9966 12.181 15.7224 12.7407C15.4653 13.3004 15.1825 14.0174 14.874 14.8919C14.8569 14.9444 14.8055 14.9706 14.7198 14.9706C14.6341 14.9531 14.5913 14.9269 14.5913 14.8919L14.3085 11.6388V11.5077C14.3085 11.4027 14.3256 11.324 14.3599 11.2716C14.4113 11.2016 14.5141 11.1316 14.6684 11.0617C15.0968 10.8868 15.7738 10.7031 16.6992 10.5107C17.6247 10.3184 18.5244 10.2222 19.3985 10.2222C20.8209 10.2222 21.9434 10.5107 22.7661 11.0879C23.5887 11.6476 24 12.4521 24 13.5015C24 14.2361 23.7943 14.9444 23.383 15.6265C22.9889 16.3086 22.4319 16.8857 21.7121 17.358H23.8715C23.9229 17.358 23.9486 17.4804 23.9486 17.7253C23.9486 17.9701 23.9229 18.0925 23.8715 18.0925H14.1285ZM24 25.9367C24 26.0416 23.9743 26.1203 23.9229 26.1728C23.8886 26.2253 23.7943 26.2865 23.6401 26.3564C23.1945 26.5313 22.509 26.715 21.5835 26.9074C20.6581 27.1172 19.7669 27.2222 18.91 27.2222C17.4362 27.2222 16.2451 26.9074 15.3368 26.2777C14.4456 25.6306 14 24.7649 14 23.6805C14 22.9459 14.2142 22.2726 14.6427 21.6604C15.0711 21.0483 15.671 20.5149 16.4422 20.0601H14.1285C14.0943 20.0601 14.0771 19.9377 14.0771 19.6928C14.0771 19.448 14.0943 19.3256 14.1285 19.3256H23.8715C23.9229 19.3256 23.9486 19.448 23.9486 19.6928C23.9486 19.9377 23.9229 20.0601 23.8715 20.0601H18.7301C18.1474 20.4974 17.7018 20.9783 17.3933 21.503C17.102 22.0277 16.9563 22.6923 16.9563 23.4969C16.9563 24.4413 17.1962 25.2109 17.6761 25.8055C18.1731 26.4002 18.8329 26.6975 19.6555 26.6975C20.3068 26.6975 20.8638 26.5051 21.3265 26.1203C21.7892 25.7355 22.1662 25.2721 22.4576 24.7299C22.7661 24.1702 23.0917 23.4444 23.4344 22.5524C23.4516 22.4825 23.503 22.4562 23.5887 22.4737C23.6744 22.4737 23.7172 22.4999 23.7172 22.5524L24 25.8055V25.9367Z" fill="#FC6A00"/>
<path d="M70.5529 5.49817V23.4344C70.2802 23.2495 70.0121 23.0554 69.751 22.8566V5.49817H70.5529Z" fill="#6D6D6D"/>
<path d="M78.0179 21.4516C78.0178 22.2055 77.9726 22.9586 77.8827 23.707C77.5953 26.1192 76.839 28.4518 75.6563 30.5733C75.4046 31.0258 75.1349 31.4666 74.8474 31.8958C74.4135 32.5424 73.9402 33.1617 73.43 33.75C73.1689 34.0485 72.8985 34.3424 72.621 34.6222C72.1712 35.0793 71.6981 35.513 71.2036 35.9213C70.9402 36.1406 70.6698 36.3505 70.3947 36.5557C69.9285 36.8916 69.4622 37.2111 68.9773 37.5073C68.7115 37.6683 68.4411 37.8222 68.1684 37.9738C67.7021 38.2226 67.2296 38.4558 66.751 38.6735C66.4829 38.7901 66.2148 38.9067 65.942 39.0047C65.4758 39.1796 65.0095 39.3405 64.5246 39.4711C64.2565 39.5504 63.9884 39.6227 63.7157 39.688C63.2494 39.8031 62.777 39.8987 62.2983 39.9749C62.0302 40.0192 61.7598 40.0565 61.4893 40.0892C61.0231 40.1452 60.5568 40.1825 60.0719 40.2035C59.8038 40.2151 59.5334 40.2221 59.263 40.2221C58.7843 40.2221 58.3118 40.2035 57.8456 40.1662C57.5728 40.1475 57.3047 40.1218 57.0367 40.0892C56.5704 40.0332 56.0832 39.9586 55.6193 39.8676C55.3465 39.814 55.0761 39.7533 54.808 39.688C54.3277 39.5714 53.8561 39.4361 53.3929 39.2822C53.1202 39.1936 52.8497 39.098 52.5816 38.9977C52.1014 38.8134 51.6282 38.6082 51.1666 38.3866C50.8915 38.256 50.6211 38.1184 50.3553 37.9738C49.7991 37.6726 49.2591 37.3425 48.7374 36.9849C48.4623 36.8006 48.1919 36.6047 47.9261 36.4041C47.4342 36.031 46.9633 35.6321 46.5111 35.2123C46.2313 34.9558 45.9632 34.6875 45.6998 34.4147C45.1958 33.8879 44.7233 33.3319 44.2847 32.7494C44.0003 32.3716 43.7299 31.9828 43.4735 31.5832C42.9317 30.741 42.4585 29.8565 42.0584 28.9384C41.7399 28.2088 41.4689 27.4593 41.2471 26.6947C40.5315 24.2187 40.3332 21.6217 40.6648 19.0657C40.9964 16.5097 41.8506 14.0494 43.1743 11.8382C44.498 9.62694 46.2627 7.71218 48.3585 6.21323C50.4543 4.71428 52.8363 3.66328 55.3559 3.12573C57.8755 2.58818 60.4788 2.5756 63.0035 3.08879C65.5282 3.60197 67.9201 4.62991 70.0303 6.10854C72.1405 7.58717 73.9236 9.4848 75.2686 11.6831C76.6135 13.8815 77.4915 16.3334 77.8477 18.8861C77.864 18.9887 77.8757 19.0913 77.8873 19.1963C77.9757 19.9448 78.0193 20.6979 78.0179 21.4516Z" fill="#F38B20"/>
<path d="M51.0777 19.085V38.4055C50.805 38.2761 50.5369 38.1397 50.2734 37.9964V19.085H51.0777Z" fill="#FF7300"/>
<path d="M53.2847 19.085V39.2906C53.0143 39.2028 52.7462 39.1081 52.4805 39.0087V19.085H53.2847Z" fill="#FF7300"/>
<path d="M55.4918 19.085V39.8707C55.2214 39.8176 54.9533 39.7575 54.6875 39.6928V19.085H55.4918Z" fill="#FF7300"/>
<path d="M57.6984 19.085V40.1665C57.428 40.1481 57.1623 40.1226 56.8965 40.0903V19.085H57.6984Z" fill="#FF7300"/>
<path d="M59.9055 19.085V40.2035C59.6397 40.2151 59.3716 40.222 59.1035 40.222V19.085H59.9055Z" fill="#FF7300"/>
<path d="M62.1125 19.085V39.977C61.8467 40.0209 61.5786 40.0579 61.3105 40.0903V19.085H62.1125Z" fill="#FF7300"/>
<path d="M64.3127 19.085V39.4778C64.0469 39.5564 63.7811 39.6281 63.5107 39.6928V19.085H64.3127Z" fill="#FF7300"/>
<path d="M66.5266 19.085V38.6805C66.2608 38.7961 65.995 38.9116 65.7246 39.0087V19.085H66.5266Z" fill="#FF7300"/>
<path d="M68.7346 19.085V37.5365C68.4711 37.696 68.203 37.8485 67.9326 37.9988V19.085H68.7346Z" fill="#FF7300"/>
<path d="M70.9416 19.085V35.9558C70.6804 36.173 70.4124 36.381 70.1396 36.5844V19.085H70.9416Z" fill="#FF7300"/>
<path d="M73.1476 19.085V33.8134C72.8888 34.1092 72.6207 34.4004 72.3457 34.6778V19.085H73.1476Z" fill="#FF7300"/>
<path d="M75.3547 19.085V30.6657C75.1051 31.1141 74.8378 31.5509 74.5527 31.9761V19.085H75.3547Z" fill="#FF7300"/>
<path d="M77.5617 19.085V23.8619C77.4156 25.0875 77.1469 26.2953 76.7598 27.4672V19.085H77.5617Z" fill="#FF7300"/>
<path d="M42.0484 19.085V29.0457C41.7327 28.3227 41.4641 27.5801 41.2441 26.8224V19.085H42.0484Z" fill="#FF7300"/>
<path d="M44.2554 19.085V32.822C43.9735 32.4476 43.7054 32.0624 43.4512 31.6664V19.085H44.2554Z" fill="#FF7300"/>
<path d="M46.4625 19.085V35.2625C46.1851 35.0082 45.9194 34.7425 45.6582 34.4721V19.085H46.4625Z" fill="#FF7300"/>
<path d="M48.6695 19.085V37.0189C48.3968 36.8363 48.1287 36.6422 47.8652 36.4434V19.085H48.6695Z" fill="#FF7300"/>
<path d="M59.1037 37.4119C69.3733 37.4119 77.6985 29.0867 77.6985 18.817C77.6985 8.54738 69.3733 0.222168 59.1037 0.222168C48.834 0.222168 40.5088 8.54738 40.5088 18.817C40.5088 29.0867 48.834 37.4119 59.1037 37.4119Z" fill="#FBD609"/>
<path d="M59.1037 34.3961C56.0224 34.3966 53.0101 33.4833 50.4479 31.7717C47.8856 30.0602 45.8885 27.6272 44.709 24.7806C43.5295 21.934 43.2207 18.8015 43.8215 15.7793C44.4224 12.7572 45.906 9.98105 48.0846 7.80207C50.2633 5.62308 53.0392 4.13911 56.0612 3.5378C59.0833 2.9365 62.2158 3.24488 65.0627 4.42394C67.9095 5.60301 70.3427 7.59979 72.0546 10.1618C73.7666 12.7238 74.6803 15.7359 74.6803 18.8172C74.6754 22.9471 73.0328 26.9065 70.1128 29.827C67.1927 32.7474 63.2336 34.3906 59.1037 34.3961ZM59.1037 4.16503C56.2051 4.16457 53.3715 5.02371 50.9612 6.63379C48.551 8.24387 46.6723 10.5326 45.5628 13.2104C44.4534 15.8883 44.163 18.835 44.7284 21.6779C45.2937 24.5208 46.6895 27.1322 48.7391 29.1818C50.7887 31.2314 53.4001 32.6272 56.243 33.1925C59.0859 33.7579 62.0326 33.4675 64.7105 32.3581C67.3883 31.2486 69.677 29.37 71.2871 26.9597C72.8972 24.5494 73.7563 21.7158 73.7559 18.8172C73.7516 14.9325 72.2065 11.2082 69.4596 8.46128C66.7127 5.71439 62.9884 4.16931 59.1037 4.16503Z" fill="#F38B20"/>
<path d="M54.6373 18.0925C54.603 18.0925 54.5859 17.9701 54.5859 17.7253C54.5859 17.4804 54.603 17.358 54.6373 17.358H60.0358C61.0469 16.4835 61.5525 15.2592 61.5525 13.6851C61.5525 12.7582 61.3297 12.0324 60.8841 11.5077C60.4557 10.9655 59.8473 10.6944 59.0589 10.6944C58.3734 10.6944 57.7993 10.8955 57.3366 11.2978C56.8738 11.7 56.5054 12.181 56.2312 12.7407C55.9741 13.3004 55.6913 14.0174 55.3828 14.8919C55.3657 14.9444 55.3143 14.9706 55.2286 14.9706C55.1429 14.9531 55.1 14.9269 55.1 14.8919L54.8173 11.6388V11.5077C54.8173 11.4027 54.8344 11.324 54.8687 11.2716C54.9201 11.2016 55.0229 11.1316 55.1772 11.0617C55.6056 10.8868 56.2826 10.7031 57.208 10.5107C58.1335 10.3184 59.0332 10.2222 59.9072 10.2222C61.3297 10.2222 62.4522 10.5107 63.2749 11.0879C64.0975 11.6476 64.5088 12.4521 64.5088 13.5015C64.5088 14.2361 64.3031 14.9444 63.8918 15.6265C63.4976 16.3086 62.9407 16.8857 62.2209 17.358H64.3803C64.4317 17.358 64.4574 17.4804 64.4574 17.7253C64.4574 17.9701 64.4317 18.0925 64.3803 18.0925H54.6373ZM64.5088 25.9367C64.5088 26.0416 64.4831 26.1203 64.4317 26.1728C64.3974 26.2253 64.3031 26.2865 64.1489 26.3564C63.7033 26.5313 63.0178 26.715 62.0923 26.9074C61.1669 27.1172 60.2757 27.2222 59.4188 27.2222C57.945 27.2222 56.7539 26.9074 55.8455 26.2777C54.9544 25.6306 54.5088 24.7649 54.5088 23.6805C54.5088 22.9459 54.723 22.2726 55.1515 21.6604C55.5799 21.0483 56.1797 20.5149 56.9509 20.0601H54.6373C54.603 20.0601 54.5859 19.9377 54.5859 19.6928C54.5859 19.448 54.603 19.3256 54.6373 19.3256H64.3803C64.4317 19.3256 64.4574 19.448 64.4574 19.6928C64.4574 19.9377 64.4317 20.0601 64.3803 20.0601H59.2389C58.6562 20.4974 58.2106 20.9783 57.9021 21.503C57.6108 22.0277 57.4651 22.6923 57.4651 23.4969C57.4651 24.4413 57.705 25.2109 58.1849 25.8055C58.6819 26.4002 59.3417 26.6975 60.1643 26.6975C60.8156 26.6975 61.3725 26.5051 61.8353 26.1203C62.298 25.7355 62.675 25.2721 62.9664 24.7299C63.2749 24.1702 63.6005 23.4444 63.9432 22.5524C63.9604 22.4825 64.0118 22.4562 64.0975 22.4737C64.1832 22.4737 64.226 22.4999 64.226 22.5524L64.5088 25.8055V25.9367Z" fill="#FC6A00"/>
<path d="M111.063 5.49817V23.4344C110.79 23.2495 110.522 23.0554 110.261 22.8566V5.49817H111.063Z" fill="#6D6D6D"/>
<path d="M118.528 21.4516C118.528 22.2055 118.482 22.9586 118.392 23.707C118.105 26.1192 117.349 28.4518 116.166 30.5733C115.914 31.0258 115.645 31.4666 115.357 31.8958C114.923 32.5424 114.45 33.1617 113.94 33.75C113.679 34.0485 113.408 34.3424 113.131 34.6222C112.681 35.0793 112.208 35.513 111.713 35.9213C111.45 36.1406 111.18 36.3505 110.904 36.5557C110.438 36.8916 109.972 37.2111 109.487 37.5073C109.221 37.6683 108.951 37.8222 108.678 37.9738C108.212 38.2226 107.739 38.4558 107.261 38.6735C106.993 38.7901 106.725 38.9067 106.452 39.0047C105.986 39.1796 105.519 39.3405 105.034 39.4711C104.766 39.5504 104.498 39.6227 104.225 39.688C103.759 39.8031 103.287 39.8987 102.808 39.9749C102.54 40.0192 102.27 40.0565 101.999 40.0892C101.533 40.1452 101.067 40.1825 100.582 40.2035C100.314 40.2151 100.043 40.2221 99.7728 40.2221C99.2941 40.2221 98.8216 40.2035 98.3554 40.1662C98.0826 40.1475 97.8145 40.1218 97.5464 40.0892C97.0802 40.0332 96.5929 39.9586 96.129 39.8676C95.8563 39.814 95.5858 39.7533 95.3177 39.688C94.8375 39.5714 94.3658 39.4361 93.9027 39.2822C93.6299 39.1936 93.3595 39.098 93.0914 38.9977C92.6112 38.8134 92.1379 38.6082 91.6763 38.3866C91.4012 38.256 91.1308 38.1184 90.8651 37.9738C90.3089 37.6726 89.7689 37.3425 89.2472 36.9849C88.9721 36.8006 88.7017 36.6047 88.4359 36.4041C87.944 36.031 87.4731 35.6321 87.0208 35.2123C86.7411 34.9558 86.473 34.6875 86.2096 34.4147C85.7055 33.8879 85.233 33.3319 84.7945 32.7494C84.5101 32.3716 84.2397 31.9828 83.9832 31.5832C83.4415 30.741 82.9683 29.8565 82.5681 28.9384C82.2497 28.2088 81.9787 27.4593 81.7569 26.6947C81.0412 24.2187 80.843 21.6217 81.1746 19.0657C81.5061 16.5097 82.3604 14.0494 83.6841 11.8382C85.0077 9.62694 86.7725 7.71218 88.8683 6.21323C90.9641 4.71428 93.346 3.66328 95.8656 3.12573C98.3853 2.58818 100.989 2.5756 103.513 3.08879C106.038 3.60197 108.43 4.62991 110.54 6.10854C112.65 7.58717 114.433 9.4848 115.778 11.6831C117.123 13.8815 118.001 16.3334 118.357 18.8861C118.374 18.9887 118.385 19.0913 118.397 19.1963C118.485 19.9448 118.529 20.6979 118.528 21.4516Z" fill="#F38B20"/>
<path d="M91.5875 19.085V38.4055C91.3147 38.2761 91.0467 38.1397 90.7832 37.9964V19.085H91.5875Z" fill="#FF7300"/>
<path d="M93.7945 19.085V39.2906C93.5241 39.2028 93.256 39.1081 92.9902 39.0087V19.085H93.7945Z" fill="#FF7300"/>
<path d="M96.0015 19.085V39.8707C95.7311 39.8176 95.463 39.7575 95.1973 39.6928V19.085H96.0015Z" fill="#FF7300"/>
<path d="M98.2082 19.085V40.1665C97.9378 40.1481 97.672 40.1226 97.4062 40.0903V19.085H98.2082Z" fill="#FF7300"/>
<path d="M100.415 19.085V40.2035C100.149 40.2151 99.8814 40.222 99.6133 40.222V19.085H100.415Z" fill="#FF7300"/>
<path d="M102.622 19.085V39.977C102.356 40.0209 102.088 40.0579 101.82 40.0903V19.085H102.622Z" fill="#FF7300"/>
<path d="M104.822 19.085V39.4778C104.557 39.5564 104.291 39.6281 104.021 39.6928V19.085H104.822Z" fill="#FF7300"/>
<path d="M107.036 19.085V38.6805C106.771 38.7961 106.505 38.9116 106.234 39.0087V19.085H107.036Z" fill="#FF7300"/>
<path d="M109.244 19.085V37.5365C108.981 37.696 108.713 37.8485 108.442 37.9988V19.085H109.244Z" fill="#FF7300"/>
<path d="M111.451 19.085V35.9558C111.19 36.173 110.922 36.381 110.649 36.5844V19.085H111.451Z" fill="#FF7300"/>
<path d="M113.657 19.085V33.8134C113.399 34.1092 113.13 34.4004 112.855 34.6778V19.085H113.657Z" fill="#FF7300"/>
<path d="M115.864 19.085V30.6657C115.615 31.1141 115.348 31.5509 115.062 31.9761V19.085H115.864Z" fill="#FF7300"/>
<path d="M118.071 19.085V23.8619C117.925 25.0875 117.657 26.2953 117.27 27.4672V19.085H118.071Z" fill="#FF7300"/>
<path d="M82.5582 19.085V29.0457C82.2425 28.3227 81.9738 27.5801 81.7539 26.8224V19.085H82.5582Z" fill="#FF7300"/>
<path d="M84.7652 19.085V32.822C84.4832 32.4476 84.2152 32.0624 83.9609 31.6664V19.085H84.7652Z" fill="#FF7300"/>
<path d="M86.9722 19.085V35.2625C86.6949 35.0082 86.4291 34.7425 86.168 34.4721V19.085H86.9722Z" fill="#FF7300"/>
<path d="M89.1793 19.085V37.0189C88.9065 36.8363 88.6385 36.6422 88.375 36.4434V19.085H89.1793Z" fill="#FF7300"/>
<path d="M99.6134 37.4119C109.883 37.4119 118.208 29.0867 118.208 18.817C118.208 8.54738 109.883 0.222168 99.6134 0.222168C89.3438 0.222168 81.0186 8.54738 81.0186 18.817C81.0186 29.0867 89.3438 37.4119 99.6134 37.4119Z" fill="#FBD609"/>
<path d="M99.6135 34.3961C96.5321 34.3966 93.5199 33.4833 90.9577 31.7717C88.3954 30.0602 86.3983 27.6272 85.2188 24.7806C84.0393 21.934 83.7304 18.8015 84.3313 15.7793C84.9322 12.7572 86.4157 9.98105 88.5944 7.80207C90.773 5.62308 93.5489 4.13911 96.571 3.5378C99.5931 2.9365 102.726 3.24488 105.572 4.42394C108.419 5.60301 110.852 7.59979 112.564 10.1618C114.276 12.7238 115.19 15.7359 115.19 18.8172C115.185 22.9471 113.543 26.9065 110.623 29.827C107.702 32.7474 103.743 34.3906 99.6135 34.3961ZM99.6135 4.16503C96.7149 4.16457 93.8813 5.02371 91.471 6.63379C89.0607 8.24387 87.1821 10.5326 86.0726 13.2104C84.9632 15.8883 84.6728 18.835 85.2381 21.6779C85.8035 24.5208 87.1993 27.1322 89.2489 29.1818C91.2985 31.2314 93.9099 32.6272 96.7528 33.1925C99.5957 33.7579 102.542 33.4675 105.22 32.3581C107.898 31.2486 110.187 29.37 111.797 26.9597C113.407 24.5494 114.266 21.7158 114.266 18.8172C114.261 14.9325 112.716 11.2082 109.969 8.46128C107.223 5.71439 103.498 4.16931 99.6135 4.16503Z" fill="#F38B20"/>
<path d="M95.1471 18.0925C95.1128 18.0925 95.0957 17.9701 95.0957 17.7253C95.0957 17.4804 95.1128 17.358 95.1471 17.358H100.546C101.557 16.4835 102.062 15.2592 102.062 13.6851C102.062 12.7582 101.839 12.0324 101.394 11.5077C100.965 10.9655 100.357 10.6944 99.5687 10.6944C98.8832 10.6944 98.309 10.8955 97.8463 11.2978C97.3836 11.7 97.0151 12.181 96.7409 12.7407C96.4839 13.3004 96.2011 14.0174 95.8926 14.8919C95.8755 14.9444 95.824 14.9706 95.7383 14.9706C95.6527 14.9531 95.6098 14.9269 95.6098 14.8919L95.327 11.6388V11.5077C95.327 11.4027 95.3442 11.324 95.3785 11.2716C95.4299 11.2016 95.5327 11.1316 95.6869 11.0617C96.1154 10.8868 96.7923 10.7031 97.7178 10.5107C98.6432 10.3184 99.543 10.2222 100.417 10.2222C101.839 10.2222 102.962 10.5107 103.785 11.0879C104.607 11.6476 105.019 12.4521 105.019 13.5015C105.019 14.2361 104.813 14.9444 104.402 15.6265C104.007 16.3086 103.45 16.8857 102.731 17.358H104.89C104.941 17.358 104.967 17.4804 104.967 17.7253C104.967 17.9701 104.941 18.0925 104.89 18.0925H95.1471ZM105.019 25.9367C105.019 26.0416 104.993 26.1203 104.941 26.1728C104.907 26.2253 104.813 26.2865 104.659 26.3564C104.213 26.5313 103.528 26.715 102.602 26.9074C101.677 27.1172 100.785 27.2222 99.9286 27.2222C98.4547 27.2222 97.2636 26.9074 96.3553 26.2777C95.4641 25.6306 95.0186 24.7649 95.0186 23.6805C95.0186 22.9459 95.2328 22.2726 95.6612 21.6604C96.0897 21.0483 96.6895 20.5149 97.4607 20.0601H95.1471C95.1128 20.0601 95.0957 19.9377 95.0957 19.6928C95.0957 19.448 95.1128 19.3256 95.1471 19.3256H104.89C104.941 19.3256 104.967 19.448 104.967 19.6928C104.967 19.9377 104.941 20.0601 104.89 20.0601H99.7486C99.1659 20.4974 98.7204 20.9783 98.4119 21.503C98.1205 22.0277 97.9749 22.6923 97.9749 23.4969C97.9749 24.4413 98.2148 25.2109 98.6946 25.8055C99.1916 26.4002 99.8515 26.6975 100.674 26.6975C101.325 26.6975 101.882 26.5051 102.345 26.1203C102.808 25.7355 103.185 25.2721 103.476 24.7299C103.785 24.1702 104.11 23.4444 104.453 22.5524C104.47 22.4825 104.522 22.4562 104.607 22.4737C104.693 22.4737 104.736 22.4999 104.736 22.5524L105.019 25.8055V25.9367Z" fill="#FC6A00"/>
</svg>
