<svg width="38" height="40" viewBox="0 0 38 40" fill="none" xmlns="http://www.w3.org/2000/svg">
<path d="M30.0441 5.276V23.2122C29.7714 23.0273 29.5033 22.8332 29.2422 22.6344V5.276H30.0441Z" fill="#6D6D6D"/>
<path d="M37.5091 21.2295C37.509 21.9833 37.4638 22.7364 37.3739 23.4848C37.0865 25.897 36.3302 28.2296 35.1475 30.3512C34.8958 30.8036 34.6261 31.2445 34.3386 31.6736C33.9047 32.3203 33.4314 32.9395 32.9212 33.5278C32.6601 33.8263 32.3897 34.1202 32.1123 34.4001C31.6624 34.8572 31.1893 35.2908 30.6949 35.6992C30.4314 35.9184 30.161 36.1283 29.8859 36.3336C29.4197 36.6694 28.9534 36.989 28.4685 37.2852C28.2028 37.4461 27.9323 37.6 27.6596 37.7516C27.1933 38.0004 26.7209 38.2336 26.2422 38.4513C25.9741 38.5679 25.706 38.6845 25.4332 38.7825C24.967 38.9574 24.5007 39.1184 24.0158 39.249C23.7477 39.3283 23.4796 39.4006 23.2069 39.4659C22.7406 39.5809 22.2682 39.6766 21.7895 39.7527C21.5214 39.7971 21.251 39.8344 20.9805 39.867C20.5143 39.923 20.048 39.9603 19.5631 39.9813C19.2951 39.993 19.0246 40 18.7542 40C18.2755 40 17.8031 39.9813 17.3368 39.944C17.064 39.9253 16.796 39.8997 16.5279 39.867C16.0616 39.8111 15.5744 39.7364 15.1105 39.6455C14.8377 39.5918 14.5673 39.5312 14.2992 39.4659C13.819 39.3493 13.3473 39.214 12.8841 39.0601C12.6114 38.9714 12.3409 38.8758 12.0728 38.7755C11.5926 38.5913 11.1194 38.386 10.6578 38.1644C10.3827 38.0338 10.1123 37.8962 9.84651 37.7516C9.29034 37.4504 8.7503 37.1204 8.22862 36.7627C7.95353 36.5785 7.68311 36.3825 7.41734 36.182C6.92545 35.8088 6.45454 35.41 6.00228 34.9902C5.72253 34.7336 5.45443 34.4654 5.191 34.1925C4.68697 33.6657 4.21446 33.1097 3.77594 32.5272C3.49152 32.1494 3.2211 31.7607 2.96466 31.3611C2.42292 30.5188 1.94971 29.6343 1.54959 28.7162C1.23114 27.9866 0.96015 27.2371 0.738319 26.4725C0.022668 23.9965 -0.175552 21.3996 0.156013 18.8436C0.487578 16.2875 1.34182 13.8272 2.6655 11.616C3.98918 9.40478 5.75391 7.49001 7.84972 5.99106C9.94552 4.49212 12.3275 3.44111 14.8471 2.90356C17.3667 2.36601 19.97 2.35343 22.4947 2.86662C25.0194 3.3798 27.4113 4.40774 29.5215 5.88637C31.6317 7.365 33.4148 9.26263 34.7598 11.461C36.1047 13.6593 36.9827 16.1112 37.3389 18.6639C37.3552 18.7666 37.3669 18.8692 37.3785 18.9741C37.4669 19.7226 37.5105 20.4758 37.5091 21.2295Z" fill="#F38B20"/>
<path d="M10.5689 18.8628V38.1833C10.2962 38.0539 10.0281 37.9176 9.76465 37.7743V18.8628H10.5689Z" fill="#FF7300"/>
<path d="M12.7759 18.8628V39.0685C12.5055 38.9807 12.2375 38.8859 11.9717 38.7865V18.8628H12.7759Z" fill="#FF7300"/>
<path d="M14.983 18.8628V39.6486C14.7126 39.5954 14.4445 39.5353 14.1787 39.4706V18.8628H14.983Z" fill="#FF7300"/>
<path d="M17.1896 18.8628V39.9444C16.9192 39.9259 16.6535 39.9005 16.3877 39.8681V18.8628H17.1896Z" fill="#FF7300"/>
<path d="M19.3967 18.8628V39.9814C19.1309 39.9929 18.8628 39.9998 18.5947 39.9998V18.8628H19.3967Z" fill="#FF7300"/>
<path d="M21.6037 18.8628V39.7549C21.3379 39.7988 21.0698 39.8358 20.8018 39.8681V18.8628H21.6037Z" fill="#FF7300"/>
<path d="M23.8039 18.8628V39.2557C23.5381 39.3343 23.2723 39.4059 23.002 39.4706V18.8628H23.8039Z" fill="#FF7300"/>
<path d="M26.0178 18.8628V38.4584C25.752 38.5739 25.4862 38.6895 25.2158 38.7865V18.8628H26.0178Z" fill="#FF7300"/>
<path d="M28.2258 18.8628V37.3144C27.9623 37.4738 27.6942 37.6264 27.4238 37.7766V18.8628H28.2258Z" fill="#FF7300"/>
<path d="M30.4328 18.8628V35.7336C30.1716 35.9508 29.9036 36.1588 29.6309 36.3622V18.8628H30.4328Z" fill="#FF7300"/>
<path d="M32.6389 18.8628V33.5912C32.38 33.8871 32.1119 34.1783 31.8369 34.4556V18.8628H32.6389Z" fill="#FF7300"/>
<path d="M34.8459 18.8628V30.4436C34.5963 30.8919 34.329 31.3287 34.0439 31.7539V18.8628H34.8459Z" fill="#FF7300"/>
<path d="M37.0529 18.8628V23.6398C36.9068 24.8653 36.6381 26.0731 36.251 27.245V18.8628H37.0529Z" fill="#FF7300"/>
<path d="M1.5396 18.8628V28.8235C1.22391 28.1005 0.955262 27.3579 0.735352 26.6003V18.8628H1.5396Z" fill="#FF7300"/>
<path d="M3.74664 18.8628V32.5998C3.46468 32.2254 3.1966 31.8402 2.94238 31.4443V18.8628H3.74664Z" fill="#FF7300"/>
<path d="M5.95367 18.8628V35.0403C5.67634 34.7861 5.41056 34.5203 5.14941 34.2499V18.8628H5.95367Z" fill="#FF7300"/>
<path d="M8.1607 18.8628V36.7967C7.88799 36.6141 7.61991 36.42 7.35645 36.2212V18.8628H8.1607Z" fill="#FF7300"/>
<path d="M18.5949 37.1897C28.8645 37.1897 37.1897 28.8645 37.1897 18.5949C37.1897 8.32521 28.8645 0 18.5949 0C8.32521 0 0 8.32521 0 18.5949C0 28.8645 8.32521 37.1897 18.5949 37.1897Z" fill="#FBD609"/>
<path d="M18.5949 34.174C15.5136 34.1744 12.5013 33.2611 9.9391 31.5496C7.37685 29.838 5.3797 27.4051 4.20022 24.5584C3.02073 21.7118 2.71189 18.5793 3.31274 15.5572C3.9136 12.535 5.39716 9.75888 7.57582 7.5799C9.75448 5.40092 12.5304 3.91694 15.5525 3.31563C18.5745 2.71433 21.7071 3.02271 24.5539 4.20177C27.4007 5.38084 29.8339 7.37763 31.5458 9.93962C33.2578 12.5016 34.1715 15.5137 34.1715 18.595C34.1666 22.7249 32.524 26.6843 29.604 29.6048C26.6839 32.5253 22.7248 34.1685 18.5949 34.174ZM18.5949 3.94286C15.6963 3.9424 12.8627 4.80154 10.4524 6.41162C8.04217 8.0217 6.16351 10.3104 5.05406 12.9883C3.94461 15.6661 3.6542 18.6128 4.21958 21.4557C4.78495 24.2986 6.1807 26.91 8.23031 28.9597C10.2799 31.0093 12.8913 32.405 15.7342 32.9704C18.5771 33.5358 21.5238 33.2453 24.2017 32.1359C26.8796 31.0264 29.1683 29.1478 30.7783 26.7375C32.3884 24.3272 33.2476 21.4936 33.2471 18.595C33.2428 14.7104 31.6977 10.986 28.9508 8.23911C26.204 5.49222 22.4796 3.94714 18.5949 3.94286Z" fill="#F38B20"/>
<path d="M14.1285 17.8704C14.0943 17.8704 14.0771 17.7479 14.0771 17.5031C14.0771 17.2582 14.0943 17.1358 14.1285 17.1358H19.527C20.5381 16.2613 21.0437 15.037 21.0437 13.463C21.0437 12.536 20.8209 11.8102 20.3753 11.2855C19.9469 10.7433 19.3385 10.4722 18.5501 10.4722C17.8646 10.4722 17.2905 10.6734 16.8278 11.0756C16.365 11.4779 15.9966 11.9588 15.7224 12.5185C15.4653 13.0782 15.1825 13.7953 14.874 14.6698C14.8569 14.7222 14.8055 14.7485 14.7198 14.7485C14.6341 14.731 14.5913 14.7047 14.5913 14.6698L14.3085 11.4167V11.2855C14.3085 11.1806 14.3256 11.1019 14.3599 11.0494C14.4113 10.9794 14.5141 10.9095 14.6684 10.8395C15.0968 10.6646 15.7738 10.481 16.6992 10.2886C17.6247 10.0962 18.5244 10 19.3985 10C20.8209 10 21.9434 10.2886 22.7661 10.8657C23.5887 11.4254 24 12.2299 24 13.2793C24 14.0139 23.7943 14.7222 23.383 15.4043C22.9889 16.0864 22.4319 16.6636 21.7121 17.1358H23.8715C23.9229 17.1358 23.9486 17.2582 23.9486 17.5031C23.9486 17.7479 23.9229 17.8704 23.8715 17.8704H14.1285ZM24 25.7145C24 25.8194 23.9743 25.8981 23.9229 25.9506C23.8886 26.0031 23.7943 26.0643 23.6401 26.1343C23.1945 26.3092 22.509 26.4928 21.5835 26.6852C20.6581 26.8951 19.7669 27 18.91 27C17.4362 27 16.2451 26.6852 15.3368 26.0556C14.4456 25.4084 14 24.5427 14 23.4583C14 22.7238 14.2142 22.0504 14.6427 21.4383C15.0711 20.8261 15.671 20.2927 16.4422 19.838H14.1285C14.0943 19.838 14.0771 19.7155 14.0771 19.4707C14.0771 19.2258 14.0943 19.1034 14.1285 19.1034H23.8715C23.9229 19.1034 23.9486 19.2258 23.9486 19.4707C23.9486 19.7155 23.9229 19.838 23.8715 19.838H18.7301C18.1474 20.2752 17.7018 20.7562 17.3933 21.2809C17.102 21.8056 16.9563 22.4702 16.9563 23.2747C16.9563 24.2191 17.1962 24.9887 17.6761 25.5833C18.1731 26.178 18.8329 26.4753 19.6555 26.4753C20.3068 26.4753 20.8638 26.2829 21.3265 25.8981C21.7892 25.5134 22.1662 25.0499 22.4576 24.5077C22.7661 23.948 23.0917 23.2222 23.4344 22.3302C23.4516 22.2603 23.503 22.2341 23.5887 22.2515C23.6744 22.2515 23.7172 22.2778 23.7172 22.3302L24 25.5833V25.7145Z" fill="#FC6A00"/>
</svg>
