<svg width="25" height="41" viewBox="0 0 25 41" fill="none" xmlns="http://www.w3.org/2000/svg">
<path d="M12.3917 0C12.3917 0 7.68119e-06 15.8478 7.68119e-06 27.5903C-0.00753905 35.1897 5.54685 39.9968 12.3917 39.9968C19.2366 39.9968 24.791 35.1972 24.791 27.5978C24.791 15.8478 12.3917 0 12.3917 0Z" fill="#67D5F8"/>
<g opacity="0.05">
<path d="M13.3431 1.29297C16.6712 7.67737 20.2936 16.288 20.2936 23.5403C20.2936 32.2264 14.7393 37.7353 7.89437 37.7353C6.63191 37.7387 5.37665 37.5452 4.17383 37.1618C6.49192 39.049 9.40352 40.0543 12.3922 39.9993C19.2447 39.9993 24.7915 35.1997 24.7915 27.6003C24.7915 17.835 16.2335 5.2851 13.3431 1.29297Z" fill="black"/>
</g>
<path d="M6.84573 13.5058C7.60737 13.8317 8.66511 13.0668 9.20826 11.7975C9.75141 10.5281 9.57429 9.23492 8.81266 8.90903C8.05102 8.58315 6.99328 9.34799 6.45013 10.6174C5.90698 11.8867 6.0841 13.1799 6.84573 13.5058Z" fill="#D0F4FF"/>
<path d="M3.06414 16.6361C3.64371 17.2157 3.88847 15.9674 5.31063 15.3709C6.49607 14.8721 7.38057 15.4882 7.50897 14.8997C7.63736 14.3112 6.53574 13.6889 4.77253 14.3099C3.46092 14.7718 2.39273 15.963 3.06414 16.6361Z" fill="#231F20"/>
<path d="M20.9882 16.6903C20.3899 17.2493 20.1857 15.9948 18.7872 15.3471C17.6196 14.8072 16.7141 15.3916 16.6067 14.7992C16.4993 14.2067 17.6218 13.6231 19.3619 14.3057C20.6561 14.813 21.6824 16.0412 20.9882 16.6903Z" fill="#231F20"/>
<path d="M20.451 25.3117C22.0952 23.6675 22.0952 21.0017 20.451 19.3575C18.8068 17.7133 16.1409 17.7133 14.4967 19.3575C12.8524 21.0017 12.8524 23.6675 14.4967 25.3117C16.1409 26.9559 18.8067 26.9559 20.451 25.3117Z" fill="white"/>
<path d="M10.6653 23.4088C11.2231 21.1514 9.84528 18.8693 7.58788 18.3115C5.33048 17.7537 3.04829 19.1314 2.49048 21.3888C1.93267 23.6461 3.31046 25.9283 5.56786 26.4861C7.82526 27.0439 10.1074 25.6661 10.6653 23.4088Z" fill="white"/>
<path d="M9.05201 18.9989C9.58914 19.8241 9.81996 20.8115 9.70435 21.7893C9.58874 22.7671 9.13401 23.6735 8.41925 24.3507C7.70449 25.0279 6.77494 25.4331 5.7923 25.4959C4.80966 25.5586 3.83611 25.2749 3.04102 24.6941C3.37766 25.2114 3.82393 25.6482 4.34819 25.9738C4.87245 26.2994 5.46188 26.5057 6.07475 26.5782C6.68762 26.6506 7.30892 26.5874 7.89466 26.3931C8.48039 26.1987 9.01622 25.878 9.4642 25.4535C9.91219 25.0291 10.2614 24.5113 10.487 23.9369C10.7126 23.3625 10.8092 22.7456 10.7699 22.1297C10.7305 21.5138 10.5563 20.9141 10.2594 20.3731C9.96254 19.8321 9.55035 19.3629 9.05201 18.9989Z" fill="#EFEFEF"/>
<path d="M19.9485 18.9336C20.487 19.7588 20.719 20.7467 20.604 21.7253C20.489 22.704 20.0343 23.6112 19.3191 24.2891C18.6039 24.9669 17.6736 25.3724 16.6903 25.4349C15.7069 25.4974 14.7327 25.2129 13.9375 24.6311C14.274 25.1487 14.7202 25.586 15.2446 25.9119C15.7689 26.2379 16.3586 26.4445 16.9717 26.5172C17.5848 26.5898 18.2064 26.5268 18.7924 26.3324C19.3784 26.1381 19.9145 25.8172 20.3627 25.3926C20.8109 24.9679 21.1602 24.4499 21.3858 23.8752C21.6115 23.3006 21.7079 22.6833 21.6684 22.0672C21.6289 21.451 21.4543 20.8511 21.1571 20.31C20.8599 19.7689 20.4473 19.2997 19.9485 18.9358V18.9336Z" fill="#EFEFEF"/>
<path d="M6.57613 26.8008C5.7051 26.8009 4.8536 26.5427 4.12933 26.0589C3.40506 25.575 2.84055 24.8873 2.50718 24.0826C2.17381 23.2779 2.08657 22.3924 2.25647 21.5381C2.42638 20.6838 2.84581 19.8991 3.46172 19.2832C4.07763 18.6673 4.86236 18.2479 5.71665 18.078C6.57095 17.9081 7.45645 17.9953 8.26116 18.3287C9.06587 18.6621 9.75364 19.2266 10.2375 19.9508C10.7214 20.6751 10.9796 21.5266 10.9795 22.3976C10.9781 23.565 10.5137 24.6841 9.68822 25.5096C8.86274 26.3351 7.74354 26.7994 6.57613 26.8008ZM6.57613 18.3808C5.78166 18.3807 5.005 18.6162 4.34437 19.0575C3.68375 19.4989 3.16882 20.1262 2.86473 20.8601C2.56064 21.5941 2.48104 22.4017 2.63598 23.1809C2.79092 23.9601 3.17344 24.6759 3.73519 25.2377C4.29694 25.7995 5.01267 26.1821 5.79187 26.3371C6.57108 26.4921 7.37876 26.4126 8.11276 26.1086C8.84677 25.8046 9.47414 25.2898 9.91554 24.6292C10.3569 23.9686 10.5925 23.192 10.5925 22.3976C10.5914 21.3327 10.1678 20.3118 9.41487 19.5588C8.66192 18.8057 7.64102 18.3821 6.57613 18.3808Z" fill="#231F20"/>
<path d="M17.4737 26.7365C16.6028 26.7365 15.7514 26.4782 15.0273 25.9944C14.3032 25.5106 13.7388 24.8229 13.4055 24.0183C13.0722 23.2137 12.985 22.3283 13.1549 21.4742C13.3248 20.62 13.7442 19.8354 14.36 19.2196C14.9759 18.6038 15.7605 18.1844 16.6146 18.0145C17.4688 17.8446 18.3542 17.9318 19.1588 18.2651C19.9634 18.5984 20.6511 19.1628 21.1349 19.8869C21.6188 20.611 21.877 21.4623 21.877 22.3332C21.8759 23.5007 21.4116 24.62 20.586 25.4455C19.7605 26.271 18.6412 26.7353 17.4737 26.7365ZM17.4737 18.3164C16.6792 18.3164 15.9026 18.552 15.242 18.9934C14.5815 19.4348 14.0666 20.0621 13.7626 20.7961C13.4586 21.53 13.379 22.3377 13.534 23.1168C13.689 23.896 14.0716 24.6117 14.6333 25.1735C15.1951 25.7352 15.9108 26.1178 16.69 26.2728C17.4692 26.4278 18.2769 26.3482 19.0109 26.0442C19.7448 25.7402 20.3722 25.2253 20.8136 24.5648C21.2549 23.9042 21.4905 23.1276 21.4905 22.3332C21.4893 21.2683 21.0658 20.2473 20.3127 19.4942C19.5597 18.7412 18.5386 18.3176 17.4737 18.3164Z" fill="#231F20"/>
<path d="M8.9904 21.2504C8.16251 19.7012 6.57761 21.1786 6.57761 21.1786C6.57761 21.1786 4.99228 19.7012 4.16439 21.2504C3.43547 22.615 6.57761 24.7451 6.57761 24.7451C6.57761 24.7451 9.71931 22.615 8.9904 21.2504Z" fill="#EE7164"/>
<path d="M19.8885 21.3447C19.0611 19.7955 17.4757 21.2725 17.4757 21.2725C17.4757 21.2725 15.8904 19.7955 15.063 21.3447C14.3336 22.7094 17.4757 24.8394 17.4757 24.8394C17.4757 24.8394 20.6174 22.7094 19.8885 21.3447Z" fill="#EE7164"/>
<path d="M11.9568 33.5963C10.5886 33.5963 9.46026 32.9776 8.69166 31.8073C8.3411 31.27 8.08984 30.6742 7.94982 30.0481C7.93554 29.962 7.95549 29.8738 8.00542 29.8022C8.05534 29.7306 8.13128 29.6813 8.21702 29.665C8.30275 29.6486 8.39149 29.6664 8.46427 29.7146C8.53704 29.7628 8.58809 29.8375 8.60651 29.9229C8.7333 30.469 8.95529 30.9886 9.26231 31.4578C9.9092 32.4332 10.816 32.929 11.9568 32.929C13.0892 32.929 13.9929 32.394 14.6425 31.3347C14.9542 30.8176 15.1785 30.2526 15.3063 29.6625C15.324 29.5773 15.3743 29.5023 15.4464 29.4535C15.5185 29.4047 15.6068 29.386 15.6926 29.4013C15.7783 29.4167 15.8546 29.4648 15.9054 29.5356C15.9561 29.6063 15.9773 29.6941 15.9643 29.7802C15.8252 30.4461 15.5748 31.0837 15.2238 31.6664C14.4548 32.9285 13.3251 33.5963 11.9568 33.5963Z" fill="#231F20"/>
<path d="M6.76994 30.8606C6.72535 30.4477 6.75299 30.0086 6.94023 29.6315C7.02042 29.4617 7.13681 29.3115 7.28122 29.1915C7.42563 29.0716 7.59456 28.9846 7.77614 28.9369C7.97102 28.8876 8.17649 28.901 8.3633 28.9752C8.39255 28.9831 8.42371 28.9791 8.45007 28.9642C8.47642 28.9492 8.49585 28.9245 8.50417 28.8954C8.51141 28.8663 8.50716 28.8354 8.49231 28.8093C8.47746 28.7831 8.45314 28.7637 8.42437 28.755C8.03249 28.5981 7.57732 28.6975 7.23939 28.9333C6.86356 29.1972 6.64243 29.6172 6.56396 30.0639C6.51887 30.3265 6.51136 30.5941 6.54167 30.8588C6.54246 30.8888 6.55474 30.9174 6.57598 30.9386C6.59721 30.9598 6.62578 30.9721 6.6558 30.9729C6.686 30.9727 6.7149 30.9606 6.73625 30.9392C6.7576 30.9179 6.7697 30.889 6.76994 30.8588V30.8606Z" fill="#231F20"/>
<path d="M14.7593 29.1253C14.7833 29.083 14.8223 29.0512 14.8685 29.0361C14.9316 29.0133 14.9977 28.9998 15.0647 28.996C15.2522 28.9808 15.4407 28.9808 15.6282 28.996C15.9603 29.0236 16.3059 29.14 16.5016 29.4266C16.6031 29.5627 16.6466 29.7334 16.6224 29.9014C16.615 29.9306 16.6192 29.9615 16.6341 29.9877C16.649 30.0138 16.6734 30.0332 16.7022 30.0419C16.7314 30.0494 16.7624 30.0453 16.7886 30.0304C16.8148 30.0156 16.8342 29.991 16.8426 29.9621C16.9184 29.5582 16.6768 29.1721 16.3357 28.9688C15.9599 28.7459 15.4744 28.7325 15.05 28.7704C14.8387 28.7896 14.6238 28.8538 14.5391 29.0673C14.5313 29.0965 14.5352 29.1276 14.5502 29.1539C14.5651 29.1802 14.5898 29.1995 14.6189 29.2078C14.6481 29.2151 14.6789 29.2109 14.7051 29.196C14.7313 29.1812 14.7507 29.1568 14.7593 29.1279V29.1253Z" fill="#231F20"/>
</svg>
