<svg width="26" height="41" viewBox="0 0 26 41" fill="none" xmlns="http://www.w3.org/2000/svg">
<path d="M12.9953 0.222168C12.9953 0.222168 0.603523 16.0703 0.603523 27.813C0.595977 35.4126 6.15037 40.2199 12.9953 40.2199C19.8401 40.2199 25.3945 35.4201 25.3945 27.8206C25.3945 16.0703 12.9953 0.222168 12.9953 0.222168Z" fill="#67D5F8"/>
<path d="M22.7034 25.3914C23.352 23.3857 22.2519 21.2339 20.2461 20.5853C18.2404 19.9367 16.0886 21.0369 15.44 23.0426C14.7914 25.0483 15.8916 27.2001 17.8973 27.8487C19.9031 28.4973 22.0548 27.3972 22.7034 25.3914Z" fill="white"/>
<path d="M10.2274 25.0994C10.7149 23.0485 9.44748 20.9908 7.39661 20.5034C5.34574 20.0159 3.28803 21.2833 2.80058 23.3342C2.31313 25.3851 3.58052 27.4428 5.63139 27.9302C7.68226 28.4177 9.73997 27.1503 10.2274 25.0994Z" fill="white"/>
<path d="M8.75886 21.1349C9.24495 21.883 9.45361 22.7777 9.34858 23.6636C9.24354 24.5496 8.83145 25.3707 8.1839 25.9844C7.53636 26.598 6.69428 26.9655 5.80399 27.0228C4.9137 27.0801 4.03145 26.8237 3.31055 26.2982C3.61539 26.768 4.0199 27.1651 4.49538 27.4611C4.97086 27.7571 5.50566 27.9448 6.06183 28.0109C6.61799 28.0771 7.1819 28.02 7.71354 27.8438C8.24518 27.6675 8.73152 27.3765 9.13805 26.9912C9.54458 26.6059 9.86135 26.1359 10.0659 25.6145C10.2704 25.0931 10.3576 24.5331 10.3214 23.9741C10.2853 23.4152 10.1265 22.8711 9.85646 22.3804C9.58641 21.8897 9.21168 21.4645 8.75886 21.1349Z" fill="#EFEFEF"/>
<path d="M21.317 21.1349C21.8039 21.8831 22.0131 22.7783 21.9082 23.6647C21.8033 24.5512 21.391 25.3729 20.743 25.9868C20.095 26.6008 19.2523 26.9681 18.3615 27.025C17.4706 27.0819 16.588 26.8247 15.8672 26.2982C16.1724 26.7672 16.5769 27.1633 17.0522 27.4585C17.5275 27.7538 18.0619 27.9409 18.6176 28.0066C19.1732 28.0724 19.7366 28.0151 20.2676 27.8389C20.7987 27.6627 21.2845 27.3719 21.6907 26.9871C22.0969 26.6023 22.4135 26.1328 22.6181 25.612C22.8226 25.0913 22.9102 24.5319 22.8746 23.9735C22.8389 23.4151 22.6809 22.8713 22.4117 22.3808C22.1426 21.8903 21.7688 21.4649 21.317 21.1349Z" fill="#EFEFEF"/>
<path d="M6.51808 28.2093C5.72838 28.2093 4.95641 27.9751 4.29981 27.5363C3.6432 27.0976 3.13145 26.474 2.82927 25.7444C2.52709 25.0148 2.44805 24.212 2.60215 23.4374C2.75625 22.6629 3.13656 21.9515 3.695 21.3931C4.25344 20.8348 4.96491 20.4545 5.73945 20.3005C6.51399 20.1465 7.3168 20.2257 8.04636 20.5279C8.77592 20.8302 9.39946 21.3421 9.83812 21.9987C10.2768 22.6554 10.5109 23.4274 10.5108 24.2171C10.5096 25.2756 10.0885 26.2904 9.33999 27.0388C8.59146 27.7873 7.5766 28.2082 6.51808 28.2093ZM6.51808 20.575C5.79775 20.575 5.0936 20.7886 4.49466 21.1888C3.89573 21.589 3.42892 22.1578 3.15326 22.8233C2.8776 23.4888 2.80548 24.2211 2.946 24.9276C3.08653 25.6341 3.43341 26.283 3.94276 26.7924C4.45211 27.3017 5.10106 27.6486 5.80755 27.7891C6.51404 27.9297 7.24634 27.8575 7.91184 27.5819C8.57733 27.3062 9.14615 26.8394 9.54634 26.2405C9.94654 25.6416 10.1601 24.9374 10.1601 24.2171C10.1591 23.2515 9.77502 22.3257 9.09223 21.6429C8.40944 20.9601 7.48369 20.5761 6.51808 20.575Z" fill="#231F20"/>
<path d="M7.95433 25.8771C8.57736 25.0702 8.42832 23.9111 7.62145 23.2881C6.81458 22.665 5.65542 22.8141 5.03239 23.6209C4.40936 24.4278 4.5584 25.587 5.36527 26.21C6.17214 26.833 7.3313 26.684 7.95433 25.8771Z" fill="#231F20"/>
<path d="M6.06155 25.1846C6.47955 25.1846 6.81841 24.8458 6.81841 24.4278C6.81841 24.0098 6.47955 23.6709 6.06155 23.6709C5.64355 23.6709 5.30469 24.0098 5.30469 24.4278C5.30469 24.8458 5.64355 25.1846 6.06155 25.1846Z" fill="white"/>
<path d="M19.0713 28.2093C18.2816 28.2094 17.5096 27.9753 16.8529 27.5366C16.1962 27.0979 15.6844 26.4743 15.3821 25.7447C15.0799 25.0151 15.0008 24.2123 15.1548 23.4378C15.3089 22.6632 15.6891 21.9517 16.2476 21.3933C16.806 20.8349 17.5175 20.4546 18.292 20.3006C19.0666 20.1465 19.8694 20.2256 20.599 20.5279C21.3286 20.8302 21.9521 21.342 22.3908 21.9987C22.8295 22.6553 23.0636 23.4273 23.0635 24.2171C23.0623 25.2755 22.6413 26.2902 21.8929 27.0387C21.1445 27.7871 20.1297 28.2081 19.0713 28.2093ZM19.0713 20.575C18.351 20.5749 17.6468 20.7884 17.0478 21.1886C16.4488 21.5887 15.9819 22.1575 15.7061 22.823C15.4304 23.4885 15.3582 24.2208 15.4987 24.9273C15.6392 25.6338 15.986 26.2828 16.4953 26.7922C17.0046 27.3016 17.6536 27.6485 18.3601 27.7891C19.0666 27.9297 19.7989 27.8576 20.4645 27.5819C21.13 27.3063 21.6988 26.8395 22.099 26.2405C22.4993 25.6416 22.7129 24.9374 22.7129 24.2171C22.7117 23.2516 22.3277 22.326 21.645 21.6432C20.9623 20.9605 20.0368 20.5763 19.0713 20.575Z" fill="#231F20"/>
<path d="M20.3801 26.0711C21.1023 25.3489 21.1023 24.178 20.3801 23.4558C19.6578 22.7335 18.4869 22.7335 17.7647 23.4558C17.0425 24.178 17.0425 25.3489 17.7647 26.0711C18.4869 26.7933 19.6578 26.7933 20.3801 26.0711Z" fill="#231F20"/>
<path d="M18.6182 25.1846C19.0362 25.1846 19.3751 24.8458 19.3751 24.4278C19.3751 24.0098 19.0362 23.6709 18.6182 23.6709C18.2002 23.6709 17.8613 24.0098 17.8613 24.4278C17.8613 24.8458 18.2002 25.1846 18.6182 25.1846Z" fill="white"/>
<path d="M1.63049 19.0274C2.27665 19.7702 2.8557 18.4263 4.8563 18.0065C6.5248 17.6559 7.56768 18.4909 7.8577 17.8563C8.14772 17.2216 6.81783 16.346 4.36341 16.7342C2.53412 17.0238 0.880139 18.1633 1.63049 19.0274Z" fill="#231F20"/>
<path d="M23.9088 19.145C23.223 19.8513 22.7176 18.4793 20.7431 17.9498C19.0966 17.508 18.0091 18.2854 17.7547 17.6388C17.5002 16.9921 18.8752 16.1862 21.3066 16.7081C23.1153 17.0963 24.7047 18.326 23.9088 19.145Z" fill="#231F20"/>
<path d="M12.84 34.128H12.832C11.0658 34.1301 9.34777 33.5524 7.94173 32.4835C6.86729 31.6711 6.32782 30.8646 6.30528 30.8306C6.26861 30.7752 6.25546 30.7075 6.2687 30.6424C6.28195 30.5773 6.32051 30.5201 6.37591 30.4834C6.4313 30.4468 6.499 30.4336 6.5641 30.4469C6.6292 30.4601 6.68637 30.4987 6.72303 30.5541C6.73105 30.5656 7.24998 31.3365 8.2593 32.0958C9.57594 33.0913 11.1819 33.629 12.8325 33.6271H12.84C15.1212 33.6271 16.7145 32.7696 17.6487 32.0493C18.6685 31.2643 19.1514 30.4664 19.1579 30.4589C19.1919 30.4018 19.2472 30.3606 19.3116 30.3443C19.376 30.328 19.4442 30.338 19.5013 30.372C19.5583 30.406 19.5996 30.4613 19.6159 30.5257C19.6322 30.5901 19.6222 30.6583 19.5882 30.7154C19.5672 30.7504 19.0612 31.5894 17.9733 32.4319C16.9745 33.2058 15.2724 34.128 12.84 34.128Z" fill="#231F20"/>
<path d="M5.57934 31.0894C5.67652 30.5885 6.01964 30.1127 6.51052 29.9639C6.67131 29.9138 6.69585 29.6834 6.4439 29.7225C6.16505 29.8293 5.91758 30.0045 5.72429 30.2321C5.531 30.4597 5.39813 30.7323 5.33791 31.0248C5.32981 31.0567 5.33435 31.0905 5.35059 31.1192C5.36683 31.1479 5.39351 31.1691 5.42507 31.1786C5.45707 31.1872 5.4912 31.1829 5.52007 31.1666C5.54894 31.1503 5.57023 31.1233 5.57934 31.0914V31.0894Z" fill="#231F20"/>
<path d="M19.4334 29.8973C19.9343 30.0816 20.2704 30.6587 20.1777 31.1866C20.1699 31.2186 20.1746 31.2524 20.1909 31.281C20.2072 31.3096 20.2339 31.3308 20.2654 31.3404C20.2974 31.3489 20.3314 31.3445 20.3603 31.3283C20.3891 31.312 20.4104 31.285 20.4196 31.2532C20.4732 30.9219 20.4109 30.5821 20.2435 30.2912C20.076 30.0003 19.8134 29.776 19.5 29.6559C19.468 29.6472 19.4338 29.6515 19.405 29.6678C19.3761 29.6841 19.3548 29.7111 19.3457 29.743C19.3376 29.7751 19.3422 29.809 19.3585 29.8378C19.3749 29.8665 19.4017 29.8878 19.4334 29.8973Z" fill="#231F20"/>
<g opacity="0.05">
<path d="M13.9466 1.51306C17.2747 7.8976 20.8972 16.5084 20.8972 23.7608C20.8972 32.4471 15.3428 37.9562 8.49788 37.9562C7.23543 37.9596 5.98017 37.7661 4.77734 37.3827C7.09544 39.27 10.007 40.2752 12.9957 40.2202C19.8482 40.2202 25.395 35.4205 25.395 27.821C25.395 18.0555 16.837 5.50528 13.9466 1.51306Z" fill="black"/>
</g>
<path d="M7.44925 13.7275C8.21088 14.0534 9.26862 13.2885 9.81177 12.0191C10.3549 10.7497 10.1778 9.45649 9.41617 9.1306C8.65454 8.80471 7.5968 9.56957 7.05365 10.839C6.5105 12.1084 6.68762 13.4016 7.44925 13.7275Z" fill="#D0F4FF"/>
</svg>
