<svg width="26" height="40" viewBox="0 0 26 40" fill="none" xmlns="http://www.w3.org/2000/svg">
<path d="M12.8585 0C12.8585 0 0.466805 15.8481 0.466805 27.5909C0.459258 35.1904 6.01365 39.9977 12.8585 39.9977C19.7034 39.9977 25.2578 35.198 25.2578 27.5984C25.2578 15.8481 12.8585 0 12.8585 0Z" fill="#67D5F8"/>
<g opacity="0.05">
<path d="M13.8099 1.29089C17.138 7.67543 20.7604 16.2862 20.7604 23.5387C20.7604 32.2249 15.206 37.7341 8.36116 37.7341C7.09871 37.7374 5.84345 37.5439 4.64062 37.1605C6.95872 39.0478 9.87031 40.0531 12.859 39.9981C19.7114 39.9981 25.2583 35.1984 25.2583 27.5988C25.2583 17.8333 16.7003 5.28311 13.8099 1.29089Z" fill="black"/>
</g>
<path d="M7.31253 13.5053C8.07417 13.8312 9.1319 13.0663 9.67505 11.7969C10.2182 10.5276 10.0411 9.23433 9.27945 8.90844C8.51782 8.58255 7.46008 9.3474 6.91693 10.6168C6.37378 11.8862 6.5509 13.1794 7.31253 13.5053Z" fill="#D0F4FF"/>
<path d="M23.9626 23.8473C23.9626 23.8473 23.8391 20.0052 20.1386 19.8161C15.951 19.6026 16.2082 23.9541 16.2082 23.9541C16.2082 23.9541 17.368 23.3758 19.8284 23.4435C22.6494 23.5208 23.9626 23.8473 23.9626 23.8473Z" fill="white"/>
<path d="M2.80089 18.2103C3.43922 18.7343 3.73044 17.543 5.32646 16.9143C6.65733 16.3903 7.63772 16.9353 7.78817 16.3722C7.93861 15.8091 6.71658 15.2679 4.73898 15.9327C3.26777 16.4277 2.05961 17.6022 2.80089 18.2103Z" fill="#231F20"/>
<path d="M23.1361 18.5011C22.4822 19.0054 22.2263 17.8065 20.6496 17.1308C19.3351 16.5677 18.3383 17.0833 18.2051 16.516C18.0719 15.9487 19.309 15.444 21.2656 16.1672C22.7196 16.7055 23.8925 17.9153 23.1361 18.5011Z" fill="#231F20"/>
<path d="M2.19336 23.7051C2.19336 23.7051 2.36775 19.8647 6.06828 19.7252C10.2588 19.5671 9.94364 23.9148 9.94364 23.9148C9.94364 23.9148 8.79178 23.321 6.32967 23.3559C3.51077 23.3963 2.19336 23.7051 2.19336 23.7051Z" fill="white"/>
<path d="M20.3613 19.7861C22.4625 20.5509 22.5768 22.9656 22.5692 23.5947C23.4555 23.7586 23.882 23.9779 23.882 23.9779C23.882 23.9779 24.177 19.8807 20.3613 19.7861Z" fill="#EFEFEF"/>
<path d="M6.42383 19.723C8.52497 20.4878 8.63927 22.9025 8.63171 23.5316C9.51839 23.6959 9.9445 23.9148 9.9445 23.9148C9.9445 23.9148 10.2412 19.8172 6.42383 19.723Z" fill="#EFEFEF"/>
<path d="M9.94261 24.0701C9.91789 24.0702 9.89351 24.0643 9.87159 24.0528C9.86066 24.0474 8.71428 23.478 6.33159 23.5116C3.5669 23.5507 2.24066 23.8537 2.22763 23.8566C2.2043 23.8621 2.18001 23.8621 2.15667 23.8566C2.13333 23.8511 2.11158 23.8403 2.09314 23.825C2.07469 23.8096 2.06004 23.7903 2.05035 23.7683C2.04066 23.7464 2.03618 23.7225 2.03727 23.6986C2.09302 23.0005 2.28579 22.3202 2.60458 21.6966C3.08532 20.7683 4.07538 19.6459 6.0618 19.5707C7.31576 19.5236 8.30455 19.8648 9.00087 20.5864C10.2317 21.8605 10.1036 23.8427 10.0973 23.9264C10.0958 23.9523 10.0879 23.9774 10.0741 23.9995C10.0604 24.0215 10.0413 24.0397 10.0187 24.0524C9.99528 24.0648 9.96907 24.0709 9.94261 24.0701ZM6.53876 23.2002C8.30372 23.2002 9.36227 23.5179 9.79175 23.6822C9.78712 23.1426 9.68165 21.7361 8.77648 20.8003C8.14361 20.1464 7.23424 19.8367 6.07272 19.8808C4.59814 19.9363 3.52362 20.5952 2.87899 21.8395C2.6139 22.3638 2.44037 22.9296 2.36589 23.5124C2.83991 23.4254 4.12203 23.233 6.32612 23.2015L6.53876 23.2002Z" fill="#231F20"/>
<path d="M8.10069 22.9892C8.1002 22.7027 8.03902 22.4195 7.92118 22.1583C7.80334 21.8972 7.63151 21.6639 7.41701 21.4739C7.20251 21.2839 6.95021 21.1416 6.67671 21.0561C6.4032 20.9707 6.11471 20.9442 5.83021 20.9783C5.54572 21.0124 5.27168 21.1064 5.02613 21.2541C4.78059 21.4018 4.56911 21.5998 4.40562 21.8351C4.24214 22.0704 4.13035 22.3377 4.07762 22.6194C4.02489 22.901 4.03241 23.1906 4.0997 23.4691C4.69684 23.4208 5.4377 23.3813 6.32985 23.3687C6.90279 23.3584 7.47577 23.3872 8.0448 23.4549C8.08132 23.3023 8.10008 23.1461 8.10069 22.9892Z" fill="#231F20"/>
<path d="M6.26144 22.2138C6.26169 22.3434 6.22348 22.4702 6.15164 22.5781C6.07981 22.686 5.97758 22.7702 5.85789 22.82C5.7382 22.8698 5.60644 22.8829 5.47927 22.8578C5.3521 22.8326 5.23525 22.7703 5.1435 22.6788C5.05175 22.5872 4.98923 22.4705 4.96385 22.3433C4.93847 22.2162 4.95137 22.0844 5.00092 21.9647C5.05047 21.8449 5.13444 21.7425 5.2422 21.6704C5.34997 21.5984 5.47668 21.5599 5.60631 21.5599C5.77984 21.5599 5.94629 21.6288 6.06911 21.7514C6.19194 21.874 6.26111 22.0403 6.26144 22.2138Z" fill="white"/>
<path d="M16.2096 24.109C16.1701 24.1088 16.1321 24.0937 16.1033 24.0666C16.0746 24.0396 16.0571 24.0026 16.0546 23.9632C16.0499 23.8791 15.9478 21.8956 17.1955 20.6383C17.9015 19.9264 18.8945 19.5974 20.148 19.6617C22.1332 19.763 23.1081 20.8988 23.5767 21.8334C23.8872 22.4611 24.0708 23.1438 24.1171 23.8425C24.1178 23.8665 24.1131 23.8903 24.1031 23.9121C24.0931 23.9339 24.0782 23.9531 24.0595 23.9682C24.0409 23.9833 24.019 23.9938 23.9956 23.999C23.9722 24.0042 23.9479 24.0038 23.9246 23.998C23.9116 23.9951 22.5895 23.6745 19.8257 23.5984C17.443 23.5333 16.2899 24.0875 16.2786 24.093C16.2571 24.1034 16.2335 24.1089 16.2096 24.109ZM19.848 19.9643C18.8209 19.9643 18.0036 20.2639 17.4153 20.8568C16.4971 21.7813 16.3744 23.1849 16.3626 23.724C16.8114 23.5589 17.9431 23.237 19.8341 23.2891C22.0378 23.3496 23.317 23.5589 23.7901 23.6526C23.7228 23.0653 23.5552 22.4939 23.2947 21.9633C22.6664 20.7169 21.6024 20.0466 20.132 19.9718C20.0358 19.9664 19.9408 19.9643 19.848 19.9643Z" fill="#231F20"/>
<path d="M18.0665 23.0556C18.0697 22.7684 18.1339 22.4851 18.2547 22.2245C18.3756 21.964 18.5504 21.732 18.7676 21.544C18.9848 21.3561 19.2394 21.2164 19.5146 21.1342C19.7899 21.052 20.0794 21.0291 20.3641 21.0672C20.6488 21.1053 20.9222 21.2033 21.1662 21.355C21.4101 21.5066 21.6191 21.7082 21.7793 21.9467C21.9395 22.1851 22.0472 22.4548 22.0954 22.738C22.1436 23.0211 22.1311 23.3113 22.0587 23.5893C21.4624 23.533 20.722 23.4838 19.8315 23.459C19.2587 23.4414 18.6853 23.4626 18.1153 23.5225C18.0811 23.3692 18.0648 23.2126 18.0665 23.0556Z" fill="#231F20"/>
<path d="M19.9141 22.306C19.9124 22.4356 19.9491 22.5628 20.0196 22.6714C20.0902 22.7801 20.1914 22.8655 20.3104 22.9167C20.4294 22.9678 20.5609 22.9826 20.6884 22.959C20.8158 22.9354 20.9333 22.8746 21.0262 22.7843C21.119 22.6939 21.183 22.578 21.21 22.4513C21.2369 22.3245 21.2258 22.1927 21.1778 22.0723C21.1298 21.9519 21.0473 21.8485 20.9405 21.7751C20.8338 21.7016 20.7076 21.6615 20.5781 21.6597C20.492 21.6586 20.4066 21.6744 20.3267 21.7062C20.2468 21.7381 20.1739 21.7853 20.1122 21.8454C20.0506 21.9054 20.0013 21.9769 19.9673 22.056C19.9334 22.135 19.9153 22.22 19.9141 22.306Z" fill="white"/>
<path d="M12.5842 32.6313C11.106 32.6289 9.64007 32.3621 8.25584 31.8433C7.0096 31.3742 5.8333 30.737 4.75955 29.9494C2.86558 28.5727 1.82089 27.191 1.77592 27.1338C1.75109 27.1007 1.73302 27.063 1.72275 27.0229C1.71248 26.9829 1.71021 26.9411 1.71606 26.9002C1.72191 26.8592 1.73578 26.8198 1.75687 26.7842C1.77795 26.7485 1.80585 26.7174 1.83896 26.6926C1.87207 26.6678 1.90975 26.6497 1.94984 26.6394C1.98994 26.6291 2.03166 26.6269 2.07263 26.6327C2.11361 26.6386 2.15302 26.6524 2.18864 26.6735C2.22425 26.6946 2.25536 26.7225 2.2802 26.7556C2.29028 26.7691 3.32279 28.1315 5.14532 29.4522C6.81531 30.6625 9.51317 32.0866 12.8855 31.998C16.2717 31.9089 19.0049 30.3952 20.7018 29.1404C22.544 27.7785 23.5883 26.4295 23.5984 26.4161C23.6497 26.3509 23.7245 26.3086 23.8068 26.2982C23.8891 26.2879 23.9722 26.3104 24.0379 26.3609C24.1037 26.4114 24.147 26.4857 24.1583 26.5679C24.1696 26.65 24.1481 26.7333 24.0985 26.7997C24.0543 26.8577 22.9895 28.2331 21.0766 29.6472C19.9914 30.4562 18.8087 31.1253 17.5563 31.6387C16.0771 32.245 14.5007 32.5799 12.9027 32.6271C12.7968 32.6301 12.6907 32.6315 12.5842 32.6313Z" fill="#231F20"/>
<path d="M0.690232 27.2788C0.606186 27.1107 0.705779 26.896 0.788143 26.7455C0.871279 26.5952 0.978131 26.4593 1.10458 26.343C1.35807 26.1106 1.67432 25.9578 2.01395 25.9038C2.20137 25.8744 2.39263 25.8803 2.5779 25.921C2.70103 25.9484 2.75356 25.7593 2.63001 25.7319C1.85805 25.5605 1.00498 25.9479 0.622155 26.6401C0.499448 26.8619 0.401954 27.1347 0.520458 27.378C0.533769 27.4003 0.555324 27.4165 0.580476 27.4231C0.605628 27.4297 0.632367 27.4262 0.654934 27.4133C0.677027 27.3997 0.693031 27.3782 0.699609 27.3531C0.706187 27.3281 0.702829 27.3014 0.690232 27.2788Z" fill="#231F20"/>
<path d="M23.2723 25.7528C23.6766 25.6666 24.1086 25.575 24.5145 25.6998C24.6679 25.7505 24.8094 25.8317 24.9307 25.9384C25.0519 26.0451 25.1503 26.1752 25.2201 26.3209C25.2994 26.4813 25.3398 26.6581 25.3381 26.837C25.3381 26.963 25.5336 26.963 25.5348 26.837C25.5338 26.6518 25.4961 26.4686 25.424 26.2981C25.3519 26.1275 25.2467 25.9729 25.1146 25.8431C24.8166 25.549 24.4162 25.4288 24.0022 25.4448C23.7382 25.4617 23.4762 25.5014 23.2189 25.5633C23.0954 25.5897 23.1479 25.7788 23.271 25.7528H23.2723Z" fill="#231F20"/>
<path d="M9.41354 33.8989C10.1849 34.1536 10.9859 34.3077 11.7966 34.3574C12.6077 34.4074 13.4217 34.354 14.2193 34.1985C14.666 34.1117 15.1056 33.9919 15.5346 33.8401C15.5593 33.8326 15.5802 33.816 15.593 33.7935C15.6058 33.771 15.6094 33.7445 15.6031 33.7195C15.5959 33.6946 15.5793 33.6734 15.5567 33.6606C15.5342 33.6478 15.5075 33.6444 15.4825 33.651C14.7301 33.917 13.9464 34.0843 13.151 34.1485C11.9056 34.2523 10.652 34.1031 9.46564 33.7098C9.34546 33.6699 9.29419 33.8594 9.41354 33.8989Z" fill="#231F20"/>
</svg>
