<svg width="63" height="40" viewBox="0 0 63 40" fill="none" xmlns="http://www.w3.org/2000/svg">
<path d="M60.3619 9.17859H2.96094V39.9998H60.3619V9.17859Z" fill="#F2C190"/>
<path d="M60.3619 32.0387H2.96094V40.0001H60.3619V32.0387Z" fill="#815C4A"/>
<path d="M60.3619 32.0387H2.96094V33.1885H60.3619V32.0387Z" fill="#EBAE6C"/>
<path d="M39.2206 17.1014H33.2109V32.0386H39.2206V17.1014Z" fill="#414764"/>
<path d="M59.2206 17.1014H53.2109V32.0386H59.2206V17.1014Z" fill="#414764"/>
<path d="M52.0715 15.3911H40.3613V39.9998H52.0715V15.3911Z" fill="#E39C59"/>
<path d="M53.2201 15.3911H52.0703V39.9998H53.2201V15.3911Z" fill="#EBAE6C"/>
<path d="M40.3607 15.3911H39.2109V39.9998H40.3607V15.3911Z" fill="#EBAE6C"/>
<path d="M33.2103 9.17859H32.0605V39.9998H33.2103V9.17859Z" fill="#EBAE6C"/>
<path d="M60.3607 9.17859H59.2109V39.9998H60.3607V9.17859Z" fill="#EBAE6C"/>
<path fill-rule="evenodd" clip-rule="evenodd" d="M57.9245 9.17859H55.625V19.3042C55.6299 19.6034 55.7503 19.8891 55.961 20.1016C56.1716 20.314 56.4563 20.4368 56.7554 20.4443C57.0613 20.4469 57.3558 20.3285 57.5747 20.115C57.7937 19.9014 57.9194 19.61 57.9245 19.3042V9.17859Z" fill="#9D3533"/>
<path fill-rule="evenodd" clip-rule="evenodd" d="M55.6257 9.17859H53.3262V19.4974C53.3262 19.7537 53.428 19.9994 53.6092 20.1806C53.7904 20.3618 54.0361 20.4636 54.2924 20.4636H54.6982C54.9544 20.4636 55.2002 20.3618 55.3814 20.1806C55.5625 19.9994 55.6643 19.7537 55.6643 19.4974L55.6257 9.17859Z" fill="black"/>
<path fill-rule="evenodd" clip-rule="evenodd" d="M53.3288 9.17859H51.0293V19.3042C51.0318 19.6083 51.1538 19.8993 51.3688 20.1144C51.5839 20.3295 51.8749 20.4514 52.1791 20.454C52.4832 20.4514 52.7742 20.3295 52.9893 20.1144C53.2043 19.8993 53.3263 19.6083 53.3288 19.3042V9.17859Z" fill="#9D3533"/>
<path fill-rule="evenodd" clip-rule="evenodd" d="M51.028 9.17859H48.7285V19.3042C48.731 19.6083 48.853 19.8993 49.0681 20.1144C49.2831 20.3295 49.5741 20.4514 49.8783 20.454C50.1832 20.454 50.4757 20.3328 50.6913 20.1172C50.9069 19.9016 51.028 19.6091 51.028 19.3042V9.17859Z" fill="black"/>
<path fill-rule="evenodd" clip-rule="evenodd" d="M48.7272 9.17859H46.4277V19.3042C46.4303 19.6083 46.5522 19.8993 46.7673 20.1144C46.9824 20.3295 47.2733 20.4514 47.5775 20.454C47.8824 20.454 48.1749 20.3328 48.3905 20.1172C48.6061 19.9016 48.7272 19.6091 48.7272 19.3042V9.17859Z" fill="#9D3533"/>
<path fill-rule="evenodd" clip-rule="evenodd" d="M46.4284 9.17859H44.1289V19.3042C44.1314 19.6083 44.2534 19.8993 44.4685 20.1144C44.6835 20.3295 44.9745 20.4514 45.2787 20.454C45.4297 20.454 45.5792 20.4242 45.7187 20.3664C45.8582 20.3086 45.9849 20.224 46.0917 20.1172C46.1984 20.0104 46.2831 19.8837 46.3409 19.7442C46.3987 19.6047 46.4284 19.4552 46.4284 19.3042V9.17859Z" fill="black"/>
<path fill-rule="evenodd" clip-rule="evenodd" d="M44.1296 9.17859H41.8301V19.3042C41.8326 19.6083 41.9545 19.8993 42.1696 20.1144C42.3847 20.3295 42.6757 20.4514 42.9798 20.454C43.2848 20.454 43.5772 20.3328 43.7928 20.1172C44.0085 19.9016 44.1296 19.6091 44.1296 19.3042V9.17859Z" fill="#9D3533"/>
<path fill-rule="evenodd" clip-rule="evenodd" d="M41.8288 9.17859H39.5293V19.4974C39.5293 19.7537 39.6311 19.9994 39.8123 20.1806C39.9935 20.3618 40.2392 20.4636 40.4955 20.4636H40.9013C41.1575 20.4636 41.4033 20.3618 41.5845 20.1806C41.7657 19.9994 41.8675 19.7537 41.8675 19.4974L41.8288 9.17859Z" fill="black"/>
<path fill-rule="evenodd" clip-rule="evenodd" d="M39.53 9.17859H37.2305V19.3042C37.2356 19.61 37.3613 19.9014 37.5802 20.115C37.7992 20.3285 38.0937 20.4469 38.3996 20.4443C38.6995 20.4392 38.9855 20.3172 39.1967 20.1042C39.4079 19.8912 39.5275 19.6041 39.53 19.3042V9.17859Z" fill="#9D3533"/>
<path fill-rule="evenodd" clip-rule="evenodd" d="M37.2312 9.17859H34.9316V19.3042C34.9342 19.6083 35.0561 19.8993 35.2712 20.1144C35.4863 20.3295 35.7772 20.4514 36.0814 20.454C36.3863 20.454 36.6788 20.3328 36.8944 20.1172C37.11 19.9016 37.2312 19.6091 37.2312 19.3042V9.17859Z" fill="black"/>
<path fill-rule="evenodd" clip-rule="evenodd" d="M34.932 9.17859H32.6035V19.3042C32.606 19.6083 32.728 19.8993 32.9431 20.1144C33.1581 20.3295 33.4491 20.4514 33.7533 20.454C33.9067 20.4578 34.0593 20.4309 34.2022 20.3749C34.345 20.3188 34.4752 20.2348 34.5851 20.1276C34.6949 20.0205 34.7822 19.8924 34.8418 19.751C34.9014 19.6096 34.9321 19.4576 34.932 19.3042V9.17859Z" fill="#9D3533"/>
<path fill-rule="evenodd" clip-rule="evenodd" d="M41.4221 28.6958C41.5616 28.6958 41.698 28.6544 41.814 28.5769C41.9299 28.4994 42.0204 28.3893 42.0737 28.2604C42.1271 28.1315 42.1411 27.9897 42.1139 27.8529C42.0867 27.716 42.0195 27.5904 41.9208 27.4917C41.8222 27.3931 41.6965 27.3259 41.5597 27.2987C41.4229 27.2715 41.2811 27.2855 41.1522 27.3388C41.0233 27.3922 40.9132 27.4826 40.8357 27.5986C40.7582 27.7146 40.7168 27.851 40.7168 27.9905C40.7168 28.1775 40.7911 28.3569 40.9234 28.4892C41.0556 28.6215 41.235 28.6958 41.4221 28.6958Z" fill="#815C4A"/>
<path d="M32.0495 17.1014H4.10742V32.0386H32.0495V17.1014Z" fill="#414764"/>
<path d="M4.1107 9.17859H2.96094V32.0385H4.1107V9.17859Z" fill="#EBAE6C"/>
<path d="M30.871 15.7004H3.95312V16.8115H30.871V15.7004Z" fill="#EBAE6C"/>
<path d="M30.871 9.17859H3.95312V10.2897H30.871V9.17859Z" fill="#EBAE6C"/>
<path d="M25.974 15.9518H24.8242V32.0387H25.974V15.9518Z" fill="#EBAE6C"/>
<path d="M18.8236 15.9518H17.6738V32.0387H18.8236V15.9518Z" fill="#EBAE6C"/>
<path d="M11.6556 15.9518H10.5059V32.0387H11.6556V15.9518Z" fill="#EBAE6C"/>
<path fill-rule="evenodd" clip-rule="evenodd" d="M56.37 2.60876H10.0028L0.447266 9.17882H62.5536L56.37 2.60876Z" fill="#DE5941"/>
<path d="M17.6852 29.6426H11.6562V32.0387H17.6852V29.6426Z" fill="#E39C59"/>
<path fill-rule="evenodd" clip-rule="evenodd" d="M17.3467 29.6424V28.8501C17.3442 28.6433 17.2609 28.4457 17.1147 28.2995C16.9685 28.1533 16.7709 28.07 16.5641 28.0675H12.767C12.5602 28.07 12.3626 28.1533 12.2164 28.2995C12.0701 28.4457 11.9869 28.6433 11.9844 28.8501V29.6424H17.3467Z" fill="#799D44"/>
<path d="M10.4939 29.6426H4.10742V32.0387H10.4939V29.6426Z" fill="#E39C59"/>
<path fill-rule="evenodd" clip-rule="evenodd" d="M10.148 29.6424V28.8501C10.148 28.6426 10.0655 28.4435 9.91874 28.2967C9.77197 28.15 9.57291 28.0675 9.36535 28.0675H5.24941C5.04262 28.07 4.84502 28.1533 4.69879 28.2995C4.55256 28.4457 4.4693 28.6433 4.4668 28.8501V29.6424H10.148Z" fill="#799D44"/>
<path d="M24.8146 29.6426H18.8242V32.0387H24.8146V29.6426Z" fill="#E39C59"/>
<path fill-rule="evenodd" clip-rule="evenodd" d="M24.4974 29.6424V28.8501C24.4949 28.6417 24.4103 28.4426 24.262 28.2961C24.1137 28.1496 23.9136 28.0675 23.7051 28.0675H19.9467C19.7391 28.0675 19.5401 28.15 19.3933 28.2967C19.2465 28.4435 19.1641 28.6426 19.1641 28.8501V29.6424H24.4974Z" fill="#799D44"/>
<path d="M32.0596 29.6426H25.9727V32.0387H32.0596V29.6426Z" fill="#E39C59"/>
<path fill-rule="evenodd" clip-rule="evenodd" d="M31.7229 29.6424V28.8501C31.7204 28.6433 31.6372 28.4457 31.4909 28.2995C31.3447 28.1533 31.1471 28.07 30.9403 28.0675H27.0756C26.868 28.0675 26.669 28.15 26.5222 28.2967C26.3754 28.4435 26.293 28.6426 26.293 28.8501V29.6424H31.7229Z" fill="#799D44"/>
<path fill-rule="evenodd" clip-rule="evenodd" d="M30.3327 9.17859H28.0332V19.3042C28.0357 19.6083 28.1577 19.8993 28.3727 20.1144C28.5878 20.3295 28.8788 20.4514 29.183 20.454C29.4879 20.454 29.7803 20.3328 29.996 20.1172C30.2116 19.9016 30.3327 19.6091 30.3327 19.3042V9.17859Z" fill="#9D3533"/>
<path fill-rule="evenodd" clip-rule="evenodd" d="M28.032 9.17859H25.7422V19.4974C25.7422 19.7537 25.844 19.9994 26.0252 20.1806C26.2064 20.3618 26.4521 20.4636 26.7084 20.4636H27.1045C27.3608 20.4636 27.6065 20.3618 27.7877 20.1806C27.9689 19.9994 28.0707 19.7537 28.0707 19.4974L28.032 9.17859Z" fill="black"/>
<path fill-rule="evenodd" clip-rule="evenodd" d="M25.7429 9.17859H23.4434V19.3042C23.4434 19.6091 23.5645 19.9016 23.7801 20.1172C23.9957 20.3328 24.2882 20.454 24.5931 20.454C24.8973 20.4514 25.1883 20.3295 25.4033 20.1144C25.6184 19.8993 25.7404 19.6083 25.7429 19.3042V9.17859Z" fill="#9D3533"/>
<path fill-rule="evenodd" clip-rule="evenodd" d="M23.4421 9.17859H21.1426V19.3042C21.1426 19.6091 21.2637 19.9016 21.4793 20.1172C21.695 20.3328 21.9874 20.454 22.2923 20.454C22.5965 20.4514 22.8875 20.3295 23.1025 20.1144C23.3176 19.8993 23.4396 19.6083 23.4421 19.3042V9.17859Z" fill="black"/>
<path fill-rule="evenodd" clip-rule="evenodd" d="M21.1413 9.17859H18.8418V19.3042C18.843 19.4585 18.8752 19.611 18.9365 19.7526C18.9979 19.8942 19.0871 20.0221 19.1989 20.1284C19.3107 20.2348 19.4428 20.3176 19.5873 20.3719C19.7318 20.4262 19.8857 20.4508 20.0399 20.4443C20.3339 20.4296 20.6113 20.3036 20.8159 20.0919C21.0204 19.8802 21.1368 19.5986 21.1413 19.3042V9.17859Z" fill="#9D3533"/>
<path fill-rule="evenodd" clip-rule="evenodd" d="M18.8444 9.17859H16.5449V19.3042C16.5449 19.6091 16.6661 19.9016 16.8817 20.1172C17.0973 20.3328 17.3897 20.454 17.6947 20.454C17.9988 20.4514 18.2898 20.3295 18.5049 20.1144C18.72 19.8993 18.8419 19.6083 18.8444 19.3042V9.17859Z" fill="black"/>
<path fill-rule="evenodd" clip-rule="evenodd" d="M16.5456 9.17859H14.2461V19.3042C14.2461 19.6091 14.3672 19.9016 14.5829 20.1172C14.7985 20.3328 15.0909 20.454 15.3959 20.454C15.7 20.4514 15.991 20.3295 16.2061 20.1144C16.4211 19.8993 16.5431 19.6083 16.5456 19.3042V9.17859Z" fill="#9D3533"/>
<path fill-rule="evenodd" clip-rule="evenodd" d="M14.2448 9.17859H11.9453V19.4974C11.9453 19.7537 12.0471 19.9994 12.2283 20.1806C12.4095 20.3618 12.6552 20.4636 12.9115 20.4636H13.2786C13.5349 20.4636 13.7806 20.3618 13.9618 20.1806C14.143 19.9994 14.2448 19.7537 14.2448 19.4974V9.17859Z" fill="black"/>
<path fill-rule="evenodd" clip-rule="evenodd" d="M11.944 9.17859H9.64453V19.3042C9.64453 19.6091 9.76567 19.9016 9.98129 20.1172C10.1969 20.3328 10.4894 20.454 10.7943 20.454C11.0984 20.4514 11.3894 20.3295 11.6045 20.1144C11.8196 19.8993 11.9415 19.6083 11.944 19.3042V9.17859Z" fill="#9D3533"/>
<path fill-rule="evenodd" clip-rule="evenodd" d="M9.64522 9.17859H7.3457V19.3042C7.3457 19.6091 7.46684 19.9016 7.68246 20.1172C7.89808 20.3328 8.19053 20.454 8.49546 20.454C8.79961 20.4514 9.0906 20.3295 9.30567 20.1144C9.52075 19.8993 9.6427 19.6083 9.64522 19.3042V9.17859Z" fill="black"/>
<path fill-rule="evenodd" clip-rule="evenodd" d="M7.34835 9.17859H5.04883V19.3042C5.04883 19.6091 5.16996 19.9016 5.38558 20.1172C5.60121 20.3328 5.89365 20.454 6.19859 20.454C6.50274 20.4514 6.79372 20.3295 7.0088 20.1144C7.22388 19.8993 7.34582 19.6083 7.34835 19.3042V9.17859Z" fill="#9D3533"/>
<path fill-rule="evenodd" clip-rule="evenodd" d="M5.04561 9.17859H2.74609V19.3042C2.74609 19.6091 2.86723 19.9016 3.08285 20.1172C3.29847 20.3328 3.59092 20.454 3.89585 20.454C4.20001 20.4514 4.49099 20.3295 4.70606 20.1144C4.92114 19.8993 5.04309 19.6083 5.04561 19.3042V9.17859Z" fill="black"/>
<path fill-rule="evenodd" clip-rule="evenodd" d="M2.74678 9.17859H0.447266V19.3042C0.44979 19.6083 0.571735 19.8993 0.786812 20.1144C1.00189 20.3295 1.29287 20.4514 1.59702 20.454C1.90118 20.4514 2.19216 20.3295 2.40724 20.1144C2.62231 19.8993 2.74426 19.6083 2.74678 19.3042V9.17859Z" fill="#9D3533"/>
<path fill-rule="evenodd" clip-rule="evenodd" d="M60.2253 9.17859H57.9258V19.4974C57.9258 19.7537 58.0276 19.9994 58.2088 20.1806C58.39 20.3618 58.6357 20.4636 58.892 20.4636H59.2978C59.554 20.4636 59.7998 20.3618 59.981 20.1806C60.1622 19.9994 60.2639 19.7537 60.2639 19.4974L60.2253 9.17859Z" fill="black"/>
<path fill-rule="evenodd" clip-rule="evenodd" d="M32.6026 9.17859H30.332V19.3042C30.3346 19.6083 30.4565 19.8993 30.6716 20.1144C30.8867 20.3295 31.1776 20.4514 31.4818 20.454C31.7817 20.4464 32.0667 20.3219 32.2761 20.1071C32.4855 19.8923 32.6027 19.6042 32.6026 19.3042V9.17859Z" fill="black"/>
<path fill-rule="evenodd" clip-rule="evenodd" d="M62.5551 9.17859H60.2266V19.3042C60.2266 19.6091 60.3477 19.9016 60.5633 20.1172C60.7789 20.3328 61.0714 20.454 61.3763 20.454C61.5294 20.4565 61.6815 20.4287 61.8237 20.3722C61.966 20.3157 62.0957 20.2316 62.2053 20.1247C62.3148 20.0178 62.4022 19.8902 62.4622 19.7494C62.5223 19.6086 62.5538 19.4573 62.5551 19.3042V9.17859Z" fill="#9D3533"/>
<path d="M52.0715 39.005H40.3613V40.0002H52.0715V39.005Z" fill="#815C4A"/>
<path d="M54.9499 0H37.4813C37.0224 0 36.6504 0.372015 36.6504 0.830919V8.34783C36.6504 8.80673 37.0224 9.17875 37.4813 9.17875H54.9499C55.4088 9.17875 55.7808 8.80673 55.7808 8.34783V0.830919C55.7808 0.372015 55.4088 0 54.9499 0Z" fill="#815C4A"/>
<path d="M53.9456 1.07263H38.4867C38.1025 1.07263 37.791 1.38409 37.791 1.76829V7.39147C37.791 7.77566 38.1025 8.08712 38.4867 8.08712H53.9456C54.3298 8.08712 54.6413 7.77566 54.6413 7.39147V1.76829C54.6413 1.38409 54.3298 1.07263 53.9456 1.07263Z" fill="#EBAE6C"/>
<path fill-rule="evenodd" clip-rule="evenodd" d="M40.2461 5.97079C40.6093 6.20516 41.0312 6.33242 41.4635 6.33794C42.2944 6.33794 42.7099 5.90316 42.7099 5.31379C42.7021 5.09667 42.6273 4.88726 42.4959 4.71429C42.3644 4.54132 42.1827 4.41324 41.9756 4.34761L41.3862 4.09639C41.1543 3.99977 41.0384 3.8935 41.0384 3.72925C41.0384 3.565 41.2123 3.35244 41.5311 3.35244C41.83 3.37369 42.122 3.45241 42.391 3.58431C42.5317 3.45411 42.6151 3.27346 42.6229 3.08191C42.2806 2.91052 41.9042 2.81807 41.5215 2.81136C41.3815 2.79675 41.2401 2.81031 41.1055 2.85126C40.9709 2.8922 40.8459 2.95971 40.7378 3.04977C40.6298 3.13983 40.5408 3.25063 40.4763 3.37563C40.4117 3.50063 40.3729 3.63729 40.362 3.77755C40.3702 3.97993 40.4417 4.17464 40.5666 4.33415C40.6914 4.49365 40.8632 4.6099 41.0577 4.66645L41.6374 4.908C41.9176 5.0336 42.0142 5.18819 42.0142 5.3621C42.0142 5.53602 41.8403 5.74857 41.5021 5.74857C41.1565 5.72763 40.8228 5.61417 40.5359 5.42007C40.3708 5.55851 40.2667 5.7563 40.2461 5.97079Z" fill="#815C4A"/>
<path fill-rule="evenodd" clip-rule="evenodd" d="M45.1633 6.27052C45.2758 6.27988 45.3889 6.27988 45.5014 6.27052C45.6107 6.27957 45.7206 6.27957 45.8299 6.27052V2.87922C45.7174 2.87015 45.6043 2.87015 45.4918 2.87922C45.3824 2.87016 45.2726 2.87016 45.1633 2.87922V3.8454C45.1633 3.98067 45.1633 4.07729 45.1633 4.21255H43.9362C43.9362 4.07729 43.9362 3.98067 43.9362 3.8454V2.87922C43.8237 2.86985 43.7106 2.86985 43.598 2.87922C43.4887 2.87016 43.3788 2.87016 43.2695 2.87922V6.2512C43.3788 6.26025 43.4887 6.26025 43.598 6.2512C43.7106 6.26057 43.8237 6.26057 43.9362 6.2512V5.14975C43.9362 5.01449 43.9362 4.91787 43.9362 4.7826H45.1633C45.1633 4.91787 45.1633 5.01449 45.1633 5.14975V6.27052Z" fill="#815C4A"/>
<path fill-rule="evenodd" clip-rule="evenodd" d="M46.4382 4.57944C46.4198 4.84545 46.4567 5.1124 46.5464 5.36349C46.6362 5.61457 46.777 5.84436 46.9599 6.03838C47.2136 6.24325 47.5327 6.34961 47.8585 6.3379C48.1848 6.35323 48.5052 6.24645 48.757 6.03838C49.0984 5.63262 49.2856 5.11937 49.2856 4.58911C49.2856 4.05884 49.0984 3.5456 48.757 3.13983C48.5052 2.93176 48.1848 2.82498 47.8585 2.84032C47.5327 2.8286 47.2136 2.93496 46.9599 3.13983C46.7783 3.33272 46.6382 3.56091 46.5484 3.81023C46.4587 4.05955 46.4212 4.32467 46.4382 4.58911V4.57944ZM47.1339 4.57944C47.1339 4.02871 47.2305 3.35239 47.8585 3.35239C48.4865 3.35239 48.5928 4.02871 48.5928 4.57944C48.5928 5.13016 48.4865 5.81615 47.8585 5.81615C47.2305 5.81615 47.1339 5.13982 47.1339 4.57944Z" fill="#815C4A"/>
<path fill-rule="evenodd" clip-rule="evenodd" d="M50.5636 3.39105H50.9597C51.3945 3.39105 51.4814 3.74853 51.4814 4.01906C51.4814 4.28959 51.3945 4.63743 50.9597 4.63743H50.5442V3.38139L50.5636 3.39105ZM52.1771 4.01906C52.1908 3.86422 52.17 3.70828 52.1163 3.56242C52.0626 3.41655 51.9773 3.28439 51.8664 3.1754C51.7556 3.06642 51.622 2.98331 51.4753 2.93206C51.3285 2.88081 51.1723 2.86268 51.0177 2.87897H49.9355V6.22197C50.0481 6.23134 50.1612 6.23134 50.2737 6.22197C50.383 6.23102 50.4929 6.23102 50.6022 6.22197V5.10119H51.0563C51.2097 5.11555 51.3643 5.0964 51.5095 5.04508C51.6547 4.99377 51.7871 4.9115 51.8973 4.80398C52.0076 4.69646 52.0932 4.56626 52.1482 4.42239C52.2032 4.27852 52.2262 4.12442 52.2157 3.97076L52.1771 4.01906Z" fill="#815C4A"/>
</svg>
