<svg width="60" height="40" viewBox="0 0 60 40" fill="none" xmlns="http://www.w3.org/2000/svg">
<path d="M53.6576 5.61548H0.837891V6.35508H53.6576V5.61548Z" fill="#8D2F2F"/>
<path fill-rule="evenodd" clip-rule="evenodd" d="M46.562 6.35507H7.93164L27.2434 0L46.562 6.35507Z" fill="#8D2F2F"/>
<path fill-rule="evenodd" clip-rule="evenodd" d="M52.9121 28.324L58.6509 31.4878H52.9121V28.324Z" fill="#9D3533"/>
<path fill-rule="evenodd" clip-rule="evenodd" d="M54.7261 38.5347H55.9862V39.2606H57.1641V39.9865H53.3223V37.8157H54.7261V38.5347Z" fill="#4A0900"/>
<path d="M59.1639 31.4875H52.6582V32.0286H59.1639V31.4875Z" fill="#CC8558"/>
<path d="M58.0602 32.0286H57.1699V39.9861H58.0602V32.0286Z" fill="#CC8558"/>
<path fill-rule="evenodd" clip-rule="evenodd" d="M1.57812 6.35543H10.5903L27.2449 1.17139L43.8996 6.35543H52.9118V39.9866H1.57812V6.35543Z" fill="#84444E"/>
<path d="M52.9118 29.1665H1.57812V39.9866H52.9118V29.1665Z" fill="#B6A879"/>
<path d="M53.3224 36.8153H1.17383V39.986H53.3224V36.8153Z" fill="#4A0900"/>
<path d="M52.9118 30.1251H1.57812V30.3032H52.9118V30.1251Z" fill="#A7926F"/>
<path d="M52.9118 30.9264H1.57812V31.1044H52.9118V30.9264Z" fill="#A7926F"/>
<path d="M52.9118 31.7753H1.57812V31.9533H52.9118V31.7753Z" fill="#A7926F"/>
<path d="M52.9118 32.5902H1.57812V32.7683H52.9118V32.5902Z" fill="#A7926F"/>
<path d="M52.9118 33.3641H1.57812V33.5422H52.9118V33.3641Z" fill="#A7926F"/>
<path d="M52.9118 34.1654H1.57812V34.3435H52.9118V34.1654Z" fill="#A7926F"/>
<path d="M52.9118 34.9873H1.57812V35.1722H52.9118V34.9873Z" fill="#A7926F"/>
<path d="M52.9118 35.8362H1.57812V36.0142H52.9118V35.8362Z" fill="#A7926F"/>
<path d="M52.9118 36.6306H1.57812V36.8087H52.9118V36.6306Z" fill="#A7926F"/>
<path d="M53.1303 29.1665H1.36523V29.5158H53.1303V29.1665Z" fill="#F0C179"/>
<path fill-rule="evenodd" clip-rule="evenodd" d="M4.76953 40.0001H25.4098V27.9679C25.408 27.1839 25.0957 26.4324 24.5413 25.878C23.9869 25.3236 23.2355 25.0113 22.4514 25.0095H7.72793C6.94387 25.0113 6.19243 25.3236 5.63802 25.878C5.0836 26.4324 4.77134 27.1839 4.76953 27.9679V40.0001Z" fill="#F0C179"/>
<path fill-rule="evenodd" clip-rule="evenodd" d="M5.09766 40.0002H25.0874V28.0708C25.0785 27.3471 24.787 26.6555 24.2752 26.1437C23.7634 25.6319 23.0719 25.3404 22.3481 25.3315H7.8643C7.14057 25.3404 6.44898 25.6319 5.93718 26.1437C5.42538 26.6555 5.13393 27.3471 5.12505 28.0708L5.09766 40.0002Z" fill="#B6A879"/>
<path fill-rule="evenodd" clip-rule="evenodd" d="M6.19922 39.9999H24.0044V28.2759C24.0026 27.7994 23.812 27.3431 23.4744 27.0068C23.1369 26.6705 22.6798 26.4817 22.2033 26.4817H8.00028C7.5238 26.4817 7.06672 26.6705 6.72915 27.0068C6.39158 27.3431 6.20103 27.7994 6.19922 28.2759V39.9999Z" fill="#F0C179"/>
<path fill-rule="evenodd" clip-rule="evenodd" d="M6.46094 39.9999H23.7251V28.2828C23.7251 27.8741 23.5628 27.4822 23.2738 27.1932C22.9848 26.9043 22.5929 26.7419 22.1843 26.7419H8.00177C7.59311 26.7419 7.20119 26.9043 6.91223 27.1932C6.62327 27.4822 6.46094 27.8741 6.46094 28.2828V39.9999Z" fill="#9D3533"/>
<path fill-rule="evenodd" clip-rule="evenodd" d="M14.3632 26.4818L13.8496 24.4753H16.3355L15.8219 26.4818H14.3632Z" fill="#F0C179"/>
<path d="M25.0869 39.8015H23.9844V39.9864H25.0869V39.8015Z" fill="#F0C179"/>
<path d="M25.0869 39.0002H23.9844V39.1851H25.0869V39.0002Z" fill="#F0C179"/>
<path d="M25.0869 38.2058H23.9844V38.3839H25.0869V38.2058Z" fill="#F0C179"/>
<path d="M25.0869 37.4044H23.9844V37.5893H25.0869V37.4044Z" fill="#F0C179"/>
<path d="M25.0869 36.6238H23.9844V36.8087H25.0869V36.6238Z" fill="#F0C179"/>
<path d="M25.0869 35.8224H23.9844V36.0004H25.0869V35.8224Z" fill="#F0C179"/>
<path d="M25.0869 34.9736H23.9844V35.1585H25.0869V34.9736Z" fill="#F0C179"/>
<path d="M25.0869 34.1722H23.9844V34.3571H25.0869V34.1722Z" fill="#F0C179"/>
<path d="M25.0869 33.3573H23.9844V33.5422H25.0869V33.3573Z" fill="#F0C179"/>
<path d="M25.0869 32.5834H23.9844V32.7683H25.0869V32.5834Z" fill="#F0C179"/>
<path d="M25.0869 31.7821H23.9844V31.967H25.0869V31.7821Z" fill="#F0C179"/>
<path d="M25.0869 30.9332H23.9844V31.1181H25.0869V30.9332Z" fill="#F0C179"/>
<path d="M25.0869 30.1251H23.9844V30.3032H25.0869V30.1251Z" fill="#F0C179"/>
<path d="M6.20021 39.8015H5.09766V39.9864H6.20021V39.8015Z" fill="#F0C179"/>
<path d="M6.20021 39.0002H5.09766V39.1851H6.20021V39.0002Z" fill="#F0C179"/>
<path d="M6.20021 38.2058H5.09766V38.3839H6.20021V38.2058Z" fill="#F0C179"/>
<path d="M6.20021 37.4044H5.09766V37.5893H6.20021V37.4044Z" fill="#F0C179"/>
<path d="M6.20021 36.6238H5.09766V36.8087H6.20021V36.6238Z" fill="#F0C179"/>
<path d="M6.20021 35.8224H5.09766V36.0004H6.20021V35.8224Z" fill="#F0C179"/>
<path d="M6.20021 34.9736H5.09766V35.1585H6.20021V34.9736Z" fill="#F0C179"/>
<path d="M6.20021 34.1722H5.09766V34.3571H6.20021V34.1722Z" fill="#F0C179"/>
<path d="M6.20021 33.3573H5.09766V33.5422H6.20021V33.3573Z" fill="#F0C179"/>
<path d="M6.20021 32.5834H5.09766V32.7683H6.20021V32.5834Z" fill="#F0C179"/>
<path d="M6.20021 31.7821H5.09766V31.967H6.20021V31.7821Z" fill="#F0C179"/>
<path d="M6.20021 30.9332H5.09766V31.1181H6.20021V30.9332Z" fill="#F0C179"/>
<path d="M6.20021 30.1251H5.09766V30.3032H6.20021V30.1251Z" fill="#F0C179"/>
<path d="M25.6147 28.817H23.7246V29.5087H25.6147V28.817Z" fill="#F0C179"/>
<path d="M6.46625 28.817H4.57617V29.5087H6.46625V28.817Z" fill="#F0C179"/>
<path d="M8.61792 30.4946H7.11133V33.364H8.61792V30.4946Z" fill="#752730"/>
<path d="M8.61792 33.6449H7.11133V36.5143H8.61792V33.6449Z" fill="#752730"/>
<path d="M10.4187 30.4946H8.91211V33.364H10.4187V30.4946Z" fill="#752730"/>
<path d="M10.4187 33.6449H8.91211V36.5143H10.4187V33.6449Z" fill="#752730"/>
<path d="M12.239 30.4946H10.7324V33.364H12.239V30.4946Z" fill="#752730"/>
<path d="M12.239 33.6449H10.7324V36.5143H12.239V33.6449Z" fill="#752730"/>
<path d="M14.0417 30.4946H12.5352V33.364H14.0417V30.4946Z" fill="#752730"/>
<path d="M14.0417 33.6449H12.5352V36.5143H14.0417V33.6449Z" fill="#752730"/>
<path d="M15.8425 30.4946H14.3359V33.364H15.8425V30.4946Z" fill="#752730"/>
<path d="M15.8425 33.6449H14.3359V36.5143H15.8425V33.6449Z" fill="#752730"/>
<path d="M17.6492 30.4946H16.1426V33.364H17.6492V30.4946Z" fill="#752730"/>
<path d="M17.6492 33.6449H16.1426V36.5143H17.6492V33.6449Z" fill="#752730"/>
<path d="M19.4656 30.4946H17.959V33.364H19.4656V30.4946Z" fill="#752730"/>
<path d="M19.4656 33.6449H17.959V36.5143H19.4656V33.6449Z" fill="#752730"/>
<path d="M21.2664 30.4946H19.7598V33.364H21.2664V30.4946Z" fill="#752730"/>
<path d="M21.2664 33.6449H19.7598V36.5143H21.2664V33.6449Z" fill="#752730"/>
<path d="M23.073 30.4946H21.5664V33.364H23.073V30.4946Z" fill="#752730"/>
<path d="M23.073 33.6449H21.5664V36.5143H23.073V33.6449Z" fill="#752730"/>
<path d="M23.0675 36.8085H7.11133V37.2057H23.0675V36.8085Z" fill="#752730"/>
<path d="M23.0675 29.7482H7.11133V30.1454H23.0675V29.7482Z" fill="#752730"/>
<path fill-rule="evenodd" clip-rule="evenodd" d="M29.0254 40.0001H49.6931V27.9679C49.6913 27.1839 49.379 26.4324 48.8246 25.878C48.2702 25.3236 47.5187 25.0113 46.7347 25.0095H31.9838C31.1997 25.0113 30.4483 25.3236 29.8939 25.878C29.3395 26.4324 29.0272 27.1839 29.0254 27.9679V40.0001Z" fill="#F0C179"/>
<path fill-rule="evenodd" clip-rule="evenodd" d="M29.3535 40.0002H49.3432V28.0708C49.3343 27.3471 49.0429 26.6555 48.5311 26.1437C48.0193 25.6319 47.3277 25.3404 46.604 25.3315H32.1202C31.3964 25.3404 30.7048 25.6319 30.193 26.1437C29.6812 26.6555 29.3898 27.3471 29.3809 28.0708L29.3535 40.0002Z" fill="#B6A879"/>
<path fill-rule="evenodd" clip-rule="evenodd" d="M30.457 39.9999H48.2622V28.2759C48.2604 27.8006 48.0708 27.3453 47.7347 27.0092C47.3986 26.6731 46.9433 26.4835 46.468 26.4817H32.2581C31.7816 26.4817 31.3245 26.6705 30.987 27.0068C30.6494 27.3431 30.4588 27.7994 30.457 28.2759V39.9999Z" fill="#F0C179"/>
<path fill-rule="evenodd" clip-rule="evenodd" d="M30.7227 39.9999H47.98V28.2828C47.98 27.8741 47.8176 27.4822 47.5287 27.1932C47.2397 26.9043 46.8478 26.7419 46.4391 26.7419H32.2566C31.8492 26.7438 31.459 26.9069 31.1715 27.1957C30.884 27.4844 30.7227 27.8753 30.7227 28.2828V39.9999Z" fill="#9D3533"/>
<path fill-rule="evenodd" clip-rule="evenodd" d="M38.6191 26.4818L38.1055 24.4753H40.5982L40.0777 26.4818H38.6191Z" fill="#F0C179"/>
<path d="M49.3428 39.8015H48.2402V39.9864H49.3428V39.8015Z" fill="#F0C179"/>
<path d="M49.3428 39.0002H48.2402V39.1851H49.3428V39.0002Z" fill="#F0C179"/>
<path d="M49.3428 38.2058H48.2402V38.3839H49.3428V38.2058Z" fill="#F0C179"/>
<path d="M49.3428 37.4044H48.2402V37.5893H49.3428V37.4044Z" fill="#F0C179"/>
<path d="M49.3428 36.6238H48.2402V36.8087H49.3428V36.6238Z" fill="#F0C179"/>
<path d="M49.3428 35.8224H48.2402V36.0004H49.3428V35.8224Z" fill="#F0C179"/>
<path d="M49.3428 34.9736H48.2402V35.1585H49.3428V34.9736Z" fill="#F0C179"/>
<path d="M49.3428 34.1722H48.2402V34.3571H49.3428V34.1722Z" fill="#F0C179"/>
<path d="M49.3428 33.3573H48.2402V33.5422H49.3428V33.3573Z" fill="#F0C179"/>
<path d="M49.3428 32.5834H48.2402V32.7683H49.3428V32.5834Z" fill="#F0C179"/>
<path d="M49.3428 31.7821H48.2402V31.967H49.3428V31.7821Z" fill="#F0C179"/>
<path d="M49.3428 30.9332H48.2402V31.1181H49.3428V30.9332Z" fill="#F0C179"/>
<path d="M49.3428 30.1251H48.2402V30.3032H49.3428V30.1251Z" fill="#F0C179"/>
<path d="M30.4561 39.8015H29.3535V39.9864H30.4561V39.8015Z" fill="#F0C179"/>
<path d="M30.4561 39.0002H29.3535V39.1851H30.4561V39.0002Z" fill="#F0C179"/>
<path d="M30.4561 38.2058H29.3535V38.3839H30.4561V38.2058Z" fill="#F0C179"/>
<path d="M30.4561 37.4044H29.3535V37.5893H30.4561V37.4044Z" fill="#F0C179"/>
<path d="M30.4561 36.6238H29.3535V36.8087H30.4561V36.6238Z" fill="#F0C179"/>
<path d="M30.4561 35.8224H29.3535V36.0004H30.4561V35.8224Z" fill="#F0C179"/>
<path d="M30.4561 34.9736H29.3535V35.1585H30.4561V34.9736Z" fill="#F0C179"/>
<path d="M30.4561 34.1722H29.3535V34.3571H30.4561V34.1722Z" fill="#F0C179"/>
<path d="M30.4561 33.3573H29.3535V33.5422H30.4561V33.3573Z" fill="#F0C179"/>
<path d="M30.4561 32.5834H29.3535V32.7683H30.4561V32.5834Z" fill="#F0C179"/>
<path d="M30.4561 31.7821H29.3535V31.967H30.4561V31.7821Z" fill="#F0C179"/>
<path d="M30.4561 30.9332H29.3535V31.1181H30.4561V30.9332Z" fill="#F0C179"/>
<path d="M30.4561 30.1251H29.3535V30.3032H30.4561V30.1251Z" fill="#F0C179"/>
<path d="M49.8706 28.817H47.9805V29.5087H49.8706V28.817Z" fill="#F0C179"/>
<path d="M30.7241 28.817H28.834V29.5087H30.7241V28.817Z" fill="#F0C179"/>
<path d="M32.8796 30.4946H31.373V33.364H32.8796V30.4946Z" fill="#752730"/>
<path d="M32.8796 33.6449H31.373V36.5143H32.8796V33.6449Z" fill="#752730"/>
<path d="M34.6804 30.4946H33.1738V33.364H34.6804V30.4946Z" fill="#752730"/>
<path d="M34.6804 33.6449H33.1738V36.5143H34.6804V33.6449Z" fill="#752730"/>
<path d="M36.4968 30.4946H34.9902V33.364H36.4968V30.4946Z" fill="#752730"/>
<path d="M36.4968 33.6449H34.9902V36.5143H36.4968V33.6449Z" fill="#752730"/>
<path d="M38.2976 30.4946H36.791V33.364H38.2976V30.4946Z" fill="#752730"/>
<path d="M38.2976 33.6449H36.791V36.5143H38.2976V33.6449Z" fill="#752730"/>
<path d="M40.1042 30.4946H38.5977V33.364H40.1042V30.4946Z" fill="#752730"/>
<path d="M40.1042 33.6449H38.5977V36.5143H40.1042V33.6449Z" fill="#752730"/>
<path d="M41.905 30.4946H40.3984V33.364H41.905V30.4946Z" fill="#752730"/>
<path d="M41.905 33.6449H40.3984V36.5143H41.905V33.6449Z" fill="#752730"/>
<path d="M43.7214 30.4946H42.2148V33.364H43.7214V30.4946Z" fill="#752730"/>
<path d="M43.7214 33.6449H42.2148V36.5143H43.7214V33.6449Z" fill="#752730"/>
<path d="M45.5281 30.4946H44.0215V33.364H45.5281V30.4946Z" fill="#752730"/>
<path d="M45.5281 33.6449H44.0215V36.5143H45.5281V33.6449Z" fill="#752730"/>
<path d="M47.3289 30.4946H45.8223V33.364H47.3289V30.4946Z" fill="#752730"/>
<path d="M47.3289 33.6449H45.8223V36.5143H47.3289V33.6449Z" fill="#752730"/>
<path d="M47.3292 36.8085H31.373V37.2057H47.3292V36.8085Z" fill="#752730"/>
<path d="M47.3292 29.7482H31.373V30.1454H47.3292V29.7482Z" fill="#752730"/>
<path d="M11.3915 13.4634H6.51562V21.5305H11.3915V13.4634Z" fill="#F0C179"/>
<path d="M10.9172 13.8947H6.98633V21.0989H10.9172V13.8947Z" fill="#414764"/>
<path d="M11.9384 21.5377H5.9668V22.3732H11.9384V21.5377Z" fill="#B6A879"/>
<path fill-rule="evenodd" clip-rule="evenodd" d="M5.9668 13.4634H11.9384V12.628L8.95258 12.2034L5.9668 12.628V13.4634Z" fill="#B6A879"/>
<path fill-rule="evenodd" clip-rule="evenodd" d="M6.1582 13.2783H11.7531V12.7647L8.95224 12.3881L6.1582 12.7647V13.2783Z" fill="#F0C179"/>
<path fill-rule="evenodd" clip-rule="evenodd" d="M6.98633 15.2371H10.9172V15.4904H9.09556V21.0991H8.80793V15.4904H6.98633V15.2371Z" fill="#F0C179"/>
<path d="M23.7235 13.4634H18.8477V21.5305H23.7235V13.4634Z" fill="#F0C179"/>
<path d="M23.2531 13.8947H19.3223V21.0989H23.2531V13.8947Z" fill="#414764"/>
<path d="M24.2724 21.5377H18.3008V22.3732H24.2724V21.5377Z" fill="#B6A879"/>
<path fill-rule="evenodd" clip-rule="evenodd" d="M18.3008 13.4634H24.2724V12.628L21.2866 12.2034L18.3008 12.628V13.4634Z" fill="#B6A879"/>
<path fill-rule="evenodd" clip-rule="evenodd" d="M18.4844 13.2783H24.0793V12.7647L21.2853 12.3881L18.4844 12.7647V13.2783Z" fill="#F0C179"/>
<path fill-rule="evenodd" clip-rule="evenodd" d="M19.3223 15.2371H23.2531V15.4904H21.4315V21.0991H21.1439V15.4904H19.3223V15.2371Z" fill="#F0C179"/>
<path d="M35.2704 13.4634H30.3945V21.5305H35.2704V13.4634Z" fill="#F0C179"/>
<path d="M34.798 13.8947H30.8672V21.0989H34.798V13.8947Z" fill="#414764"/>
<path d="M35.8173 21.5377H29.8457V22.3732H35.8173V21.5377Z" fill="#B6A879"/>
<path fill-rule="evenodd" clip-rule="evenodd" d="M29.8457 13.4634H35.8173V12.628L32.8315 12.2034L29.8457 12.628V13.4634Z" fill="#B6A879"/>
<path fill-rule="evenodd" clip-rule="evenodd" d="M30.0312 13.2783H35.6262V12.7647L32.8321 12.3881L30.0312 12.7647V13.2783Z" fill="#F0C179"/>
<path fill-rule="evenodd" clip-rule="evenodd" d="M30.8672 15.2371H34.798V15.4904H32.9764V21.0991H32.6888V15.4904H30.8672V15.2371Z" fill="#F0C179"/>
<path d="M47.6044 13.4634H42.7285V21.5305H47.6044V13.4634Z" fill="#F0C179"/>
<path d="M47.1242 13.8947H43.1934V21.0989H47.1242V13.8947Z" fill="#414764"/>
<path d="M48.1454 21.5377H42.1738V22.3732H48.1454V21.5377Z" fill="#B6A879"/>
<path fill-rule="evenodd" clip-rule="evenodd" d="M42.1738 13.4634H48.1522V12.628L45.1596 12.2034L42.1738 12.628V13.4634Z" fill="#B6A879"/>
<path fill-rule="evenodd" clip-rule="evenodd" d="M42.3652 13.2783H47.9602V12.7647L45.1593 12.3881L42.3652 12.7647V13.2783Z" fill="#F0C179"/>
<path fill-rule="evenodd" clip-rule="evenodd" d="M43.1934 15.2371H47.1242V15.4904H45.3026V21.0991H45.015V15.4904H43.1934V15.2371Z" fill="#F0C179"/>
<path d="M53.2117 8.27283H1.27539V9.95747H53.2117V8.27283Z" fill="#B6A879"/>
<path d="M53.2117 9.95728H1.27539V10.3819H53.2117V9.95728Z" fill="#F0C179"/>
<path d="M53.2117 7.85474H1.27539V8.27932H53.2117V7.85474Z" fill="#F0C179"/>
<path d="M35.1806 4.2251H19.3066V7.00544H35.1806V4.2251Z" fill="#72363D"/>
<path fill-rule="evenodd" clip-rule="evenodd" d="M34.0712 4.79375H33.941C33.8109 4.79375 33.763 4.84854 33.763 4.99235V5.42378C33.763 5.58813 33.763 5.86206 33.763 6.0675L33.6055 5.71825L33.2562 4.80745H33.0713C33.0098 4.80145 32.9479 4.80145 32.8864 4.80745V6.44415H33.0371H33.1809V5.84152C33.1809 5.65662 33.1809 5.38269 33.1809 5.19779C33.2151 5.29366 33.2631 5.41008 33.3179 5.5265L33.7561 6.44415H33.941C34.0048 6.45017 34.069 6.45017 34.1328 6.44415V4.80745L34.0712 4.79375ZM31.2018 5.61553C31.1953 5.7409 31.2144 5.86627 31.258 5.98401C31.3016 6.10175 31.3686 6.20938 31.4552 6.30034C31.5784 6.39602 31.7306 6.44676 31.8866 6.44415C32.0432 6.45094 32.1968 6.39974 32.318 6.30034C32.4046 6.20938 32.4716 6.10175 32.5152 5.98401C32.5588 5.86627 32.5779 5.7409 32.5714 5.61553C32.5787 5.49008 32.56 5.36447 32.5164 5.24662C32.4727 5.12876 32.4052 5.02121 32.318 4.93071C32.1968 4.83132 32.0432 4.78011 31.8866 4.7869C31.7306 4.78429 31.5784 4.83503 31.4552 4.93071C31.368 5.02121 31.3005 5.12876 31.2568 5.24662C31.2132 5.36447 31.1945 5.49008 31.2018 5.61553ZM31.5373 5.61553C31.5373 5.34845 31.5853 5.01974 31.8866 5.01974C32.1879 5.01974 32.2359 5.34845 32.2359 5.61553C32.2359 5.8826 32.1879 6.20447 31.8866 6.20447C31.5853 6.20447 31.5373 5.8826 31.5373 5.61553ZM30.5718 6.44415H30.7293H30.8868V4.80745H30.7293H30.5718V6.44415ZM29.6199 6.44415H29.7774H29.9349V5.07452H30.1883C30.3047 5.07452 30.3595 5.03344 30.3595 4.93071C30.3632 4.88971 30.3632 4.84845 30.3595 4.80745H29.2158C29.2097 4.85061 29.2097 4.8944 29.2158 4.93756C29.2094 4.98299 29.2094 5.0291 29.2158 5.07452H29.6199V6.44415ZM28.4625 5.50596L28.3735 5.80727H28.7844L28.7091 5.56759C28.668 5.43063 28.62 5.24573 28.5858 5.10876C28.5858 5.22518 28.5105 5.39639 28.4762 5.50596H28.4625ZM28.4077 6.06066H28.2982L28.1818 6.43045C28.1364 6.43787 28.0901 6.43787 28.0448 6.43045C27.9948 6.43757 27.9441 6.43757 27.8941 6.43045L28.4214 4.84169H28.6063H28.7912L29.3117 6.4373C29.2541 6.46521 29.1908 6.47928 29.1268 6.47839C29.0241 6.47839 28.9761 6.4373 28.9351 6.30719L28.8734 6.08805H28.4214L28.4077 6.06066ZM27.2436 6.42361H27.4011H27.5654V5.07452H27.8188C27.9352 5.07452 27.99 5.03344 27.99 4.93071C27.9972 4.88994 27.9972 4.84822 27.99 4.80745H26.8601C26.8574 4.85078 26.8574 4.89423 26.8601 4.93756C26.857 4.98316 26.857 5.02892 26.8601 5.07452H27.271C27.271 5.14301 27.271 5.19094 27.271 5.25258V6.44415L27.2436 6.42361ZM25.5452 6.2798C25.7214 6.39215 25.9252 6.45376 26.1342 6.45785C26.5314 6.45785 26.73 6.24555 26.73 5.96478C26.7258 5.86251 26.69 5.76406 26.6274 5.68307C26.5649 5.60208 26.4786 5.54257 26.3807 5.5128L26.0999 5.38954C25.9904 5.3416 25.9287 5.29367 25.9287 5.21149C25.9287 5.12931 26.0109 5.03344 26.1616 5.03344C26.3065 5.0431 26.4483 5.08028 26.5793 5.14301C26.6138 5.11334 26.6414 5.07655 26.6604 5.03517C26.6793 4.9938 26.689 4.94881 26.6889 4.90332C26.5255 4.81994 26.345 4.77541 26.1616 4.77321C26.0933 4.76664 26.0245 4.77398 25.9592 4.79478C25.8939 4.81557 25.8335 4.8494 25.7816 4.89421C25.7298 4.93902 25.6876 4.99389 25.6575 5.05548C25.6275 5.11708 25.6102 5.18413 25.6069 5.25258C25.6111 5.34862 25.645 5.44099 25.7039 5.51702C25.7627 5.59304 25.8437 5.64898 25.9356 5.67716L26.2163 5.79358C26.3533 5.85521 26.4012 5.93054 26.4012 6.00587C26.4012 6.0812 26.3191 6.19762 26.1547 6.19762C25.984 6.18727 25.8189 6.13301 25.6753 6.04011C25.6076 6.10414 25.562 6.1881 25.5452 6.2798ZM24.8604 6.16338H24.114V5.75934H24.6687C24.6959 5.67473 24.6959 5.58371 24.6687 5.49911H24.114V5.07452H24.7988C24.8049 5.02679 24.8049 4.97845 24.7988 4.93071C24.8018 4.88968 24.8018 4.84848 24.7988 4.80745H23.8127V6.23871C23.8095 6.26405 23.812 6.28978 23.8201 6.31401C23.8282 6.33825 23.8416 6.36036 23.8593 6.37875C23.877 6.39713 23.8986 6.41132 23.9226 6.42027C23.9465 6.42921 23.9721 6.43269 23.9975 6.43045H24.6824C24.7304 6.43631 24.7788 6.4231 24.8172 6.39365C24.8557 6.3642 24.881 6.32087 24.8878 6.27295C24.8907 6.23648 24.8907 6.19984 24.8878 6.16338H24.8604ZM22.6964 5.07452H22.9087C22.9759 5.07452 23.0403 5.10122 23.0879 5.14874C23.1354 5.19626 23.1621 5.2607 23.1621 5.32791C23.1621 5.39511 23.1354 5.45955 23.0879 5.50707C23.0403 5.55459 22.9759 5.58129 22.9087 5.58129H22.6964V5.07452ZM23.4908 5.32791C23.4908 4.99235 23.2648 4.82799 22.9361 4.82799H22.3951V6.44415H22.5526H22.7101V5.82097H22.8539C22.9049 5.81837 22.9552 5.83425 22.9954 5.8657C23.0357 5.89714 23.0632 5.94205 23.0731 5.99217L23.1689 6.27295C23.2169 6.39621 23.258 6.4647 23.3744 6.4647C23.4136 6.46525 23.4525 6.45691 23.4881 6.44031C23.5237 6.4237 23.555 6.39926 23.5798 6.36882C23.5318 6.31998 23.4945 6.26168 23.4702 6.19762L23.3812 5.95793C23.37 5.91217 23.3488 5.86944 23.3192 5.83276C23.2896 5.79608 23.2524 5.76634 23.21 5.74564C23.2977 5.71305 23.3731 5.65405 23.4259 5.57677C23.4786 5.4995 23.5061 5.40776 23.5045 5.31421L23.4908 5.32791ZM21.6623 6.44415H21.8198H21.9773V4.80745H21.8198H21.6623V6.44415ZM20.7241 6.44415V5.75934H21.2583C21.2644 5.71618 21.2644 5.67238 21.2583 5.62922C21.2649 5.5861 21.2649 5.54223 21.2583 5.49911H20.7241V5.32106C20.7241 5.24573 20.7241 5.1704 20.7241 5.08822H21.2446C21.361 5.08822 21.4158 5.04713 21.4158 4.94441C21.423 4.90363 21.423 4.86192 21.4158 4.82114H20.4434V6.44415H20.6077H20.7652H20.7241Z" fill="#F0C179"/>
<path d="M4.83099 10.6693H1.57812V11.9705H4.83099V10.6693Z" fill="#72363D"/>
<path d="M3.20798 12.101H1.57812V13.4021H3.20798V12.101Z" fill="#9B494F"/>
<path d="M4.83099 13.5938H1.57812V14.8949H4.83099V13.5938Z" fill="#913E42"/>
<path d="M3.20798 19.5033H1.57812V20.8044H3.20798V19.5033Z" fill="#72363D"/>
<path d="M4.83099 21.0715H1.57812V22.3727H4.83099V21.0715Z" fill="#913E42"/>
<path d="M3.20798 22.7291H1.57812V24.0303H3.20798V22.7291Z" fill="#9B494F"/>
<path d="M13.0205 15.2782H11.3906V16.5793H13.0205V15.2782Z" fill="#9B494F"/>
<path d="M15.2939 16.8121H12.041V18.1133H15.2939V16.8121Z" fill="#913E42"/>
<path d="M16.5615 15.2507H13.3086V16.5519H16.5615V15.2507Z" fill="#72363D"/>
<path d="M52.9111 10.6693H49.6582V11.9705H52.9111V10.6693Z" fill="#72363D"/>
<path d="M52.9189 12.101H51.2891V13.4021H52.9189V12.101Z" fill="#9B494F"/>
<path d="M52.9111 13.5938H49.6582V14.8949H52.9111V13.5938Z" fill="#913E42"/>
<path d="M52.9189 19.5033H51.2891V20.8044H52.9189V19.5033Z" fill="#72363D"/>
<path d="M52.9111 21.0715H49.6582V22.3727H52.9111V21.0715Z" fill="#913E42"/>
<path d="M52.9189 22.7223H51.2891V24.0234H52.9189V22.7223Z" fill="#9B494F"/>
<path d="M3.20798 27.5707H1.57812V28.8718H3.20798V27.5707Z" fill="#9B494F"/>
<path d="M26.7789 19.6816H23.7246V20.9828H26.7789V19.6816Z" fill="#72363D"/>
<path d="M28.4013 18.1614H25.1484V19.4625H28.4013V18.1614Z" fill="#913E42"/>
<path d="M30.0997 16.6549H26.7578V17.9561H30.0997V16.6549Z" fill="#9B494F"/>
<path d="M38.9267 13.8608H37.2969V15.162H38.9267V13.8608Z" fill="#9B494F"/>
<path d="M41.2001 15.3949H37.9473V16.696H41.2001V15.3949Z" fill="#913E42"/>
<path d="M42.4677 13.8265H39.2148V15.1277H42.4677V13.8265Z" fill="#72363D"/>
<path d="M35.8036 22.5918H32.5508V23.8929H35.8036V22.5918Z" fill="#913E42"/>
<path d="M37.7627 22.5581H36.1328V23.8593H37.7627V22.5581Z" fill="#9B494F"/>
<path d="M28.0595 27.8652H26.4297V29.1664H28.0595V27.8652Z" fill="#9B494F"/>
<path d="M28.8336 26.2284H25.7793V27.5295H28.8336V26.2284Z" fill="#72363D"/>
<path d="M52.9113 27.7349H50.6172V29.036H52.9113V27.7349Z" fill="#72363D"/>
</svg>
