<svg width="50" height="40" viewBox="0 0 50 40" fill="none" xmlns="http://www.w3.org/2000/svg">
<path d="M49.2 26.5725H0.632812V38.9938H49.2V26.5725Z" fill="#815C4A"/>
<path d="M49.9596 25.7015H0.0390625V26.5724H49.9596V25.7015Z" fill="#E39C59"/>
<path d="M32.8065 1.29431H17.0312V39.5408H32.8065V1.29431Z" fill="#646391"/>
<path d="M33.226 0H16.6094V1.2945H33.226V0Z" fill="#E39C59"/>
<path d="M18.9861 1.45325H17.1855V5.81335H18.9861V1.45325Z" fill="#414764"/>
<path d="M20.9333 1.45325H19.1328V5.81335H20.9333V1.45325Z" fill="#414764"/>
<path d="M22.8943 1.45325H21.0938V5.81335H22.8943V1.45325Z" fill="#414764"/>
<path d="M24.8396 1.45325H23.0391V5.81335H24.8396V1.45325Z" fill="#414764"/>
<path d="M26.8005 1.45325H25V5.81335H26.8005V1.45325Z" fill="#515687"/>
<path d="M28.7478 1.45325H26.9473V5.81335H28.7478V1.45325Z" fill="#414764"/>
<path d="M30.7068 1.45325H28.9062V5.81335H30.7068V1.45325Z" fill="#414764"/>
<path d="M32.656 1.45325H30.8555V5.81335H32.656V1.45325Z" fill="#414764"/>
<path d="M18.9861 6.00195H17.1855V10.3621H18.9861V6.00195Z" fill="#414764"/>
<path d="M20.9333 6.00195H19.1328V10.3621H20.9333V6.00195Z" fill="#414764"/>
<path d="M22.8943 6.00195H21.0938V10.3621H22.8943V6.00195Z" fill="#4E537B"/>
<path d="M24.8396 6.00195H23.0391V10.3621H24.8396V6.00195Z" fill="#414764"/>
<path d="M26.8005 6.00195H25V10.3621H26.8005V6.00195Z" fill="#414764"/>
<path d="M28.7478 6.00195H26.9473V10.3621H28.7478V6.00195Z" fill="#4E537B"/>
<path d="M30.7068 6.00195H28.9062V10.3621H30.7068V6.00195Z" fill="#414764"/>
<path d="M32.656 6.00195H30.8555V10.3621H32.656V6.00195Z" fill="#444B7C"/>
<path d="M18.9861 10.5031H17.1855V14.8632H18.9861V10.5031Z" fill="#414764"/>
<path d="M20.9333 10.5031H19.1328V14.8632H20.9333V10.5031Z" fill="#414764"/>
<path d="M22.8943 10.5031H21.0938V14.8632H22.8943V10.5031Z" fill="#414764"/>
<path d="M24.8396 10.5031H23.0391V14.8632H24.8396V10.5031Z" fill="#414764"/>
<path d="M26.8005 10.5031H25V14.8632H26.8005V10.5031Z" fill="#444B7C"/>
<path d="M28.7478 10.5031H26.9473V14.8632H28.7478V10.5031Z" fill="#414764"/>
<path d="M30.7068 10.5031H28.9062V14.8632H30.7068V10.5031Z" fill="#414764"/>
<path d="M32.656 10.5031H30.8555V14.8632H32.656V10.5031Z" fill="#414764"/>
<path d="M18.9861 15.0511H17.1855V19.4113H18.9861V15.0511Z" fill="#414764"/>
<path d="M20.9333 15.0511H19.1328V19.4113H20.9333V15.0511Z" fill="#414764"/>
<path d="M22.8943 15.0511H21.0938V19.4113H22.8943V15.0511Z" fill="#515687"/>
<path d="M24.8396 15.0511H23.0391V19.4113H24.8396V15.0511Z" fill="#444B7C"/>
<path d="M26.8005 15.0511H25V19.4113H26.8005V15.0511Z" fill="#414764"/>
<path d="M28.7478 15.0511H26.9473V19.4113H28.7478V15.0511Z" fill="#414764"/>
<path d="M30.7068 15.0511H28.9062V19.4113H30.7068V15.0511Z" fill="#515687"/>
<path d="M32.656 15.0511H30.8555V19.4113H32.656V15.0511Z" fill="#414764"/>
<path d="M18.9861 19.3882H17.1855V23.7483H18.9861V19.3882Z" fill="#414764"/>
<path d="M20.9333 19.3882H19.1328V23.7483H20.9333V19.3882Z" fill="#414764"/>
<path d="M22.8943 19.3882H21.0938V23.7483H22.8943V19.3882Z" fill="#515687"/>
<path d="M24.8396 19.3882H23.0391V23.7483H24.8396V19.3882Z" fill="#444B7C"/>
<path d="M26.8005 19.3882H25V23.7483H26.8005V19.3882Z" fill="#414764"/>
<path d="M28.7478 19.3882H26.9473V23.7483H28.7478V19.3882Z" fill="#4E537B"/>
<path d="M30.7068 19.3882H28.9062V23.7483H30.7068V19.3882Z" fill="#414764"/>
<path d="M32.656 19.3882H30.8555V23.7483H32.656V19.3882Z" fill="#414764"/>
<path d="M18.9861 23.9189H17.1855V28.279H18.9861V23.9189Z" fill="#414764"/>
<path d="M20.9333 23.9189H19.1328V28.279H20.9333V23.9189Z" fill="#414764"/>
<path d="M22.8943 23.9189H21.0938V28.279H22.8943V23.9189Z" fill="#444B7C"/>
<path d="M24.8396 23.9189H23.0391V28.279H24.8396V23.9189Z" fill="#4E537B"/>
<path d="M26.8005 23.9189H25V28.279H26.8005V23.9189Z" fill="#515687"/>
<path d="M28.7478 23.9189H26.9473V28.279H28.7478V23.9189Z" fill="#414764"/>
<path d="M30.7068 23.9189H28.9062V28.279H30.7068V23.9189Z" fill="#414764"/>
<path d="M32.656 23.9189H30.8555V28.279H32.656V23.9189Z" fill="#414764"/>
<path d="M18.9861 28.4438H17.1855V32.804H18.9861V28.4438Z" fill="#515687"/>
<path d="M20.9333 28.4438H19.1328V32.804H20.9333V28.4438Z" fill="#414764"/>
<path d="M22.8943 28.4438H21.0938V32.804H22.8943V28.4438Z" fill="#4E537B"/>
<path d="M24.8396 28.4438H23.0391V32.804H24.8396V28.4438Z" fill="#515687"/>
<path d="M26.8005 28.4438H25V32.804H26.8005V28.4438Z" fill="#444B7C"/>
<path d="M28.7478 28.4438H26.9473V32.804H28.7478V28.4438Z" fill="#515687"/>
<path d="M30.7068 28.4438H28.9062V32.804H30.7068V28.4438Z" fill="#4E537B"/>
<path d="M32.656 28.4438H30.8555V32.804H32.656V28.4438Z" fill="#414764"/>
<path d="M18.9861 32.9746H17.1855V37.3347H18.9861V32.9746Z" fill="#414764"/>
<path d="M20.9333 32.9746H19.1328V37.3347H20.9333V32.9746Z" fill="#444B7C"/>
<path d="M22.8943 32.9746H21.0938V37.3347H22.8943V32.9746Z" fill="#515687"/>
<path d="M24.8396 32.9746H23.0391V37.3347H24.8396V32.9746Z" fill="#444B7C"/>
<path d="M26.8005 32.9746H25V37.3347H26.8005V32.9746Z" fill="#515687"/>
<path d="M28.7478 32.9746H26.9473V37.3347H28.7478V32.9746Z" fill="#4E537B"/>
<path d="M30.7068 32.9746H28.9062V37.3347H30.7068V32.9746Z" fill="#444B7C"/>
<path d="M32.656 32.9746H30.8555V37.3347H32.656V32.9746Z" fill="#414764"/>
<path d="M16.6081 38.9939H0.632812V40.0001H16.6081V38.9939Z" fill="#E39C59"/>
<path fill-rule="evenodd" clip-rule="evenodd" d="M24.8994 13.8686C25.5869 13.8674 26.2587 13.6625 26.8298 13.2796C27.4009 12.8968 27.8457 12.3533 28.108 11.7178C28.3703 11.0822 28.4383 10.3832 28.3035 9.70904C28.1686 9.03486 27.837 8.41578 27.3504 7.93003C26.8638 7.44428 26.2442 7.11367 25.5698 6.97997C24.8954 6.84626 24.1965 6.91547 23.5614 7.17885C22.9263 7.44222 22.3835 7.88794 22.0017 8.45968C21.6198 9.03143 21.416 9.70353 21.416 10.3911C21.4191 11.3134 21.7873 12.197 22.4401 12.8487C23.0928 13.5003 23.977 13.867 24.8994 13.8686Z" fill="#646391"/>
<path fill-rule="evenodd" clip-rule="evenodd" d="M24.8999 13.5335C25.5216 13.5335 26.1294 13.349 26.6462 13.0035C27.163 12.658 27.5658 12.1669 27.8034 11.5924C28.041 11.0179 28.1029 10.3859 27.9812 9.77621C27.8595 9.16654 27.5597 8.60668 27.1196 8.16749C26.6796 7.72829 26.1192 7.4295 25.5093 7.30893C24.8994 7.18835 24.2675 7.25142 23.6934 7.49014C23.1194 7.72886 22.6291 8.13251 22.2845 8.64999C21.94 9.16748 21.7567 9.77555 21.7578 10.3973C21.7578 10.8096 21.8391 11.2179 21.9971 11.5988C22.1551 11.9797 22.3866 12.3257 22.6785 12.617C22.9703 12.9083 23.3168 13.1392 23.6979 13.2964C24.0791 13.4537 24.4876 13.5342 24.8999 13.5335Z" fill="#414764"/>
<path fill-rule="evenodd" clip-rule="evenodd" d="M24.8985 10.8619C24.993 10.8619 25.0854 10.8338 25.1639 10.7812C25.2424 10.7285 25.3035 10.6537 25.3394 10.5663C25.3753 10.4789 25.3844 10.3827 25.3655 10.2901C25.3466 10.1975 25.3006 10.1126 25.2334 10.0462C25.1662 9.97979 25.0807 9.93486 24.9878 9.91714C24.895 9.89942 24.799 9.90971 24.712 9.94668C24.625 9.98366 24.551 10.0457 24.4993 10.1248C24.4477 10.204 24.4207 10.2967 24.4219 10.3912C24.4219 10.4535 24.4343 10.5152 24.4583 10.5727C24.4823 10.6302 24.5175 10.6823 24.5618 10.7261C24.6062 10.7699 24.6588 10.8045 24.7166 10.8278C24.7744 10.8511 24.8362 10.8627 24.8985 10.8619Z" fill="#646391"/>
<path fill-rule="evenodd" clip-rule="evenodd" d="M24.8996 7.95537C24.9496 7.95537 24.9985 7.94053 25.0402 7.91273C25.0818 7.88493 25.1142 7.84541 25.1333 7.79918C25.1525 7.75295 25.1575 7.70208 25.1477 7.653C25.138 7.60392 25.1139 7.55883 25.0785 7.52345C25.0431 7.48806 24.998 7.46397 24.9489 7.4542C24.8999 7.44444 24.849 7.44945 24.8027 7.4686C24.7565 7.48775 24.717 7.52018 24.6892 7.56179C24.6614 7.6034 24.6466 7.65231 24.6466 7.70236C24.6457 7.7358 24.6517 7.76907 24.6642 7.80013C24.6766 7.83119 24.6952 7.8594 24.7189 7.88306C24.7425 7.90672 24.7707 7.92532 24.8018 7.93775C24.8329 7.95018 24.8661 7.95618 24.8996 7.95537Z" fill="#646391"/>
<path fill-rule="evenodd" clip-rule="evenodd" d="M24.8989 13.3277C24.9586 13.3185 25.0131 13.2882 25.0525 13.2423C25.0918 13.1965 25.1134 13.138 25.1134 13.0776C25.1134 13.0172 25.0918 12.9587 25.0525 12.9129C25.0131 12.867 24.9586 12.8367 24.8989 12.8275C24.8629 12.822 24.826 12.8243 24.7909 12.8343C24.7559 12.8443 24.7234 12.8618 24.6957 12.8856C24.668 12.9093 24.6458 12.9388 24.6306 12.9719C24.6153 13.0051 24.6074 13.0411 24.6074 13.0776C24.6074 13.1141 24.6153 13.1501 24.6306 13.1833C24.6458 13.2164 24.668 13.2459 24.6957 13.2696C24.7234 13.2934 24.7559 13.3109 24.7909 13.3209C24.826 13.3309 24.8629 13.3332 24.8989 13.3277Z" fill="#646391"/>
<path fill-rule="evenodd" clip-rule="evenodd" d="M27.6579 10.6382C27.694 10.6438 27.7308 10.6415 27.7659 10.6314C27.8009 10.6214 27.8334 10.6039 27.8611 10.5802C27.8888 10.5564 27.911 10.527 27.9263 10.4938C27.9415 10.4607 27.9494 10.4246 27.9494 10.3881C27.9494 10.3517 27.9415 10.3156 27.9263 10.2825C27.911 10.2493 27.8888 10.2199 27.8611 10.1961C27.8334 10.1724 27.8009 10.1549 27.7659 10.1449C27.7308 10.1348 27.694 10.1325 27.6579 10.1381C27.5982 10.1473 27.5437 10.1775 27.5043 10.2234C27.465 10.2693 27.4434 10.3277 27.4434 10.3881C27.4434 10.4486 27.465 10.507 27.5043 10.5529C27.5437 10.5988 27.5982 10.629 27.6579 10.6382Z" fill="#646391"/>
<path fill-rule="evenodd" clip-rule="evenodd" d="M22.1632 10.6384C22.2137 10.6396 22.2634 10.6256 22.3059 10.5982C22.3484 10.5709 22.3818 10.5314 22.4017 10.485C22.4215 10.4385 22.427 10.3872 22.4175 10.3375C22.4079 10.2879 22.3837 10.2423 22.3479 10.2066C22.3122 10.1708 22.2666 10.1466 22.217 10.137C22.1673 10.1275 22.116 10.133 22.0695 10.1528C22.0231 10.1727 21.9836 10.206 21.9563 10.2485C21.9289 10.291 21.9149 10.3408 21.9161 10.3913C21.9161 10.4568 21.9421 10.5197 21.9885 10.566C22.0348 10.6124 22.0977 10.6384 22.1632 10.6384Z" fill="#646391"/>
<path fill-rule="evenodd" clip-rule="evenodd" d="M26.7882 8.67303C26.8368 8.67187 26.884 8.6564 26.9238 8.62855C26.9637 8.6007 26.9944 8.56171 27.0123 8.51646C27.0301 8.47121 27.0341 8.42172 27.0239 8.37418C27.0137 8.32663 26.9898 8.28315 26.955 8.24917C26.9202 8.2152 26.8761 8.19224 26.8284 8.18317C26.7806 8.1741 26.7312 8.17933 26.6864 8.19819C26.6416 8.21706 26.6033 8.24872 26.5764 8.28923C26.5495 8.32973 26.5352 8.37727 26.5352 8.42589C26.5351 8.45885 26.5417 8.49147 26.5545 8.52185C26.5673 8.55222 26.586 8.57973 26.6096 8.60276C26.6332 8.62578 26.6611 8.64386 26.6918 8.65593C26.7224 8.668 26.7552 8.67381 26.7882 8.67303Z" fill="#646391"/>
<path fill-rule="evenodd" clip-rule="evenodd" d="M22.9875 8.65532C23.0375 8.65532 23.0864 8.64048 23.128 8.61268C23.1696 8.58488 23.2021 8.54537 23.2212 8.49913C23.2404 8.4529 23.2454 8.40203 23.2356 8.35295C23.2259 8.30387 23.2018 8.25878 23.1664 8.2234C23.131 8.18801 23.0859 8.16392 23.0368 8.15415C22.9877 8.14439 22.9369 8.1494 22.8906 8.16855C22.8444 8.1877 22.8049 8.22013 22.7771 8.26174C22.7493 8.30335 22.7344 8.35227 22.7344 8.40231C22.7336 8.43575 22.7396 8.46902 22.7521 8.50008C22.7645 8.53114 22.7831 8.55935 22.8068 8.58301C22.8304 8.60667 22.8586 8.62528 22.8897 8.63771C22.9208 8.65014 22.954 8.65613 22.9875 8.65532Z" fill="#646391"/>
<path fill-rule="evenodd" clip-rule="evenodd" d="M22.9337 12.5271C22.9661 12.5271 22.9983 12.5208 23.0283 12.5083C23.0582 12.4959 23.0855 12.4777 23.1084 12.4548C23.1314 12.4318 23.1496 12.4046 23.162 12.3746C23.1744 12.3446 23.1808 12.3125 23.1808 12.28C23.1864 12.244 23.1841 12.2071 23.174 12.1721C23.164 12.137 23.1465 12.1045 23.1228 12.0768C23.099 12.0491 23.0696 12.0269 23.0364 12.0116C23.0033 11.9964 22.9672 11.9885 22.9308 11.9885C22.8943 11.9885 22.8582 11.9964 22.8251 12.0116C22.7919 12.0269 22.7625 12.0491 22.7387 12.0768C22.715 12.1045 22.6975 12.137 22.6875 12.1721C22.6774 12.2071 22.6751 12.244 22.6807 12.28C22.6807 12.313 22.6872 12.3456 22.7 12.376C22.7128 12.4063 22.7315 12.4338 22.7551 12.4569C22.7787 12.4799 22.8066 12.498 22.8373 12.51C22.868 12.5221 22.9007 12.5279 22.9337 12.5271Z" fill="#646391"/>
<path fill-rule="evenodd" clip-rule="evenodd" d="M26.8409 12.5271C26.8898 12.5271 26.9375 12.5126 26.9782 12.4855C27.0188 12.4583 27.0505 12.4197 27.0692 12.3745C27.0879 12.3294 27.0928 12.2797 27.0833 12.2318C27.0737 12.1838 27.0502 12.1398 27.0156 12.1052C26.9811 12.0707 26.937 12.0471 26.8891 12.0376C26.8412 12.0281 26.7915 12.0329 26.7463 12.0516C26.7012 12.0704 26.6626 12.102 26.6354 12.1427C26.6083 12.1833 26.5938 12.2311 26.5938 12.28C26.5938 12.3124 26.6001 12.3446 26.6126 12.3745C26.625 12.4045 26.6432 12.4318 26.6661 12.4547C26.6891 12.4777 26.7163 12.4959 26.7463 12.5083C26.7763 12.5207 26.8084 12.5271 26.8409 12.5271Z" fill="#646391"/>
<path fill-rule="evenodd" clip-rule="evenodd" d="M24.899 7.70248C24.9073 7.70244 24.9155 7.70413 24.923 7.70745C24.9306 7.71076 24.9373 7.71563 24.9429 7.72174C24.9484 7.72784 24.9526 7.73504 24.9552 7.74287C24.9578 7.75071 24.9587 7.759 24.9579 7.7672V10.3268C24.9587 10.335 24.9578 10.3433 24.9552 10.3511C24.9526 10.3589 24.9484 10.3661 24.9429 10.3722C24.9373 10.3783 24.9306 10.3832 24.923 10.3865C24.9155 10.3899 24.9073 10.3915 24.899 10.3915C24.8903 10.3924 24.8815 10.3914 24.8732 10.3885C24.8649 10.3855 24.8574 10.3808 24.8512 10.3746C24.845 10.3684 24.8403 10.3609 24.8373 10.3526C24.8344 10.3443 24.8334 10.3355 24.8343 10.3268V7.7672C24.8334 7.75848 24.8344 7.74965 24.8373 7.74138C24.8403 7.7331 24.845 7.72559 24.8512 7.71938C24.8574 7.71318 24.8649 7.70844 24.8732 7.70551C24.8815 7.70259 24.8903 7.70155 24.899 7.70248Z" fill="#EBAE6C"/>
<path fill-rule="evenodd" clip-rule="evenodd" d="M25.6648 9.0558C25.6793 9.06375 25.692 9.07452 25.7022 9.08747C25.7124 9.10042 25.72 9.11528 25.7244 9.13119C25.7287 9.14709 25.7299 9.16371 25.7278 9.18007C25.7256 9.19643 25.7202 9.21219 25.7119 9.22643L25.0764 10.3444C25.0685 10.3589 25.0577 10.3716 25.0447 10.3818C25.0318 10.392 25.0169 10.3996 25.001 10.4039C24.9851 10.4083 24.9685 10.4095 24.9521 10.4073C24.9358 10.4052 24.92 10.3998 24.9058 10.3915C24.8913 10.3835 24.8786 10.3728 24.8684 10.3598C24.8582 10.3469 24.8506 10.332 24.8463 10.3161C24.8419 10.3002 24.8407 10.2836 24.8428 10.2672C24.845 10.2508 24.8504 10.2351 24.8587 10.2208L25.5001 9.10287C25.5161 9.07525 25.5422 9.05491 25.573 9.04614C25.6037 9.03736 25.6366 9.04082 25.6648 9.0558Z" fill="#EBAE6C"/>
<path d="M24.8995 10.6324C25.0327 10.6324 25.1407 10.5244 25.1407 10.3911C25.1407 10.2579 25.0327 10.1499 24.8995 10.1499C24.7662 10.1499 24.6582 10.2579 24.6582 10.3911C24.6582 10.5244 24.7662 10.6324 24.8995 10.6324Z" fill="#EBAE6C"/>
<path d="M15.6832 27.0376H0.419922V27.32H15.6832V27.0376Z" fill="#66442E"/>
<path d="M13.7768 27.4789H0.419922V27.7613H13.7768V27.4789Z" fill="#66442E"/>
<path d="M15.5436 27.9492H2.38086V28.2317H15.5436V27.9492Z" fill="#66442E"/>
<path d="M17.0319 28.4554H1.98047V28.7379H17.0319V28.4554Z" fill="#66442E"/>
<path d="M6.78061 29.0028H0.419922V29.2852H6.78061V29.0028Z" fill="#66442E"/>
<path d="M1.90859 27.9492H0.419922V28.2317H1.90859V27.9492Z" fill="#66442E"/>
<path d="M1.39079 28.4554H0.419922V28.7379H1.39079V28.4554Z" fill="#66442E"/>
<path d="M17.0249 27.4789H14.3418V27.7613H17.0249V27.4789Z" fill="#66442E"/>
<path d="M17.0255 27.0376H16.0723V27.32H17.0255V27.0376Z" fill="#66442E"/>
<path d="M17.0323 29.0028H7.48242V29.2852H17.0323V29.0028Z" fill="#66442E"/>
<path d="M15.6832 29.5085H0.419922V29.791H15.6832V29.5085Z" fill="#66442E"/>
<path d="M13.7768 29.9441H0.419922V30.2265H13.7768V29.9441Z" fill="#66442E"/>
<path d="M15.5436 30.4149H2.38086V30.6974H15.5436V30.4149Z" fill="#66442E"/>
<path d="M17.0319 30.927H1.98047V31.2094H17.0319V30.927Z" fill="#66442E"/>
<path d="M10.8053 31.468H0.419922V31.7505H10.8053V31.468Z" fill="#66442E"/>
<path d="M1.90859 30.4149H0.419922V30.6974H1.90859V30.4149Z" fill="#66442E"/>
<path d="M1.39079 30.927H0.419922V31.2094H1.39079V30.927Z" fill="#66442E"/>
<path d="M17.0249 29.9441H14.3418V30.2265H17.0249V29.9441Z" fill="#66442E"/>
<path d="M17.0255 29.5085H16.0723V29.791H17.0255V29.5085Z" fill="#66442E"/>
<path d="M17.0336 31.468H11.3438V31.7505H17.0336V31.468Z" fill="#66442E"/>
<path d="M15.6832 32.027H0.419922V32.3094H15.6832V32.027Z" fill="#66442E"/>
<path d="M13.7768 32.4625H0.419922V32.745H13.7768V32.4625Z" fill="#66442E"/>
<path d="M15.5436 32.9392H2.38086V33.2216H15.5436V32.9392Z" fill="#66442E"/>
<path d="M17.0319 33.4449H1.98047V33.7274H17.0319V33.4449Z" fill="#66442E"/>
<path d="M6.78061 33.9923H0.419922V34.2747H6.78061V33.9923Z" fill="#66442E"/>
<path d="M1.90859 32.9392H0.419922V33.2216H1.90859V32.9392Z" fill="#66442E"/>
<path d="M1.39079 33.4449H0.419922V33.7274H1.39079V33.4449Z" fill="#66442E"/>
<path d="M17.0249 32.4625H14.3418V32.745H17.0249V32.4625Z" fill="#66442E"/>
<path d="M17.0255 32.027H16.0723V32.3094H17.0255V32.027Z" fill="#66442E"/>
<path d="M17.0323 33.9923H7.48242V34.2747H17.0323V33.9923Z" fill="#66442E"/>
<path d="M15.6832 34.4985H0.419922V34.781H15.6832V34.4985Z" fill="#66442E"/>
<path d="M13.7768 34.934H0.419922V35.2164H13.7768V34.934Z" fill="#66442E"/>
<path d="M15.5485 35.4043H4.92773V35.6867H15.5485V35.4043Z" fill="#66442E"/>
<path d="M17.0319 35.9105H1.98047V36.193H17.0319V35.9105Z" fill="#66442E"/>
<path d="M6.78061 36.458H0.419922V36.7404H6.78061V36.458Z" fill="#66442E"/>
<path d="M4.39168 35.4043H0.419922V35.6867H4.39168V35.4043Z" fill="#66442E"/>
<path d="M1.39079 35.9105H0.419922V36.193H1.39079V35.9105Z" fill="#66442E"/>
<path d="M17.0249 34.934H14.3418V35.2164H17.0249V34.934Z" fill="#66442E"/>
<path d="M17.0255 34.4985H16.0723V34.781H17.0255V34.4985Z" fill="#66442E"/>
<path d="M17.0323 36.458H7.48242V36.7404H17.0323V36.458Z" fill="#66442E"/>
<path d="M13.7768 36.9753H0.419922V37.2578H13.7768V36.9753Z" fill="#66442E"/>
<path d="M15.5436 37.4462H2.38086V37.7286H15.5436V37.4462Z" fill="#66442E"/>
<path d="M17.0319 37.9524H1.98047V38.2348H17.0319V37.9524Z" fill="#66442E"/>
<path d="M1.90859 37.4462H0.419922V37.7286H1.90859V37.4462Z" fill="#66442E"/>
<path d="M1.39079 37.9524H0.419922V38.2348H1.39079V37.9524Z" fill="#66442E"/>
<path d="M17.0249 36.9753H14.3418V37.2578H17.0249V36.9753Z" fill="#66442E"/>
<path fill-rule="evenodd" clip-rule="evenodd" d="M0.632812 38.9939H4.24564V38.3702C4.24642 38.2881 4.23082 38.2066 4.19976 38.1306C4.16869 38.0546 4.12278 37.9855 4.0647 37.9274C4.00663 37.8693 3.93756 37.8234 3.86153 37.7924C3.78551 37.7613 3.70404 37.7457 3.62192 37.7465H1.26829C1.18588 37.7457 1.10415 37.7613 1.0278 37.7923C0.951446 37.8233 0.881992 37.8691 0.823451 37.9271C0.764909 37.9851 0.71844 38.0541 0.686728 38.1301C0.655016 38.2062 0.63869 38.2878 0.638693 38.3702L0.632812 38.9939Z" fill="#799D44"/>
<path fill-rule="evenodd" clip-rule="evenodd" d="M4.68555 38.9939H8.29248V38.3702C8.29327 38.2881 8.27768 38.2066 8.24661 38.1306C8.21555 38.0546 8.16963 37.9855 8.11156 37.9274C8.05348 37.8693 7.98441 37.8234 7.90839 37.7924C7.83236 37.7613 7.7509 37.7457 7.66877 37.7465H5.31514C5.23301 37.7457 5.15156 37.7613 5.07553 37.7924C4.99951 37.8234 4.93043 37.8693 4.87236 37.9274C4.81429 37.9855 4.76837 38.0546 4.73731 38.1306C4.70624 38.2066 4.69064 38.2881 4.69143 38.3702L4.68555 38.9939Z" fill="#799D44"/>
<path fill-rule="evenodd" clip-rule="evenodd" d="M12.7188 38.9935H16.3316V38.3698C16.3316 38.2044 16.2659 38.0457 16.1489 37.9288C16.0319 37.8118 15.8733 37.7461 15.7079 37.7461H13.3542C13.2713 37.7445 13.189 37.7595 13.1119 37.7901C13.0349 37.8208 12.9647 37.8665 12.9056 37.9246C12.8464 37.9826 12.7994 38.0519 12.7673 38.1284C12.7352 38.2048 12.7187 38.2869 12.7188 38.3698V38.9935Z" fill="#799D44"/>
<path fill-rule="evenodd" clip-rule="evenodd" d="M8.70703 38.9939H12.3199V38.3702C12.3199 38.2878 12.3035 38.2062 12.2718 38.1301C12.2401 38.0541 12.1936 37.9851 12.1351 37.9271C12.0766 37.8691 12.0071 37.8233 11.9308 37.7923C11.8544 37.7613 11.7727 37.7457 11.6903 37.7465H9.33663C9.25451 37.7457 9.17304 37.7613 9.09702 37.7924C9.02099 37.8234 8.95192 37.8693 8.89384 37.9274C8.83577 37.9855 8.78986 38.0546 8.75879 38.1306C8.72773 38.2066 8.71214 38.2881 8.71292 38.3702L8.70703 38.9939Z" fill="#799D44"/>
<path d="M14.6556 35.0454H14.3555V38.9995H14.6556V35.0454Z" fill="#E39C59"/>
<path fill-rule="evenodd" clip-rule="evenodd" d="M14.4841 36.3694C14.7474 36.3694 15.0047 36.2913 15.2235 36.1449C15.4423 35.9985 15.6128 35.7905 15.7132 35.5472C15.8137 35.3038 15.8397 35.0362 15.7879 34.778C15.7361 34.5199 15.6089 34.283 15.4223 34.0972C15.2358 33.9115 14.9983 33.7853 14.7399 33.7347C14.4816 33.684 14.214 33.7112 13.9711 33.8128C13.7282 33.9143 13.521 34.0857 13.3756 34.3051C13.2301 34.5246 13.1531 34.7823 13.1543 35.0455C13.1543 35.2199 13.1887 35.3925 13.2556 35.5535C13.3225 35.7145 13.4206 35.8607 13.5442 35.9838C13.6677 36.1068 13.8144 36.2042 13.9757 36.2704C14.137 36.3365 14.3098 36.3702 14.4841 36.3694Z" fill="#799D44"/>
<path d="M33.226 37.5286H16.6094V39.9999H33.226V37.5286Z" fill="#EBAE6C"/>
<path d="M49.1999 38.9939H33.2246V40.0001H49.1999V38.9939Z" fill="#E39C59"/>
<path d="M49.4117 27.0376H34.1484V27.32H49.4117V27.0376Z" fill="#66442E"/>
<path d="M49.4115 27.4789H36.0605V27.7613H49.4115V27.4789Z" fill="#66442E"/>
<path d="M47.4596 27.9492H34.291V28.2317H47.4596V27.9492Z" fill="#66442E"/>
<path d="M47.8581 28.4554H32.8066V28.7379H47.8581V28.4554Z" fill="#66442E"/>
<path d="M49.4173 29.0028H43.0566V29.2852H49.4173V29.0028Z" fill="#66442E"/>
<path d="M49.4105 27.9492H47.9219V28.2317H49.4105V27.9492Z" fill="#66442E"/>
<path d="M49.4123 28.4554H48.4414V28.7379H49.4123V28.4554Z" fill="#66442E"/>
<path d="M35.4898 27.4789H32.8066V27.7613H35.4898V27.4789Z" fill="#66442E"/>
<path d="M33.7599 27.0376H32.8066V27.32H33.7599V27.0376Z" fill="#66442E"/>
<path d="M42.3565 29.0028H32.8066V29.2852H42.3565V29.0028Z" fill="#66442E"/>
<path d="M49.4117 29.5085H34.1484V29.791H49.4117V29.5085Z" fill="#66442E"/>
<path d="M49.4115 29.9441H36.0605V30.2265H49.4115V29.9441Z" fill="#66442E"/>
<path d="M47.4596 30.4149H34.291V30.6974H47.4596V30.4149Z" fill="#66442E"/>
<path d="M47.8581 30.927H32.8066V31.2094H47.8581V30.927Z" fill="#66442E"/>
<path d="M49.4127 31.468H39.0273V31.7505H49.4127V31.468Z" fill="#66442E"/>
<path d="M49.4105 30.4149H47.9219V30.6974H49.4105V30.4149Z" fill="#66442E"/>
<path d="M49.4123 30.927H48.4414V31.2094H49.4123V30.927Z" fill="#66442E"/>
<path d="M35.4898 29.9441H32.8066V30.2265H35.4898V29.9441Z" fill="#66442E"/>
<path d="M33.7599 29.5085H32.8066V29.791H33.7599V29.5085Z" fill="#66442E"/>
<path d="M38.4965 31.468H32.8066V31.7505H38.4965V31.468Z" fill="#66442E"/>
<path d="M49.4117 32.027H34.1484V32.3094H49.4117V32.027Z" fill="#66442E"/>
<path d="M49.4115 32.4625H36.0605V32.745H49.4115V32.4625Z" fill="#66442E"/>
<path d="M47.4596 32.9392H34.291V33.2216H47.4596V32.9392Z" fill="#66442E"/>
<path d="M47.8581 33.4449H32.8066V33.7274H47.8581V33.4449Z" fill="#66442E"/>
<path d="M49.4173 33.9923H43.0566V34.2747H49.4173V33.9923Z" fill="#66442E"/>
<path d="M49.4105 32.9392H47.9219V33.2216H49.4105V32.9392Z" fill="#66442E"/>
<path d="M49.4123 33.4449H48.4414V33.7274H49.4123V33.4449Z" fill="#66442E"/>
<path d="M35.4898 32.4625H32.8066V32.745H35.4898V32.4625Z" fill="#66442E"/>
<path d="M33.7599 32.027H32.8066V32.3094H33.7599V32.027Z" fill="#66442E"/>
<path d="M42.3565 33.9923H32.8066V34.2747H42.3565V33.9923Z" fill="#66442E"/>
<path d="M49.4117 34.4985H34.1484V34.781H49.4117V34.4985Z" fill="#66442E"/>
<path d="M49.4115 34.934H36.0605V35.2164H49.4115V34.934Z" fill="#66442E"/>
<path d="M44.9118 35.4043H34.291V35.6867H44.9118V35.4043Z" fill="#66442E"/>
<path d="M47.8581 35.9105H32.8066V36.193H47.8581V35.9105Z" fill="#66442E"/>
<path d="M49.1943 36.458H42.9277V36.7404H49.1943V36.458Z" fill="#66442E"/>
<path d="M49.4132 35.4043H45.4414V35.6867H49.4132V35.4043Z" fill="#66442E"/>
<path d="M49.4123 35.9105H48.4414V36.193H49.4123V35.9105Z" fill="#66442E"/>
<path d="M35.4898 34.934H32.8066V35.2164H35.4898V34.934Z" fill="#66442E"/>
<path d="M33.7599 34.4985H32.8066V34.781H33.7599V34.4985Z" fill="#66442E"/>
<path d="M42.3565 36.458H32.8066V36.7404H42.3565V36.458Z" fill="#66442E"/>
<path d="M49.1998 36.9753H36.0312V37.2578H49.1998V36.9753Z" fill="#66442E"/>
<path d="M47.4596 37.4462H34.291V37.7286H47.4596V37.4462Z" fill="#66442E"/>
<path d="M47.8581 37.9524H32.8066V38.2348H47.8581V37.9524Z" fill="#66442E"/>
<path d="M49.4105 37.4462H47.9219V37.7286H49.4105V37.4462Z" fill="#66442E"/>
<path d="M49.4123 37.9524H48.4414V38.2348H49.4123V37.9524Z" fill="#66442E"/>
<path d="M35.4898 36.9753H32.8066V37.2578H35.4898V36.9753Z" fill="#66442E"/>
<path fill-rule="evenodd" clip-rule="evenodd" d="M49.2007 38.9935H45.5879V38.3698C45.5879 38.2044 45.6536 38.0457 45.7706 37.9288C45.8876 37.8118 46.0462 37.7461 46.2116 37.7461H48.5653C48.6481 37.7445 48.7305 37.7595 48.8075 37.7901C48.8846 37.8208 48.9547 37.8665 49.0139 37.9246C49.0731 37.9826 49.1201 38.0519 49.1522 38.1284C49.1842 38.2048 49.2007 38.2869 49.2007 38.3698V38.9935Z" fill="#799D44"/>
<path fill-rule="evenodd" clip-rule="evenodd" d="M45.1538 38.9939H41.5528V38.3702C41.5511 38.2103 41.6114 38.0559 41.7212 37.9396C41.8309 37.8233 41.9814 37.7541 42.1412 37.7465H44.4948C44.6602 37.7465 44.8189 37.8122 44.9358 37.9291C45.0528 38.0461 45.1185 38.2048 45.1185 38.3702L45.1538 38.9939Z" fill="#799D44"/>
<path fill-rule="evenodd" clip-rule="evenodd" d="M37.1323 38.9939H33.5195V38.3702C33.5195 38.2878 33.5359 38.2062 33.5676 38.1301C33.5993 38.0541 33.6457 37.9851 33.7043 37.9271C33.7628 37.8691 33.8323 37.8233 33.9086 37.7923C33.985 37.7613 34.0667 37.7457 34.1491 37.7465H36.5028C36.5849 37.7457 36.6663 37.7613 36.7424 37.7924C36.8184 37.8234 36.8875 37.8693 36.9455 37.9274C37.0036 37.9855 37.0495 38.0546 37.0806 38.1306C37.1117 38.2066 37.1273 38.2881 37.1265 38.3702L37.1323 38.9939Z" fill="#799D44"/>
<path fill-rule="evenodd" clip-rule="evenodd" d="M41.1324 38.9939H37.5196V38.3702C37.5188 38.2881 37.5344 38.2066 37.5654 38.1306C37.5965 38.0546 37.6424 37.9855 37.7005 37.9274C37.7586 37.8693 37.8276 37.8234 37.9037 37.7924C37.9797 37.7613 38.0611 37.7457 38.1433 37.7465H40.4969C40.6623 37.7465 40.821 37.8122 40.9379 37.9292C41.0549 38.0461 41.1206 38.2048 41.1206 38.3702L41.1324 38.9939Z" fill="#799D44"/>
<path d="M35.4778 35.0454H35.1777V38.9995H35.4778V35.0454Z" fill="#E39C59"/>
<path fill-rule="evenodd" clip-rule="evenodd" d="M35.3259 36.3694C35.5894 36.3706 35.8473 36.2934 36.0669 36.1478C36.2865 36.0021 36.4578 35.7945 36.5592 35.5512C36.6606 35.308 36.6874 35.0402 36.6363 34.7817C36.5852 34.5231 36.4584 34.2857 36.2721 34.0993C36.0857 33.913 35.8482 33.7862 35.5897 33.7351C35.3312 33.684 35.0634 33.7108 34.8201 33.8122C34.5769 33.9136 34.3693 34.0849 34.2236 34.3045C34.078 34.5241 34.0008 34.782 34.002 35.0455C34.0035 35.3962 34.1435 35.732 34.3914 35.98C34.6394 36.2279 34.9752 36.3679 35.3259 36.3694Z" fill="#799D44"/>
</svg>
