<svg width="94" height="40" viewBox="0 0 94 40" fill="none" xmlns="http://www.w3.org/2000/svg">
<path fill-rule="evenodd" clip-rule="evenodd" d="M93.0783 12.2963L86.5019 0H7.49634L0.919922 12.2963H93.0783Z" fill="#72363D"/>
<path fill-rule="evenodd" clip-rule="evenodd" d="M5.38086 36.4654H19.9415V13.4381C19.9363 11.5075 19.1671 9.6575 17.802 8.29237C16.4368 6.92725 14.5868 6.15803 12.6563 6.15283C10.7266 6.15804 8.87761 6.92758 7.51405 8.29298C6.15049 9.65839 5.38346 11.5084 5.38086 13.4381V36.4654Z" fill="#F0C179"/>
<path fill-rule="evenodd" clip-rule="evenodd" d="M11.4254 12.188H13.5519V14.5705H15.9245V16.6871H13.5519V19.0696H11.4254V16.6871H9.05273V14.5705H11.4254V12.188Z" fill="#DBA773"/>
<path d="M89.2978 36.4659H4.5625V40.0003H89.2978V36.4659Z" fill="#815C4A"/>
<path d="M15.8837 24.9371H9.46484V37.5288H15.8837V24.9371Z" fill="#F6C8BE"/>
<path d="M88.728 14.2557H19.9414V36.4659H88.728V14.2557Z" fill="#EBAE6C"/>
<path d="M89.3088 12.2963H19.9414V14.2653H89.3088V12.2963Z" fill="#C67450"/>
<path d="M20.5788 22.0133H4.73828V23.1652H20.5788V22.0133Z" fill="#CC8558"/>
<path d="M8.16698 16.4215H5.38086V17.3962H8.16698V16.4215Z" fill="#D2A468"/>
<path d="M7.18248 17.5338H5.38086V18.5085H7.18248V17.5338Z" fill="#D48868"/>
<path d="M7.18248 15.181H5.38086V16.1557H7.18248V15.181Z" fill="#E39C59"/>
<path d="M19.9404 20.1331H17.1543V21.1077H19.9404V20.1331Z" fill="#D2A468"/>
<path d="M19.9403 18.9907H18.1387V19.9654H19.9403V18.9907Z" fill="#E39C59"/>
<path d="M19.9404 14.2557H17.1543V15.2304H19.9404V14.2557Z" fill="#D2A468"/>
<path d="M19.9403 15.4075H18.1387V16.3821H19.9403V15.4075Z" fill="#E39C59"/>
<path d="M8.14549 13.9796H5.35938V14.9543H8.14549V13.9796Z" fill="#D2A468"/>
<path d="M88.7253 20.6746H87.1895V21.6492H88.7253V20.6746Z" fill="#D07C5F"/>
<path d="M7.161 12.7296H5.35938V13.7043H7.161V12.7296Z" fill="#E39C59"/>
<path d="M88.7255 21.8459H86.9238V22.8206H88.7255V21.8459Z" fill="#E39C59"/>
<path d="M88.7256 25.9808H85.9395V26.9555H88.7256V25.9808Z" fill="#D07C5F"/>
<path d="M19.9404 25.9021H17.1543V26.8767H19.9404V25.9021Z" fill="#D2A468"/>
<path d="M8.16698 28.2058H5.38086V29.1805H8.16698V28.2058Z" fill="#D2A468"/>
<path d="M7.18248 29.318H5.38086V30.2926H7.18248V29.318Z" fill="#D48868"/>
<path d="M7.18248 26.9652H5.38086V27.9399H7.18248V26.9652Z" fill="#E39C59"/>
<path d="M19.9404 31.9172H17.1543V32.8919H19.9404V31.9172Z" fill="#D2A468"/>
<path d="M19.9403 33.0691H18.1387V34.0437H19.9403V33.0691Z" fill="#D48868"/>
<path d="M19.9403 30.7754H18.1387V31.75H19.9403V30.7754Z" fill="#F0C179"/>
<path d="M88.7256 14.7477H85.9395V15.7223H88.7256V14.7477Z" fill="#CC8558"/>
<path d="M88.7255 15.88H86.9238V16.8547H88.7255V15.88Z" fill="#E39C59"/>
<path d="M8.16698 35.1858H5.38086V36.1604H8.16698V35.1858Z" fill="#D2A468"/>
<path d="M7.18248 33.9353H5.38086V34.9099H7.18248V33.9353Z" fill="#E39C59"/>
<path d="M19.9404 35.2349H17.1543V36.2095H19.9404V35.2349Z" fill="#D2A468"/>
<path d="M19.9403 27.0344H18.1387V28.0091H19.9403V27.0344Z" fill="#E39C59"/>
<path d="M89.5025 24.6221H20.5781V25.7739H89.5025V24.6221Z" fill="#C67450"/>
<path fill-rule="evenodd" clip-rule="evenodd" d="M86.3048 23.7162H81.4414V17.5632C81.444 16.919 81.701 16.302 82.1565 15.8466C82.612 15.3911 83.229 15.1341 83.8731 15.1315C84.5172 15.1341 85.1342 15.3911 85.5897 15.8466C86.0452 16.302 86.3022 16.919 86.3048 17.5632V23.7162Z" fill="black"/>
<path fill-rule="evenodd" clip-rule="evenodd" d="M85.8227 23.2834H81.8848V17.5734C81.8848 17.0511 82.0922 16.5503 82.4615 16.1811C82.8307 15.8118 83.3315 15.6044 83.8538 15.6044C84.376 15.6044 84.8768 15.8118 85.246 16.1811C85.6153 16.5503 85.8227 17.0511 85.8227 17.5734V23.2834Z" fill="#414764"/>
<path d="M86.0705 17.4255H81.6797V17.7406H86.0705V17.4255Z" fill="black"/>
<path d="M84.02 17.6324H83.7246V23.3031H84.02V17.6324Z" fill="black"/>
<path fill-rule="evenodd" clip-rule="evenodd" d="M78.9805 23.7162H74.127V17.5632C74.1295 16.919 74.3866 16.302 74.842 15.8466C75.2975 15.3911 75.9145 15.1341 76.5587 15.1315C77.2011 15.1366 77.8156 15.3948 78.2689 15.85C78.7223 16.3052 78.9779 16.9207 78.9805 17.5632V23.7162Z" fill="black"/>
<path fill-rule="evenodd" clip-rule="evenodd" d="M78.4985 23.2834H74.5605V17.5734C74.5605 17.0511 74.768 16.5503 75.1372 16.1811C75.5065 15.8118 76.0073 15.6044 76.5295 15.6044C77.0517 15.6044 77.5526 15.8118 77.9218 16.1811C78.2911 16.5503 78.4985 17.0511 78.4985 17.5734V23.2834Z" fill="#414764"/>
<path d="M78.7541 17.4255H74.3633V17.7406H78.7541V17.4255Z" fill="black"/>
<path d="M76.6957 17.6324H76.4004V23.3031H76.6957V17.6324Z" fill="black"/>
<path fill-rule="evenodd" clip-rule="evenodd" d="M71.7344 23.7162H66.8809V17.5632C66.8835 16.919 67.1405 16.302 67.596 15.8466C68.0514 15.3911 68.6684 15.1341 69.3126 15.1315C69.955 15.1366 70.5695 15.3948 71.0228 15.85C71.4762 16.3052 71.7318 16.9207 71.7344 17.5632V23.7162Z" fill="black"/>
<path fill-rule="evenodd" clip-rule="evenodd" d="M71.2544 23.2834H67.3164V17.5734C67.3164 17.0511 67.5239 16.5503 67.8931 16.1811C68.2624 15.8118 68.7632 15.6044 69.2854 15.6044C69.8076 15.6044 70.3084 15.8118 70.6777 16.1811C71.0469 16.5503 71.2544 17.0511 71.2544 17.5734V23.2834Z" fill="#414764"/>
<path d="M71.508 17.4255H67.1172V17.7406H71.508V17.4255Z" fill="black"/>
<path d="M69.4496 17.6324H69.1543V23.3031H69.4496V17.6324Z" fill="black"/>
<path fill-rule="evenodd" clip-rule="evenodd" d="M60.5411 23.7162H55.6777V17.5632C55.6803 16.919 55.9374 16.302 56.3928 15.8466C56.8483 15.3911 57.4653 15.1341 58.1094 15.1315C58.7536 15.1341 59.3706 15.3911 59.826 15.8466C60.2815 16.302 60.5385 16.919 60.5411 17.5632V23.7162Z" fill="black"/>
<path fill-rule="evenodd" clip-rule="evenodd" d="M60.0591 23.2834H56.1211V17.5734C56.1211 17.0511 56.3285 16.5503 56.6978 16.1811C57.0671 15.8118 57.5679 15.6044 58.0901 15.6044C58.6123 15.6044 59.1131 15.8118 59.4824 16.1811C59.8516 16.5503 60.0591 17.0511 60.0591 17.5734V23.2834Z" fill="#414764"/>
<path d="M60.3029 17.4255H55.9121V17.7406H60.3029V17.4255Z" fill="black"/>
<path d="M58.2582 17.6324H57.9629V23.3031H58.2582V17.6324Z" fill="black"/>
<path fill-rule="evenodd" clip-rule="evenodd" d="M53.2267 23.7162H48.3633V17.5632C48.3659 16.919 48.6229 16.302 49.0784 15.8466C49.5338 15.3911 50.1509 15.1341 50.795 15.1315C51.4391 15.1341 52.0561 15.3911 52.5116 15.8466C52.9671 16.302 53.2241 16.919 53.2267 17.5632V23.7162Z" fill="black"/>
<path fill-rule="evenodd" clip-rule="evenodd" d="M52.7446 23.2834H48.8066V17.5734C48.8066 17.0511 49.0141 16.5503 49.3833 16.1811C49.7526 15.8118 50.2534 15.6044 50.7756 15.6044C51.2978 15.6044 51.7987 15.8118 52.1679 16.1811C52.5372 16.5503 52.7446 17.0511 52.7446 17.5734V23.2834Z" fill="#414764"/>
<path d="M52.9904 17.4255H48.5996V17.7406H52.9904V17.4255Z" fill="black"/>
<path d="M50.9418 17.6324H50.6465V23.3031H50.9418V17.6324Z" fill="black"/>
<path fill-rule="evenodd" clip-rule="evenodd" d="M45.9806 23.7162H41.1172V17.5632C41.1198 16.919 41.3768 16.302 41.8323 15.8466C42.2877 15.3911 42.9048 15.1341 43.5489 15.1315C44.1922 15.1366 44.8077 15.3945 45.2627 15.8494C45.7176 16.3043 45.9754 16.9198 45.9806 17.5632V23.7162Z" fill="black"/>
<path fill-rule="evenodd" clip-rule="evenodd" d="M45.4868 23.2834H41.5488V17.5734C41.5488 17.0511 41.7563 16.5503 42.1255 16.1811C42.4948 15.8118 42.9956 15.6044 43.5178 15.6044C44.04 15.6044 44.5408 15.8118 44.9101 16.1811C45.2794 16.5503 45.4868 17.0511 45.4868 17.5734V23.2834Z" fill="#414764"/>
<path d="M45.7444 17.4255H41.3535V17.7406H45.7444V17.4255Z" fill="black"/>
<path d="M43.6977 17.6324H43.4023V23.3031H43.6977V17.6324Z" fill="black"/>
<path fill-rule="evenodd" clip-rule="evenodd" d="M34.5606 23.7162H29.707V17.5632C29.7096 16.9207 29.9653 16.3052 30.4186 15.85C30.872 15.3948 31.4865 15.1366 32.1289 15.1315C32.773 15.1341 33.39 15.3911 33.8455 15.8466C34.301 16.302 34.558 16.919 34.5606 17.5632V23.7162Z" fill="black"/>
<path fill-rule="evenodd" clip-rule="evenodd" d="M34.0782 23.2834H30.1895V17.5734C30.1895 17.0511 30.3969 16.5503 30.7662 16.1811C31.1354 15.8118 31.6362 15.6044 32.1584 15.6044C32.417 15.6044 32.673 15.6553 32.9119 15.7543C33.1508 15.8532 33.3679 15.9982 33.5507 16.1811C33.7336 16.3639 33.8786 16.581 33.9775 16.8199C34.0765 17.0587 34.1274 17.3148 34.1274 17.5734L34.0782 23.2834Z" fill="#414764"/>
<path d="M34.3225 17.4255H29.9316V17.7406H34.3225V17.4255Z" fill="black"/>
<path d="M32.2778 17.6324H31.9824V23.3031H32.2778V17.6324Z" fill="black"/>
<path fill-rule="evenodd" clip-rule="evenodd" d="M27.3146 23.7162H22.4512V17.5632C22.4538 16.919 22.7108 16.302 23.1663 15.8466C23.6217 15.3911 24.2387 15.1341 24.8829 15.1315C25.527 15.1341 26.144 15.3911 26.5995 15.8466C27.0549 16.302 27.312 16.919 27.3146 17.5632V23.7162Z" fill="black"/>
<path fill-rule="evenodd" clip-rule="evenodd" d="M26.8321 23.2834H22.9434V17.5734C22.9434 17.0511 23.1508 16.5503 23.5201 16.1811C23.8893 15.8118 24.3901 15.6044 24.9123 15.6044C25.4346 15.6044 25.9354 15.8118 26.3046 16.1811C26.6739 16.5503 26.8813 17.0511 26.8813 17.5734L26.8321 23.2834Z" fill="#414764"/>
<path d="M27.0783 17.4255H22.6875V17.7406H27.0783V17.4255Z" fill="black"/>
<path d="M25.0317 17.6324H24.7363V23.3031H25.0317V17.6324Z" fill="black"/>
<path d="M66.2712 14.2557H60.9746V14.8563H66.2712V14.2557Z" fill="black"/>
<path d="M65.4532 14.8558H61.8105V39.0153H65.4532V14.8558Z" fill="black"/>
<path d="M40.4177 14.2557H35.1211V14.8563H40.4177V14.2557Z" fill="black"/>
<path d="M39.5918 14.8558H35.9492V39.0153H39.5918V14.8558Z" fill="black"/>
<path d="M88.7258 27.054H87.1211V28.0286H88.7258V27.054Z" fill="#CC8558"/>
<path d="M88.7255 28.304H86.4316V29.2786H88.7255V28.304Z" fill="#E39C59"/>
<path d="M65.8562 39.0055H61.3965V39.99H65.8562V39.0055Z" fill="#C67450"/>
<path d="M39.9949 39.0055H35.5352V39.99H39.9949V39.0055Z" fill="#C67450"/>
<path d="M66.8413 27.3887H65.4434V28.3633H66.8413V27.3887Z" fill="#CC8558"/>
<path d="M66.3392 28.4913H65.4434V29.466H66.3392V28.4913Z" fill="#D48868"/>
<path d="M67.245 26.1381H65.4434V27.1127H67.245V26.1381Z" fill="#E39C59"/>
<path d="M66.5755 34.3586H65.4434V35.3333H66.5755V34.3586Z" fill="#CC8558"/>
<path d="M66.3392 33.1086H65.4434V34.0833H66.3392V33.1086Z" fill="#E39C59"/>
<path d="M88.7256 34.1818H85.9395V35.1564H88.7256V34.1818Z" fill="#CC8558"/>
<path d="M88.7255 35.2941H86.9238V36.2687H88.7255V35.2941Z" fill="#D48868"/>
<path d="M88.7255 32.9313H86.9238V33.9059H88.7255V32.9313Z" fill="#F0C179"/>
<path fill-rule="evenodd" clip-rule="evenodd" d="M34.5606 35.6683H29.707V29.5152C29.7096 28.8728 29.9653 28.2572 30.4186 27.802C30.872 27.3468 31.4865 27.0887 32.1289 27.0835C32.773 27.0861 33.39 27.3431 33.8455 27.7986C34.301 28.2541 34.558 28.8711 34.5606 29.5152V35.6683Z" fill="black"/>
<path fill-rule="evenodd" clip-rule="evenodd" d="M34.0782 35.2546H30.1895V29.5249C30.1895 29.0027 30.3969 28.5019 30.7662 28.1326C31.1354 27.7634 31.6362 27.5559 32.1584 27.5559C32.417 27.5559 32.673 27.6068 32.9119 27.7058C33.1508 27.8047 33.3679 27.9498 33.5507 28.1326C33.7336 28.3154 33.8786 28.5325 33.9775 28.7714C34.0765 29.0103 34.1274 29.2663 34.1274 29.5249L34.0782 35.2546Z" fill="#414764"/>
<path d="M34.3225 29.3771H29.9316V29.6921H34.3225V29.3771Z" fill="black"/>
<path d="M32.2778 29.584H31.9824V35.2547H32.2778V29.584Z" fill="black"/>
<path fill-rule="evenodd" clip-rule="evenodd" d="M27.3146 35.6683H22.4512V29.5152C22.4538 28.8711 22.7108 28.2541 23.1663 27.7986C23.6217 27.3431 24.2387 27.0861 24.8829 27.0835C25.527 27.0861 26.144 27.3431 26.5995 27.7986C27.0549 28.2541 27.312 28.8711 27.3146 29.5152V35.6683Z" fill="black"/>
<path fill-rule="evenodd" clip-rule="evenodd" d="M26.8321 35.2546H22.9434V29.5249C22.9434 29.0027 23.1508 28.5019 23.5201 28.1326C23.8893 27.7634 24.3901 27.5559 24.9123 27.5559C25.4346 27.5559 25.9354 27.7634 26.3046 28.1326C26.6739 28.5019 26.8813 29.0027 26.8813 29.5249L26.8321 35.2546Z" fill="#414764"/>
<path d="M27.0783 29.3771H22.6875V29.6921H27.0783V29.3771Z" fill="black"/>
<path d="M25.0317 29.584H24.7363V35.2547H25.0317V29.584Z" fill="black"/>
<path fill-rule="evenodd" clip-rule="evenodd" d="M60.5411 35.6683H55.6777V29.5152C55.6803 28.8711 55.9374 28.2541 56.3928 27.7986C56.8483 27.3431 57.4653 27.0861 58.1094 27.0835C58.7536 27.0861 59.3706 27.3431 59.826 27.7986C60.2815 28.2541 60.5385 28.8711 60.5411 29.5152V35.6683Z" fill="black"/>
<path fill-rule="evenodd" clip-rule="evenodd" d="M60.0591 35.2546H56.1211V29.5249C56.1211 29.0027 56.3285 28.5019 56.6978 28.1326C57.0671 27.7634 57.5679 27.5559 58.0901 27.5559C58.6123 27.5559 59.1131 27.7634 59.4824 28.1326C59.8516 28.5019 60.0591 29.0027 60.0591 29.5249V35.2546Z" fill="#414764"/>
<path d="M60.3029 29.3771H55.9121V29.6921H60.3029V29.3771Z" fill="black"/>
<path d="M58.2582 29.584H57.9629V35.2547H58.2582V29.584Z" fill="black"/>
<path fill-rule="evenodd" clip-rule="evenodd" d="M53.2267 35.6683H48.3633V29.5152C48.3659 28.8711 48.6229 28.2541 49.0784 27.7986C49.5338 27.3431 50.1509 27.0861 50.795 27.0835C51.4391 27.0861 52.0561 27.3431 52.5116 27.7986C52.9671 28.2541 53.2241 28.8711 53.2267 29.5152V35.6683Z" fill="black"/>
<path fill-rule="evenodd" clip-rule="evenodd" d="M52.7446 35.2546H48.8066V29.5249C48.8066 29.0027 49.0141 28.5019 49.3833 28.1326C49.7526 27.7634 50.2534 27.5559 50.7756 27.5559C51.2978 27.5559 51.7987 27.7634 52.1679 28.1326C52.5372 28.5019 52.7446 29.0027 52.7446 29.5249V35.2546Z" fill="#414764"/>
<path d="M52.9904 29.3771H48.5996V29.6921H52.9904V29.3771Z" fill="black"/>
<path d="M50.9418 29.584H50.6465V35.2547H50.9418V29.584Z" fill="black"/>
<path fill-rule="evenodd" clip-rule="evenodd" d="M45.9806 35.6683H41.1172V29.5152C41.1198 28.8711 41.3768 28.2541 41.8323 27.7986C42.2877 27.3431 42.9048 27.0861 43.5489 27.0835C44.1922 27.0886 44.8077 27.3465 45.2627 27.8014C45.7176 28.2563 45.9754 28.8719 45.9806 29.5152V35.6683Z" fill="black"/>
<path fill-rule="evenodd" clip-rule="evenodd" d="M45.4868 35.2546H41.5488V29.5249C41.5488 29.0027 41.7563 28.5019 42.1255 28.1326C42.4948 27.7634 42.9956 27.5559 43.5178 27.5559C44.04 27.5559 44.5408 27.7634 44.9101 28.1326C45.2794 28.5019 45.4868 29.0027 45.4868 29.5249V35.2546Z" fill="#414764"/>
<path d="M45.7444 29.3771H41.3535V29.6921H45.7444V29.3771Z" fill="black"/>
<path d="M43.6977 29.584H43.4023V35.2547H43.6977V29.584Z" fill="black"/>
<path fill-rule="evenodd" clip-rule="evenodd" d="M86.3048 35.6683H81.4414V29.5152C81.444 28.8711 81.701 28.2541 82.1565 27.7986C82.612 27.3431 83.229 27.0861 83.8731 27.0835C84.5172 27.0861 85.1342 27.3431 85.5897 27.7986C86.0452 28.2541 86.3022 28.8711 86.3048 29.5152V35.6683Z" fill="black"/>
<path fill-rule="evenodd" clip-rule="evenodd" d="M85.8227 35.2546H81.8848V29.5249C81.8848 29.0027 82.0922 28.5019 82.4615 28.1326C82.8307 27.7634 83.3315 27.5559 83.8538 27.5559C84.376 27.5559 84.8768 27.7634 85.246 28.1326C85.6153 28.5019 85.8227 29.0027 85.8227 29.5249V35.2546Z" fill="#414764"/>
<path d="M86.0705 29.3771H81.6797V29.6921H86.0705V29.3771Z" fill="black"/>
<path d="M84.02 29.584H83.7246V35.2547H84.02V29.584Z" fill="black"/>
<path fill-rule="evenodd" clip-rule="evenodd" d="M78.9805 35.6683H74.127V29.5152C74.1295 28.8711 74.3866 28.2541 74.842 27.7986C75.2975 27.3431 75.9145 27.0861 76.5587 27.0835C77.2011 27.0887 77.8156 27.3468 78.2689 27.802C78.7223 28.2572 78.9779 28.8728 78.9805 29.5152V35.6683Z" fill="black"/>
<path fill-rule="evenodd" clip-rule="evenodd" d="M78.4985 35.2546H74.5605V29.5249C74.5605 29.0027 74.768 28.5019 75.1372 28.1326C75.5065 27.7634 76.0073 27.5559 76.5295 27.5559C77.0517 27.5559 77.5526 27.7634 77.9218 28.1326C78.2911 28.5019 78.4985 29.0027 78.4985 29.5249V35.2546Z" fill="#414764"/>
<path d="M78.7541 29.3771H74.3633V29.6921H78.7541V29.3771Z" fill="black"/>
<path d="M76.6957 29.584H76.4004V35.2547H76.6957V29.584Z" fill="black"/>
<path fill-rule="evenodd" clip-rule="evenodd" d="M71.7344 35.6683H66.8809V29.5152C66.8835 28.8711 67.1405 28.2541 67.596 27.7986C68.0514 27.3431 68.6684 27.0861 69.3126 27.0835C69.955 27.0887 70.5695 27.3468 71.0228 27.802C71.4762 28.2572 71.7318 28.8728 71.7344 29.5152V35.6683Z" fill="black"/>
<path fill-rule="evenodd" clip-rule="evenodd" d="M71.2544 35.2546H67.3164V29.5249C67.3164 29.0027 67.5239 28.5019 67.8931 28.1326C68.2624 27.7634 68.7632 27.5559 69.2854 27.5559C69.8076 27.5559 70.3084 27.7634 70.6777 28.1326C71.0469 28.5019 71.2544 29.0027 71.2544 29.5249V35.2546Z" fill="#414764"/>
<path d="M71.508 29.3771H67.1172V29.6921H71.508V29.3771Z" fill="black"/>
<path d="M69.4496 29.584H69.1543V35.2547H69.4496V29.584Z" fill="black"/>
<path d="M67.245 15.0137H65.4434V15.9883H67.245V15.0137Z" fill="#E39C59"/>
<path d="M61.7999 20.9005H60.9434V21.8752H61.7999V20.9005Z" fill="#D07C5F"/>
<path d="M61.8019 22.0724H60.6895V23.047H61.8019V22.0724Z" fill="#E39C59"/>
<path d="M61.8021 26.1973H59.459V27.1719H61.8021V26.1973Z" fill="#D07C5F"/>
<path d="M61.8116 14.9741H60.2266V15.9488H61.8116V14.9741Z" fill="#CC8558"/>
<path d="M61.8113 16.1064H60.9844V17.0811H61.8113V16.1064Z" fill="#E39C59"/>
<path d="M61.8114 27.2804H60.4922V28.255H61.8114V27.2804Z" fill="#CC8558"/>
<path d="M61.8092 28.5304H61.0117V29.505H61.8092V28.5304Z" fill="#F0C179"/>
<path d="M61.8113 34.4769H61.2305V35.4516H61.8113V34.4769Z" fill="#D48868"/>
<path d="M61.8092 33.1577H60.7656V34.1324H61.8092V33.1577Z" fill="#E39C59"/>
<path d="M66.2999 17.9081H65.4434V18.8827H66.2999V17.9081Z" fill="#D07C5F"/>
<path d="M66.5558 19.0793H65.4434V20.054H66.5558V19.0793Z" fill="#E39C59"/>
<path d="M66.0734 20.3098H65.4434V21.2845H66.0734V20.3098Z" fill="#CC8558"/>
<path d="M19.8916 39.1729H5.46875V39.9998H19.8916V39.1729Z" fill="#C67450"/>
<path d="M19.1215 38.3557H6.21484V39.1827H19.1215V38.3557Z" fill="#C67450"/>
<path d="M18.2976 37.5291H7.05469V38.356H18.2976V37.5291Z" fill="#C67450"/>
<path d="M15.3338 25.3801H10.0176V37.0857H15.3338V25.3801Z" fill="black"/>
<path fill-rule="evenodd" clip-rule="evenodd" d="M4.73079 23.1652C3.82506 24.235 2.92261 25.3114 2.02344 26.3943H23.2885L20.6107 23.1652H4.73079Z" fill="#72363D"/>
<path fill-rule="evenodd" clip-rule="evenodd" d="M11.6299 12.0208H13.6875V14.3343H15.9912V16.3821H13.6875V18.6956H11.6299V16.3821H9.32617V14.3343H11.6299V12.0208Z" fill="black"/>
<path fill-rule="evenodd" clip-rule="evenodd" d="M10.5188 30.4011C10.5579 30.4011 10.5955 30.4167 10.6232 30.4444C10.6509 30.4721 10.6664 30.5096 10.6664 30.5488V31.8877C10.6639 31.9251 10.6473 31.9602 10.6199 31.9858C10.5924 32.0114 10.5563 32.0256 10.5188 32.0255C10.4812 32.0256 10.4451 32.0114 10.4177 31.9858C10.3903 31.9602 10.3736 31.9251 10.3711 31.8877V30.5488C10.3711 30.5096 10.3867 30.4721 10.4143 30.4444C10.442 30.4167 10.4796 30.4011 10.5188 30.4011Z" fill="#4A0900"/>
<path fill-rule="evenodd" clip-rule="evenodd" d="M19.9404 14.2552H21.4467C21.5822 12.1485 21.0556 10.0521 19.9404 8.25963C19.1469 7.05158 18.0658 6.0594 16.7943 5.3721C15.5228 4.68479 14.1006 4.32386 12.6552 4.32166C7.56536 4.32166 3.4994 8.43684 3.87351 14.1666H5.3601C4.98599 3.90817 19.9404 3.15995 19.9404 14.2552Z" fill="#C67450"/>
<path d="M40.9898 27.4282H39.5918V28.4029H40.9898V27.4282Z" fill="#CC8558"/>
<path d="M40.4877 28.5404H39.5918V29.5151H40.4877V28.5404Z" fill="#D48868"/>
<path d="M41.3934 26.1777H39.5918V27.1524H41.3934V26.1777Z" fill="#E39C59"/>
<path d="M40.724 34.3982H39.5918V35.3728H40.724V34.3982Z" fill="#CC8558"/>
<path d="M40.4877 33.1577H39.5918V34.1324H40.4877V33.1577Z" fill="#E39C59"/>
<path d="M41.3934 15.0527H39.5918V16.0274H41.3934V15.0527Z" fill="#E39C59"/>
<path d="M35.9385 20.9402H35.082V21.9148H35.9385V20.9402Z" fill="#D07C5F"/>
<path d="M35.9484 22.1215H34.8359V23.0961H35.9484V22.1215Z" fill="#E39C59"/>
<path d="M35.9464 15.0137H34.3613V15.9883H35.9464V15.0137Z" fill="#CC8558"/>
<path d="M35.9481 16.1555H35.1211V17.1302H35.9481V16.1555Z" fill="#E39C59"/>
<path d="M35.9481 27.3295H34.6289V28.3041H35.9481V27.3295Z" fill="#CC8558"/>
<path d="M35.9478 28.5699H35.1504V29.5446H35.9478V28.5699Z" fill="#F0C179"/>
<path d="M35.948 34.5165H35.3672V35.4911H35.948V34.5165Z" fill="#D48868"/>
<path d="M35.9479 33.2068H34.9043V34.1814H35.9479V33.2068Z" fill="#E39C59"/>
<path d="M40.4483 17.9572H39.5918V18.9318H40.4483V17.9572Z" fill="#D07C5F"/>
<path d="M40.7043 19.129H39.5918V20.1037H40.7043V19.129Z" fill="#E39C59"/>
<path d="M40.2317 20.3495H39.5918V21.3241H40.2317V20.3495Z" fill="#CC8558"/>
<path fill-rule="evenodd" clip-rule="evenodd" d="M28.4863 8.72264H25.0898C25.0898 6.33032 26.606 4.39087 28.4765 4.39087C30.347 4.39087 31.8632 6.35985 31.8632 8.72264H28.4863Z" fill="#84444E"/>
<path fill-rule="evenodd" clip-rule="evenodd" d="M28.4845 8.72296H25.0781C25.0781 7.82476 25.4349 6.96335 26.0701 6.32823C26.7052 5.69311 27.5666 5.3363 28.4648 5.3363C29.363 5.3363 30.2244 5.69311 30.8595 6.32823C31.4946 6.96335 31.8514 7.82476 31.8514 8.72296H28.4845Z" fill="#C67450"/>
<path fill-rule="evenodd" clip-rule="evenodd" d="M28.4867 8.39763H25.5332C25.5332 7.63259 25.8371 6.89889 26.3781 6.35793C26.919 5.81697 27.6527 5.51306 28.4178 5.51306C29.1828 5.51306 29.9165 5.81697 30.4575 6.35793C30.9984 6.89889 31.3023 7.63259 31.3023 8.39763H28.4867Z" fill="#414764"/>
<path d="M28.6837 5.22754H28.1816V8.40745H28.6837V5.22754Z" fill="#C67450"/>
<path fill-rule="evenodd" clip-rule="evenodd" d="M51.1269 8.70311H47.7402C47.7402 6.31079 49.2564 4.37134 51.1269 4.37134C52.9974 4.37134 54.5135 6.34032 54.5135 8.70311H51.1269Z" fill="#84444E"/>
<path fill-rule="evenodd" clip-rule="evenodd" d="M51.1289 8.70282H47.7324C47.7324 7.80462 48.0892 6.94321 48.7244 6.30809C49.3595 5.67297 50.2209 5.31616 51.1191 5.31616C52.0173 5.31616 52.8787 5.67297 53.5138 6.30809C54.1489 6.94321 54.5057 7.80462 54.5057 8.70282H51.1289Z" fill="#C67450"/>
<path fill-rule="evenodd" clip-rule="evenodd" d="M51.1293 8.3781H48.1758C48.1758 7.61306 48.4797 6.87936 49.0207 6.3384C49.5616 5.79744 50.2953 5.49353 51.0603 5.49353C51.8254 5.49353 52.5591 5.79744 53.1 6.3384C53.641 6.87936 53.9449 7.61306 53.9449 8.3781H51.1293Z" fill="#414764"/>
<path d="M51.3458 5.20801H50.8438V8.38792H51.3458V5.20801Z" fill="#C67450"/>
<path fill-rule="evenodd" clip-rule="evenodd" d="M76.9023 8.70311H73.5156C73.5156 6.31079 75.0317 4.37134 76.9023 4.37134C78.7728 4.37134 80.2988 6.34032 80.2988 8.70311H76.9023Z" fill="#84444E"/>
<path fill-rule="evenodd" clip-rule="evenodd" d="M76.8935 8.70283H73.5069C73.482 8.24207 73.5514 7.78109 73.7106 7.348C73.8698 6.91491 74.1156 6.51881 74.433 6.18387C74.7504 5.84892 75.1327 5.58216 75.5565 5.39986C75.9804 5.21756 76.437 5.12354 76.8985 5.12354C77.3599 5.12354 77.8165 5.21756 78.2404 5.39986C78.6642 5.58216 79.0465 5.84892 79.3639 6.18387C79.6813 6.51881 79.9271 6.91491 80.0863 7.348C80.2456 7.78109 80.3149 8.24207 80.29 8.70283H76.8935Z" fill="#C67450"/>
<path fill-rule="evenodd" clip-rule="evenodd" d="M76.865 8.3781H73.9805C73.9805 7.61306 74.2844 6.87936 74.8253 6.3384C75.3663 5.79744 76.1 5.49353 76.865 5.49353C77.6301 5.49353 78.3638 5.79744 78.9047 6.3384C79.4457 6.87936 79.7496 7.61306 79.7496 8.3781H76.865Z" fill="#414764"/>
<path d="M77.1212 5.20801H76.6191V8.38792H77.1212V5.20801Z" fill="#C67450"/>
</svg>
