<svg width="78" height="40" viewBox="0 0 78 40" fill="none" xmlns="http://www.w3.org/2000/svg">
<path d="M73.0108 14.092H5V39.9998H73.0108V14.092Z" fill="#F2C190"/>
<path d="M73.0082 35.1658H4.64062V39.9903H73.0082V35.1658Z" fill="#815C4A"/>
<path d="M73.0082 39.1074H4.64062V39.5788H73.0082V39.1074Z" fill="#66442E"/>
<path d="M73.0082 38.2849H4.64062V38.7563H73.0082V38.2849Z" fill="#66442E"/>
<path d="M73.0082 37.5829H4.64062V38.0543H73.0082V37.5829Z" fill="#66442E"/>
<path d="M73.0082 36.8005H4.64062V37.272H73.0082V36.8005Z" fill="#66442E"/>
<path d="M73.0082 36.0785H4.64062V36.5499H73.0082V36.0785Z" fill="#66442E"/>
<path d="M73.0082 35.1658H4.64062V35.6372H73.0082V35.1658Z" fill="#66442E"/>
<path d="M18.33 18.4856H9.72461V31.7053H18.33V18.4856Z" fill="black"/>
<path d="M17.4972 19.1976H10.5566V31.0031H17.4972V19.1976Z" fill="#414764"/>
<path d="M19.3014 31.7051H8.75V33.0792H19.3014V31.7051Z" fill="#D48868"/>
<path fill-rule="evenodd" clip-rule="evenodd" d="M8.75 18.4856H19.3014V17.1115L14.0257 16.4194L8.75 17.1115V18.4856Z" fill="black"/>
<path fill-rule="evenodd" clip-rule="evenodd" d="M9.08594 18.1847H18.967V17.3422L14.0265 16.7303L9.08594 17.3422V18.1847Z" fill="#D48868"/>
<path fill-rule="evenodd" clip-rule="evenodd" d="M10.5566 21.3942H17.4972V21.8054H14.2756V30.993H13.7675V21.8054H10.5566V21.3942Z" fill="black"/>
<path d="M35.0331 18.4856H26.4277V31.7053H35.0331V18.4856Z" fill="black"/>
<path d="M34.2003 19.1976H27.2598V31.0031H34.2003V19.1976Z" fill="#414764"/>
<path d="M36.0045 31.7051H25.4531V33.0792H36.0045V31.7051Z" fill="#D48868"/>
<path fill-rule="evenodd" clip-rule="evenodd" d="M25.4531 18.4856H36.0045V17.1115L30.7288 16.4194L25.4531 17.1115V18.4856Z" fill="black"/>
<path fill-rule="evenodd" clip-rule="evenodd" d="M25.7891 18.1847H35.6701V17.3422L30.7296 16.7303L25.7891 17.3422V18.1847Z" fill="#D48868"/>
<path fill-rule="evenodd" clip-rule="evenodd" d="M27.2598 21.3942H34.2003V21.8054H30.9787V30.993H30.4706V21.8054H27.2598V21.3942Z" fill="black"/>
<path d="M67.8632 18.4856H59.2578V31.7053H67.8632V18.4856Z" fill="black"/>
<path d="M67.0323 19.1976H60.0918V31.0031H67.0323V19.1976Z" fill="#414764"/>
<path d="M68.8482 31.7051H58.2969V33.0792H68.8482V31.7051Z" fill="#D48868"/>
<path fill-rule="evenodd" clip-rule="evenodd" d="M58.2969 18.4856H68.8374V17.1115L63.5617 16.4194L58.2969 17.1115V18.4856Z" fill="black"/>
<path fill-rule="evenodd" clip-rule="evenodd" d="M58.6328 18.1847H68.5031V17.3422L63.5625 16.7303L58.6328 17.3422V18.1847Z" fill="#D48868"/>
<path fill-rule="evenodd" clip-rule="evenodd" d="M60.1016 21.3942H67.0421V21.8054H63.8205V30.993H63.3124V21.8054H60.1016V21.3942Z" fill="black"/>
<path fill-rule="evenodd" clip-rule="evenodd" d="M0.253906 13.4001L13.2917 2.64783H64.6755L77.7458 13.4001H0.253906Z" fill="#C67450"/>
<path d="M56.5335 38.3853H38.4902V39.9901H56.5335V38.3853Z" fill="#4A0900"/>
<path d="M55.4107 36.7805H39.627V38.3853H55.4107V36.7805Z" fill="#4A0900"/>
<path d="M52.6867 18.9871H42.3516V36.7805H52.6867V18.9871Z" fill="#72363D"/>
<path d="M40.4037 20.8224H38.4902V38.3851H40.4037V20.8224Z" fill="#E39C59"/>
<path d="M51.5852 32.6678H43.5527V35.8875H51.5852V32.6678Z" fill="#84444E"/>
<path d="M47.0987 25.0454H43.5527V31.6152H47.0987V25.0454Z" fill="#84444E"/>
<path d="M51.5831 25.0354H48.0371V31.6051H51.5831V25.0354Z" fill="#84444E"/>
<path d="M51.5852 20.9829H43.5527V24.002H51.5852V20.9829Z" fill="#84444E"/>
<path d="M43.8 28.3351C43.8 28.2077 43.6887 28.1044 43.5514 28.1044C43.4141 28.1044 43.3027 28.2077 43.3027 28.3351V29.6791C43.3027 29.8065 43.4141 29.9098 43.5514 29.9098C43.6887 29.9098 43.8 29.8065 43.8 29.6791V28.3351Z" fill="#4A0900"/>
<path d="M8.04865 19.7493H5V20.7322H8.04865V19.7493Z" fill="#EBB780"/>
<path d="M6.95676 20.8726H5V21.8555H6.95676V20.8726Z" fill="#D48868"/>
<path d="M6.95676 18.4856H5V19.4685H6.95676V18.4856Z" fill="#DEB371"/>
<path d="M73.0194 27.0914H69.9707V28.0744H73.0194V27.0914Z" fill="#EBB780"/>
<path d="M73.0095 28.2147H71.0527V29.1977H73.0095V28.2147Z" fill="#D48868"/>
<path d="M73.0095 25.8278H71.0527V26.8107H73.0095V25.8278Z" fill="#DEB371"/>
<path d="M73.0095 15.9581H71.0527V16.9411H73.0095V15.9581Z" fill="#D48868"/>
<path d="M73.0194 17.2218H69.9707V18.2048H73.0194V17.2218Z" fill="#EBB780"/>
<path d="M6.95676 28.9769H5V29.9599H6.95676V28.9769Z" fill="#D48868"/>
<path d="M8.04865 30.2507H5V31.2337H8.04865V30.2507Z" fill="#EBB780"/>
<path d="M6.95676 31.5446H5V32.5275H6.95676V31.5446Z" fill="#DEB371"/>
<path d="M9.71262 24.7545H7.75586V25.7374H9.71262V24.7545Z" fill="#DEB371"/>
<path d="M9.72402 25.9681H8.74023V26.9511H9.72402V25.9681Z" fill="#D48868"/>
<path d="M26.4177 19.5286H24.4609V20.5115H26.4177V19.5286Z" fill="#DEB371"/>
<path d="M26.4271 20.7522H25.4434V21.7352H26.4271V20.7522Z" fill="#EBB780"/>
<path d="M21.3768 22.056H18.3281V23.039H21.3768V22.056Z" fill="#EBB780"/>
<path d="M20.2849 23.1793H18.3281V24.1623H20.2849V23.1793Z" fill="#D48868"/>
<path d="M20.2849 20.8024H18.3281V21.7853H20.2849V20.8024Z" fill="#DEB371"/>
<path d="M24.6209 25.0956H21.5723V26.0785H24.6209V25.0956Z" fill="#EBB780"/>
<path d="M22.7927 26.3693H20.8359V27.3522H22.7927V26.3693Z" fill="#D48868"/>
<path d="M25.5935 23.8519H23.6367V24.8349H25.5935V23.8519Z" fill="#DEB371"/>
<path d="M77.7458 13.4H0.253906V14.0921H77.7458V13.4Z" fill="#66442E"/>
<path d="M75.0435 14.092H2.95703V15.4662H75.0435V14.092Z" fill="#D48868"/>
<path d="M21.0306 0.371094H16.9766V6.01805H21.0306V0.371094Z" fill="#D48868"/>
<path d="M21.4853 0H16.5664V1.8355H21.4853V0Z" fill="#E5B581"/>
<path d="M70.9256 21.8254H67.877V22.8084H70.9256V21.8254Z" fill="#EBB780"/>
<path d="M69.8337 22.9487H67.877V23.9317H69.8337V22.9487Z" fill="#D48868"/>
<path d="M69.8337 20.5717H67.877V21.5546H69.8337V20.5717Z" fill="#DEB371"/>
<path d="M59.2694 26.3593H56.2207V27.3422H59.2694V26.3593Z" fill="#EBB780"/>
<path d="M59.2595 27.4825H57.3027V28.4655H59.2595V27.4825Z" fill="#D48868"/>
<path d="M59.2595 25.0956H57.3027V26.0785H59.2595V25.0956Z" fill="#DEB371"/>
<path d="M56.5463 20.8224H54.6328V38.3851H56.5463V20.8224Z" fill="#E39C59"/>
<path fill-rule="evenodd" clip-rule="evenodd" d="M47.4557 16.5098L57.3908 20.9832H37.5098L47.4557 16.5098Z" fill="#C67450"/>
<path d="M57.4017 20.9829H37.5098V21.675H57.4017V20.9829Z" fill="#D48868"/>
</svg>
