<svg width="34" height="40" viewBox="0 0 34 40" fill="none" xmlns="http://www.w3.org/2000/svg">
<path fill-rule="evenodd" clip-rule="evenodd" d="M1.58984 5.25234C2.13253 3.98657 2.67521 2.71596 3.21002 1.4502H30.7846C31.3272 2.71596 31.8699 3.98657 32.4047 5.25234H1.58984Z" fill="#9D3533"/>
<path fill-rule="evenodd" clip-rule="evenodd" d="M3.25016 5.25241H6.03434C6.03434 4.82025 6.31277 4.40578 6.80836 4.1002C7.30395 3.79461 7.9761 3.62292 8.67697 3.62292C9.37784 3.62292 10.05 3.79461 10.5456 4.1002C11.0412 4.40578 11.3196 4.82025 11.3196 5.25241H14.3633C14.4002 4.83625 14.6943 4.44462 15.1851 4.15806C15.6759 3.87149 16.3261 3.71179 17.002 3.71179C17.6779 3.71179 18.3282 3.87149 18.819 4.15806C19.3098 4.44462 19.6039 4.83625 19.6407 5.25241H22.7159C22.7528 4.83625 23.0469 4.44462 23.5377 4.15806C24.0285 3.87149 24.6787 3.71179 25.3546 3.71179C26.0305 3.71179 26.6808 3.87149 27.1716 4.15806C27.6624 4.44462 27.9564 4.83625 27.9933 5.25241H30.7539V38.0895H3.22656L3.25016 5.25241Z" fill="#F37653"/>
<path d="M21.8783 5.25244H20.502V9.57835H21.8783V5.25244Z" fill="#DE5941"/>
<path d="M30.7572 5.78088H29.3809V9.57817H30.7572V5.78088Z" fill="#DE5941"/>
<path d="M4.62637 5.78088H3.25V9.57817H4.62637V5.78088Z" fill="#DE5941"/>
<path d="M13.5287 5.25244H12.1523V9.57835H13.5287V5.25244Z" fill="#DE5941"/>
<path d="M31.4941 9.57837H2.51172V10.0779H31.4941V9.57837Z" fill="#EBAE6C"/>
<path fill-rule="evenodd" clip-rule="evenodd" d="M25.3595 3.11343C25.8153 3.11279 26.2668 3.16766 26.6881 3.27492C27.1094 3.38217 27.4921 3.53968 27.8144 3.73841C28.1367 3.93713 28.3921 4.17315 28.5661 4.43292C28.74 4.69269 28.829 4.97109 28.828 5.25213H33.2638V5.80014H27.9943V5.27153C27.9574 4.85536 27.6634 4.46373 27.1726 4.17716C26.6818 3.8906 26.0315 3.7309 25.3556 3.7309C24.6797 3.7309 24.0295 3.8906 23.5387 4.17716C23.0479 4.46373 22.7538 4.85536 22.7169 5.27153V5.80014H19.6417V5.27153C19.6049 4.85536 19.3108 4.46373 18.82 4.17716C18.3292 3.8906 17.6789 3.7309 17.003 3.7309C16.3271 3.7309 15.6769 3.8906 15.1861 4.17716C14.6953 4.46373 14.4012 4.85536 14.3643 5.27153V5.80014H11.3127V5.27153C11.3127 4.83936 11.0343 4.42489 10.5387 4.1193C10.0431 3.81371 9.37098 3.64204 8.67011 3.64204C7.96924 3.64204 7.29708 3.81371 6.80149 4.1193C6.3059 4.42489 6.02749 4.83936 6.02749 5.27153V5.80014H0.734375V5.27153H5.1938C5.1938 4.70302 5.56005 4.1578 6.21199 3.75581C6.86392 3.35381 7.74814 3.12797 8.67011 3.12797C9.59208 3.12797 10.4763 3.35381 11.1282 3.75581C11.7802 4.1578 12.1464 4.70302 12.1464 5.27153H13.5228C13.5653 4.72129 13.9497 4.20226 14.5962 3.82212C15.2427 3.44197 16.1018 3.2299 16.9952 3.2299C17.8885 3.2299 18.7476 3.44197 19.3941 3.82212C20.0407 4.20226 20.4251 4.72129 20.4675 5.27153H21.8754C21.8712 4.98822 21.9584 4.70723 22.1318 4.44487C22.3052 4.18251 22.5614 3.944 22.8856 3.74322C23.2098 3.54243 23.5954 3.38337 24.0201 3.27525C24.4448 3.16713 24.9001 3.11213 25.3595 3.11343Z" fill="#EBAE6C"/>
<path fill-rule="evenodd" clip-rule="evenodd" d="M10.6614 8.34637H6.67383V5.22804C6.6759 4.90173 6.88703 4.58915 7.26123 4.35842C7.63542 4.12768 8.14234 3.99749 8.67152 3.99622C9.19934 3.99877 9.70425 4.12952 10.0768 4.36012C10.4492 4.59072 10.6593 4.90257 10.6614 5.22804V8.34637Z" fill="black"/>
<path fill-rule="evenodd" clip-rule="evenodd" d="M10.2655 8.13779H7.06445V5.22799C7.06445 4.97075 7.23018 4.72404 7.52517 4.54214C7.82016 4.36025 8.22026 4.25806 8.63744 4.25806C9.05463 4.25806 9.45472 4.36025 9.74972 4.54214C10.0447 4.72404 10.2104 4.97075 10.2104 5.22799L10.2655 8.13779Z" fill="#414764"/>
<path d="M10.4752 5.15515H6.86523V5.31519H10.4752V5.15515Z" fill="black"/>
<path d="M8.79069 5.26184H8.54688V8.1377H8.79069V5.26184Z" fill="black"/>
<path fill-rule="evenodd" clip-rule="evenodd" d="M19.0071 8.34637H15.0195V5.22804C15.0216 4.90173 15.2327 4.58915 15.6069 4.35842C15.9811 4.12768 16.488 3.99749 17.0172 3.99622C17.545 3.99877 18.05 4.12952 18.4225 4.36012C18.795 4.59072 19.005 4.90257 19.0071 5.22804V8.34637Z" fill="black"/>
<path fill-rule="evenodd" clip-rule="evenodd" d="M18.6112 8.13779H15.4102V5.22799C15.4102 4.97075 15.5759 4.72404 15.8709 4.54214C16.1659 4.36025 16.566 4.25806 16.9831 4.25806C17.4003 4.25806 17.8004 4.36025 18.0954 4.54214C18.3904 4.72404 18.5561 4.97075 18.5561 5.22799L18.6112 8.13779Z" fill="#414764"/>
<path d="M18.8131 5.15515H15.2031V5.31519H18.8131V5.15515Z" fill="black"/>
<path d="M17.1325 5.26184H16.8887V8.1377H17.1325V5.26184Z" fill="black"/>
<path fill-rule="evenodd" clip-rule="evenodd" d="M27.3333 8.34637H23.3379V5.22804C23.342 4.90212 23.5538 4.59027 23.9276 4.35981C24.3013 4.12935 24.807 3.99875 25.3356 3.99622C25.8648 3.99749 26.3717 4.12768 26.7459 4.35842C27.1201 4.58915 27.3312 4.90173 27.3333 5.22804V8.34637Z" fill="black"/>
<path fill-rule="evenodd" clip-rule="evenodd" d="M26.9393 8.13779H23.7383V5.22799C23.7383 4.97075 23.904 4.72404 24.199 4.54214C24.494 4.36025 24.8941 4.25806 25.3113 4.25806C25.7285 4.25806 26.1286 4.36025 26.4235 4.54214C26.7185 4.72404 26.8843 4.97075 26.8843 5.22799L26.9393 8.13779Z" fill="#414764"/>
<path d="M27.1452 5.15515H23.5352V5.31519H27.1452V5.15515Z" fill="black"/>
<path d="M25.4606 5.26184H25.2168V8.1377H25.4606V5.26184Z" fill="black"/>
<path d="M11.2552 8.34631H6.08008V8.84583H11.2552V8.34631Z" fill="#EBAE6C"/>
<path d="M19.6009 8.34631H14.4258V8.84583H19.6009V8.34631Z" fill="#EBAE6C"/>
<path d="M27.9486 8.34631H22.7734V8.84583H27.9486V8.34631Z" fill="#EBAE6C"/>
<path d="M23.5734 0.388062H21.0645V1.44529H23.5734V0.388062Z" fill="#C67450"/>
<path d="M23.8305 0H20.834V0.387975H23.8305V0Z" fill="#815C4A"/>
<path d="M10.6536 11.4355H6.6582V15.5093H10.6536V11.4355Z" fill="black"/>
<path d="M10.2597 11.6586H7.04297V15.2958H10.2597V11.6586Z" fill="#414764"/>
<path d="M11.101 15.5138H6.20898V15.9357H11.101V15.5138Z" fill="#DE5941"/>
<path fill-rule="evenodd" clip-rule="evenodd" d="M6.20898 11.4406H11.101V11.0138L8.65499 10.8004L6.20898 11.0138V11.4406Z" fill="#DE5941"/>
<path fill-rule="evenodd" clip-rule="evenodd" d="M6.36523 11.3433H10.9426V11.0862L8.65393 10.8971L6.36523 11.0862V11.3433Z" fill="#F37653"/>
<path fill-rule="evenodd" clip-rule="evenodd" d="M7.04297 12.3326H10.2597V12.4587H8.77326V15.2958H8.53731V12.4587H7.04297V12.3326Z" fill="black"/>
<path d="M18.9973 11.4355H15.0098V15.5093H18.9973V11.4355Z" fill="black"/>
<path d="M18.6132 11.6586H15.3965V15.2958H18.6132V11.6586Z" fill="#414764"/>
<path d="M19.4525 15.5138H14.5605V15.9357H19.4525V15.5138Z" fill="#DE5941"/>
<path fill-rule="evenodd" clip-rule="evenodd" d="M14.5605 11.4406H19.4525V11.0138L17.0065 10.8004L14.5605 11.0138V11.4406Z" fill="#DE5941"/>
<path fill-rule="evenodd" clip-rule="evenodd" d="M14.7207 11.3433H19.2981V11.0862L17.0094 10.8971L14.7207 11.0862V11.3433Z" fill="#F37653"/>
<path fill-rule="evenodd" clip-rule="evenodd" d="M15.3965 12.3326H18.6132V12.4587H17.1268V15.2958H16.8908V12.4587H15.3965V12.3326Z" fill="black"/>
<path d="M27.3254 11.4355H23.3379V15.5093H27.3254V11.4355Z" fill="black"/>
<path d="M26.9414 11.6586H23.7246V15.2958H26.9414V11.6586Z" fill="#414764"/>
<path d="M27.7865 15.5138H22.8945V15.9357H27.7865V15.5138Z" fill="#DE5941"/>
<path fill-rule="evenodd" clip-rule="evenodd" d="M22.8945 11.4406H27.7865V11.0138L25.3405 10.8004L22.8945 11.0138V11.4406Z" fill="#DE5941"/>
<path fill-rule="evenodd" clip-rule="evenodd" d="M23.0391 11.3433H27.6243V11.0862L25.3356 10.8971L23.0391 11.0862V11.3433Z" fill="#F37653"/>
<path fill-rule="evenodd" clip-rule="evenodd" d="M23.7246 12.3326H26.9414V12.4587H25.4549V15.2958H25.2189V12.4587H23.7246V12.3326Z" fill="black"/>
<path d="M10.6536 18.3801H6.6582V22.4538H10.6536V18.3801Z" fill="black"/>
<path d="M10.2597 18.5983H7.04297V22.2355H10.2597V18.5983Z" fill="#414764"/>
<path d="M11.101 22.4536H6.20898V22.8755H11.101V22.4536Z" fill="#DE5941"/>
<path fill-rule="evenodd" clip-rule="evenodd" d="M6.20898 18.3802H11.101V17.9583L8.65499 17.7449L6.20898 17.9583V18.3802Z" fill="#DE5941"/>
<path fill-rule="evenodd" clip-rule="evenodd" d="M6.36523 18.2879H10.9426V18.026L8.65393 17.8369L6.36523 18.026V18.2879Z" fill="#F37653"/>
<path fill-rule="evenodd" clip-rule="evenodd" d="M7.04297 19.2777H10.2597V19.4038H8.77326V22.236H8.53731V19.4038H7.04297V19.2777Z" fill="black"/>
<path d="M18.9973 18.3801H15.0098V22.4538H18.9973V18.3801Z" fill="black"/>
<path d="M18.6132 18.5983H15.3965V22.2355H18.6132V18.5983Z" fill="#414764"/>
<path d="M19.4525 22.4536H14.5605V22.8755H19.4525V22.4536Z" fill="#DE5941"/>
<path fill-rule="evenodd" clip-rule="evenodd" d="M14.5605 18.3802H19.4525V17.9583L17.0065 17.7449L14.5605 17.9583V18.3802Z" fill="#DE5941"/>
<path fill-rule="evenodd" clip-rule="evenodd" d="M14.7207 18.2879H19.2981V18.026L17.0094 17.8369L14.7207 18.026V18.2879Z" fill="#F37653"/>
<path fill-rule="evenodd" clip-rule="evenodd" d="M15.3965 19.2777H18.6132V19.4038H17.1268V22.236H16.8908V19.4038H15.3965V19.2777Z" fill="black"/>
<path d="M27.3254 18.3801H23.3379V22.4538H27.3254V18.3801Z" fill="black"/>
<path d="M26.9414 18.5983H23.7246V22.2355H26.9414V18.5983Z" fill="#414764"/>
<path d="M27.7865 22.4536H22.8945V22.8755H27.7865V22.4536Z" fill="#DE5941"/>
<path fill-rule="evenodd" clip-rule="evenodd" d="M22.8945 18.3802H27.7865V17.9583L25.3405 17.7449L22.8945 17.9583V18.3802Z" fill="#DE5941"/>
<path fill-rule="evenodd" clip-rule="evenodd" d="M23.0391 18.2879H27.6243V18.026L25.3356 17.8369L23.0391 18.026V18.2879Z" fill="#F37653"/>
<path fill-rule="evenodd" clip-rule="evenodd" d="M23.7246 19.2777H26.9414V19.4038H25.4549V22.236H25.2189V19.4038H23.7246V19.2777Z" fill="black"/>
<path d="M10.6536 25.2668H6.6582V29.3406H10.6536V25.2668Z" fill="black"/>
<path d="M10.2597 25.485H7.04297V29.1222H10.2597V25.485Z" fill="#414764"/>
<path d="M11.101 29.3403H6.20898V29.7623H11.101V29.3403Z" fill="#DE5941"/>
<path fill-rule="evenodd" clip-rule="evenodd" d="M6.20898 25.2669H11.101V24.845L8.65499 24.6316L6.20898 24.845V25.2669Z" fill="#DE5941"/>
<path fill-rule="evenodd" clip-rule="evenodd" d="M6.36523 25.1747H10.9426V24.9176L8.65393 24.7236L6.36523 24.9176V25.1747Z" fill="#F37653"/>
<path fill-rule="evenodd" clip-rule="evenodd" d="M7.04297 26.1638H10.2597V26.2899H8.77326V29.1221H8.53731V26.2899H7.04297V26.1638Z" fill="black"/>
<path d="M18.9973 25.2668H15.0098V29.3406H18.9973V25.2668Z" fill="black"/>
<path d="M18.6132 25.485H15.3965V29.1222H18.6132V25.485Z" fill="#414764"/>
<path d="M19.4525 29.3403H14.5605V29.7623H19.4525V29.3403Z" fill="#DE5941"/>
<path fill-rule="evenodd" clip-rule="evenodd" d="M14.5605 25.2669H19.4525V24.845L17.0065 24.6316L14.5605 24.845V25.2669Z" fill="#DE5941"/>
<path fill-rule="evenodd" clip-rule="evenodd" d="M14.7207 25.1747H19.2981V24.9176L17.0094 24.7236L14.7207 24.9176V25.1747Z" fill="#F37653"/>
<path fill-rule="evenodd" clip-rule="evenodd" d="M15.3965 26.1638H18.6132V26.2899H17.1268V29.1221H16.8908V26.2899H15.3965V26.1638Z" fill="black"/>
<path d="M27.3254 25.2668H23.3379V29.3406H27.3254V25.2668Z" fill="black"/>
<path d="M26.9414 25.485H23.7246V29.1222H26.9414V25.485Z" fill="#414764"/>
<path d="M27.7865 29.3403H22.8945V29.7623H27.7865V29.3403Z" fill="#DE5941"/>
<path fill-rule="evenodd" clip-rule="evenodd" d="M22.8945 25.2669H27.7865V24.845L25.3405 24.6316L22.8945 24.845V25.2669Z" fill="#DE5941"/>
<path fill-rule="evenodd" clip-rule="evenodd" d="M23.0391 25.1747H27.6243V24.9176L25.3356 24.7236L23.0391 24.9176V25.1747Z" fill="#F37653"/>
<path fill-rule="evenodd" clip-rule="evenodd" d="M23.7246 26.1638H26.9414V26.2899H25.4549V29.1221H25.2189V26.2899H23.7246V26.1638Z" fill="black"/>
<path d="M10.6536 32.4685H6.6582V36.5422H10.6536V32.4685Z" fill="black"/>
<path d="M10.2597 32.6866H7.04297V36.3239H10.2597V32.6866Z" fill="#414764"/>
<path d="M11.101 36.5472H6.20898V36.9692H11.101V36.5472Z" fill="#DE5941"/>
<path fill-rule="evenodd" clip-rule="evenodd" d="M6.20898 32.4686H11.101V32.0466L8.65499 31.8333L6.20898 32.0466V32.4686Z" fill="#DE5941"/>
<path fill-rule="evenodd" clip-rule="evenodd" d="M6.36523 32.3763H10.9426V32.1144L8.65393 31.9253L6.36523 32.1144V32.3763Z" fill="#F37653"/>
<path fill-rule="evenodd" clip-rule="evenodd" d="M7.04297 33.3655H10.2597V33.4916H8.77326V36.3238H8.53731V33.4916H7.04297V33.3655Z" fill="black"/>
<path d="M27.3254 32.4685H23.3379V36.5422H27.3254V32.4685Z" fill="black"/>
<path d="M26.9414 32.6866H23.7246V36.3239H26.9414V32.6866Z" fill="#414764"/>
<path d="M27.7865 36.5472H22.8945V36.9692H27.7865V36.5472Z" fill="#DE5941"/>
<path fill-rule="evenodd" clip-rule="evenodd" d="M22.8945 32.4686H27.7865V32.0466L25.3405 31.8333L22.8945 32.0466V32.4686Z" fill="#DE5941"/>
<path fill-rule="evenodd" clip-rule="evenodd" d="M23.0391 32.3763H27.6243V32.1144L25.3356 31.9253L23.0391 32.1144V32.3763Z" fill="#F37653"/>
<path fill-rule="evenodd" clip-rule="evenodd" d="M23.7246 33.3655H26.9414V33.4916H25.4549V36.3238H25.2189V33.4916H23.7246V33.3655Z" fill="black"/>
<path d="M31.1318 38.0895H2.88086V40.0002H31.1318V38.0895Z" fill="#DBA773"/>
<path d="M31.4941 30.6501H2.51172V31.1497H31.4941V30.6501Z" fill="#EBAE6C"/>
<path d="M4.65782 31.1539H3.25V38.089H4.65782V31.1539Z" fill="#DE5941"/>
<path d="M30.7457 31.1539H29.3457V38.089H30.7457V31.1539Z" fill="#DE5941"/>
<path fill-rule="evenodd" clip-rule="evenodd" d="M19.8798 31.1539H21.2797V38.089H19.8798V34.0443C19.9002 33.8038 19.841 33.5631 19.7057 33.3371C19.5705 33.1111 19.362 32.9045 19.0931 32.7297C18.8242 32.555 18.5003 32.4158 18.1414 32.3207C17.7824 32.2256 17.3958 32.1766 17.0051 32.1766C16.6144 32.1766 16.2279 32.2256 15.8689 32.3207C15.5099 32.4158 15.1861 32.555 14.9172 32.7297C14.6482 32.9045 14.4398 33.1111 14.3045 33.3371C14.1693 33.5631 14.1101 33.8038 14.1305 34.0443V38.089H12.7227V31.1539H19.8798Z" fill="#DE5941"/>
<path fill-rule="evenodd" clip-rule="evenodd" d="M14.1309 38.0893H19.8801V34.0446C19.8781 33.5743 19.5741 33.1236 19.0347 32.791C18.4953 32.4584 17.7644 32.2709 17.0016 32.2697C16.2401 32.2722 15.5112 32.4602 14.9735 32.7927C14.4358 33.1251 14.1329 33.5751 14.1309 34.0446V38.0893Z" fill="#72363D"/>
<path fill-rule="evenodd" clip-rule="evenodd" d="M16.8163 33.8944H14.7793C14.7793 33.5612 14.9939 33.2418 15.3759 33.0062C15.7579 32.7706 16.2761 32.6383 16.8163 32.6383V33.8944Z" fill="#414764"/>
<path fill-rule="evenodd" clip-rule="evenodd" d="M17.1799 33.8944H19.1776C19.1786 33.7296 19.1269 33.5664 19.0254 33.4141C18.9239 33.2617 18.7746 33.1232 18.5861 33.0065C18.3975 32.8898 18.1735 32.7972 17.9268 32.734C17.6801 32.6708 17.4156 32.6383 17.1484 32.6383L17.1799 33.8944Z" fill="#414764"/>
<path d="M16.83 34.127H14.793V37.7497H16.83V34.127Z" fill="#84444E"/>
<path d="M19.2342 34.127H17.2051V37.7497H19.2342V34.127Z" fill="#84444E"/>
<path d="M21.2797 38.0895H12.7227V39.0449H21.2797V38.0895Z" fill="#815C4A"/>
<path d="M21.935 39.0402H12.0566V39.9955H21.935V39.0402Z" fill="#66442E"/>
</svg>
