<svg width="28" height="40" viewBox="0 0 28 40" fill="none" xmlns="http://www.w3.org/2000/svg">
<path opacity="0.7" d="M15.8373 16.4641V14.0745C15.8374 13.8185 15.763 13.5679 15.6232 13.3533C15.4835 13.1386 15.2844 12.9693 15.0502 12.8657V11.7788C15.0495 10.3441 14.6027 8.94524 13.7716 7.77586C12.9405 6.60648 11.7663 5.72451 10.4117 5.25214V2.82983H5.88572V5.2615C4.52861 5.73002 3.35082 6.60904 2.51554 7.77675C1.68026 8.94446 1.22885 10.3431 1.22385 11.7788V12.8704C0.990846 12.9751 0.793045 13.1449 0.654238 13.3594C0.51543 13.5738 0.441527 13.8238 0.441406 14.0792V16.4641C0.441845 16.7188 0.515936 16.9681 0.65476 17.1817C0.793583 17.3953 0.991217 17.5643 1.22385 17.6682V19.5892C0.991217 19.6931 0.793583 19.862 0.65476 20.0756C0.515936 20.2893 0.441845 20.5385 0.441406 20.7933V23.1828C0.441527 23.4382 0.51543 23.6882 0.654238 23.9026C0.793045 24.1171 0.990846 24.2869 1.22385 24.3916V26.3032C0.991217 26.4071 0.793583 26.576 0.65476 26.7897C0.515936 27.0033 0.441845 27.2525 0.441406 27.5073V29.8968C0.441527 30.1523 0.51543 30.4022 0.654238 30.6167C0.793045 30.8311 0.990846 31.0009 1.22385 31.1056V33.0219C0.990846 33.1266 0.793045 33.2964 0.654238 33.5108C0.51543 33.7253 0.441527 33.9753 0.441406 34.2307V36.6202C0.441845 36.875 0.515936 37.1242 0.65476 37.3378C0.793583 37.5515 0.991217 37.7204 1.22385 37.8243V39.5907H15.0502V37.8243C15.284 37.7216 15.483 37.5531 15.6227 37.3393C15.7625 37.1255 15.837 36.8756 15.8373 36.6202V34.2682C15.8374 34.0121 15.763 33.7615 15.6232 33.5469C15.4835 33.3323 15.2844 33.1629 15.0502 33.0594V31.1431C15.2844 31.0396 15.4835 30.8702 15.6232 30.6556C15.763 30.441 15.8374 30.1904 15.8373 29.9343V27.5448C15.837 27.2893 15.7625 27.0395 15.6227 26.8257C15.483 26.6119 15.284 26.4434 15.0502 26.3407V24.4291C15.2844 24.3255 15.4835 24.1562 15.6232 23.9416C15.763 23.7269 15.8374 23.4764 15.8373 23.2203V20.8308C15.837 20.5753 15.7625 20.3255 15.6227 20.1117C15.483 19.8979 15.284 19.7293 15.0502 19.6266V17.7057C15.29 17.6004 15.493 17.4261 15.6332 17.205C15.7734 16.9838 15.8444 16.7258 15.8373 16.4641Z" fill="#D7F0FD"/>
<path d="M14.8856 13.2505L14.6466 13.1427V11.7793C14.6471 10.774 14.4129 9.78254 13.9626 8.88379H2.31493C1.86461 9.78254 1.63037 10.774 1.63088 11.7793V13.1334L1.39193 13.2411C1.22984 13.315 1.09218 13.4336 0.995091 13.583C0.898001 13.7324 0.845504 13.9063 0.84375 14.0845V16.4646C0.846848 16.6406 0.899475 16.8122 0.995599 16.9597C1.09172 17.1072 1.22745 17.2247 1.38724 17.2986L1.63088 17.411V19.8474L1.38724 19.9598C1.22745 20.0337 1.09172 20.1512 0.995599 20.2987C0.899475 20.4462 0.846848 20.6178 0.84375 20.7938V23.1833C0.845971 23.3601 0.898187 23.5327 0.994362 23.6812C1.09054 23.8296 1.22674 23.9477 1.38724 24.022L1.63088 24.1297V26.5708L1.38724 26.6785C1.22745 26.7525 1.09172 26.8699 0.995599 27.0174C0.899475 27.1649 0.846848 27.3365 0.84375 27.5125V29.902C0.845971 30.0789 0.898187 30.2515 0.994362 30.3999C1.09054 30.5483 1.22674 30.6664 1.38724 30.7407L1.63088 30.8485V33.2895L1.38724 33.3973C1.22674 33.4715 1.09054 33.5897 0.994362 33.7381C0.898187 33.8865 0.845971 34.0591 0.84375 34.2359V36.6207C0.846388 36.7981 0.899297 36.971 0.996335 37.1195C1.09337 37.268 1.23055 37.3858 1.39193 37.4594L1.63088 37.5672V37.7124C1.63147 37.8699 1.6695 38.025 1.74182 38.1648C1.81414 38.3047 1.91868 38.4254 2.04682 38.5169C2.17496 38.6085 2.32303 38.6682 2.47881 38.6913C2.63458 38.7143 2.79361 38.7 2.94276 38.6495C6.4661 38.1809 8.92588 38.2793 13.3207 38.6963C13.4706 38.7474 13.6306 38.7622 13.7874 38.7396C13.9442 38.717 14.0933 38.6575 14.2227 38.5661C14.3521 38.4746 14.458 38.3539 14.5316 38.2136C14.6053 38.0734 14.6447 37.9177 14.6466 37.7593V37.5578L14.8903 37.45C15.0501 37.3761 15.1858 37.2587 15.2819 37.1112C15.378 36.9637 15.4307 36.7921 15.4338 36.6161V34.2687C15.4315 34.0919 15.3793 33.9193 15.2832 33.7709C15.187 33.6225 15.0508 33.5043 14.8903 33.4301L14.6466 33.3223V30.8812L14.8856 30.7735C15.047 30.6999 15.1841 30.582 15.2812 30.4336C15.3782 30.2851 15.4311 30.1122 15.4338 29.9348V27.55C15.432 27.3719 15.3795 27.1979 15.2824 27.0485C15.1853 26.8992 15.0477 26.7806 14.8856 26.7066L14.6466 26.6036V24.1625L14.8856 24.0548C15.0477 23.9809 15.1853 23.8622 15.2824 23.7129C15.3795 23.5635 15.432 23.3896 15.4338 23.2114V20.8266C15.4307 20.6506 15.378 20.479 15.2819 20.3315C15.1858 20.184 15.0501 20.0665 14.8903 19.9926L14.6466 19.8802V17.4438L14.8856 17.3361C15.0477 17.2621 15.1853 17.1435 15.2824 16.9942C15.3795 16.8448 15.432 16.6708 15.4338 16.4927V14.1126C15.4356 13.9313 15.3848 13.7533 15.2875 13.6003C15.1902 13.4472 15.0506 13.3257 14.8856 13.2505Z" fill="#26AAE9"/>
<path d="M11.0402 3.90756H5.23048V1.3447C5.22986 1.16794 5.26422 0.992796 5.33157 0.829372C5.39893 0.665949 5.49795 0.517473 5.62294 0.392485C5.74793 0.267496 5.89641 0.168469 6.05983 0.101112C6.22326 0.0337549 6.3984 -0.000610909 6.57515 8.2189e-06H9.70493C10.0616 8.2189e-06 10.4036 0.141681 10.6558 0.393857C10.9079 0.646034 11.0496 0.988069 11.0496 1.3447L11.0402 3.90756Z" fill="#0486D1"/>
<path d="M5.46764 9.43579C5.04127 10.2745 4.19792 10.7055 3.59352 10.3728C2.98911 10.0402 2.82044 9.12655 3.2468 8.28788C3.67316 7.44922 4.51183 7.01348 5.12092 7.32271C5.73001 7.63194 5.88463 8.61118 5.46764 9.43579Z" fill="white"/>
<g style="mix-blend-mode:multiply" opacity="0.05">
<path d="M14.5114 12.7631H1.76735C1.03505 12.7631 0.441406 13.3567 0.441406 14.089V16.4738C0.441406 17.2061 1.03505 17.7998 1.76735 17.7998H14.5114C15.2436 17.7998 15.8373 17.2061 15.8373 16.4738V14.089C15.8373 13.3567 15.2436 12.7631 14.5114 12.7631Z" fill="#1D1D1B"/>
</g>
<g style="mix-blend-mode:multiply" opacity="0.05">
<path d="M14.5114 19.4862H1.76735C1.03505 19.4862 0.441406 20.0798 0.441406 20.8121V23.197C0.441406 23.9292 1.03505 24.5229 1.76735 24.5229H14.5114C15.2436 24.5229 15.8373 23.9292 15.8373 23.197V20.8121C15.8373 20.0798 15.2436 19.4862 14.5114 19.4862Z" fill="#1D1D1B"/>
</g>
<g style="mix-blend-mode:multiply" opacity="0.05">
<path d="M14.5114 26.2051H1.76735C1.03505 26.2051 0.441406 26.7987 0.441406 27.531V29.9158C0.441406 30.6481 1.03505 31.2418 1.76735 31.2418H14.5114C15.2436 31.2418 15.8373 30.6481 15.8373 29.9158V27.531C15.8373 26.7987 15.2436 26.2051 14.5114 26.2051Z" fill="#1D1D1B"/>
</g>
<g style="mix-blend-mode:multiply" opacity="0.05">
<path d="M14.5114 32.9238H1.76735C1.03505 32.9238 0.441406 33.5175 0.441406 34.2498V36.6346C0.441406 37.3669 1.03505 37.9605 1.76735 37.9605H14.5114C15.2436 37.9605 15.8373 37.3669 15.8373 36.6346V34.2498C15.8373 33.5175 15.2436 32.9238 14.5114 32.9238Z" fill="#1D1D1B"/>
</g>
<g style="mix-blend-mode:multiply" opacity="0.05">
<path d="M15.8139 27.2874C15.8139 27.264 15.8139 27.2406 15.8139 27.2171C15.8139 27.1937 15.7857 27.1094 15.767 27.0578L15.7389 26.9875C15.7092 26.9226 15.6747 26.86 15.6358 26.8001C15.6213 26.779 15.6057 26.7586 15.589 26.7392L15.4953 26.6268L15.4203 26.5518L15.3313 26.4815C15.3036 26.4571 15.2738 26.4351 15.2423 26.4159C15.1903 26.3802 15.1354 26.3489 15.0783 26.3222V25.9568C12.0422 32.3944 6.82278 36.6439 0.909936 36.6439C0.750636 36.6439 0.596021 36.6439 0.441406 36.6439C0.442245 36.7241 0.450078 36.8041 0.464827 36.8829C0.462132 36.9047 0.462132 36.9267 0.464827 36.9485C0.475428 37.0045 0.491113 37.0594 0.511683 37.1125L0.539793 37.1781C0.566561 37.2459 0.601155 37.3104 0.642871 37.3702L0.685037 37.4264C0.715267 37.4675 0.748136 37.5066 0.783431 37.5435L0.853707 37.6138L0.947419 37.6888C0.97509 37.7132 1.00488 37.7352 1.03643 37.7544C1.09002 37.7901 1.14643 37.8215 1.2051 37.8481V39.6144H15.0314V37.8481C15.0886 37.8214 15.1434 37.7901 15.1954 37.7544C15.227 37.7352 15.2568 37.7132 15.2844 37.6888L15.3734 37.6185L15.4484 37.5435L15.5421 37.4311C15.5589 37.4117 15.5745 37.3913 15.589 37.3702C15.6279 37.3103 15.6623 37.2477 15.692 37.1828L15.7202 37.1125C15.7202 37.0609 15.753 37.0047 15.767 36.9532C15.7811 36.9016 15.767 36.9063 15.767 36.8829C15.7818 36.8041 15.7896 36.7241 15.7904 36.6439V34.2685C15.7898 34.1899 15.782 34.1114 15.767 34.0342C15.767 34.0061 15.767 33.9827 15.767 33.9593C15.767 33.9358 15.7389 33.8562 15.7202 33.8L15.692 33.7344C15.6633 33.6675 15.6289 33.6032 15.589 33.5423C15.5722 33.5229 15.5566 33.5025 15.5421 33.4814L15.4484 33.3689L15.3734 33.2986L15.2844 33.2237C15.2568 33.1992 15.227 33.1773 15.1954 33.1581C15.1433 33.1239 15.0885 33.0941 15.0314 33.0691V31.1528C15.0885 31.1278 15.1433 31.098 15.1954 31.0638C15.227 31.0446 15.2568 31.0226 15.2844 30.9982L15.3734 30.9232L15.4484 30.8482C15.4821 30.8145 15.5134 30.7785 15.5421 30.7405C15.5566 30.7193 15.5722 30.699 15.589 30.6796C15.6289 30.6186 15.6633 30.5544 15.692 30.4875L15.7202 30.4172C15.7202 30.3656 15.753 30.3141 15.767 30.2626C15.7811 30.211 15.767 30.211 15.767 30.1876C15.782 30.1104 15.7898 30.032 15.7904 29.9533V27.5638C15.8075 27.4727 15.8154 27.3801 15.8139 27.2874Z" fill="#1D1D1B"/>
</g>
<path d="M14.1148 24.4696C14.5072 24.4696 14.8253 24.1515 14.8253 23.7591C14.8253 23.3667 14.5072 23.0486 14.1148 23.0486C13.7224 23.0486 13.4043 23.3667 13.4043 23.7591C13.4043 24.1515 13.7224 24.4696 14.1148 24.4696Z" fill="#8FDAFF"/>
<path d="M13.85 23.7359C13.85 23.8663 13.7751 23.9705 13.6838 23.9705C13.5925 23.9705 13.5176 23.8663 13.5176 23.7359C13.5176 23.6055 13.5925 23.5012 13.6838 23.5012C13.7751 23.5012 13.85 23.6055 13.85 23.7359Z" fill="white"/>
<path d="M14.2622 28.2405C14.489 28.2405 14.6729 28.0567 14.6729 27.8299C14.6729 27.6031 14.489 27.4192 14.2622 27.4192C14.0354 27.4192 13.8516 27.6031 13.8516 27.8299C13.8516 28.0567 14.0354 28.2405 14.2622 28.2405Z" fill="#8FDAFF"/>
<path d="M14.1142 27.8172C14.1142 27.8922 14.0685 27.9508 14.0164 27.9508C13.9642 27.9508 13.9219 27.8922 13.9219 27.8172C13.9219 27.7423 13.9642 27.6836 14.0164 27.6836C14.0685 27.6836 14.1142 27.7423 14.1142 27.8172Z" fill="white"/>
<path d="M25.4854 25.2264C25.486 25.3077 25.4625 25.3874 25.4177 25.4554C25.373 25.5234 25.3091 25.5765 25.2341 25.6081C25.1592 25.6397 25.0765 25.6483 24.9966 25.6328C24.9167 25.6173 24.8433 25.5785 24.7855 25.5212C24.7277 25.4639 24.6883 25.3907 24.6722 25.311C24.6561 25.2312 24.664 25.1485 24.695 25.0732C24.726 24.998 24.7786 24.9337 24.8462 24.8884C24.9138 24.8431 24.9933 24.819 25.0747 24.819C25.1831 24.819 25.287 24.8618 25.3639 24.9381C25.4409 25.0144 25.4845 25.118 25.4854 25.2264Z" fill="#8FDAFF"/>
<path d="M24.911 25.213C24.911 25.2879 24.8687 25.3466 24.8165 25.3466C24.7644 25.3466 24.7188 25.2879 24.7188 25.213C24.7188 25.138 24.7611 25.0793 24.8165 25.0793C24.8719 25.0793 24.911 25.138 24.911 25.213Z" fill="white"/>
<path d="M10.9492 18.3035L11.2034 21.7517L12.5364 39.9934H25.9708L27.3039 21.7517L27.5581 18.3035H10.9492Z" fill="#C2E1F1"/>
<path d="M11.9043 22.3254L13.1461 39.3384C17.1158 37.6339 21.193 37.7088 25.3615 39.3384L26.6065 22.3254H11.9043Z" fill="#34B1ED"/>
<path d="M19.6109 28.7977C20.0033 28.7977 20.3214 28.4796 20.3214 28.0872C20.3214 27.6948 20.0033 27.3767 19.6109 27.3767C19.2185 27.3767 18.9004 27.6948 18.9004 28.0872C18.9004 28.4796 19.2185 28.7977 19.6109 28.7977Z" fill="#8FDAFF"/>
<path d="M19.35 28.0645C19.35 28.1916 19.2751 28.2992 19.1838 28.2992C19.0925 28.2992 19.0176 28.1916 19.0176 28.0645C19.0176 27.9374 19.0925 27.8298 19.1838 27.8298C19.2751 27.8298 19.35 27.9341 19.35 28.0645Z" fill="white"/>
<path d="M22.3921 30.9757C22.7845 30.9757 23.1026 30.6576 23.1026 30.2652C23.1026 29.8728 22.7845 29.5547 22.3921 29.5547C21.9997 29.5547 21.6816 29.8728 21.6816 30.2652C21.6816 30.6576 21.9997 30.9757 22.3921 30.9757Z" fill="#8FDAFF"/>
<path d="M22.1313 30.2416C22.1313 30.372 22.0563 30.4763 21.965 30.4763C21.8738 30.4763 21.7988 30.372 21.7988 30.2416C21.7988 30.1113 21.8738 30.007 21.965 30.007C22.0563 30.007 22.1313 30.1113 22.1313 30.2416Z" fill="white"/>
<path d="M18.1402 24.9001C18.5326 24.9001 18.8507 24.582 18.8507 24.1896C18.8507 23.7972 18.5326 23.4791 18.1402 23.4791C17.7478 23.4791 17.4297 23.7972 17.4297 24.1896C17.4297 24.582 17.7478 24.9001 18.1402 24.9001Z" fill="#8FDAFF"/>
<path d="M17.8793 24.1669C17.8793 24.294 17.8044 24.3983 17.7131 24.3983C17.6218 24.3983 17.5469 24.294 17.5469 24.1669C17.5469 24.0398 17.6218 23.9323 17.7131 23.9323C17.8044 23.9323 17.8793 24.0365 17.8793 24.1669Z" fill="white"/>
<path d="M19.6198 31.8331C19.6198 31.9388 19.5884 32.0422 19.5297 32.1301C19.471 32.218 19.3875 32.2865 19.2898 32.3269C19.1922 32.3674 19.0847 32.378 18.981 32.3573C18.8773 32.3367 18.7821 32.2858 18.7073 32.2111C18.6326 32.1363 18.5817 32.0411 18.5611 31.9374C18.5404 31.8337 18.551 31.7262 18.5915 31.6286C18.6319 31.5309 18.7004 31.4474 18.7883 31.3887C18.8762 31.3299 18.9796 31.2986 19.0853 31.2986C19.2271 31.2986 19.363 31.3549 19.4632 31.4551C19.5635 31.5554 19.6198 31.6913 19.6198 31.8331Z" fill="#8FDAFF"/>
<path d="M18.8785 31.8158C18.8785 31.9135 18.8231 31.9918 18.7547 31.9918C18.6863 31.9918 18.6406 31.9233 18.6406 31.8158C18.6406 31.7082 18.696 31.6398 18.7645 31.6398C18.8329 31.6398 18.8785 31.718 18.8785 31.8158Z" fill="white"/>
<path d="M23.3997 33.1858C23.4003 33.2929 23.3689 33.3978 23.3095 33.487C23.25 33.5762 23.1653 33.6456 23.0661 33.6863C22.9669 33.727 22.8579 33.7371 22.7529 33.7154C22.648 33.6936 22.5519 33.641 22.4771 33.5643C22.4022 33.4876 22.352 33.3902 22.3329 33.2848C22.3137 33.1793 22.3265 33.0705 22.3697 32.9724C22.4128 32.8743 22.4842 32.7913 22.5749 32.7341C22.6655 32.6768 22.7711 32.648 22.8783 32.6512C23.0175 32.6555 23.1496 32.7135 23.2469 32.8132C23.3442 32.9129 23.399 33.0465 23.3997 33.1858Z" fill="#8FDAFF"/>
<path d="M22.5379 33.345C22.6063 33.345 22.6618 33.2662 22.6618 33.169C22.6618 33.0718 22.6063 32.993 22.5379 32.993C22.4695 32.993 22.4141 33.0718 22.4141 33.169C22.4141 33.2662 22.4695 33.345 22.5379 33.345Z" fill="white"/>
<path d="M16.4186 32.9922C16.418 33.0978 16.3861 33.2008 16.327 33.2883C16.2678 33.3758 16.1841 33.4438 16.0864 33.4837C15.9887 33.5237 15.8813 33.5338 15.7778 33.5128C15.6744 33.4918 15.5794 33.4407 15.505 33.3658C15.4306 33.2909 15.38 33.1956 15.3596 33.0921C15.3393 32.9885 15.3501 32.8812 15.3906 32.7837C15.4312 32.6862 15.4997 32.6029 15.5875 32.5443C15.6753 32.4857 15.7785 32.4545 15.8841 32.4545C15.9546 32.4545 16.0243 32.4684 16.0894 32.4955C16.1545 32.5225 16.2135 32.5622 16.2632 32.6122C16.3129 32.6621 16.3522 32.7215 16.3789 32.7867C16.4055 32.8519 16.419 32.9218 16.4186 32.9922Z" fill="#8FDAFF"/>
<path d="M15.6852 32.9737C15.6852 33.0715 15.6298 33.1497 15.5613 33.1497C15.4929 33.1497 15.4375 33.0715 15.4375 32.9737C15.4375 32.876 15.4929 32.7977 15.5613 32.7977C15.6298 32.7977 15.6852 32.876 15.6852 32.9737Z" fill="white"/>
<path d="M20.8177 25.6271C21.1129 25.6271 21.3522 25.3878 21.3522 25.0926C21.3522 24.7974 21.1129 24.5581 20.8177 24.5581C20.5225 24.5581 20.2832 24.7974 20.2832 25.0926C20.2832 25.3878 20.5225 25.6271 20.8177 25.6271Z" fill="#8FDAFF"/>
<path d="M20.6201 25.0796C20.6201 25.1773 20.5647 25.2556 20.4962 25.2556C20.4278 25.2556 20.3691 25.1773 20.3691 25.0796C20.3691 24.9818 20.4278 24.9036 20.4962 24.9036C20.5647 24.9036 20.6201 24.9785 20.6201 25.0796Z" fill="white"/>
<path d="M23.556 23.5475C23.5566 23.6541 23.5256 23.7585 23.4667 23.8474C23.4079 23.9364 23.3239 24.0058 23.2255 24.0469C23.1271 24.088 23.0187 24.0989 22.9141 24.0783C22.8095 24.0577 22.7134 24.0064 22.638 23.931C22.5626 23.8556 22.5113 23.7594 22.4906 23.6548C22.47 23.5502 22.4809 23.4418 22.522 23.3434C22.5631 23.245 22.6326 23.1611 22.7215 23.1022C22.8104 23.0434 22.9149 23.0123 23.0215 23.0129C23.163 23.0138 23.2984 23.0704 23.3985 23.1704C23.4986 23.2705 23.5551 23.406 23.556 23.5475Z" fill="#8FDAFF"/>
<path d="M22.8213 23.5313C22.8213 23.6259 22.7659 23.7073 22.6974 23.7073C22.629 23.7073 22.5703 23.6259 22.5703 23.5313C22.5703 23.4368 22.6257 23.3553 22.6974 23.3553C22.7691 23.3553 22.8213 23.4499 22.8213 23.5313Z" fill="white"/>
<path d="M17.0124 26.4935C17.0117 26.599 16.9798 26.702 16.9207 26.7895C16.8616 26.877 16.7779 26.945 16.6802 26.9849C16.5824 27.0249 16.4751 27.035 16.3716 27.014C16.2681 26.993 16.1732 26.9419 16.0988 26.867C16.0243 26.7921 15.9738 26.6969 15.9534 26.5933C15.933 26.4897 15.9438 26.3824 15.9844 26.2849C16.0249 26.1874 16.0934 26.1041 16.1812 26.0455C16.2691 25.987 16.3723 25.9557 16.4779 25.9557C16.5483 25.9557 16.6181 25.9696 16.6832 25.9967C16.7482 26.0237 16.8073 26.0634 16.857 26.1134C16.9066 26.1634 16.9459 26.2227 16.9726 26.2879C16.9993 26.3531 17.0128 26.423 17.0124 26.4935Z" fill="#8FDAFF"/>
<path d="M16.2868 26.4741C16.2868 26.5719 16.2314 26.6501 16.1629 26.6501C16.0945 26.6501 16.0391 26.5719 16.0391 26.4741C16.0391 26.3763 16.0945 26.2981 16.1629 26.2981C16.2314 26.2981 16.2868 26.3828 16.2868 26.4741Z" fill="white"/>
<path d="M16.7022 29.4822C16.7022 29.5634 16.6781 29.6428 16.633 29.7104C16.5878 29.7779 16.5237 29.8305 16.4487 29.8616C16.3736 29.8927 16.2911 29.9008 16.2114 29.885C16.1317 29.8691 16.0586 29.83 16.0011 29.7726C15.9437 29.7151 15.9046 29.642 15.8888 29.5623C15.8729 29.4827 15.881 29.4001 15.9121 29.3251C15.9432 29.25 15.9958 29.1859 16.0634 29.1408C16.1309 29.0956 16.2103 29.0715 16.2915 29.0715C16.3456 29.0711 16.3992 29.0814 16.4492 29.1019C16.4992 29.1224 16.5446 29.1526 16.5829 29.1909C16.6211 29.2291 16.6513 29.2745 16.6718 29.3245C16.6923 29.3746 16.7026 29.4282 16.7022 29.4822Z" fill="#8FDAFF"/>
<path d="M16.1402 29.4693C16.1402 29.541 16.0978 29.6029 16.0457 29.6029C15.9935 29.6029 15.9512 29.541 15.9512 29.4693C15.9512 29.3976 15.9935 29.3324 16.0457 29.3324C16.0978 29.3324 16.1402 29.3943 16.1402 29.4693Z" fill="white"/>
<path d="M24.374 27.9047C24.3747 27.9861 24.3511 28.0658 24.3064 28.1338C24.2617 28.2017 24.1978 28.2549 24.1228 28.2864C24.0478 28.318 23.9652 28.3266 23.8853 28.3111C23.8054 28.2957 23.7319 28.2568 23.6742 28.1995C23.6164 28.1422 23.577 28.0691 23.5609 27.9893C23.5448 27.9096 23.5527 27.8268 23.5837 27.7516C23.6147 27.6764 23.6673 27.612 23.7349 27.5668C23.8025 27.5215 23.882 27.4973 23.9634 27.4973C24.0172 27.4969 24.0705 27.5071 24.1203 27.5274C24.1701 27.5477 24.2154 27.5776 24.2536 27.6155C24.2917 27.6534 24.322 27.6984 24.3427 27.7481C24.3634 27.7977 24.374 27.851 24.374 27.9047Z" fill="#8FDAFF"/>
<path d="M23.8121 27.8923C23.8121 27.9673 23.7697 28.0259 23.7176 28.0259C23.6654 28.0259 23.623 27.9673 23.623 27.8923C23.623 27.8173 23.6654 27.7587 23.7176 27.7587C23.7697 27.7587 23.8121 27.8173 23.8121 27.8923Z" fill="white"/>
<path d="M14.6057 19.1709H12.2949L13.729 38.247C14.1848 38.0448 14.6555 37.8781 15.1369 37.7483L14.6057 19.1709Z" fill="white"/>
<g opacity="0.05">
<path d="M12.4492 38.7677L12.5405 39.9997H25.9716L26.6821 30.2938C24.8342 35.3716 17.4293 38.8036 12.4492 38.7677Z" fill="#1D1D1B"/>
<g style="mix-blend-mode:multiply" opacity="0.7">
<path d="M12.4492 38.7677L12.5405 39.9997H25.9716L26.6821 30.2938C24.8342 35.3716 17.4293 38.8036 12.4492 38.7677Z" fill="#45ECFF"/>
</g>
</g>
</svg>
