<svg width="37" height="40" viewBox="0 0 37 40" fill="none" xmlns="http://www.w3.org/2000/svg">
<path d="M33.9121 3.68084L26.6038 7.53648L19.1211 3.68084V2.14099H33.9121V3.68084Z" fill="#B2B2B2"/>
<path d="M19.8557 5.60601C21.4038 5.60601 22.6587 4.35106 22.6587 2.803C22.6587 1.25495 21.4038 0 19.8557 0C18.3077 0 17.0527 1.25495 17.0527 2.803C17.0527 4.35106 18.3077 5.60601 19.8557 5.60601Z" fill="#DADADA"/>
<path d="M33.221 5.60601C34.769 5.60601 36.024 4.35106 36.024 2.803C36.024 1.25495 34.769 0 33.221 0C31.6729 0 30.418 1.25495 30.418 2.803C30.418 4.35106 31.6729 5.60601 33.221 5.60601Z" fill="#DADADA"/>
<path d="M28.278 6.20789H24.9336V9.72067H28.278V6.20789Z" fill="#706F6F"/>
<path d="M31.6631 36.9385H21.4375V10.9896C21.4367 10.6884 21.4954 10.3901 21.6103 10.1117C21.7252 9.83327 21.894 9.58031 22.107 9.36735C22.3199 9.15438 22.5729 8.9856 22.8513 8.87071C23.1297 8.75583 23.4281 8.69709 23.7292 8.69788H29.3954C29.6969 8.69709 29.9955 8.75578 30.2743 8.8706C30.553 8.98542 30.8063 9.1541 31.0198 9.36699C31.2332 9.57987 31.4026 9.83278 31.5181 10.1112C31.6337 10.3897 31.6931 10.6882 31.6931 10.9896L31.6631 36.9385Z" fill="#C6C6C6"/>
<path d="M8.61353 21.191H0V23.7655H8.61353V21.191Z" fill="#DADADA"/>
<path d="M20.5594 24.2107L0 21.2031V20.8543C0 19.0994 0.697099 17.4165 1.93794 16.1757C3.17878 14.9348 4.86173 14.2377 6.61654 14.2377L20.5594 13.7926V24.2107Z" fill="#C6C6C6"/>
<path d="M26.5379 28.1025C31.3482 28.1025 35.2477 24.028 35.2477 19.0018C35.2477 13.9755 31.3482 9.901 26.5379 9.901C21.7276 9.901 17.8281 13.9755 17.8281 19.0018C17.8281 24.028 21.7276 28.1025 26.5379 28.1025Z" fill="#EDEDED"/>
<path d="M26.5383 8.09032C28.9401 8.09032 30.8872 6.78421 30.8872 5.17303C30.8872 3.56185 28.9401 2.25574 26.5383 2.25574C24.1365 2.25574 22.1895 3.56185 22.1895 5.17303C22.1895 6.78421 24.1365 8.09032 26.5383 8.09032Z" fill="#9D9D9C"/>
<path d="M33.3775 39.9818H19.7715V38.7006C19.7715 38.2343 19.9563 37.7869 20.2856 37.4565C20.6148 37.1262 21.0615 36.9398 21.5279 36.9382H31.6151C32.0825 36.9382 32.5308 37.1239 32.8613 37.4544C33.1918 37.7849 33.3775 38.2332 33.3775 38.7006V39.9818Z" fill="#706F6F"/>
<path d="M26.5374 5.60601C28.0854 5.60601 29.3404 4.35106 29.3404 2.803C29.3404 1.25495 28.0854 0 26.5374 0C24.9893 0 23.7344 1.25495 23.7344 2.803C23.7344 4.35106 24.9893 5.60601 26.5374 5.60601Z" fill="#DADADA"/>
<path opacity="0.1" d="M34.4531 0.2948C34.7745 0.521351 35.0421 0.815956 35.2368 1.15766C35.4315 1.49937 35.5485 1.87978 35.5795 2.27183C35.6105 2.66389 35.5547 3.05796 35.4161 3.42601C35.2775 3.79406 35.0595 4.12704 34.7777 4.40129C34.4958 4.67553 34.1569 4.88429 33.7852 5.01271C33.4135 5.14114 33.018 5.18607 32.627 5.14431C32.2359 5.10256 31.8589 4.97515 31.5226 4.77115C31.1864 4.56714 30.8993 4.29155 30.6816 3.96397C30.8684 4.36969 31.1497 4.72467 31.5021 4.99909C31.8544 5.27352 32.2675 5.45937 32.7066 5.54105C33.1457 5.62272 33.598 5.59783 34.0254 5.46846C34.4529 5.33909 34.8431 5.10903 35.1632 4.79759C35.4833 4.48615 35.724 4.10244 35.8651 3.67868C36.0062 3.25493 36.0435 2.80351 35.9739 2.36234C35.9043 1.92117 35.7299 1.50315 35.4653 1.14338C35.2006 0.783606 34.8535 0.492599 34.4531 0.2948Z" fill="black"/>
<path opacity="0.1" d="M27.7714 0.2948C28.0929 0.521351 28.3605 0.815956 28.5552 1.15766C28.7499 1.49937 28.8669 1.87978 28.8979 2.27183C28.9289 2.66389 28.8731 3.05796 28.7345 3.42601C28.5959 3.79406 28.3779 4.12704 28.096 4.40129C27.8141 4.67553 27.4753 4.88429 27.1036 5.01271C26.7318 5.14113 26.3364 5.18606 25.9453 5.14431C25.5543 5.10256 25.1772 4.97515 24.841 4.77115C24.5048 4.56714 24.2176 4.29154 24 3.96397C24.1853 4.37298 24.4663 4.73137 24.8193 5.00886C25.1723 5.28635 25.5869 5.47477 26.028 5.55821C26.4692 5.64165 26.924 5.61766 27.354 5.48824C27.7839 5.35883 28.1764 5.12781 28.4982 4.81471C28.8201 4.5016 29.0618 4.11562 29.203 3.68939C29.3441 3.26316 29.3806 2.8092 29.3093 2.36589C29.2381 1.92258 29.0611 1.50295 28.7934 1.14246C28.5257 0.781971 28.1752 0.491228 27.7714 0.2948Z" fill="black"/>
<path opacity="0.1" d="M21.0878 0.2948C21.4093 0.521351 21.6769 0.815956 21.8716 1.15766C22.0663 1.49937 22.1833 1.87978 22.2143 2.27183C22.2453 2.66389 22.1895 3.05796 22.0509 3.42601C21.9123 3.79406 21.6943 4.12704 21.4124 4.40129C21.1305 4.67553 20.7917 4.88429 20.42 5.01271C20.0482 5.14113 19.6528 5.18606 19.2617 5.14431C18.8707 5.10256 18.4936 4.97515 18.1574 4.77115C17.8212 4.56714 17.534 4.29154 17.3164 3.96397C17.5017 4.37298 17.7827 4.73137 18.1357 5.00886C18.4887 5.28635 18.9033 5.47477 19.3445 5.55821C19.7856 5.64165 20.2404 5.61766 20.6704 5.48824C21.1003 5.35883 21.4928 5.12781 21.8146 4.81471C22.1365 4.5016 22.3782 4.11562 22.5194 3.68939C22.6605 3.26316 22.697 2.8092 22.6257 2.36589C22.5545 1.92258 22.3775 1.50295 22.1098 1.14246C21.8421 0.781971 21.4916 0.491228 21.0878 0.2948Z" fill="black"/>
<g opacity="0.1">
<path d="M31.6634 26.3161C32.8167 24.3364 33.4849 22.1119 33.6135 19.8244C33.7421 17.537 33.3274 15.2516 32.4032 13.1552C32.4032 13.5762 32.4393 13.9973 32.4393 14.4183C32.4687 18.3421 31.4709 22.2053 29.5452 25.6241C27.6195 29.043 24.8327 31.8985 21.4619 33.907V36.9145H21.504C21.0376 36.9225 20.5934 37.1149 20.2687 37.4498C19.9439 37.7847 19.7652 38.2346 19.7717 38.701V39.9822H33.3717V38.701C33.3724 38.4699 33.3276 38.2408 33.2397 38.027C33.1518 37.8132 33.0225 37.6189 32.8593 37.4552C32.6962 37.2914 32.5023 37.1615 32.2888 37.0729C32.0753 36.9842 31.8464 36.9386 31.6153 36.9386H31.6634V26.3161Z" fill="black"/>
</g>
<path d="M8.06025 39.9822H0.601597C-0.445019 34.5686 1.6422 29.1551 0.601597 23.7416H8.06025C9.10686 29.1671 7.01363 34.5747 8.06025 39.9822Z" fill="#8FDAFF"/>
<path d="M1.91288 23.7592H0.601597C1.6422 29.1727 -0.445019 34.5862 0.601597 39.9998H1.91288C0.866259 34.5742 2.92942 29.1667 1.91288 23.7592Z" fill="#34B1ED"/>
<path d="M3.9587 23.7592H2.64742C3.69403 29.1727 1.60682 34.5862 2.64742 39.9998H3.9587C2.93012 34.5742 5.00531 29.1667 3.9587 23.7592Z" fill="#34B1ED"/>
<path d="M6.00948 23.7592H4.6982C5.74482 29.1727 3.6576 34.5862 4.6982 39.9998H6.00948C4.96888 34.5742 7.05609 29.1667 6.00948 23.7592Z" fill="#34B1ED"/>
<path d="M8.06068 23.7592H6.7494C7.79601 29.1727 5.70278 34.5862 6.7494 39.9998H8.06068C7.01406 34.5742 9.10729 29.1667 8.06068 23.7592Z" fill="#34B1ED"/>
<path d="M5.8404 15.9456C6.2795 16.6013 5.79829 17.684 4.76972 18.3516C3.74115 19.0193 2.55017 19.0554 2.11709 18.3997C1.68401 17.7441 2.15919 16.6554 3.18777 15.9937C4.21634 15.3321 5.40731 15.284 5.8404 15.9456Z" fill="white"/>
</svg>
