<svg width="32" height="40" viewBox="0 0 32 40" fill="none" xmlns="http://www.w3.org/2000/svg">
<path d="M22.4886 38.7599L0.828125 31.9197L8.66578 7.12425L22.9161 0.854126L31.0387 13.8219L22.4886 38.7599Z" fill="url(#paint0_linear_301_12105)"/>
<path d="M31.4289 12.2715L25.3611 2.111C24.8169 1.19808 23.9556 0.517431 22.9416 0.198886C21.9277 -0.11966 20.8319 -0.0538116 19.8634 0.38387L9.07589 5.24607C8.666 5.4313 8.29979 5.70093 8.00119 6.03734C7.7026 6.37375 7.47834 6.76937 7.34306 7.19835L0.143818 30.1157C-0.106485 30.9211 -0.0278684 31.7928 0.362499 32.5404C0.752867 33.2881 1.42326 33.8508 2.22721 34.1057L20.5331 39.8571C21.3389 40.1065 22.2106 40.0272 22.9581 39.6363C23.7056 39.2455 24.2682 38.5749 24.5232 37.7709L31.7253 14.8508C31.8592 14.424 31.902 13.9739 31.8509 13.5296C31.7998 13.0853 31.6561 12.6567 31.4289 12.2715ZM29.9469 14.2978L22.7448 37.218C22.6387 37.5498 22.4056 37.8261 22.0963 37.9863C21.787 38.1466 21.4268 38.1778 21.0946 38.073L2.78867 32.3216C2.45731 32.2149 2.18151 31.9816 2.02136 31.6726C1.86122 31.3635 1.82969 31.0036 1.93365 30.6714L9.13574 7.75127C9.19199 7.57465 9.28475 7.41182 9.40799 7.27336C9.53123 7.1349 9.6822 7.0239 9.85111 6.94755L20.6357 2.09105C21.1854 1.84216 21.8076 1.80454 22.3833 1.98541C22.959 2.16627 23.4479 2.55292 23.7565 3.07147L29.8243 13.2291C29.9183 13.3888 29.9778 13.5664 29.9989 13.7505C30.02 13.9346 30.0023 14.121 29.9469 14.2978Z" fill="#353535"/>
<path d="M20.0855 9.28753C20.5319 9.42793 21.01 9.43276 21.4591 9.30143C21.9083 9.1701 22.3084 8.9085 22.6088 8.54973C22.9093 8.19096 23.0966 7.75114 23.147 7.28591C23.1974 6.82067 23.1088 6.35093 22.8922 5.93611C22.6756 5.52129 22.3408 5.18003 21.9303 4.95549C21.5197 4.73096 21.0517 4.63325 20.5856 4.67471C20.1195 4.71618 19.6761 4.89496 19.3117 5.18845C18.9472 5.48193 18.6779 5.87693 18.538 6.32347C18.3505 6.92176 18.4081 7.57001 18.6983 8.1258C18.9885 8.68158 19.4874 9.09943 20.0855 9.28753ZM20.3249 6.88493C20.3548 6.79247 20.4115 6.71098 20.4879 6.65081C20.5642 6.59064 20.6566 6.55451 20.7535 6.547C20.8504 6.5395 20.9473 6.56096 21.032 6.60866C21.1167 6.65636 21.1852 6.72814 21.229 6.8149C21.2728 6.90166 21.2898 6.99947 21.2779 7.09591C21.266 7.19235 21.2256 7.28307 21.162 7.35655C21.0984 7.43003 21.0144 7.48295 20.9207 7.50859C20.827 7.53423 20.7277 7.53143 20.6356 7.50055C20.5132 7.45952 20.4119 7.37186 20.3537 7.2566C20.2956 7.14133 20.2852 7.00778 20.3249 6.88493Z" fill="#353535"/>
<path d="M26.3361 18.8579L9.48375 13.5625C9.43678 13.5479 9.3874 13.5427 9.33842 13.5472C9.28943 13.5517 9.24181 13.5658 9.19828 13.5887C9.15474 13.6116 9.11614 13.6428 9.08468 13.6806C9.05322 13.7184 9.02952 13.7621 9.01492 13.8091C9.00033 13.856 8.99512 13.9054 8.99961 13.9544C9.0041 14.0034 9.01819 14.051 9.04108 14.0945C9.06398 14.1381 9.09522 14.1767 9.13303 14.2081C9.17084 14.2396 9.21448 14.2633 9.26145 14.2779L26.111 19.5733C26.2031 19.5943 26.2998 19.5799 26.3818 19.5328C26.4638 19.4858 26.5251 19.4096 26.5534 19.3194C26.5818 19.2293 26.5752 19.1317 26.535 19.0462C26.4947 18.9607 26.4237 18.8935 26.3361 18.8579Z" fill="#353535"/>
<path d="M22.8692 29.882L6.0197 24.5866C5.97155 24.5671 5.91988 24.5577 5.86794 24.5591C5.81599 24.5605 5.76491 24.5727 5.71789 24.5948C5.67088 24.6169 5.62896 24.6486 5.59478 24.6877C5.5606 24.7269 5.53491 24.7727 5.5193 24.8222C5.5037 24.8718 5.49854 24.924 5.50414 24.9757C5.50974 25.0274 5.52598 25.0773 5.55184 25.1224C5.5777 25.1675 5.61262 25.2067 5.65439 25.2376C5.69616 25.2685 5.74388 25.2904 5.79454 25.302L22.6469 30.5974C22.7418 30.6268 22.8445 30.6174 22.9324 30.5712C23.0203 30.525 23.0863 30.4457 23.1158 30.3508C23.1452 30.256 23.1358 30.1533 23.0896 30.0654C23.0434 29.9774 22.9641 29.9115 22.8692 29.882Z" fill="#353535"/>
<path d="M10.8204 23.9139C10.7662 23.9834 10.7296 24.065 10.7138 24.1517C10.6981 24.2384 10.7036 24.3277 10.73 24.4118C10.7563 24.4959 10.8027 24.5723 10.8651 24.6345C10.9275 24.6967 11.0041 24.7429 11.0883 24.769L11.4503 24.883C11.5626 24.9173 11.6829 24.9148 11.7937 24.8758C11.9044 24.8368 11.9998 24.7634 12.0659 24.6664L12.69 23.7344C12.9437 23.3325 13.2059 22.8993 13.4881 22.4462H13.5194C13.4938 22.9791 13.4938 23.4579 13.5023 23.951L13.528 25.1366C13.5296 25.251 13.567 25.362 13.635 25.4541C13.703 25.5461 13.7981 25.6145 13.907 25.6496L14.3374 25.7836C14.4229 25.8102 14.5137 25.8154 14.6017 25.7985C14.6897 25.7816 14.7722 25.7433 14.8419 25.6869C14.9115 25.6305 14.9661 25.5578 15.0009 25.4753C15.0357 25.3927 15.0496 25.3028 15.0413 25.2136L14.8076 21.8505C14.7987 21.7163 14.8393 21.5835 14.9216 21.4771L16.9623 18.8693C17.0172 18.8003 17.0545 18.7189 17.0708 18.6322C17.0871 18.5454 17.082 18.456 17.0558 18.3717C17.0297 18.2875 16.9834 18.2108 16.9209 18.1485C16.8584 18.0862 16.7816 18.0402 16.6972 18.0143L16.3381 17.9003C16.2249 17.8639 16.1029 17.866 15.9911 17.9062C15.8792 17.9464 15.7838 18.0225 15.7197 18.1226L15.1097 19.0945C14.8732 19.485 14.6537 19.8213 14.3801 20.2516L14.3659 20.2345C14.3887 19.7643 14.4001 19.3254 14.4115 18.8864V17.7065C14.4103 17.5913 14.3727 17.4793 14.3041 17.3867C14.2355 17.2941 14.1394 17.2255 14.0296 17.1907L13.5907 17.0539C13.5073 17.0275 13.4187 17.0217 13.3326 17.0371C13.2465 17.0524 13.1654 17.0883 13.0962 17.1418C13.027 17.1953 12.9718 17.2648 12.9354 17.3443C12.8989 17.4237 12.8822 17.5109 12.8867 17.5982L13.0406 20.8302C13.0452 20.959 13.006 21.0856 12.9294 21.1893L10.8204 23.9139Z" fill="#353535"/>
<path d="M19.8941 20.397C20.0481 20.445 20.1963 20.51 20.3359 20.5908C20.3987 20.6293 20.4688 20.6545 20.5417 20.6649C20.6147 20.6753 20.689 20.6705 20.76 20.651C20.8311 20.6315 20.8974 20.5977 20.9548 20.5515C21.0123 20.5054 21.0596 20.4479 21.094 20.3827L21.2223 20.1433C21.2863 20.0237 21.3031 19.8844 21.2693 19.753C21.2355 19.6215 21.1536 19.5076 21.0399 19.4337C20.8104 19.2893 20.5633 19.1753 20.3045 19.0945C18.6971 18.59 17.5457 19.3624 17.1695 20.6022C16.95 21.3004 17.0954 22.241 17.9475 23.2157C18.4691 23.8455 18.7256 24.2303 18.5489 24.7918C18.3921 25.2962 17.919 25.5527 17.2208 25.3333C16.9736 25.252 16.7372 25.141 16.5168 25.0027C16.4529 24.9628 16.3814 24.9367 16.3068 24.9259C16.2323 24.9151 16.1563 24.9199 16.0837 24.94C16.0111 24.9601 15.9435 24.9951 15.8851 25.0426C15.8267 25.0902 15.7788 25.1494 15.7444 25.2164L15.6162 25.4672C15.555 25.5871 15.5404 25.7253 15.5751 25.8553C15.6098 25.9853 15.6915 26.0979 15.8043 26.1712C16.1137 26.3696 16.4482 26.5258 16.799 26.6358C18.3009 27.1089 19.649 26.5075 20.0794 25.0967C20.3359 24.2816 20.2133 23.3867 19.3754 22.4433C18.7085 21.6767 18.5546 21.366 18.7028 20.8929C18.8168 20.4882 19.25 20.1946 19.8941 20.397Z" fill="#353535"/>
<defs>
<linearGradient id="paint0_linear_301_12105" x1="15.9334" y1="0.854126" x2="15.9334" y2="38.7599" gradientUnits="userSpaceOnUse">
<stop stop-color="#B7E5FF"/>
<stop offset="1" stop-color="#87D3FE"/>
</linearGradient>
</defs>
</svg>
