<svg width="32" height="40" viewBox="0 0 32 40" fill="none" xmlns="http://www.w3.org/2000/svg">
<path d="M22.4886 38.7599L0.828125 31.9197L8.66578 7.12425L22.9161 0.854126L31.0387 13.8219L22.4886 38.7599Z" fill="url(#paint0_linear_301_12118)"/>
<path d="M31.4289 12.2715L25.3611 2.111C24.8169 1.19808 23.9556 0.517431 22.9416 0.198886C21.9277 -0.11966 20.8319 -0.0538116 19.8634 0.38387L9.07589 5.24607C8.666 5.4313 8.29979 5.70093 8.00119 6.03734C7.7026 6.37375 7.47834 6.76937 7.34306 7.19835L0.143818 30.1157C-0.106485 30.9211 -0.0278684 31.7928 0.362499 32.5404C0.752867 33.2881 1.42326 33.8508 2.22721 34.1057L20.5331 39.8571C21.3389 40.1065 22.2106 40.0272 22.9581 39.6363C23.7056 39.2455 24.2682 38.5749 24.5232 37.7709L31.7253 14.8508C31.8592 14.424 31.902 13.9739 31.8509 13.5296C31.7998 13.0853 31.6561 12.6567 31.4289 12.2715ZM29.9469 14.2978L22.7448 37.218C22.6387 37.5498 22.4056 37.8261 22.0963 37.9863C21.787 38.1466 21.4268 38.1778 21.0946 38.073L2.78867 32.3216C2.45731 32.2149 2.18151 31.9816 2.02136 31.6726C1.86122 31.3635 1.82969 31.0036 1.93365 30.6714L9.13574 7.75127C9.19199 7.57465 9.28475 7.41182 9.40799 7.27336C9.53123 7.1349 9.6822 7.0239 9.85111 6.94755L20.6357 2.09105C21.1854 1.84216 21.8076 1.80454 22.3833 1.98541C22.959 2.16627 23.4479 2.55292 23.7565 3.07147L29.8243 13.2291C29.9183 13.3888 29.9778 13.5664 29.9989 13.7505C30.02 13.9346 30.0023 14.121 29.9469 14.2978Z" fill="#1B1B1B"/>
<path d="M20.0855 9.28753C20.5319 9.42793 21.01 9.43276 21.4591 9.30143C21.9083 9.1701 22.3084 8.9085 22.6088 8.54973C22.9093 8.19096 23.0966 7.75114 23.147 7.28591C23.1974 6.82067 23.1088 6.35093 22.8922 5.93611C22.6756 5.52129 22.3408 5.18003 21.9303 4.95549C21.5197 4.73096 21.0517 4.63325 20.5856 4.67471C20.1195 4.71618 19.6761 4.89496 19.3117 5.18845C18.9472 5.48193 18.6779 5.87693 18.538 6.32347C18.3505 6.92176 18.4081 7.57001 18.6983 8.1258C18.9885 8.68158 19.4874 9.09943 20.0855 9.28753ZM20.3249 6.88493C20.3548 6.79247 20.4115 6.71098 20.4879 6.65081C20.5642 6.59064 20.6566 6.55451 20.7535 6.547C20.8504 6.5395 20.9473 6.56096 21.032 6.60866C21.1167 6.65636 21.1852 6.72814 21.229 6.8149C21.2728 6.90166 21.2898 6.99947 21.2779 7.09591C21.266 7.19235 21.2256 7.28307 21.162 7.35655C21.0984 7.43003 21.0144 7.48295 20.9207 7.50859C20.827 7.53423 20.7277 7.53143 20.6356 7.50055C20.5132 7.45952 20.4119 7.37186 20.3537 7.2566C20.2956 7.14133 20.2852 7.00778 20.3249 6.88493Z" fill="#1B1B1B"/>
<path d="M26.3361 18.8579L9.48375 13.5625C9.43678 13.5479 9.3874 13.5427 9.33842 13.5472C9.28943 13.5517 9.24181 13.5658 9.19828 13.5887C9.15474 13.6116 9.11614 13.6428 9.08468 13.6806C9.05322 13.7184 9.02952 13.7621 9.01492 13.8091C9.00033 13.856 8.99512 13.9054 8.99961 13.9544C9.0041 14.0034 9.01819 14.051 9.04108 14.0945C9.06398 14.1381 9.09522 14.1767 9.13303 14.2081C9.17084 14.2396 9.21448 14.2633 9.26145 14.2779L26.111 19.5733C26.2031 19.5943 26.2998 19.5799 26.3818 19.5328C26.4638 19.4858 26.5251 19.4096 26.5534 19.3194C26.5818 19.2293 26.5752 19.1317 26.535 19.0462C26.4947 18.9607 26.4237 18.8935 26.3361 18.8579Z" fill="#1B1B1B"/>
<path d="M22.8692 29.882L6.0197 24.5866C5.97155 24.5671 5.91988 24.5577 5.86794 24.5591C5.81599 24.5605 5.76491 24.5727 5.71789 24.5948C5.67088 24.6169 5.62896 24.6486 5.59478 24.6877C5.5606 24.7269 5.53491 24.7727 5.5193 24.8222C5.5037 24.8718 5.49854 24.924 5.50414 24.9757C5.50974 25.0274 5.52598 25.0773 5.55184 25.1224C5.5777 25.1675 5.61262 25.2067 5.65439 25.2376C5.69616 25.2685 5.74388 25.2904 5.79454 25.302L22.6469 30.5974C22.7418 30.6268 22.8445 30.6174 22.9324 30.5712C23.0203 30.525 23.0863 30.4457 23.1158 30.3508C23.1452 30.256 23.1358 30.1533 23.0896 30.0654C23.0434 29.9774 22.9641 29.9115 22.8692 29.882Z" fill="#1B1B1B"/>
<path d="M17.6055 18.9618C17.6338 18.8769 17.6449 18.7872 17.6381 18.6979C17.6312 18.6087 17.6067 18.5217 17.5658 18.4421C17.5249 18.3624 17.4685 18.2918 17.4 18.2342C17.3315 18.1766 17.2521 18.1333 17.1666 18.1068L16.9358 18.0327C16.8506 18.0053 16.7609 17.9949 16.6718 18.0023C16.5826 18.0097 16.4958 18.0346 16.4164 18.0757C16.3369 18.1167 16.2663 18.1731 16.2087 18.2415C16.1512 18.31 16.1077 18.3891 16.0808 18.4744L14.0345 24.9924C14.0062 25.0773 13.9951 25.167 14.002 25.2563C14.0088 25.3455 14.0334 25.4325 14.0742 25.5122C14.1151 25.5918 14.1715 25.6625 14.24 25.72C14.3085 25.7776 14.3879 25.8209 14.4734 25.8474L16.6964 26.5457C16.7808 26.5722 16.8696 26.5819 16.9577 26.5742C17.0459 26.5664 17.1316 26.5414 17.2101 26.5005C17.2886 26.4596 17.3582 26.4037 17.4151 26.3359C17.4719 26.2681 17.5148 26.1897 17.5414 26.1053C17.568 26.0209 17.5777 25.9321 17.5699 25.844C17.5622 25.7558 17.5371 25.6701 17.4963 25.5916C17.4554 25.5132 17.3994 25.4435 17.3316 25.3867C17.2638 25.3298 17.1855 25.2869 17.1011 25.2603L16.3943 25.0409C16.309 25.014 16.2299 24.9705 16.1616 24.9129C16.0932 24.8552 16.037 24.7846 15.9962 24.705C15.9554 24.6255 15.9308 24.5387 15.9237 24.4495C15.9167 24.3604 15.9275 24.2708 15.9554 24.1859L17.6055 18.9618Z" fill="#1B1B1B"/>
<defs>
<linearGradient id="paint0_linear_301_12118" x1="15.9334" y1="0.854126" x2="15.9334" y2="38.7599" gradientUnits="userSpaceOnUse">
<stop stop-color="#B7E5FF"/>
<stop offset="1" stop-color="#87D3FE"/>
</linearGradient>
</defs>
</svg>
