<svg width="32" height="40" viewBox="0 0 32 40" fill="none" xmlns="http://www.w3.org/2000/svg">
<path d="M22.4886 38.7599L0.828125 31.9197L8.66578 7.12425L22.9161 0.854126L31.0387 13.8219L22.4886 38.7599Z" fill="url(#paint0_linear_301_12130)"/>
<path d="M31.4289 12.2715L25.3611 2.111C24.8169 1.19808 23.9556 0.517431 22.9416 0.198886C21.9277 -0.11966 20.8319 -0.0538116 19.8634 0.38387L9.07589 5.24607C8.666 5.4313 8.29979 5.70093 8.00119 6.03734C7.7026 6.37375 7.47834 6.76937 7.34306 7.19835L0.143818 30.1157C-0.106485 30.9211 -0.0278684 31.7928 0.362499 32.5404C0.752867 33.2881 1.42326 33.8508 2.22721 34.1057L20.5331 39.8571C21.3389 40.1065 22.2106 40.0272 22.9581 39.6363C23.7056 39.2455 24.2682 38.5749 24.5232 37.7709L31.7253 14.8508C31.8592 14.424 31.902 13.9739 31.8509 13.5296C31.7998 13.0853 31.6561 12.6567 31.4289 12.2715ZM29.9469 14.2978L22.7448 37.218C22.6387 37.5498 22.4056 37.8261 22.0963 37.9863C21.787 38.1466 21.4268 38.1778 21.0946 38.073L2.78867 32.3216C2.45731 32.2149 2.18151 31.9816 2.02136 31.6726C1.86122 31.3635 1.82969 31.0036 1.93365 30.6714L9.13574 7.75127C9.19199 7.57465 9.28475 7.41182 9.40799 7.27336C9.53123 7.1349 9.6822 7.0239 9.85111 6.94755L20.6357 2.09105C21.1854 1.84216 21.8076 1.80454 22.3833 1.98541C22.959 2.16627 23.4479 2.55292 23.7565 3.07147L29.8243 13.2291C29.9183 13.3888 29.9778 13.5664 29.9989 13.7505C30.02 13.9346 30.0023 14.121 29.9469 14.2978Z" fill="#1B1B1B"/>
<path d="M20.0855 9.28753C20.5319 9.42793 21.01 9.43276 21.4591 9.30143C21.9083 9.1701 22.3084 8.9085 22.6088 8.54973C22.9093 8.19096 23.0966 7.75114 23.147 7.28591C23.1974 6.82067 23.1088 6.35093 22.8922 5.93611C22.6756 5.52129 22.3408 5.18003 21.9303 4.95549C21.5197 4.73096 21.0517 4.63325 20.5856 4.67471C20.1195 4.71618 19.6761 4.89496 19.3117 5.18845C18.9472 5.48193 18.6779 5.87693 18.538 6.32347C18.3505 6.92176 18.4081 7.57001 18.6983 8.1258C18.9885 8.68158 19.4874 9.09943 20.0855 9.28753ZM20.3249 6.88493C20.3548 6.79247 20.4115 6.71098 20.4879 6.65081C20.5642 6.59064 20.6566 6.55451 20.7535 6.547C20.8504 6.5395 20.9473 6.56096 21.032 6.60866C21.1167 6.65636 21.1852 6.72814 21.229 6.8149C21.2728 6.90166 21.2898 6.99947 21.2779 7.09591C21.266 7.19235 21.2256 7.28307 21.162 7.35655C21.0984 7.43003 21.0144 7.48295 20.9207 7.50859C20.827 7.53423 20.7277 7.53143 20.6356 7.50055C20.5132 7.45952 20.4119 7.37186 20.3537 7.2566C20.2956 7.14133 20.2852 7.00778 20.3249 6.88493Z" fill="#1B1B1B"/>
<path d="M26.3361 18.8579L9.48375 13.5625C9.43678 13.5479 9.3874 13.5427 9.33842 13.5472C9.28943 13.5517 9.24181 13.5658 9.19828 13.5887C9.15474 13.6116 9.11614 13.6428 9.08468 13.6806C9.05322 13.7184 9.02952 13.7621 9.01492 13.8091C9.00033 13.856 8.99512 13.9054 8.99961 13.9544C9.0041 14.0034 9.01819 14.051 9.04108 14.0945C9.06398 14.1381 9.09522 14.1767 9.13303 14.2081C9.17084 14.2396 9.21448 14.2633 9.26145 14.2779L26.111 19.5733C26.2031 19.5943 26.2998 19.5799 26.3818 19.5328C26.4638 19.4858 26.5251 19.4096 26.5534 19.3194C26.5818 19.2293 26.5752 19.1317 26.535 19.0462C26.4947 18.9607 26.4237 18.8935 26.3361 18.8579Z" fill="#1B1B1B"/>
<path d="M22.8692 29.882L6.0197 24.5866C5.97155 24.5671 5.91988 24.5577 5.86794 24.5591C5.81599 24.5605 5.76491 24.5727 5.71789 24.5948C5.67088 24.6169 5.62896 24.6486 5.59478 24.6877C5.5606 24.7269 5.53491 24.7727 5.5193 24.8222C5.5037 24.8718 5.49854 24.924 5.50414 24.9757C5.50974 25.0274 5.52598 25.0773 5.55184 25.1224C5.5777 25.1675 5.61262 25.2067 5.65439 25.2376C5.69616 25.2685 5.74388 25.2904 5.79454 25.302L22.6469 30.5974C22.7418 30.6268 22.8445 30.6174 22.9324 30.5712C23.0203 30.525 23.0863 30.4457 23.1158 30.3508C23.1452 30.256 23.1358 30.1533 23.0896 30.0654C23.0434 29.9774 22.9641 29.9115 22.8692 29.882Z" fill="#1B1B1B"/>
<path d="M8.37029 23.4387L8.45864 23.4672C8.57298 23.5007 8.69495 23.4976 8.80741 23.4583C8.91988 23.4189 9.01718 23.3453 9.08564 23.2477L9.56159 22.5352C9.77249 22.2018 9.98909 21.8427 10.2228 21.4636H10.2513C10.2285 21.9082 10.2285 22.3186 10.2513 22.7176L10.2712 23.6268C10.2727 23.7431 10.311 23.856 10.3806 23.9492C10.4503 24.0424 10.5477 24.1111 10.6588 24.1455L10.8013 24.1882C10.8877 24.2156 10.9794 24.2213 11.0684 24.2049C11.1575 24.1885 11.2411 24.1505 11.312 24.0942C11.3829 24.038 11.439 23.9651 11.4751 23.8821C11.5113 23.7991 11.5266 23.7085 11.5195 23.6182L11.3371 21.0105C11.3295 20.8742 11.3709 20.7397 11.454 20.6314L13.0357 18.6136C13.0878 18.5419 13.1225 18.459 13.1369 18.3715C13.1513 18.284 13.1451 18.1944 13.1189 18.1097C13.0926 18.0251 13.0469 17.9477 12.9855 17.8838C12.924 17.8199 12.8485 17.7712 12.765 17.7415L12.6824 17.7159C12.5663 17.6819 12.4425 17.6856 12.3288 17.7266C12.2151 17.7676 12.1173 17.8437 12.0496 17.9439L11.5879 18.6592C11.3913 18.987 11.2089 19.2634 10.9809 19.6225H10.9609C10.9809 19.2292 10.9894 18.8644 10.998 18.5025V17.5962C10.9952 17.4788 10.9561 17.3651 10.8862 17.2708C10.8163 17.1764 10.719 17.1059 10.6075 17.0689L10.4565 17.0205C10.3702 16.9967 10.2795 16.9936 10.1918 17.0114C10.1041 17.0291 10.0218 17.0673 9.95159 17.1228C9.88138 17.1783 9.82522 17.2496 9.78767 17.3309C9.75012 17.4121 9.73223 17.501 9.73544 17.5905L9.85514 20.0928C9.86274 20.2242 9.82222 20.3539 9.74114 20.4576L8.11379 22.5808C8.0607 22.6502 8.02481 22.7312 8.00906 22.8171C7.99331 22.9031 7.99815 22.9915 8.02317 23.0752C8.0482 23.1589 8.0927 23.2355 8.15304 23.2987C8.21338 23.3619 8.28783 23.4098 8.37029 23.4387Z" fill="#1B1B1B"/>
<path d="M12.0182 23.8034C11.9698 23.8757 11.9386 23.9581 11.927 24.0443C11.9154 24.1305 11.9236 24.2183 11.9511 24.3008C11.9786 24.3833 12.0247 24.4584 12.0857 24.5204C12.1467 24.5824 12.2211 24.6296 12.3032 24.6584L12.3916 24.6869C12.5058 24.7232 12.6286 24.7214 12.7417 24.6819C12.8548 24.6423 12.952 24.567 13.0186 24.4675L13.4945 23.755C13.7054 23.4244 13.922 23.0624 14.1557 22.6862H14.1842C14.1614 23.128 14.1614 23.527 14.1842 23.9374L14.2042 24.8494C14.2062 24.9652 14.2448 25.0775 14.3144 25.1701C14.384 25.2627 14.4811 25.331 14.5918 25.3652L14.7343 25.4108C14.8204 25.4341 14.9107 25.4368 14.9981 25.4187C15.0854 25.4007 15.1673 25.3624 15.2372 25.307C15.307 25.2515 15.3629 25.1805 15.4003 25.0995C15.4377 25.0186 15.4556 24.93 15.4525 24.8408L15.2701 22.2331C15.2617 22.0958 15.3032 21.9602 15.3869 21.8512L16.9687 19.8334C17.0208 19.7616 17.0554 19.6787 17.0698 19.5912C17.0843 19.5038 17.0781 19.4141 17.0518 19.3295C17.0255 19.2448 16.9798 19.1674 16.9184 19.1035C16.857 19.0396 16.7815 18.9909 16.6979 18.9613L16.6153 18.9356C16.4993 18.9016 16.3755 18.9054 16.2617 18.9464C16.148 18.9873 16.0502 19.0634 15.9826 19.1636L15.5209 19.8818C15.3242 20.2067 15.1418 20.486 14.9138 20.8423H14.8939C14.9138 20.4518 14.9224 20.087 14.9309 19.7222V18.8159C14.9281 18.6985 14.8891 18.5849 14.8192 18.4905C14.7493 18.3961 14.652 18.3256 14.5405 18.2887L14.3894 18.2402C14.3032 18.2164 14.2125 18.2133 14.1248 18.2311C14.037 18.2489 13.9548 18.2871 13.8845 18.3426C13.8143 18.3981 13.7582 18.4693 13.7206 18.5506C13.6831 18.6318 13.6652 18.7208 13.6684 18.8102L13.7909 21.3154C13.797 21.447 13.7555 21.5765 13.6741 21.6802L12.0182 23.8034Z" fill="#1B1B1B"/>
<path d="M15.9401 25.0377C15.8917 25.11 15.8605 25.1924 15.8489 25.2786C15.8372 25.3648 15.8455 25.4525 15.873 25.5351C15.9005 25.6176 15.9465 25.6927 16.0076 25.7547C16.0686 25.8167 16.143 25.8639 16.2251 25.8927L16.3135 25.9212C16.4281 25.9545 16.5503 25.9509 16.6628 25.911C16.7752 25.8711 16.8724 25.7969 16.9405 25.6989L17.4164 24.9892C17.6273 24.6558 17.8439 24.2938 18.0776 23.9176H18.1061C18.0833 24.3622 18.0833 24.7726 18.0919 25.1716L18.1118 26.0808C18.1133 26.1971 18.1516 26.31 18.2212 26.4032C18.2909 26.4964 18.3883 26.5651 18.4994 26.5995L18.6419 26.6422C18.7282 26.6696 18.8199 26.6753 18.909 26.6589C18.998 26.6425 19.0817 26.6045 19.1526 26.5482C19.2235 26.492 19.2795 26.4191 19.3157 26.3361C19.3519 26.2531 19.3671 26.1625 19.3601 26.0722L19.1777 23.4645C19.1693 23.3273 19.2108 23.1916 19.2946 23.0826L20.8763 21.0648C20.9286 20.9945 20.9634 20.9128 20.9779 20.8264C20.9924 20.7401 20.9861 20.6515 20.9597 20.568C20.9333 20.4845 20.8874 20.4085 20.8258 20.3462C20.7642 20.2839 20.6888 20.2372 20.6056 20.2098L20.5229 20.1841C20.4072 20.1498 20.2836 20.1532 20.1699 20.1936C20.0562 20.2341 19.9583 20.3096 19.8902 20.4093L19.4285 21.1275C19.2319 21.4524 19.0495 21.7317 18.8215 22.0908H18.8015C18.8215 21.7003 18.83 21.3355 18.8386 20.9707V20.0644C18.8354 19.9479 18.7965 19.8351 18.7272 19.7413C18.6579 19.6476 18.5615 19.5773 18.451 19.54L18.2971 19.4916C18.212 19.4682 18.1226 19.4649 18.036 19.4819C17.9494 19.4989 17.8679 19.5358 17.798 19.5897C17.7281 19.6436 17.6717 19.713 17.6331 19.7924C17.5946 19.8718 17.5751 19.9591 17.576 20.0473L17.6986 22.5496C17.7037 22.6807 17.6634 22.8096 17.5846 22.9144L15.9401 25.0377Z" fill="#1B1B1B"/>
<path d="M23.0239 21.5638C23.0463 21.4944 23.0548 21.4212 23.0487 21.3485C23.0427 21.2758 23.0222 21.205 22.9885 21.1403C22.9548 21.0756 22.9086 21.0182 22.8525 20.9715C22.7965 20.9248 22.7317 20.8898 22.6619 20.8684L22.471 20.8085C22.4015 20.786 22.3284 20.7776 22.2557 20.7836C22.1829 20.7897 22.1122 20.8102 22.0475 20.8439C21.9827 20.8776 21.9254 20.9238 21.8787 20.9799C21.832 21.0359 21.797 21.1007 21.7756 21.1705L20.0884 26.5399C20.0483 26.6801 20.0635 26.8303 20.1308 26.9597C20.1981 27.089 20.3125 27.1877 20.4503 27.2353L22.2829 27.8053C22.4231 27.8454 22.5733 27.8302 22.7027 27.7628C22.832 27.6955 22.9306 27.5812 22.9783 27.4433C23.0183 27.3031 23.0031 27.1529 22.9358 27.0235C22.8685 26.8942 22.7541 26.7955 22.6163 26.7479L22.0463 26.5655C21.9078 26.5179 21.793 26.4188 21.7256 26.2888C21.6582 26.1588 21.6435 26.0079 21.6844 25.8673L23.0239 21.5638Z" fill="#1B1B1B"/>
<defs>
<linearGradient id="paint0_linear_301_12130" x1="15.9334" y1="0.854126" x2="15.9334" y2="38.7599" gradientUnits="userSpaceOnUse">
<stop stop-color="#B7E5FF"/>
<stop offset="1" stop-color="#87D3FE"/>
</linearGradient>
</defs>
</svg>
