<svg width="33" height="43" viewBox="0 0 33 43" fill="none" xmlns="http://www.w3.org/2000/svg">
<path d="M6.1804 12.0404C6.94665 12.0404 7.56782 11.4193 7.56782 10.653C7.56782 9.88675 6.94665 9.26558 6.1804 9.26558C5.41414 9.26558 4.79297 9.88675 4.79297 10.653C4.79297 11.4193 5.41414 12.0404 6.1804 12.0404Z" fill="#8FDAFF"/>
<path d="M5.66479 10.6095C5.66479 10.8641 5.51841 11.0678 5.34021 11.0678C5.16201 11.0678 5.01562 10.8641 5.01562 10.6095C5.01562 10.355 5.16201 10.1513 5.34021 10.1513C5.51841 10.1513 5.66479 10.355 5.66479 10.6095Z" fill="white"/>
<path d="M6.47183 19.4037C6.91471 19.4037 7.27374 19.0446 7.27374 18.6018C7.27374 18.1589 6.91471 17.7999 6.47183 17.7999C6.02895 17.7999 5.66992 18.1589 5.66992 18.6018C5.66992 19.0446 6.02895 19.4037 6.47183 19.4037Z" fill="#8FDAFF"/>
<path d="M6.18018 18.5803C6.18018 18.7267 6.09108 18.8413 5.98925 18.8413C5.88742 18.8413 5.80469 18.7267 5.80469 18.5803C5.80469 18.434 5.88742 18.3194 5.98925 18.3194C6.09108 18.3194 6.18018 18.434 6.18018 18.5803Z" fill="white"/>
<path d="M28.385 13.5176C28.3863 13.6765 28.3403 13.8321 28.253 13.9648C28.1657 14.0975 28.0409 14.2013 27.8944 14.263C27.748 14.3247 27.5866 14.3414 27.4306 14.3112C27.2747 14.281 27.1312 14.2051 27.0184 14.0932C26.9056 13.9814 26.8286 13.8385 26.7971 13.6828C26.7657 13.527 26.7812 13.3655 26.8417 13.2186C26.9022 13.0717 27.005 12.9461 27.137 12.8577C27.269 12.7693 27.4243 12.7221 27.5831 12.7221C27.7947 12.722 27.9977 12.8057 28.1479 12.9547C28.2981 13.1037 28.3834 13.306 28.385 13.5176Z" fill="#8FDAFF"/>
<path d="M27.2642 13.4898C27.2642 13.6362 27.1814 13.7508 27.0796 13.7508C26.9778 13.7508 26.8887 13.6362 26.8887 13.4898C26.8887 13.3435 26.9714 13.2289 27.0796 13.2289C27.1878 13.2289 27.2642 13.3435 27.2642 13.4898Z" fill="white"/>
<path d="M0 0L0.496419 6.73347L3.09944 42.3547H29.3333L31.9363 6.73347L32.4327 0H0Z" fill="#C2E1F1"/>
<path d="M1.86328 7.85276L4.2881 41.0746C12.0399 37.7461 20.0017 37.8925 28.1417 41.0746L30.5728 7.85276H1.86328Z" fill="#34B1ED"/>
<path d="M16.9148 20.4921C17.681 20.4921 18.3022 19.8709 18.3022 19.1047C18.3022 18.3384 17.681 17.7172 16.9148 17.7172C16.1485 17.7172 15.5273 18.3384 15.5273 19.1047C15.5273 19.8709 16.1485 20.4921 16.9148 20.4921Z" fill="#8FDAFF"/>
<path d="M16.407 19.0571C16.407 19.3053 16.2606 19.5153 16.0824 19.5153C15.9042 19.5153 15.7578 19.3053 15.7578 19.0571C15.7578 18.8089 15.9042 18.5988 16.0824 18.5988C16.2606 18.5988 16.407 18.8025 16.407 19.0571Z" fill="white"/>
<path d="M22.3445 24.7486C23.1107 24.7486 23.7319 24.1274 23.7319 23.3612C23.7319 22.5949 23.1107 21.9737 22.3445 21.9737C21.5782 21.9737 20.957 22.5949 20.957 23.3612C20.957 24.1274 21.5782 24.7486 22.3445 24.7486Z" fill="#8FDAFF"/>
<path d="M21.8347 23.3125C21.8347 23.5671 21.6883 23.7708 21.5101 23.7708C21.3319 23.7708 21.1855 23.5671 21.1855 23.3125C21.1855 23.058 21.3319 22.8543 21.5101 22.8543C21.6883 22.8543 21.8347 23.058 21.8347 23.3125Z" fill="white"/>
<path d="M14.0417 12.8807C14.808 12.8807 15.4292 12.2595 15.4292 11.4932C15.4292 10.727 14.808 10.1058 14.0417 10.1058C13.2755 10.1058 12.6543 10.727 12.6543 11.4932C12.6543 12.2595 13.2755 12.8807 14.0417 12.8807Z" fill="#8FDAFF"/>
<path d="M13.532 11.4509C13.532 11.6991 13.3856 11.9028 13.2074 11.9028C13.0292 11.9028 12.8828 11.6991 12.8828 11.4509C12.8828 11.2027 13.0292 10.9927 13.2074 10.9927C13.3856 10.9927 13.532 11.1964 13.532 11.4509Z" fill="white"/>
<path d="M16.9293 26.4221C16.9293 26.6285 16.8681 26.8303 16.7534 27.002C16.6387 27.1736 16.4757 27.3074 16.285 27.3864C16.0943 27.4654 15.8844 27.4861 15.6819 27.4458C15.4795 27.4055 15.2935 27.3061 15.1475 27.1602C15.0015 27.0142 14.9021 26.8282 14.8619 26.6257C14.8216 26.4233 14.8422 26.2134 14.9212 26.0227C15.0002 25.832 15.134 25.6689 15.3057 25.5543C15.4773 25.4396 15.6791 25.3783 15.8856 25.3783C16.1624 25.3783 16.4279 25.4883 16.6236 25.6841C16.8193 25.8798 16.9293 26.1453 16.9293 26.4221Z" fill="#8FDAFF"/>
<path d="M15.4841 26.3867C15.4841 26.5776 15.3759 26.7304 15.2423 26.7304C15.1086 26.7304 15.0195 26.5967 15.0195 26.3867C15.0195 26.1767 15.1277 26.043 15.2614 26.043C15.395 26.043 15.4841 26.1958 15.4841 26.3867Z" fill="white"/>
<path d="M24.3131 29.062C24.3143 29.2713 24.2529 29.4762 24.1368 29.6504C24.0207 29.8245 23.8552 29.96 23.6616 30.0394C23.468 30.1189 23.255 30.1387 23.0501 30.0962C22.8451 30.0538 22.6575 29.951 22.5114 29.8012C22.3652 29.6514 22.2671 29.4614 22.2298 29.2554C22.1924 29.0495 22.2174 28.8371 22.3016 28.6455C22.3858 28.4538 22.5253 28.2918 22.7023 28.18C22.8793 28.0683 23.0856 28.0119 23.2948 28.0183C23.5667 28.0265 23.8247 28.1399 24.0147 28.3346C24.2046 28.5293 24.3116 28.79 24.3131 29.062Z" fill="#8FDAFF"/>
<path d="M22.6325 29.3741C22.766 29.3741 22.8743 29.2202 22.8743 29.0304C22.8743 28.8406 22.766 28.6868 22.6325 28.6868C22.4989 28.6868 22.3906 28.8406 22.3906 29.0304C22.3906 29.2202 22.4989 29.3741 22.6325 29.3741Z" fill="white"/>
<path d="M10.6812 28.6849C10.68 28.8911 10.6177 29.0922 10.5022 29.263C10.3868 29.4338 10.2233 29.5666 10.0325 29.6447C9.84169 29.7227 9.63203 29.7424 9.42998 29.7014C9.22794 29.6605 9.04255 29.5605 8.89722 29.4143C8.75188 29.2681 8.65311 29.0821 8.61335 28.8798C8.57359 28.6775 8.59462 28.468 8.67381 28.2776C8.75299 28.0873 8.88677 27.9247 9.05827 27.8102C9.22978 27.6958 9.43132 27.6348 9.63748 27.6348C9.77509 27.6348 9.91133 27.662 10.0384 27.7148C10.1654 27.7677 10.2808 27.8451 10.3778 27.9427C10.4748 28.0403 10.5515 28.1561 10.6036 28.2835C10.6557 28.4109 10.6821 28.5473 10.6812 28.6849Z" fill="#8FDAFF"/>
<path d="M9.24932 28.6462C9.24932 28.8372 9.14112 28.9899 9.00747 28.9899C8.87382 28.9899 8.76562 28.8372 8.76562 28.6462C8.76562 28.4553 8.87382 28.3026 9.00747 28.3026C9.14112 28.3026 9.24932 28.4553 9.24932 28.6462Z" fill="white"/>
<path d="M19.2723 14.3005C19.8487 14.3005 20.316 13.8332 20.316 13.2567C20.316 12.6803 19.8487 12.213 19.2723 12.213C18.6958 12.213 18.2285 12.6803 18.2285 13.2567C18.2285 13.8332 18.6958 14.3005 19.2723 14.3005Z" fill="#8FDAFF"/>
<path d="M18.8826 13.2318C18.8826 13.4227 18.7744 13.5755 18.6408 13.5755C18.5071 13.5755 18.3926 13.4227 18.3926 13.2318C18.3926 13.0409 18.5071 12.8881 18.6408 12.8881C18.7744 12.8881 18.8826 13.0345 18.8826 13.2318Z" fill="white"/>
<path d="M24.6158 10.2395C24.6171 10.4477 24.5564 10.6516 24.4415 10.8252C24.3266 10.9989 24.1627 11.1345 23.9705 11.2148C23.7784 11.295 23.5667 11.3164 23.3624 11.2761C23.1581 11.2357 22.9704 11.1356 22.8232 10.9883C22.676 10.8411 22.5758 10.6534 22.5355 10.4491C22.4952 10.2448 22.5165 10.0331 22.5968 9.84101C22.677 9.64886 22.8126 9.48492 22.9863 9.37002C23.16 9.25512 23.3639 9.19445 23.5721 9.19571C23.8484 9.19738 24.1129 9.30788 24.3083 9.50326C24.5037 9.69864 24.6142 9.96315 24.6158 10.2395Z" fill="#8FDAFF"/>
<path d="M23.1854 10.2124C23.1854 10.397 23.0772 10.5561 22.9435 10.5561C22.8099 10.5561 22.6953 10.397 22.6953 10.2124C22.6953 10.0279 22.8035 9.86877 22.9435 9.86877C23.0835 9.86877 23.1854 10.0533 23.1854 10.2124Z" fill="white"/>
<path d="M11.8375 15.9936C11.8362 16.1997 11.7739 16.4009 11.6585 16.5717C11.543 16.7425 11.3796 16.8753 11.1888 16.9533C10.9979 17.0314 10.7883 17.0511 10.5862 17.0101C10.3842 16.9691 10.1988 16.8692 10.0535 16.723C9.90813 16.5768 9.80936 16.3908 9.7696 16.1885C9.72984 15.9862 9.75087 15.7767 9.83006 15.5863C9.90924 15.396 10.043 15.2334 10.2145 15.1189C10.386 15.0045 10.5876 14.9435 10.7937 14.9435C10.9313 14.9435 11.0676 14.9707 11.1946 15.0235C11.3217 15.0764 11.437 15.1538 11.534 15.2514C11.631 15.349 11.7078 15.4648 11.7599 15.5922C11.8119 15.7196 11.8383 15.856 11.8375 15.9936Z" fill="#8FDAFF"/>
<path d="M10.4251 15.9559C10.4251 16.1469 10.3169 16.2996 10.1833 16.2996C10.0496 16.2996 9.94141 16.1469 9.94141 15.9559C9.94141 15.765 10.0496 15.6123 10.1833 15.6123C10.3169 15.6123 10.4251 15.7777 10.4251 15.9559Z" fill="white"/>
<path d="M11.2327 21.8286C11.2327 21.9872 11.1857 22.1423 11.0976 22.2741C11.0095 22.406 10.8842 22.5088 10.7377 22.5695C10.5912 22.6302 10.4299 22.6461 10.2744 22.6151C10.1188 22.5842 9.97593 22.5078 9.86378 22.3956C9.75163 22.2835 9.67526 22.1406 9.64432 21.9851C9.61337 21.8295 9.62925 21.6683 9.68995 21.5218C9.75064 21.3752 9.85342 21.25 9.9853 21.1619C10.1172 21.0737 10.2722 21.0267 10.4308 21.0267C10.5364 21.0259 10.641 21.046 10.7387 21.086C10.8364 21.126 10.9251 21.1851 10.9997 21.2597C11.0744 21.3343 11.1334 21.4231 11.1734 21.5207C11.2134 21.6184 11.2336 21.7231 11.2327 21.8286Z" fill="#8FDAFF"/>
<path d="M10.1387 21.8062C10.1387 21.9462 10.0559 22.0671 9.9541 22.0671C9.85227 22.0671 9.76953 21.9462 9.76953 21.8062C9.76953 21.6662 9.85227 21.5389 9.9541 21.5389C10.0559 21.5389 10.1387 21.6598 10.1387 21.8062Z" fill="white"/>
<path d="M26.2151 18.7478C26.2164 18.9066 26.1704 19.0623 26.0831 19.195C25.9957 19.3277 25.8709 19.4315 25.7245 19.4932C25.5781 19.5548 25.4167 19.5716 25.2607 19.5414C25.1047 19.5112 24.9613 19.4353 24.8485 19.3234C24.7357 19.2115 24.6587 19.0687 24.6272 18.9129C24.5957 18.7572 24.6113 18.5956 24.6718 18.4487C24.7323 18.3018 24.835 18.1762 24.967 18.0878C25.099 17.9994 25.2543 17.9522 25.4132 17.9522C25.5182 17.9514 25.6223 17.9713 25.7196 18.011C25.8169 18.0506 25.9053 18.109 25.9799 18.183C26.0544 18.2569 26.1136 18.3449 26.154 18.4419C26.1943 18.5388 26.2151 18.6428 26.2151 18.7478Z" fill="#8FDAFF"/>
<path d="M25.1211 18.7243C25.1211 18.8707 25.0383 18.9852 24.9365 18.9852C24.8347 18.9852 24.752 18.8707 24.752 18.7243C24.752 18.5779 24.8347 18.4633 24.9365 18.4633C25.0383 18.4633 25.1211 18.5779 25.1211 18.7243Z" fill="white"/>
<path d="M7.14318 1.69329H2.63086L5.43117 38.9438C6.32124 38.549 7.24043 38.2235 8.18057 37.9701L7.14318 1.69329Z" fill="white"/>
<g opacity="0.05">
<path d="M2.92969 39.9616L3.10789 42.3674H29.3354L30.7228 23.4143C27.1142 33.33 12.6544 40.0316 2.92969 39.9616Z" fill="#1D1D1B"/>
<g style="mix-blend-mode:multiply" opacity="0.7">
<path d="M2.92969 39.9616L3.10789 42.3674H29.3354L30.7228 23.4143C27.1142 33.33 12.6544 40.0316 2.92969 39.9616Z" fill="#45ECFF"/>
</g>
</g>
</svg>
