<svg width="23" height="28" viewBox="0 0 23 28" fill="none" xmlns="http://www.w3.org/2000/svg">
<path fill-rule="evenodd" clip-rule="evenodd" d="M20.6034 17.1111C21.8336 15.3474 22.5551 13.2024 22.5551 10.8889C22.5551 4.87512 17.68 0 11.6662 0C5.65247 0 0.777344 4.87512 0.777344 10.8889C0.777344 13.2024 1.49883 15.3474 2.72908 17.1111H2.72146L2.77426 17.1754C3.07569 17.601 3.40691 18.004 3.76487 18.3813L11.6659 28L19.5628 18.3864C19.9242 18.0059 20.2584 17.5993 20.5623 17.1696L20.6104 17.1111H20.6034Z" fill="url(#paint0_linear_301_15541)"/>
<circle cx="11.7773" cy="11" r="8" fill="url(#paint1_linear_301_15541)"/>
<path d="M10.4234 12.8489L8.6481 11.1931C8.55245 11.1039 8.4227 11.0538 8.28742 11.0538C8.15214 11.0538 8.0224 11.1039 7.92674 11.1931C7.83108 11.2824 7.77734 11.4034 7.77734 11.5295C7.77734 11.592 7.79054 11.6539 7.81617 11.7116C7.84181 11.7693 7.87938 11.8217 7.92674 11.8659L10.0652 13.8604C10.2648 14.0465 10.5871 14.0465 10.7866 13.8604L16.1994 8.81213C16.295 8.72291 16.3488 8.60191 16.3488 8.47573C16.3488 8.34956 16.295 8.22856 16.1994 8.13934C16.1037 8.05012 15.974 8 15.8387 8C15.7034 8 15.5737 8.05012 15.478 8.13934L10.4234 12.8489Z" fill="white"/>
<defs>
<linearGradient id="paint0_linear_301_15541" x1="11.6662" y1="0" x2="11.6662" y2="28" gradientUnits="userSpaceOnUse">
<stop stop-color="white"/>
<stop offset="1" stop-color="#E5E7FF"/>
</linearGradient>
<linearGradient id="paint1_linear_301_15541" x1="11.7773" y1="3" x2="13.7773" y2="19" gradientUnits="userSpaceOnUse">
<stop stop-color="#76CEFF"/>
<stop offset="1" stop-color="#3EB6FA"/>
</linearGradient>
</defs>
</svg>
