<svg width="29" height="36" viewBox="0 0 29 36" fill="none" xmlns="http://www.w3.org/2000/svg">
<path fill-rule="evenodd" clip-rule="evenodd" d="M26.0453 22C27.6271 19.7323 28.5547 16.9745 28.5547 14C28.5547 6.26801 22.2867 0 14.5547 0C6.8227 0 0.554688 6.26801 0.554688 14C0.554688 16.9745 1.48232 19.7323 3.06407 22H3.05467L3.11963 22.0791C3.5087 22.6288 3.93642 23.1492 4.39881 23.6363L14.5547 36L24.7104 23.6365C25.1729 23.1492 25.6007 22.6287 25.9899 22.0789L26.0547 22H26.0453Z" fill="#D9D9D9"/>
<path fill-rule="evenodd" clip-rule="evenodd" d="M26.0453 22C27.6271 19.7323 28.5547 16.9745 28.5547 14C28.5547 6.26801 22.2867 0 14.5547 0C6.8227 0 0.554688 6.26801 0.554688 14C0.554688 16.9745 1.48232 19.7323 3.06407 22H3.05467L3.11963 22.0791C3.5087 22.6288 3.93642 23.1492 4.39881 23.6363L14.5547 36L24.7104 23.6365C25.1729 23.1492 25.6007 22.6287 25.9899 22.0789L26.0547 22H26.0453Z" fill="url(#paint0_linear_301_15547)"/>
<circle cx="14.5547" cy="14" r="11" fill="#73D5FF"/>
<defs>
<linearGradient id="paint0_linear_301_15547" x1="14.5547" y1="0" x2="14.5547" y2="36" gradientUnits="userSpaceOnUse">
<stop stop-color="white"/>
<stop offset="1" stop-color="#E5E7FF"/>
</linearGradient>
</defs>
</svg>
