<svg width="23" height="28" viewBox="0 0 23 28" fill="none" xmlns="http://www.w3.org/2000/svg">
<path fill-rule="evenodd" clip-rule="evenodd" d="M22.3325 10.8889C22.3325 13.2024 21.611 15.3474 20.3807 17.1111H20.3881L20.3369 17.1735C20.0347 17.6004 19.7025 18.0046 19.3433 18.383L11.4437 28L3.54545 18.3848C3.18517 18.0053 2.85196 17.5998 2.54889 17.1716L2.49924 17.1111H2.50643C1.27618 15.3474 0.554688 13.2024 0.554688 10.8889C0.554688 4.87512 5.42981 0 11.4436 0C17.4573 0 22.3325 4.87512 22.3325 10.8889ZM11.4436 17.1111C14.88 17.1111 17.6658 14.3253 17.6658 10.8889C17.6658 7.45245 14.88 4.66667 11.4436 4.66667C8.00714 4.66667 5.22135 7.45245 5.22135 10.8889C5.22135 14.3253 8.00714 17.1111 11.4436 17.1111Z" fill="url(#paint0_linear_301_15552)"/>
<defs>
<linearGradient id="paint0_linear_301_15552" x1="11.4436" y1="0" x2="11.4436" y2="28" gradientUnits="userSpaceOnUse">
<stop stop-color="white"/>
<stop offset="1" stop-color="#CCECF7"/>
</linearGradient>
</defs>
</svg>
