<svg width="61" height="26" viewBox="0 0 61 26" fill="none" xmlns="http://www.w3.org/2000/svg">
<ellipse cx="11.5" cy="13" rx="11.5" ry="12" fill="url(#paint0_radial_301_17586)"/>
<path d="M12.5003 3V23.5C12.5003 23.5 4 22.5 4 13C4 4.5 12.5003 3 12.5003 3Z" fill="url(#paint1_linear_301_17586)"/>
<path d="M55 2H19V23H55V2Z" fill="url(#paint2_linear_301_17586)"/>
<path opacity="0.7" d="M53 16H19V20H53V16Z" fill="#6B6B6B"/>
<path d="M19.3535 1.73479V23.0772H25.7406C25.7406 23.0772 22.8911 18.1918 21.9764 13.0343C21.0618 7.8768 20.8737 1.73479 20.8737 1.73479H19.3535Z" fill="#757575"/>
<path d="M19.3535 25.6789V0.000984192L12.0005 0.000984192L12.0005 25.6789H19.3535Z" fill="url(#paint3_linear_301_17586)"/>
<path opacity="0.7" d="M19.353 18.4199H12V21.5472H19.353V18.4199Z" fill="#6B6B6B"/>
<path opacity="0.41" d="M13.8255 2.29336C13.4921 2.76067 13.579 3.39325 13.6602 3.96029C13.8738 5.44949 13.9568 6.95452 13.9081 8.45817C13.8867 9.17053 13.9252 10.0353 14.5606 10.3459C15.0151 10.5696 15.595 10.3545 15.9156 9.96126C16.2361 9.56803 16.343 9.04515 16.3814 8.53653C16.4897 6.99354 16.0053 5.40212 16.4299 3.91755C16.5624 3.45166 16.7846 2.99433 16.759 2.50992C16.6849 1.06667 14.4039 1.47698 13.8255 2.29336Z" fill="white"/>
<path d="M60.373 25.6779V0L53.02 0V25.6779H60.373Z" fill="url(#paint4_linear_301_17586)"/>
<path opacity="0.7" d="M60.3726 18.4199H53.0195V21.5472H60.3726V18.4199Z" fill="#6B6B6B"/>
<path opacity="0.41" d="M54.8417 2.29336C54.5083 2.76067 54.5938 3.39325 54.6764 3.96029C54.8908 5.44943 54.9751 6.9544 54.9286 8.45817C54.9072 9.17053 54.9457 10.0353 55.5797 10.3459C56.0356 10.5696 56.6141 10.3545 56.936 9.96126C57.258 9.56803 57.3635 9.04515 57.4019 8.53653C57.5102 6.99354 57.0258 5.40212 57.4489 3.91755C57.5829 3.45166 57.8037 2.99433 57.7795 2.50992C57.7054 1.06667 55.423 1.47698 54.8417 2.29336Z" fill="white"/>
<path d="M60.3728 0V25.6793H59.377L59.8742 0H60.3728Z" fill="#6B6B6B"/>
<path d="M53.0201 9.01172V22.9912H52L53.0201 9.01172Z" fill="#6B6B6B"/>
<path opacity="0.41" d="M23.6145 7.66791L32.2736 7.98956C32.4409 8.02353 32.6096 7.97432 32.7664 7.84584C32.9172 7.69186 33.0349 7.33256 32.9905 6.99037C32.9317 6.54381 32.668 6.42405 32.4462 6.38983C30.5979 6.10753 28.7432 6.27348 26.8925 6.31797C25.9741 6.3385 25.0556 6.33166 24.1387 6.22558C23.542 6.15543 22.5912 5.54975 22.1227 6.67385C21.526 8.07682 23.2823 7.6508 23.6145 7.66791Z" fill="white"/>
<path opacity="0.41" d="M36.2915 7.7167C36.4555 7.84273 36.6827 7.83581 36.8895 7.82473C41.6782 7.56298 46.4866 7.61422 51.2656 7.97708C51.7019 8.01031 52.1679 8.0394 52.5493 7.82057C52.9307 7.60175 53.1555 7.02976 52.8733 6.68352C52.6453 6.40653 52.2335 6.40654 51.8799 6.43839C48.8302 6.66522 45.7753 6.59262 42.7306 6.22095C41.1828 6.03121 39.721 5.87748 38.174 6.13924C37.7548 6.20987 35.1373 6.84418 36.2915 7.7167Z" fill="white"/>
<path opacity="0.7" d="M12 17H6V19H12V17Z" fill="#646363"/>
<path d="M7.05304 8.76923C7.05304 8.15385 7.70197 8 8.22118 8C8.61059 8 9 8 9 8.38462C9 8.76923 8.61068 9.53846 8.22118 9.92308C7.83169 10.3077 8.61059 11.0769 8.22118 11.8462C7.83177 12.6154 7.05304 13 6.27422 13C5.4954 13 6.66336 11.8464 6.27422 10.6923C5.88515 9.53846 7.05304 9.53846 7.05304 8.76923Z" fill="#AFAFAF"/>
<defs>
<radialGradient id="paint0_radial_301_17586" cx="0" cy="0" r="1" gradientUnits="userSpaceOnUse" gradientTransform="translate(11.5 13) rotate(147.529) scale(13.0384 12.4951)">
<stop stop-color="#3D3D3D"/>
<stop offset="1" stop-color="#4D4C4C"/>
</radialGradient>
<linearGradient id="paint1_linear_301_17586" x1="14" y1="2.5" x2="5.5" y2="17.5" gradientUnits="userSpaceOnUse">
<stop stop-color="#B8B5B1"/>
<stop offset="1" stop-color="#707070"/>
</linearGradient>
<linearGradient id="paint2_linear_301_17586" x1="37" y1="7.58121" x2="37" y2="21.3415" gradientUnits="userSpaceOnUse">
<stop offset="0.01" stop-color="#BCBBB7"/>
<stop offset="0.19" stop-color="#AEAEAB"/>
<stop offset="0.54" stop-color="#8B8B8A"/>
<stop offset="0.67" stop-color="#7C7C7C"/>
</linearGradient>
<linearGradient id="paint3_linear_301_17586" x1="16.9616" y1="0.165484" x2="16.9616" y2="25.8519" gradientUnits="userSpaceOnUse">
<stop offset="0.01" stop-color="#BCBBB7"/>
<stop offset="0.19" stop-color="#AEAEAB"/>
<stop offset="0.54" stop-color="#8B8B8A"/>
<stop offset="0.67" stop-color="#7C7C7C"/>
</linearGradient>
<linearGradient id="paint4_linear_301_17586" x1="57.541" y1="0.165924" x2="57.541" y2="25.8524" gradientUnits="userSpaceOnUse">
<stop offset="0.01" stop-color="#BCBBB7"/>
<stop offset="0.19" stop-color="#AEAEAB"/>
<stop offset="0.54" stop-color="#8B8B8A"/>
<stop offset="0.67" stop-color="#7C7C7C"/>
</linearGradient>
</defs>
</svg>
