<svg width="40" height="42" viewBox="0 0 40 42" fill="none" xmlns="http://www.w3.org/2000/svg">
<path d="M3.5244 21.8462H26.9154C28.7026 21.8789 30.4647 22.2724 32.0961 23.003C35.6905 24.6016 38.1455 27.6871 39.0094 31.6911C39.0654 31.9497 39.0937 32.2135 39.0938 32.478V41.3077C38.7563 41.481 38.402 41.6191 38.0363 41.7197C37.3283 41.9066 36.599 42.0009 35.8667 42.0003C35.0954 42.0053 34.3252 41.9405 33.5656 41.8066C32.877 41.6896 32.1976 41.5236 31.5326 41.3102V38.2519C31.5326 36.86 31.6278 33.9486 30.415 32.478C29.415 31.2654 27.415 31.5005 25.915 31.5005H3.91504L3.5244 21.8462Z" fill="#8A8C8E"/>
<g style="mix-blend-mode:multiply">
<path d="M3.6068 21.8347H8.38281V29.3884H3.6068V21.8347Z" fill="#8A8C8E"/>
</g>
<g style="mix-blend-mode:multiply">
<path d="M12 22H26V31H12V22Z" fill="#8A8C8E"/>
</g>
<path d="M15.9192 2.65613H22.5098V20.5389H15.9192V2.65613Z" fill="#8A8C8E"/>
<path d="M15.9192 2.65613H22.5098V20.5389H15.9192V2.65613Z" fill="#646768"/>
<g style="mix-blend-mode:multiply">
<path d="M15.9192 15.8242H22.5098V18.0931H15.9192V15.8242Z" fill="#8A8C8E"/>
<path d="M15.9192 15.8242H22.5098V18.0931H15.9192V15.8242Z" fill="#646768"/>
</g>
<path d="M15.0092 16.0418H23.6602V17.6478H15.0092V16.0418Z" fill="#A7A9AC"/>
<g style="mix-blend-mode:multiply">
<path d="M15.9172 2.65335H22.5078V11.5749H15.9172V2.65335Z" fill="#8A8C8E"/>
<path d="M15.9172 2.65335H22.5078V11.5749H15.9172V2.65335Z" fill="#646768"/>
</g>
<path d="M5.86452 1.81615H32.2344C33.0693 1.81615 33.7461 2.49298 33.7461 3.32789V6.18505C33.7461 7.01997 33.0693 7.69679 32.2344 7.69679H5.86452C5.02961 7.69679 4.35278 7.01997 4.35278 6.18505V3.32789C4.35278 2.49298 5.02961 1.81615 5.86452 1.81615Z" fill="#A7A9AC"/>
<g style="mix-blend-mode:multiply">
<path d="M28.4206 7.33016C28.1154 6.80675 27.8888 6.24137 27.7479 5.6521C27.6021 5.07164 27.5559 4.47066 27.6114 3.87475C27.6595 3.31863 27.8483 2.78389 28.1599 2.32081C28.2942 2.13416 28.4538 1.96707 28.6341 1.82434H32.2285C32.6286 1.82565 33.012 1.985 33.2951 2.26768C33.5783 2.55037 33.7383 2.93349 33.7402 3.3336V6.1858C33.7383 6.58591 33.5783 6.96903 33.2951 7.25171C33.012 7.5344 32.6286 7.69375 32.2285 7.69506H28.6539C28.572 7.57839 28.4926 7.44683 28.4206 7.33016Z" fill="#A7A9AC"/>
</g>
<g style="mix-blend-mode:multiply">
<path d="M13.5067 1.81615H24.5332V7.69679H13.5067V1.81615Z" fill="#A7A9AC"/>
</g>
<g style="mix-blend-mode:multiply">
<path d="M5.85905 1.81615H8.97935C9.29528 2.05674 9.56094 2.35698 9.76128 2.69986C10.3074 3.64563 10.3124 4.81729 10.0095 5.84249C9.79591 6.52987 9.43409 7.16201 8.94956 7.69431H5.85905C5.45852 7.693 5.07476 7.53331 4.79154 7.25009C4.50831 6.96686 4.34862 6.58311 4.34731 6.18257V3.32541C4.34928 2.9253 4.50926 2.54218 4.79241 2.25949C5.07556 1.9768 5.45895 1.81745 5.85905 1.81615Z" fill="#A7A9AC"/>
</g>
<path d="M28.6739 5.3001C28.3336 3.20393 29.7571 1.22881 31.8532 0.888557C33.9494 0.5483 35.9245 1.97175 36.2648 4.06792C36.605 6.1641 35.1816 8.13921 33.0854 8.47947C30.9892 8.81973 29.0141 7.39628 28.6739 5.3001Z" fill="#8A8C8E"/>
<g style="mix-blend-mode:screen">
<path d="M33.7454 3.98664C33.1161 3.98664 32.606 3.47651 32.606 2.84725C32.606 2.21798 33.1161 1.70786 33.7454 1.70786C34.3746 1.70786 34.8848 2.21798 34.8848 2.84725C34.8848 3.47651 34.3746 3.98664 33.7454 3.98664Z" fill="#8A8C8E"/>
</g>
<g style="mix-blend-mode:screen">
<path d="M35.1111 4.39942C35.1111 4.45931 35.1289 4.51787 35.1621 4.56767C35.1954 4.61747 35.2427 4.65629 35.2981 4.67921C35.3534 4.70213 35.4143 4.70813 35.473 4.69644C35.5318 4.68476 35.5857 4.65591 35.6281 4.61356C35.6704 4.57121 35.6993 4.51725 35.711 4.4585C35.7227 4.39975 35.7167 4.33886 35.6937 4.28352C35.6708 4.22819 35.632 4.18089 35.5822 4.14761C35.5324 4.11433 35.4738 4.09657 35.414 4.09657C35.3336 4.09657 35.2566 4.12848 35.1998 4.18527C35.143 4.24207 35.1111 4.3191 35.1111 4.39942Z" fill="#8A8C8E"/>
</g>
<path d="M1.88211 5.56933C1.3943 3.5025 2.67434 1.43156 4.74116 0.943747C6.80798 0.455933 8.87892 1.73597 9.36673 3.80279C9.85455 5.86962 8.57451 7.94056 6.50769 8.42837C4.44087 8.91618 2.36993 7.63615 1.88211 5.56933Z" fill="#8A8C8E"/>
<g style="mix-blend-mode:screen">
<path d="M6.761 3.68314C6.13173 3.68314 5.62161 3.17302 5.62161 2.54375C5.62161 1.91448 6.13173 1.40436 6.761 1.40436C7.39027 1.40436 7.90039 1.91448 7.90039 2.54375C7.90039 3.17302 7.39027 3.68314 6.761 3.68314Z" fill="#8A8C8E"/>
</g>
<g style="mix-blend-mode:screen">
<path d="M8.13064 4.09591C8.13064 4.1558 8.1484 4.21435 8.18168 4.26416C8.21495 4.31396 8.26225 4.35278 8.31759 4.3757C8.37293 4.39862 8.43382 4.40462 8.49257 4.39293C8.55131 4.38125 8.60527 4.3524 8.64763 4.31005C8.68998 4.2677 8.71882 4.21373 8.73051 4.15499C8.74219 4.09624 8.7362 4.03535 8.71327 3.98001C8.69035 3.92467 8.65154 3.87738 8.60174 3.8441C8.55193 3.81082 8.49338 3.79306 8.43348 3.79306C8.35316 3.79306 8.27613 3.82497 8.21934 3.88176C8.16255 3.93856 8.13064 4.01559 8.13064 4.09591Z" fill="#8A8C8E"/>
</g>
<path d="M15.4548 0H22.6387C23.4078 0 24.0312 0.623483 24.0312 1.39259V9.15485C24.0312 9.92395 23.4078 10.5474 22.6387 10.5474H15.4548C14.6857 10.5474 14.0622 9.92395 14.0622 9.15485V1.39259C14.0622 0.623483 14.6857 0 15.4548 0Z" fill="#616466"/>
<path d="M16.0096 0.405228H22.419C23.1045 0.405228 23.6602 0.960917 23.6602 1.64639V8.5721C23.6602 9.25758 23.1045 9.81327 22.419 9.81327H16.0096C15.3241 9.81327 14.7684 9.25758 14.7684 8.5721V1.64639C14.7684 0.960917 15.3241 0.405228 16.0096 0.405228Z" fill="#8A8C8E"/>
<g style="mix-blend-mode:screen">
<path d="M20.3136 0.623933C20.4504 0.566625 20.5953 0.531432 20.7431 0.519675C21.8378 0.425346 23.1708 0.353359 23.4463 1.70623C23.6052 2.49313 23.496 3.27755 23.5183 4.06693C23.5407 4.79177 23.5556 5.51661 23.5183 6.24145C23.5183 6.45245 23.5506 6.84714 23.3272 6.98615C23.2334 7.01866 23.1318 7.02106 23.0365 6.99302C22.9413 6.96499 22.8572 6.90791 22.796 6.82977C22.5477 6.52196 22.5477 6.23152 22.4981 5.85669C22.4045 5.08116 22.2686 4.31131 22.091 3.5506C21.997 3.02071 21.7774 2.52105 21.4506 2.09347C21.113 1.70871 20.5371 1.62431 20.197 1.21969C20.1234 1.1413 20.0772 1.04112 20.0654 0.934225C20.0675 0.862566 20.0928 0.793531 20.1376 0.737552C20.1824 0.681572 20.2442 0.64169 20.3136 0.623933Z" fill="#8A8C8E"/>
<path d="M22.6093 8.36533C22.6056 8.33316 22.6056 8.30068 22.6093 8.26852C22.5971 8.20555 22.6049 8.14037 22.6316 8.08207C22.6583 8.02377 22.7026 7.97527 22.7582 7.94333C22.8369 7.90228 22.926 7.88533 23.0143 7.8946C23.1026 7.90387 23.1862 7.93895 23.2547 7.99546C23.3852 8.07926 23.4853 8.20285 23.5401 8.34795C23.5603 8.41274 23.5669 8.48097 23.5597 8.54843C23.5524 8.61588 23.5314 8.68114 23.4979 8.74016C23.4852 8.76436 23.4676 8.78568 23.4462 8.80276C23.4249 8.81985 23.4002 8.83234 23.3738 8.83945C23.3261 8.8737 23.2687 8.89195 23.21 8.89158C23.1156 8.88903 23.0242 8.85881 22.9468 8.8047C22.914 8.78367 22.8833 8.75956 22.855 8.73271C22.8205 8.70813 22.7881 8.68073 22.7582 8.6508C22.6762 8.57632 22.6235 8.47514 22.6093 8.36533Z" fill="#8A8C8E"/>
</g>
<path d="M15.4762 19H22.5238C23.8913 19 25 20.0145 25 21.266V31.734C25 32.9855 23.8913 34 22.5238 34H15.4762C14.1086 34 13 32.9855 13 31.734V21.266C13 20.0145 14.1086 19 15.4762 19Z" fill="#A7A9AC"/>
<path d="M2 21H5V37H2V21Z" fill="#626467"/>
<g style="mix-blend-mode:multiply">
<path d="M2 21H0V37H2V21Z" fill="#626467"/>
</g>
<g style="mix-blend-mode:multiply">
<path d="M4 21H5V37H4V21Z" fill="#626467"/>
</g>
<path d="M5 21H9V37H5V21Z" fill="#A7A9AC"/>
<path d="M28.6259 22.3409C28.6259 22.3409 37.6889 23.6417 38.7266 31.9823V40.6854C38.7266 40.6854 38.4336 40.9584 38.2673 41.0974C38.2052 41.1485 38.129 41.1797 38.0489 41.1868C38.0489 41.1868 38.0812 29.3883 32.0342 26.6081C32.0342 26.6081 30.3214 25.2304 25.2674 24.8531C25.2674 24.8531 24.5227 24.6867 24.5227 24.2697C24.5227 23.8527 24.5227 22.1399 24.5227 22.1399L28.6259 22.3409Z" fill="#A7A9AC"/>
<g style="mix-blend-mode:screen" opacity="0.57">
<path d="M30.7533 23.2524C30.7533 23.2524 34.9088 24.6921 36.768 28.0159C36.768 28.0159 37.3539 29.0461 36.4627 28.572C35.5716 28.0979 34.4768 25.0967 29.7604 23.7265C29.7604 23.7265 28.9239 23.5602 28.6731 23.2524C28.4224 22.9445 29.9093 22.8999 30.7533 23.2524Z" fill="#A7A9AC"/>
</g>
<g style="mix-blend-mode:screen">
<path d="M20.3131 19.7862C20.4502 19.7274 20.5962 19.6922 20.745 19.6819C21.8397 19.5876 23.1703 19.5156 23.4458 20.8685C23.6047 21.6554 23.4955 22.4398 23.5203 23.2292C23.5426 23.954 23.5575 24.6789 23.5203 25.4037C23.5203 25.6147 23.5501 26.0094 23.3267 26.1484C23.2344 26.1813 23.1342 26.1852 23.0397 26.1595C22.9451 26.1337 22.8608 26.0796 22.7979 26.0044C22.5497 25.6966 22.5497 25.4062 22.5 25.0313C22.4079 24.2556 22.2719 23.4857 22.0929 22.7253C21.9989 22.1954 21.7793 21.6957 21.4525 21.2681C21.1149 20.8809 20.539 20.7965 20.2113 20.3919C20.1323 20.3155 20.0808 20.2151 20.0649 20.1064C20.0652 20.0331 20.0897 19.962 20.1346 19.9041C20.1795 19.8462 20.2422 19.8048 20.3131 19.7862Z" fill="#8A8C8E"/>
<path d="M22.6041 27.5264C22.6004 27.4934 22.6004 27.4601 22.6041 27.4271C22.589 27.3649 22.5939 27.2997 22.6179 27.2404C22.642 27.1812 22.684 27.131 22.7381 27.0969C22.8168 27.0565 22.9056 27.0396 22.9937 27.0484C23.0817 27.0573 23.1654 27.0913 23.2346 27.1466C23.3648 27.2345 23.4638 27.3614 23.5176 27.509C23.5373 27.5739 23.5436 27.6423 23.5359 27.7097C23.5282 27.7772 23.5067 27.8424 23.4729 27.9012C23.4607 27.9253 23.4435 27.9466 23.4226 27.9637C23.4016 27.9808 23.3773 27.9934 23.3512 28.0005C23.3026 28.033 23.2458 28.051 23.1874 28.0526C23.093 28.0504 23.0014 28.0201 22.9243 27.9657C22.8906 27.946 22.8597 27.9217 22.8324 27.8938C22.7977 27.8684 22.7646 27.8411 22.7331 27.8118C22.6582 27.7346 22.6125 27.6337 22.6041 27.5264Z" fill="#8A8C8E"/>
</g>
</svg>
