<svg width="9" height="13" viewBox="0 0 9 13" fill="none" xmlns="http://www.w3.org/2000/svg">
<g style="mix-blend-mode:multiply">
<path d="M5.02444 0.62219C4.89959 0.482809 4.79099 0.365661 4.70548 0.280151C4.61998 0.370792 4.51138 0.487085 4.38568 0.62219C3.01154 2.16136 -0.443909 6.45994 0.659166 10.0625C1.0089 11.2074 1.64338 11.971 2.43007 12.4319C2.78751 12.6407 3.17522 12.7928 3.57932 12.8826C3.95012 12.9575 4.32721 12.997 4.70548 13.0006C5.08433 12.997 5.46198 12.9575 5.83336 12.8826C6.23719 12.7928 6.62461 12.6407 6.98175 12.4319C7.76502 11.971 8.40292 11.2074 8.75351 10.0625C9.85231 6.45994 6.40285 2.16136 5.02444 0.62219Z" fill="#9FA1A4"/>
</g>
<path d="M4.58127 0.346315C4.45643 0.206934 4.34869 0.0897852 4.26232 0C4.17681 0.0906403 4.06822 0.206934 3.94337 0.346315C2.5641 1.87779 -0.88707 6.17979 0.216005 9.78402C0.566595 10.9281 1.2045 11.6917 1.98691 12.1535C2.34439 12.362 2.7321 12.5138 3.13616 12.6033C3.50697 12.6782 3.88405 12.7177 4.26232 12.7213C4.6406 12.7177 5.01768 12.6782 5.38849 12.6033C5.79255 12.5138 6.18026 12.362 6.53774 12.1535C7.32015 11.6917 7.95805 10.9281 8.30864 9.78402C9.41172 6.17979 5.96055 1.87779 4.58127 0.346315Z" fill="#E1F4FD"/>
<g style="mix-blend-mode:multiply">
<path d="M4.58127 0.346315C4.45643 0.206934 4.34869 0.0897852 4.26232 0C4.17681 0.0906403 4.06822 0.206934 3.94337 0.346315C2.5641 1.87779 -0.88707 6.17979 0.216005 9.78402C0.566595 10.9281 1.2045 11.6917 1.98691 12.1535C2.34439 12.362 2.7321 12.5138 3.13616 12.6033C3.50697 12.6782 3.88405 12.7177 4.26232 12.7213C4.6406 12.7177 5.01768 12.6782 5.38849 12.6033C5.79255 12.5138 6.18026 12.362 6.53774 12.1535C7.32015 11.6917 7.95805 10.9281 8.30864 9.78402C9.41172 6.17979 5.96055 1.87779 4.58127 0.346315ZM7.0354 8.02252C6.77374 8.87762 6.29745 9.44797 5.71257 9.79257C5.44661 9.94809 5.15815 10.0615 4.85747 10.1286C4.58064 10.1838 4.29918 10.2124 4.01691 10.2141C3.73436 10.2125 3.45261 10.1838 3.1755 10.1286C2.87481 10.0615 2.58636 9.94809 2.3204 9.79257C1.73551 9.45053 1.25922 8.87762 0.997564 8.02252C0.17325 5.33153 4.19221 0.359141 4.25634 0.291588C4.31363 0.359141 7.85972 5.33153 7.0354 8.02252Z" fill="#E1F4FD"/>
</g>
<g style="mix-blend-mode:multiply">
<path d="M8.30187 6.63873C8.307 6.69602 8.31213 6.75332 8.31555 6.80975C8.33393 7.09791 8.33393 7.38695 8.31555 7.67511C8.29815 7.95811 8.261 8.23955 8.20439 8.51738C8.14869 8.7892 8.07091 9.05602 7.9718 9.31519C7.87488 9.56675 7.75405 9.80842 7.61095 10.0369C7.46949 10.2613 7.30343 10.4692 7.11585 10.6568C6.92351 10.848 6.70841 11.0149 6.47538 11.1536C6.22622 11.2998 5.95998 11.4147 5.68271 11.4957C5.35311 11.5919 5.01437 11.6536 4.67198 11.6795C4.31165 11.71 3.94912 11.7029 3.59028 11.6582C3.23588 11.614 2.88797 11.5279 2.55391 11.4016C2.2234 11.2773 1.9124 11.1062 1.6304 10.8937C1.34321 10.6766 1.09337 10.414 0.890743 10.1164C0.678836 9.80449 0.511343 9.46461 0.393076 9.10654C0.273563 8.74395 0.195256 8.36905 0.159635 7.98893C0.126582 7.65161 0.120863 7.31217 0.142533 6.97393C-0.0524294 7.91454 -0.0644008 8.86968 0.213506 9.77865C0.564095 10.9228 1.202 11.6864 1.98441 12.1481C2.34189 12.3567 2.7296 12.5084 3.13366 12.5979C3.50447 12.6728 3.88155 12.7123 4.25982 12.7159C4.6381 12.7123 5.01518 12.6728 5.38599 12.5979C5.79005 12.5084 6.17776 12.3567 6.53524 12.1481C7.31765 11.6864 7.95555 10.9228 8.30614 9.77865C8.62082 8.76536 8.56951 7.6905 8.30187 6.63873Z" fill="#E1F4FD"/>
</g>
<path d="M4.16059 2.14709C4.07383 2.05971 3.95898 2.00578 3.83632 1.99483C3.71366 1.98388 3.59108 2.01661 3.4902 2.08724C3.22854 2.25312 3.03871 2.53702 2.90018 2.84656C2.60244 3.31729 2.4013 3.84253 2.30845 4.39172C2.24176 4.75428 2.23834 5.19722 2.53163 5.46829C2.78816 5.70344 3.12251 5.66667 3.38673 5.47257C3.67575 5.26307 3.88012 4.94069 4.04687 4.632C4.27141 4.24298 4.40828 3.80961 4.44791 3.36219C4.47442 2.98851 4.44705 2.42756 4.16059 2.14709Z" fill="white"/>
<path d="M2.26778 5.91076C1.98731 5.82525 1.72736 6.06981 1.63415 6.31352C1.56772 6.51284 1.55128 6.72543 1.58627 6.93261C1.6085 7.11132 1.65553 7.29944 1.78636 7.42343C2.21904 7.83644 2.66882 7.03436 2.66882 6.67522C2.66882 6.37936 2.53542 5.99371 2.26778 5.91076Z" fill="white"/>
</svg>
