<svg width="43" height="40" viewBox="0 0 43 40" fill="none" xmlns="http://www.w3.org/2000/svg">
<path d="M42.5244 0V16.9492C42.5267 18.421 42.2388 19.8789 41.6771 21.2393C41.1155 22.5998 40.2911 23.8362 39.2511 24.8777C38.2112 25.9193 36.9761 26.7456 35.6165 27.3094C34.2569 27.8731 32.7995 28.1633 31.3277 28.1633H15.3848V12.232H26.7618C27.3341 12.232 27.883 12.0047 28.2876 11.6C28.6923 11.1953 28.9197 10.6464 28.9197 10.0741V0H42.5244Z" fill="#D2D1D1"/>
<path opacity="0.05" d="M42.5245 0V16.9492C42.5267 18.421 42.2388 19.8789 41.6772 21.2393C41.1155 22.5998 40.2911 23.8362 39.2512 24.8777C38.2113 25.9193 36.9762 26.7456 35.6166 27.3094C34.257 27.8731 32.7996 28.1633 31.3278 28.1633H18.3047V24.0918H29.4607C31.7746 24.0918 33.9938 23.1726 35.63 21.5364C37.2662 19.9002 38.1854 17.681 38.1854 15.3671V0H42.5245Z" fill="#1D1D1B"/>
<path d="M18.8215 10.1324H15.3839V11.1096C12.6677 12.7266 10.7715 16.1932 10.7715 20.2124C10.7715 24.2316 12.6677 27.6865 15.3839 29.3268V30.3039H18.8215C23.2594 30.3039 26.8657 25.7846 26.8657 20.224C26.8657 14.6635 23.2594 10.1324 18.8215 10.1324Z" fill="#C6C6C6"/>
<path d="M15.384 29.222C19.2452 29.222 22.3754 25.183 22.3754 20.2007C22.3754 15.2183 19.2452 11.1793 15.384 11.1793C11.5227 11.1793 8.39258 15.2183 8.39258 20.2007C8.39258 25.183 11.5227 29.222 15.384 29.222Z" fill="#B67A07"/>
<path d="M15.384 30.2807C10.9519 30.2807 7.33984 25.7613 7.33984 20.2007C7.33984 14.6402 10.9519 10.1324 15.384 10.1324C19.8162 10.1324 23.434 14.6518 23.434 20.2124C23.434 25.7729 19.822 30.2807 15.384 30.2807ZM15.384 12.2496C12.1152 12.2496 9.45122 15.8268 9.45122 20.2182C9.45122 24.6096 12.1152 28.1868 15.384 28.1868C18.6529 28.1868 21.3226 24.6096 21.3226 20.2182C21.3226 15.8268 18.6587 12.2322 15.384 12.2322V12.2496Z" fill="#ECECEC"/>
<path d="M21.3108 19.7876V20.9509C21.2685 21.515 21.1829 22.075 21.0549 22.6261C20.9803 22.9491 20.8871 23.2676 20.7757 23.5799C20.5799 24.1641 20.3184 24.7241 19.9963 25.2493C19.7918 25.5905 19.5582 25.9136 19.2983 26.2148C18.6726 26.9796 17.856 27.5656 16.931 27.9132C16.8174 27.9425 16.7065 27.9814 16.5995 28.0295C16.551 28.0439 16.5042 28.0634 16.4599 28.0877C16.1292 28.273 15.8679 28.5609 15.7154 28.9078C15.6413 29.0782 15.5924 29.2585 15.57 29.443C15.5788 29.491 15.5788 29.5403 15.57 29.5884V38.4178H5.99023V29.5185C5.99023 29.2161 5.99023 28.9369 6.03095 28.6054C6.14387 27.3627 6.45819 26.1467 6.96159 25.005C6.99649 24.9177 7.0372 24.8363 7.07792 24.7491C7.11863 24.6618 7.15935 24.5804 7.20006 24.4931C7.28149 24.3186 7.38037 24.1441 7.47925 23.9755C7.57813 23.8068 7.64211 23.6905 7.73517 23.5509C7.93807 23.223 8.16148 22.9083 8.40407 22.6086C8.51477 22.4593 8.63524 22.3174 8.76469 22.184C8.88088 22.0413 9.00517 21.9053 9.13694 21.7768L9.52665 21.3871C9.85662 21.0724 10.2063 20.7791 10.5736 20.5088C10.8097 20.3276 11.0564 20.1606 11.3123 20.0086C11.4926 19.8923 11.6671 19.7876 11.8416 19.6887C12.8392 19.1513 13.9087 18.7596 15.0174 18.5254C15.5305 18.4289 16.0492 18.3648 16.5704 18.3335H17.2858H21.1479C21.2343 18.8141 21.2887 19.2998 21.3108 19.7876Z" fill="#8FDAFF"/>
<path d="M21.3108 19.7876V20.9509C21.2685 21.515 21.1829 22.075 21.0549 22.6261C20.9803 22.9491 20.8871 23.2676 20.7757 23.5799C20.5799 24.1641 20.3184 24.7241 19.9963 25.2493C19.7918 25.5905 19.5582 25.9136 19.2983 26.2148C18.6726 26.9796 17.856 27.5656 16.931 27.9132C16.8174 27.9425 16.7065 27.9814 16.5995 28.0295C16.551 28.0439 16.5042 28.0634 16.4599 28.0877C16.1292 28.273 15.8679 28.5609 15.7154 28.9078C15.6413 29.0782 15.5924 29.2585 15.57 29.443C15.5788 29.491 15.5788 29.5403 15.57 29.5884V38.4178H5.99023V29.5185C5.99023 29.2161 5.99023 28.9369 6.03095 28.6054C6.14387 27.3627 6.45819 26.1467 6.96159 25.005C6.99649 24.9177 7.0372 24.8363 7.07792 24.7491C7.11863 24.6618 7.15935 24.5804 7.20006 24.4931C7.28149 24.3186 7.38037 24.1441 7.47925 23.9755C7.57813 23.8068 7.64211 23.6905 7.73517 23.5509C7.93807 23.223 8.16148 22.9083 8.40407 22.6086C8.51477 22.4593 8.63524 22.3174 8.76469 22.184C8.88088 22.0413 9.00517 21.9053 9.13694 21.7768L9.52665 21.3871C9.85662 21.0724 10.2063 20.7791 10.5736 20.5088C10.8097 20.3276 11.0564 20.1606 11.3123 20.0086C11.4926 19.8923 11.6671 19.7876 11.8416 19.6887C12.8392 19.1513 13.9087 18.7596 15.0174 18.5254C15.5305 18.4289 16.0492 18.3648 16.5704 18.3335H17.2858H21.1479C21.2343 18.8141 21.2887 19.2998 21.3108 19.7876Z" fill="#8FDAFF"/>
<path d="M21.3108 19.7876V19.9679H17.2858H16.6693C16.2261 19.9969 15.7852 20.0533 15.3489 20.1366C14.405 20.336 13.4942 20.6689 12.6443 21.1254C11.6158 21.6963 10.6994 22.4492 9.93962 23.3473C9.33648 24.0433 8.84407 24.828 8.47969 25.6739C8.05224 26.6479 7.787 27.6853 7.69446 28.745C7.69446 29.0067 7.69446 29.2684 7.64793 29.5185V38.3887H5.99023V29.5185C5.99023 29.2161 5.99023 28.9369 6.03095 28.6054C6.14387 27.3627 6.45819 26.1467 6.96159 25.005C6.99649 24.9177 7.0372 24.8363 7.07792 24.7491C7.11863 24.6618 7.15935 24.5804 7.20006 24.4931C7.28149 24.3186 7.38037 24.1441 7.47925 23.9755C7.57813 23.8068 7.64211 23.6905 7.73517 23.5509C7.93807 23.223 8.16148 22.9083 8.40407 22.6086C8.51477 22.4593 8.63524 22.3174 8.76469 22.184C8.88088 22.0413 9.00517 21.9053 9.13694 21.7768L9.52665 21.3871C9.85662 21.0724 10.2063 20.7791 10.5736 20.5088C10.8097 20.3276 11.0564 20.1606 11.3123 20.0086C11.4926 19.8923 11.6671 19.7876 11.8416 19.6887C12.8392 19.1513 13.9087 18.7596 15.0174 18.5254C15.5305 18.4289 16.0492 18.3648 16.5704 18.3335H17.2858H21.1479C21.2343 18.8141 21.2887 19.2998 21.3108 19.7876Z" fill="#34B1ED"/>
<path d="M21.2989 20.9276C21.2566 21.4917 21.171 22.0517 21.0429 22.6028H17.7043C17.0905 22.5818 16.4763 22.6267 15.8721 22.7365C15.1871 22.8837 14.5255 23.1244 13.9061 23.452C12.8357 24.0507 11.9366 24.9138 11.2945 25.9589C11.1386 26.2066 11.0006 26.4651 10.8816 26.7325C10.5713 27.4396 10.3749 28.1915 10.2999 28.9602C10.2476 29.7454 10.2999 30.3968 10.265 31.0832V38.3828H8.5957V29.5302L8.6306 28.8264C8.71949 27.8731 8.96105 26.9402 9.34603 26.0636C10.1199 24.336 11.4346 22.9069 13.0918 21.992C13.8549 21.5805 14.674 21.2826 15.5231 21.1079C15.9171 21.0329 16.3153 20.9824 16.7155 20.9567L17.2681 20.9276H21.2989Z" fill="#34B1ED"/>
<path d="M20.764 23.5569C20.5682 24.1411 20.3068 24.7011 19.9846 25.2263H17.2858H16.995C16.7997 25.2363 16.6054 25.2596 16.4133 25.2961C15.9886 25.3895 15.578 25.5381 15.1919 25.7381C14.4035 26.1818 13.767 26.8527 13.3655 27.6634L13.3015 27.7971C13.115 28.2363 12.9954 28.701 12.9467 29.1756V29.5363V38.3773H11.2832V31.0718C11.2832 30.4087 11.2832 29.6642 11.2832 29.0302C11.3459 28.3703 11.5128 27.7244 11.7776 27.1166C11.8416 26.9654 11.9114 26.8258 11.987 26.6862C12.5439 25.673 13.3742 24.8366 14.3834 24.2724C14.9178 23.9941 15.487 23.7887 16.076 23.6616C16.6171 23.5646 17.1666 23.5218 17.7162 23.5337L20.764 23.5569Z" fill="#34B1ED"/>
<path d="M19.2883 26.1918C18.6627 26.9566 17.846 27.5425 16.921 27.8902C16.8074 27.9194 16.6965 27.9584 16.5895 28.0065C16.541 28.0209 16.4942 28.0404 16.4499 28.0647C16.1192 28.2499 15.8579 28.5378 15.7054 28.8848C15.6313 29.0552 15.5823 29.2355 15.56 29.4199C15.5688 29.468 15.5688 29.5173 15.56 29.5653V38.3947H13.8906V29.5595C13.8906 29.4723 13.8906 29.3734 13.8906 29.2803C13.9231 28.9111 14.0154 28.5496 14.164 28.2101C14.164 28.1461 14.2222 28.0821 14.2571 28.0182C14.5685 27.4224 15.0477 26.931 15.6356 26.6048C15.935 26.4521 16.2512 26.335 16.5778 26.2558C16.7407 26.2558 16.8919 26.2034 17.0432 26.2092H17.2816L19.2883 26.1918Z" fill="#34B1ED"/>
<path d="M10.0098 39.2904C11.4714 39.2904 12.6563 38.1055 12.6563 36.6439C12.6563 35.1823 11.4714 33.9974 10.0098 33.9974C8.54816 33.9974 7.36328 35.1823 7.36328 36.6439C7.36328 38.1055 8.54816 39.2904 10.0098 39.2904Z" fill="white"/>
<path d="M10.0104 39.9998C9.34663 39.9998 8.69776 39.803 8.14585 39.4342C7.59394 39.0654 7.16378 38.5413 6.90977 37.928C6.65575 37.3148 6.58929 36.64 6.71878 35.989C6.84828 35.3379 7.16792 34.7399 7.63728 34.2706C8.10664 33.8012 8.70464 33.4816 9.35566 33.3521C10.0067 33.2226 10.6815 33.289 11.2947 33.5431C11.908 33.7971 12.4321 34.2272 12.8009 34.7792C13.1697 35.3311 13.3665 35.9799 13.3665 36.6437C13.365 37.5333 13.0109 38.3861 12.3818 39.0151C11.7528 39.6442 10.9 39.9983 10.0104 39.9998ZM10.0104 34.701C9.62617 34.701 9.25057 34.8149 8.93109 35.0284C8.61162 35.2419 8.36262 35.5453 8.21558 35.9003C8.06854 36.2553 8.03007 36.6459 8.10503 37.0227C8.17999 37.3995 8.36501 37.7457 8.6367 38.0174C8.90839 38.2891 9.25455 38.4741 9.6314 38.5491C10.0082 38.624 10.3989 38.5856 10.7538 38.4385C11.1088 38.2915 11.4122 38.0425 11.6257 37.723C11.8392 37.4035 11.9531 37.0279 11.9531 36.6437C11.9516 36.1289 11.7464 35.6357 11.3824 35.2717C11.0184 34.9077 10.5252 34.7025 10.0104 34.701Z" fill="#34B1ED"/>
<path d="M16.3856 37.5512C16.3856 37.9331 16.2723 38.3065 16.0601 38.624C15.8479 38.9416 15.5464 39.1891 15.1935 39.3353C14.8406 39.4814 14.4524 39.5197 14.0778 39.4451C13.7032 39.3706 13.3591 39.1867 13.089 38.9166C12.819 38.6466 12.6351 38.3025 12.5605 37.9279C12.486 37.5533 12.5243 37.165 12.6704 36.8122C12.8166 36.4593 13.0641 36.1577 13.3817 35.9456C13.6992 35.7334 14.0726 35.6201 14.4545 35.6201C14.9667 35.6201 15.4578 35.8236 15.82 36.1857C16.1821 36.5479 16.3856 37.039 16.3856 37.5512Z" fill="white"/>
<path d="M14.4546 39.9999C13.9703 39.9999 13.4968 39.8563 13.0941 39.5872C12.6915 39.3181 12.3776 38.9357 12.1923 38.4882C12.0069 38.0408 11.9584 37.5484 12.0529 37.0734C12.1474 36.5984 12.3806 36.1621 12.7231 35.8196C13.0655 35.4772 13.5019 35.244 13.9769 35.1495C14.4519 35.055 14.9442 35.1035 15.3917 35.2888C15.8391 35.4742 16.2216 35.788 16.4906 36.1907C16.7597 36.5934 16.9033 37.0668 16.9033 37.5512C16.9033 38.2006 16.6453 38.8234 16.1861 39.2827C15.7269 39.7419 15.104 39.9999 14.4546 39.9999ZM14.4546 36.1319C14.1739 36.1319 13.8995 36.2152 13.6661 36.3711C13.4327 36.5271 13.2508 36.7487 13.1434 37.008C13.036 37.2674 13.0079 37.5527 13.0626 37.828C13.1174 38.1033 13.2526 38.3562 13.4511 38.5547C13.6495 38.7532 13.9024 38.8883 14.1777 38.9431C14.453 38.9979 14.7384 38.9697 14.9977 38.8623C15.257 38.7549 15.4787 38.573 15.6346 38.3396C15.7906 38.1062 15.8738 37.8319 15.8738 37.5512C15.8738 37.3648 15.8371 37.1802 15.7658 37.008C15.6945 36.8358 15.5899 36.6794 15.4581 36.5476C15.3263 36.4158 15.1699 36.3113 14.9977 36.24C14.8255 36.1686 14.641 36.1319 14.4546 36.1319Z" fill="#34B1ED"/>
<path d="M3.36084 38.1097C3.36084 38.4042 3.27352 38.6921 3.1099 38.937C2.94629 39.1819 2.71373 39.3727 2.44165 39.4854C2.16957 39.5981 1.87018 39.6276 1.58133 39.5701C1.29249 39.5127 1.02718 39.3709 0.818935 39.1626C0.610692 38.9544 0.468879 38.6891 0.411425 38.4002C0.353971 38.1114 0.383456 37.812 0.496156 37.5399C0.608856 37.2678 0.799707 37.0353 1.04457 36.8717C1.28944 36.7081 1.57733 36.6207 1.87183 36.6207C2.26674 36.6207 2.64547 36.7776 2.92472 37.0568C3.20396 37.3361 3.36084 37.7148 3.36084 38.1097Z" fill="white"/>
<path d="M1.89617 39.9998C1.52205 40.001 1.15599 39.8911 0.844364 39.684C0.532733 39.477 0.289537 39.1822 0.145568 38.8369C0.00159981 38.4916 -0.0366638 38.1113 0.0356177 37.7442C0.107899 37.3772 0.287477 37.0398 0.551614 36.7748C0.815752 36.5099 1.15257 36.3293 1.51942 36.2559C1.88627 36.1825 2.26665 36.2195 2.61241 36.3624C2.95817 36.5053 3.25374 36.7476 3.46172 37.0586C3.66969 37.3696 3.7807 37.7353 3.7807 38.1095C3.77918 38.6093 3.58032 39.0884 3.2274 39.4424C2.87448 39.7964 2.39604 39.9967 1.89617 39.9998ZM1.89617 37.016C1.6799 37.016 1.46848 37.0801 1.28866 37.2002C1.10883 37.3204 0.968673 37.4912 0.885908 37.691C0.803144 37.8908 0.781491 38.1107 0.823684 38.3228C0.865877 38.5349 0.970024 38.7297 1.12295 38.8827C1.27588 39.0356 1.47072 39.1398 1.68284 39.1819C1.89495 39.2241 2.11482 39.2025 2.31463 39.1197C2.51444 39.0369 2.68522 38.8968 2.80538 38.717C2.92553 38.5371 2.98966 38.3257 2.98966 38.1095C2.98966 37.8194 2.87446 37.5413 2.66939 37.3362C2.46432 37.1312 2.18618 37.016 1.89617 37.016Z" fill="#34B1ED"/>
<path d="M5.3858 39.2961C6.478 39.2961 7.3634 38.4107 7.3634 37.3185C7.3634 36.2263 6.478 35.3409 5.3858 35.3409C4.29361 35.3409 3.4082 36.2263 3.4082 37.3185C3.4082 38.4107 4.29361 39.2961 5.3858 39.2961Z" fill="white"/>
<path d="M5.38638 40C4.85441 40.0012 4.33406 39.8444 3.89126 39.5496C3.44846 39.2547 3.10313 38.8351 2.89903 38.3439C2.69492 37.8526 2.64121 37.3118 2.74471 36.79C2.84821 36.2682 3.10427 35.7888 3.48043 35.4127C3.85659 35.0365 4.33594 34.7805 4.85775 34.677C5.37956 34.5735 5.92034 34.6272 6.4116 34.8313C6.90286 35.0354 7.32249 35.3807 7.61732 35.8235C7.91215 36.2663 8.06892 36.7866 8.06777 37.3186C8.06623 38.0293 7.78324 38.7104 7.28071 39.213C6.77819 39.7155 6.09706 39.9985 5.38638 40ZM5.38638 36.0448C5.13445 36.0448 4.88817 36.1195 4.67869 36.2595C4.46921 36.3995 4.30595 36.5984 4.20954 36.8312C4.11312 37.0639 4.0879 37.32 4.13705 37.5671C4.1862 37.8142 4.30752 38.0412 4.48566 38.2194C4.66381 38.3975 4.89078 38.5188 5.13787 38.568C5.38497 38.6171 5.64109 38.5919 5.87384 38.4955C6.1066 38.3991 6.30554 38.2358 6.44551 38.0263C6.58548 37.8168 6.66019 37.5706 6.66019 37.3186C6.65865 36.9813 6.52396 36.6582 6.28541 36.4196C6.04685 36.181 5.72374 36.0463 5.38638 36.0448Z" fill="#34B1ED"/>
<path d="M18.4737 39.2961C19.5659 39.2961 20.4513 38.4107 20.4513 37.3185C20.4513 36.2263 19.5659 35.3409 18.4737 35.3409C17.3815 35.3409 16.4961 36.2263 16.4961 37.3185C16.4961 38.4107 17.3815 39.2961 18.4737 39.2961Z" fill="white"/>
<path d="M18.484 40C17.9521 40.0012 17.4317 39.8444 16.9889 39.5496C16.5461 39.2547 16.2008 38.8351 15.9967 38.3439C15.7926 37.8526 15.7389 37.3118 15.8424 36.79C15.9459 36.2682 16.2019 35.7888 16.5781 35.4127C16.9542 35.0365 17.4336 34.7805 17.9554 34.677C18.4772 34.5735 19.018 34.6272 19.5093 34.8313C20.0005 35.0354 20.4201 35.3807 20.715 35.8235C21.0098 36.2663 21.1666 36.7866 21.1654 37.3186C21.1654 38.0298 20.8829 38.7118 20.3801 39.2147C19.8772 39.7175 19.1952 40 18.484 40ZM18.484 36.0448C18.2319 36.0437 17.985 36.1174 17.7748 36.2567C17.5645 36.3959 17.4004 36.5945 17.3031 36.8271C17.2057 37.0598 17.1797 37.3161 17.2282 37.5635C17.2767 37.811 17.3975 38.0385 17.5754 38.2173C17.7534 38.396 17.9803 38.5179 18.2276 38.5675C18.4748 38.6171 18.7312 38.5922 18.9643 38.496C19.1974 38.3998 19.3967 38.2365 19.5369 38.0269C19.6772 37.8173 19.752 37.5708 19.752 37.3186C19.752 36.9818 19.6186 36.6587 19.381 36.42C19.1434 36.1812 18.8209 36.0464 18.484 36.0448Z" fill="#34B1ED"/>
<path d="M1.89535 34.9455C2.41896 34.9455 2.84343 34.521 2.84343 33.9974C2.84343 33.4738 2.41896 33.0493 1.89535 33.0493C1.37174 33.0493 0.947266 33.4738 0.947266 33.9974C0.947266 34.521 1.37174 34.9455 1.89535 34.9455Z" fill="#34B1ED"/>
<path d="M1.32649 34.2765C1.44856 34.2765 1.54752 34.1359 1.54752 33.9624C1.54752 33.7889 1.44856 33.6483 1.32649 33.6483C1.20442 33.6483 1.10547 33.7889 1.10547 33.9624C1.10547 34.1359 1.20442 34.2765 1.32649 34.2765Z" fill="white"/>
<path d="M3.41413 31.9268C4.14012 31.9268 4.72865 31.3382 4.72865 30.6122C4.72865 29.8862 4.14012 29.2977 3.41413 29.2977C2.68814 29.2977 2.09961 29.8862 2.09961 30.6122C2.09961 31.3382 2.68814 31.9268 3.41413 31.9268Z" fill="#34B1ED"/>
<path d="M2.62273 30.996C2.79298 30.996 2.931 30.8033 2.931 30.5655C2.931 30.3278 2.79298 30.1351 2.62273 30.1351C2.45248 30.1351 2.31445 30.3278 2.31445 30.5655C2.31445 30.8033 2.45248 30.996 2.62273 30.996Z" fill="white"/>
<path d="M19.2111 32.2932C19.2111 32.5532 19.134 32.8073 18.9895 33.0235C18.8451 33.2396 18.6398 33.4081 18.3996 33.5076C18.1594 33.6071 17.8951 33.6332 17.6401 33.5824C17.3851 33.5317 17.1509 33.4065 16.967 33.2227C16.7832 33.0388 16.658 32.8046 16.6073 32.5496C16.5566 32.2946 16.5826 32.0303 16.6821 31.7901C16.7816 31.5499 16.9501 31.3446 17.1662 31.2002C17.3824 31.0557 17.6366 30.9786 17.8966 30.9786C18.2452 30.9786 18.5795 31.1171 18.8261 31.3637C19.0726 31.6102 19.2111 31.9445 19.2111 32.2932Z" fill="#34B1ED"/>
<path d="M17.1051 32.683C17.2754 32.683 17.4134 32.4903 17.4134 32.2526C17.4134 32.0148 17.2754 31.8221 17.1051 31.8221C16.9349 31.8221 16.7969 32.0148 16.7969 32.2526C16.7969 32.4903 16.9349 32.683 17.1051 32.683Z" fill="white"/>
</svg>
