<svg width="63" height="40" viewBox="0 0 63 40" fill="none" xmlns="http://www.w3.org/2000/svg">
<path d="M48.9313 19.2105C48.9313 18.9314 48.7878 17.6794 48.74 17.3604C48.4616 15.664 47.9236 14.0206 47.1451 12.488C46.7596 11.7197 46.3171 10.9813 45.8213 10.279C45.4245 9.72302 44.9959 9.19049 44.5374 8.68414C44.362 8.49275 44.1865 8.30934 44.0031 8.12593C43.5449 7.65408 43.0546 7.21444 42.5358 6.81013C41.9031 6.3007 41.2312 5.84206 40.5262 5.43852C40.0008 5.12062 39.4546 4.83822 38.8915 4.59322C37.6347 4.03198 36.3146 3.62497 34.96 3.3811H34.8643C34.0481 3.26311 33.2249 3.19917 32.4002 3.18971C29.1515 3.12221 25.9654 4.08839 23.3013 5.94889C20.6536 7.73817 18.6736 10.3547 17.6713 13.3891C17.2544 14.6273 17.0181 15.9192 16.9696 17.2248C16.887 19.0484 17.1578 20.8708 17.767 22.5917C18.6562 25.0384 20.2694 27.1563 22.392 28.6635C24.5146 30.1707 27.0459 30.9957 29.649 31.0287H29.9919C29.8726 31.688 29.6745 32.3306 29.4018 32.9426C29.0633 33.7589 28.6124 34.5238 28.0621 35.2153C26.3874 37.2249 23.397 39.2025 18.078 40H62.8548C58.8619 38.1298 55.455 35.2054 53.0014 31.5419C50.5479 27.8784 49.1406 23.6147 48.9313 19.2105Z" fill="#8FDAFF"/>
<path d="M24.657 7.85479C26.7101 6.42966 29.1292 5.6242 31.6268 5.53421C32.4467 5.49929 33.2682 5.53129 34.0829 5.6299L34.5853 5.6937C35.0319 5.76547 35.4625 5.86914 35.8931 5.98078C36.6552 6.1857 37.3993 6.4524 38.118 6.77823C38.6667 7.04143 39.1993 7.33701 39.7129 7.6634C40.4333 8.11101 41.1113 8.62351 41.7384 9.19451C42.2721 9.66849 42.7656 10.186 43.2137 10.7416C43.9412 11.6108 44.5623 12.5639 45.0638 13.5805C45.855 15.1891 46.3416 16.9303 46.4992 18.7161C46.4992 18.8038 46.4992 18.8995 46.4992 18.9872C46.6477 23.1556 47.7764 27.2303 49.7936 30.8811C51.8109 34.5318 54.66 37.6559 58.1101 40H62.8549C58.8629 38.1263 55.4572 35.1999 53.0039 31.5355C50.5507 27.8711 49.1427 23.6072 48.9314 19.2025C48.9314 18.9314 48.7958 17.6714 48.74 17.3604C48.4625 15.6638 47.9245 14.0203 47.1451 12.488C46.7675 11.7128 46.3246 10.9712 45.8214 10.2711C45.4298 9.71327 45.0037 9.18059 44.5454 8.67616C44.37 8.48477 44.1866 8.30136 44.0112 8.11795C43.549 7.65018 43.059 7.21079 42.5438 6.80216C41.9059 6.29985 41.2345 5.84158 40.5343 5.43054C40.0191 5.1187 39.4866 4.83648 38.9394 4.58525C38.2155 4.2655 37.4692 3.99897 36.7065 3.7878C36.1458 3.62207 35.576 3.48894 35 3.38907H34.9122C34.0942 3.26348 33.2678 3.1995 32.4401 3.19768C29.1953 3.13119 26.0127 4.09433 23.3492 5.94888C20.7031 7.74172 18.7216 10.3567 17.7113 13.3891C16.7133 16.3867 16.7639 19.6345 17.8548 22.5996C18.7438 25.0442 20.3561 27.1602 22.4773 28.6659C24.5984 30.1717 27.1278 30.9958 29.7288 31.0287H30.0797C29.9567 31.6871 29.7587 32.3292 29.4896 32.9426C29.1264 33.7635 28.6485 34.5287 28.0701 35.2153C26.3875 37.2249 23.3971 39.2025 18.0861 40H25.7256C27.8431 38.8932 29.6269 37.2415 30.8931 35.2153C31.5443 35.168 32.1917 35.0775 32.8309 34.9442L33.11 34.8804C32.1876 36.8835 30.8017 38.6383 29.0669 40H32.5598C33.2356 39.2601 33.8416 38.4592 34.37 37.6076C34.7847 38.4051 35.2312 39.2025 35.6937 40H38.4848C37.2988 38.1347 36.2641 36.1773 35.3907 34.1467C35.9399 33.9175 36.4728 33.6511 36.9856 33.3493C38.0064 35.6795 39.2481 37.9066 40.6938 40H43.6044C41.7771 37.5394 40.2635 34.8605 39.0989 32.0255C39.6009 31.6333 40.0776 31.2098 40.5263 30.7575C41.8263 34.0958 43.6339 37.2133 45.8852 40H49.0191C46.024 36.7169 43.7334 32.8549 42.2887 28.6523C42.3604 28.5566 42.4242 28.4529 42.488 28.3572C42.87 27.7853 43.2085 27.1855 43.5008 26.563C44.9799 31.657 47.7454 36.2844 51.5311 40H55.0877C52.1928 37.6231 49.7964 34.6972 48.0364 31.3908C46.2764 28.0843 45.1876 24.4624 44.8325 20.7336C44.8325 20.7336 44.8325 20.6937 44.8325 20.6698C44.8325 20.6459 44.8325 20.4545 44.8325 20.3428C44.8311 19.9831 44.8098 19.6237 44.7687 19.2663C44.6848 18.3386 44.5058 17.4221 44.2344 16.531C43.8868 15.3765 43.3853 14.2741 42.7432 13.2535C42.3187 12.5496 41.8216 11.8921 41.26 11.2918C40.652 10.6289 39.9727 10.0352 39.2344 9.52146C38.7094 9.16048 38.1606 8.83544 37.5917 8.54857L36.9138 8.24554C36.4112 8.04563 35.8973 7.87522 35.3748 7.73517C34.7835 7.57759 34.181 7.46562 33.5725 7.40024C32.7564 7.30866 31.9325 7.30866 31.1164 7.40024C29.1622 7.58632 27.2903 8.27898 25.6857 9.40982C24.1625 10.4485 22.948 11.8792 22.1704 13.5509C21.3928 15.2226 21.081 17.0732 21.2679 18.9074C21.3832 20.0827 21.7293 21.2237 22.2862 22.265C22.8432 23.3064 23.6 24.2276 24.5135 24.976C25.3678 25.6685 26.3514 26.1838 27.4071 26.4919C28.4628 26.8 29.5692 26.8946 30.6618 26.7703C31.4578 26.6691 32.2297 26.4289 32.9425 26.0606C33.53 25.7587 34.0679 25.3688 34.5374 24.9043C34.8275 24.6177 35.0942 24.3084 35.3349 23.9792L35.3748 23.9154C35.9305 23.0567 36.2849 22.0835 36.4115 21.0685C36.5025 20.3871 36.4646 19.6945 36.2998 19.0271C36.0298 17.9723 35.4081 17.0412 34.5374 16.3875C34.3646 16.2612 34.1834 16.1466 33.9952 16.0446C33.4396 15.7409 32.8247 15.5613 32.1929 15.5183C31.6725 15.47 31.1483 15.5551 30.6698 15.7655C30.3259 15.9083 30.02 16.1295 29.7767 16.4114C29.4774 16.7394 29.2951 17.1572 29.2583 17.5996C29.2314 17.8508 29.2619 18.1047 29.3476 18.3424C29.4333 18.58 29.5718 18.795 29.7527 18.9712C29.8957 19.0953 30.0123 19.2467 30.0959 19.4165C30.1794 19.5863 30.2281 19.7711 30.2392 19.9601C30.2234 20.0773 30.1744 20.1875 30.0982 20.2779C30.0219 20.3683 29.9214 20.4351 29.8086 20.4704C29.4976 20.5661 29.0111 20.4704 28.3253 19.673C27.3205 18.5885 27.6475 16.9776 28.2376 15.925C28.6573 15.2853 29.2338 14.7636 29.9122 14.4098C30.664 14.0268 31.5014 13.8428 32.3445 13.8755H32.7033C33.1963 13.9532 33.68 14.0814 34.1467 14.2583C34.9933 14.5805 35.7623 15.0778 36.4035 15.7176C36.7642 16.0711 37.0802 16.4675 37.3445 16.8979C37.7666 17.6378 38.0504 18.4485 38.1818 19.2902C38.2604 19.759 38.2871 20.235 38.2615 20.7097C38.2217 21.5279 38.0549 22.335 37.7671 23.102C37.562 23.6745 37.2946 24.2228 36.9697 24.7368C36.4368 25.5497 35.7678 26.2646 34.992 26.85C34.4837 27.2387 33.9325 27.5679 33.3492 27.8309C33.1441 27.9276 32.9338 28.0128 32.7193 28.0861C32.1813 28.2767 31.6257 28.413 31.0606 28.4928C28.7298 28.7832 26.3697 28.2697 24.3703 27.0373C22.3708 25.8048 20.8516 23.9271 20.0637 21.7145C19.5041 20.1847 19.2679 18.5555 19.37 16.9298C19.5108 15.1166 20.0595 13.3587 20.975 11.7872C21.8905 10.2158 23.1492 8.87156 24.657 7.85479ZM32.496 30.6539C32.815 30.5741 33.1339 30.4784 33.4449 30.3668L33.9394 30.1834C34.5146 29.9502 35.0672 29.6646 35.5901 29.3301C36.3194 28.8815 36.9915 28.3459 37.5917 27.7352C38.1308 27.1816 38.6093 26.5721 39.0191 25.917C39.3959 25.3177 39.7112 24.6818 39.9601 24.0191C40.3616 22.9547 40.5826 21.8308 40.614 20.6937C40.6237 20.2166 40.597 19.7394 40.5343 19.2663C40.3779 18.0436 39.9794 16.8643 39.362 15.7974C39.0686 15.3211 38.7323 14.8727 38.3572 14.4577C37.8599 13.917 37.2974 13.4402 36.6826 13.0382C35.5804 12.3158 34.3341 11.8423 33.0303 11.6507H32.9665H32.6555C31.834 11.5987 31.0096 11.6822 30.2153 11.8979C28.5688 12.3256 27.1446 13.3595 26.228 14.7926L26.1881 14.8484C24.8803 17.1451 25.0239 19.7129 26.5709 21.3955C26.9809 21.9035 27.5053 22.3071 28.1014 22.5732C28.6974 22.8394 29.3481 22.9605 30 22.9266C30.5678 22.8783 31.1153 22.6922 31.5949 22.3843L31.6746 22.3285L31.8022 22.2408C32.0108 22.0996 32.1829 21.911 32.3046 21.6905C32.5234 21.3556 32.6332 20.9612 32.6189 20.5615C32.6046 20.1617 32.467 19.7761 32.2248 19.4577L32.161 19.2663C31.3237 18.4688 31.6188 17.9425 32.161 17.8628C32.3512 17.8415 32.5437 17.8658 32.7226 17.9338C32.9015 18.0017 33.0617 18.1113 33.1898 18.2535C33.6067 18.7017 33.8982 19.2518 34.035 19.8484C34.096 20.1689 34.1175 20.4956 34.0988 20.8213C34.0398 21.4424 33.829 22.0394 33.4848 22.5598C33.2163 22.9252 32.8967 23.2501 32.5359 23.5247C31.8926 24.02 31.1312 24.3388 30.3269 24.4497H30.2312C28.6896 24.5955 27.153 24.1253 25.9569 23.1419C25.2793 22.5923 24.7186 21.9126 24.3077 21.1429C23.8968 20.3732 23.6442 19.5291 23.5645 18.6602C23.4144 17.2391 23.6551 15.8039 24.2608 14.5096C24.8665 13.2153 25.8142 12.1109 27.0015 11.3157C28.0563 10.574 29.2585 10.0681 30.5263 9.83246C31.3338 9.68703 32.1571 9.64948 32.9745 9.72082C33.5819 9.76569 34.1831 9.87258 34.7687 10.0398C35.1821 10.1426 35.5872 10.2758 35.9808 10.4385C36.3317 10.5927 36.6746 10.7602 37.0095 10.9409C37.6084 11.2648 38.1723 11.6496 38.6922 12.0892C39.4922 12.7786 40.1832 13.5852 40.7416 14.4816C41.2742 15.3311 41.69 16.2484 41.9777 17.2089C42.1745 17.8626 42.3133 18.5324 42.3923 19.2105C42.4491 19.6762 42.4784 20.1448 42.4801 20.614C42.4801 20.7177 42.4801 20.8213 42.4801 20.925C42.4386 22.4931 42.072 24.0354 41.4035 25.4545C41.1539 25.9876 40.8661 26.502 40.5422 26.9936C40.2751 27.398 39.9849 27.7868 39.673 28.1579C39.2352 28.6976 38.7523 29.1991 38.2296 29.6571C37.6057 30.2014 36.933 30.6872 36.2201 31.1084C35.6917 31.4121 35.1428 31.6786 34.5773 31.9059C33.8389 32.2017 33.0757 32.4312 32.2966 32.5917L32.0414 32.6395C32.2571 31.994 32.4093 31.329 32.496 30.6539Z" fill="#34B1ED"/>
<path d="M21.8347 6.06872C21.8347 6.66175 21.6589 7.24147 21.3294 7.73455C20.9999 8.22764 20.5316 8.61195 19.9837 8.83889C19.4359 9.06584 18.833 9.12521 18.2513 9.00952C17.6697 8.89383 17.1354 8.60825 16.7161 8.18892C16.2968 7.76958 16.0112 7.23532 15.8955 6.65369C15.7798 6.07205 15.8392 5.46917 16.0661 4.92128C16.2931 4.37339 16.6774 3.90511 17.1705 3.57564C17.6636 3.24617 18.2433 3.07031 18.8363 3.07031C19.6315 3.07031 20.3942 3.38622 20.9565 3.94853C21.5188 4.51084 21.8347 5.2735 21.8347 6.06872Z" fill="white"/>
<path d="M18.8349 9.86455C18.0842 9.86455 17.3503 9.64193 16.7261 9.22483C16.1018 8.80774 15.6153 8.21491 15.328 7.5213C15.0407 6.8277 14.9655 6.06448 15.112 5.32815C15.2585 4.59183 15.62 3.91547 16.1508 3.38461C16.6817 2.85375 17.3581 2.49223 18.0944 2.34577C18.8307 2.1993 19.5939 2.27447 20.2875 2.56177C20.9811 2.84907 21.574 3.3356 21.9911 3.95982C22.4082 4.58405 22.6308 5.31794 22.6308 6.06869C22.6287 7.07477 22.2281 8.03904 21.5167 8.75044C20.8053 9.46185 19.841 9.86244 18.8349 9.86455ZM18.8349 3.86773C18.3996 3.86773 17.9741 3.99681 17.6121 4.23866C17.2502 4.4805 16.9681 4.82424 16.8015 5.22642C16.6349 5.62859 16.5913 6.07113 16.6763 6.49808C16.7612 6.92502 16.9708 7.31719 17.2786 7.625C17.5864 7.93281 17.9786 8.14243 18.4055 8.22736C18.8325 8.31228 19.275 8.2687 19.6772 8.10211C20.0794 7.93553 20.4231 7.65342 20.665 7.29148C20.9068 6.92953 21.0359 6.504 21.0359 6.06869C21.0338 5.48561 20.8012 4.927 20.3889 4.5147C19.9766 4.10239 19.418 3.86983 18.8349 3.86773Z" fill="#34B1ED"/>
<path d="M18.7883 10.8534C18.7899 11.2972 18.6596 11.7316 18.414 12.1013C18.1684 12.471 17.8185 12.7595 17.4087 12.9301C16.9989 13.1006 16.5477 13.1457 16.1123 13.0595C15.6768 12.9733 15.2768 12.7597 14.963 12.4458C14.6491 12.132 14.4355 11.732 14.3493 11.2965C14.2631 10.8611 14.3082 10.4099 14.4787 10.0001C14.6493 9.59033 14.9378 9.24044 15.3075 8.99482C15.6772 8.7492 16.1116 8.61892 16.5554 8.6205C17.1476 8.6205 17.7156 8.85574 18.1343 9.27449C18.553 9.69323 18.7883 10.2612 18.7883 10.8534Z" fill="white"/>
<path d="M16.5541 13.8914C15.9528 13.893 15.3646 13.7161 14.8639 13.3832C14.3632 13.0503 13.9726 12.5764 13.7414 12.0213C13.5102 11.4663 13.4489 10.8551 13.5652 10.2653C13.6816 9.67536 13.9703 9.13325 14.3949 8.70754C14.8195 8.28183 15.3608 7.99167 15.9504 7.87379C16.54 7.75591 17.1513 7.81561 17.7069 8.04533C18.2626 8.27506 18.7376 8.66447 19.0718 9.16429C19.406 9.6641 19.5844 10.2518 19.5844 10.8531C19.5823 11.6569 19.2626 12.4272 18.695 12.9964C18.1274 13.5655 17.3578 13.8872 16.5541 13.8914ZM16.5541 9.41768C16.2679 9.41611 15.9878 9.49962 15.7492 9.65761C15.5106 9.81561 15.3244 10.0409 15.2141 10.305C15.1039 10.5691 15.0746 10.86 15.1301 11.1407C15.1855 11.4214 15.3232 11.6793 15.5255 11.8817C15.7278 12.084 15.9858 12.2216 16.2665 12.2771C16.5472 12.3325 16.8381 12.3033 17.1021 12.193C17.3662 12.0828 17.5916 11.8966 17.7496 11.658C17.9075 11.4194 17.9911 11.1392 17.9895 10.8531C17.9874 10.473 17.8355 10.1092 17.5667 9.84042C17.298 9.57168 16.9341 9.41978 16.5541 9.41768Z" fill="#34B1ED"/>
<path d="M23.5572 6.11631C24.7948 6.11631 25.7981 5.11306 25.7981 3.87548C25.7981 2.6379 24.7948 1.63464 23.5572 1.63464C22.3197 1.63464 21.3164 2.6379 21.3164 3.87548C21.3164 5.11306 22.3197 6.11631 23.5572 6.11631Z" fill="white"/>
<path d="M23.5559 6.91385C22.9549 6.91385 22.3675 6.73566 21.8679 6.4018C21.3682 6.06795 20.9788 5.59344 20.7489 5.03827C20.5189 4.48309 20.4587 3.87219 20.576 3.28283C20.6932 2.69346 20.9826 2.15209 21.4075 1.72717C21.8324 1.30226 22.3738 1.01289 22.9631 0.895661C23.5525 0.778429 24.1634 0.838597 24.7186 1.06856C25.2737 1.29852 25.7483 1.68794 26.0821 2.18759C26.416 2.68723 26.5942 3.27465 26.5942 3.87557C26.592 4.68072 26.2713 5.4523 25.7019 6.02163C25.1326 6.59096 24.361 6.91174 23.5559 6.91385ZM23.5559 2.44016C23.27 2.44016 22.9907 2.52502 22.7531 2.68397C22.5156 2.84293 22.3306 3.06883 22.2216 3.33304C22.1126 3.59725 22.0845 3.88787 22.1408 4.16807C22.1972 4.44828 22.3354 4.70545 22.5381 4.90699C22.7408 5.10853 22.9987 5.24537 23.2792 5.30016C23.5597 5.35494 23.8502 5.32522 24.1138 5.21475C24.3774 5.10428 24.6022 4.91804 24.7599 4.67963C24.9175 4.44122 25.0008 4.16137 24.9993 3.87557C24.9971 3.49414 24.8441 3.12905 24.5737 2.86009C24.3032 2.59113 23.9373 2.44015 23.5559 2.44016Z" fill="#34B1ED"/>
<path d="M18.2861 16.5232C18.2876 17.2601 18.0706 17.9809 17.6623 18.5944C17.2541 19.2079 16.673 19.6864 15.9927 19.9695C15.3123 20.2526 14.5633 20.3275 13.8403 20.1847C13.1174 20.0419 12.4531 19.6879 11.9315 19.1674C11.4099 18.6469 11.0544 17.9833 10.91 17.2607C10.7657 16.5381 10.839 15.7889 11.1206 15.1079C11.4022 14.427 11.8796 13.8449 12.4922 13.4353C13.1048 13.0257 13.8251 12.8071 14.562 12.8071C15.5483 12.8071 16.4943 13.1984 17.1925 13.8951C17.8907 14.5917 18.284 15.5369 18.2861 16.5232Z" fill="white"/>
<path d="M14.5606 21.0445C13.6663 21.0445 12.7921 20.7794 12.0486 20.2825C11.305 19.7857 10.7255 19.0795 10.3832 18.2533C10.041 17.4271 9.95148 16.518 10.1259 15.6409C10.3004 14.7638 10.731 13.9581 11.3634 13.3258C11.9957 12.6934 12.8014 12.2628 13.6785 12.0883C14.5556 11.9139 15.4647 12.0034 16.2909 12.3456C17.1171 12.6879 17.8233 13.2674 18.3201 14.011C18.817 14.7545 19.0821 15.6287 19.0821 16.523C19.08 17.7215 18.603 18.8704 17.7555 19.7179C16.908 20.5654 15.7591 21.0424 14.5606 21.0445ZM14.5606 13.6043C13.9814 13.6043 13.4153 13.7762 12.9338 14.0981C12.4524 14.4201 12.0773 14.8776 11.856 15.4129C11.6347 15.9481 11.5772 16.537 11.6908 17.1049C11.8044 17.6728 12.0839 18.1943 12.494 18.6033C12.9041 19.0122 13.4263 19.2903 13.9945 19.4024C14.5628 19.5144 15.1515 19.4553 15.6861 19.2325C16.2207 19.0098 16.6773 18.6335 16.9979 18.1511C17.3185 17.6688 17.4888 17.1022 17.4872 16.523C17.4872 16.1391 17.4115 15.7589 17.2643 15.4042C17.1171 15.0496 16.9014 14.7275 16.6296 14.4564C16.3577 14.1852 16.035 13.9704 15.68 13.8242C15.3249 13.678 14.9446 13.6033 14.5606 13.6043Z" fill="#34B1ED"/>
<path d="M18.2702 23.6124C18.2718 24.2152 18.0945 24.805 17.7607 25.307C17.427 25.809 16.9518 26.2006 16.3953 26.4324C15.8388 26.6642 15.226 26.7257 14.6346 26.609C14.0432 26.4924 13.4996 26.2029 13.0728 25.7772C12.646 25.3515 12.355 24.8087 12.2369 24.2176C12.1187 23.6265 12.1785 23.0135 12.4089 22.4565C12.6392 21.8994 13.0296 21.4231 13.5307 21.088C14.0319 20.753 14.6212 20.5741 15.224 20.5741C16.0305 20.5741 16.8041 20.8939 17.3752 21.4635C17.9463 22.0331 18.2681 22.8058 18.2702 23.6124Z" fill="white"/>
<path d="M15.2226 27.4563C14.4624 27.4563 13.7193 27.2309 13.0872 26.8086C12.4551 26.3862 11.9624 25.7859 11.6715 25.0836C11.3806 24.3812 11.3045 23.6084 11.4528 22.8628C11.6011 22.1172 11.9672 21.4323 12.5047 20.8947C13.0423 20.3572 13.7271 19.9911 14.4727 19.8428C15.2184 19.6945 15.9912 19.7706 16.6935 20.0615C17.3959 20.3524 17.9962 20.8451 18.4185 21.4772C18.8409 22.1093 19.0663 22.8524 19.0663 23.6126C19.0663 24.632 18.6614 25.6097 17.9405 26.3305C17.2197 27.0514 16.242 27.4563 15.2226 27.4563ZM15.2226 21.3718C14.7775 21.3718 14.3424 21.5039 13.9724 21.7513C13.6024 21.9988 13.3142 22.3505 13.1442 22.7619C12.9743 23.1733 12.9302 23.6258 13.0176 24.0623C13.105 24.4987 13.32 24.8994 13.6353 25.2136C13.9506 25.5278 14.352 25.7413 14.7888 25.8272C15.2255 25.913 15.678 25.8674 16.0887 25.6959C16.4995 25.5245 16.8502 25.235 17.0963 24.8642C17.3425 24.4933 17.473 24.0577 17.4714 23.6126C17.4714 23.3177 17.4132 23.0256 17.3001 22.7533C17.187 22.4809 17.0212 22.2335 16.8123 22.0253C16.6034 21.8171 16.3554 21.6522 16.0826 21.5401C15.8098 21.4279 15.5176 21.3707 15.2226 21.3718Z" fill="#34B1ED"/>
<path d="M21.316 26.7465C21.316 27.1251 21.2038 27.4951 20.9935 27.8098C20.7832 28.1246 20.4843 28.3699 20.1346 28.5147C19.7849 28.6596 19.4 28.6975 19.0288 28.6236C18.6575 28.5498 18.3165 28.3675 18.0488 28.0998C17.7812 27.8322 17.5989 27.4912 17.5251 27.1199C17.4512 26.7486 17.4891 26.3638 17.634 26.0141C17.7788 25.6644 18.0241 25.3655 18.3389 25.1552C18.6536 24.9449 19.0236 24.8326 19.4022 24.8326C19.6535 24.8326 19.9024 24.8821 20.1346 24.9783C20.3668 25.0745 20.5778 25.2155 20.7555 25.3932C20.9332 25.5709 21.0742 25.7819 21.1704 26.0141C21.2665 26.2463 21.316 26.4952 21.316 26.7465Z" fill="white"/>
<path d="M19.4008 29.4579C18.8645 29.4579 18.3403 29.2989 17.8945 29.001C17.4486 28.7031 17.1011 28.2796 16.8958 27.7842C16.6906 27.2888 16.6369 26.7436 16.7416 26.2177C16.8462 25.6917 17.1044 25.2086 17.4836 24.8294C17.8628 24.4502 18.3459 24.192 18.8718 24.0874C19.3978 23.9828 19.9429 24.0365 20.4384 24.2417C20.9338 24.4469 21.3572 24.7944 21.6552 25.2403C21.9531 25.6862 22.1121 26.2104 22.1121 26.7466C22.11 27.4651 21.8237 28.1535 21.3157 28.6615C20.8076 29.1695 20.1192 29.4558 19.4008 29.4579ZM19.4008 25.6302C19.18 25.6302 18.9641 25.6957 18.7805 25.8183C18.5969 25.941 18.4538 26.1154 18.3693 26.3194C18.2848 26.5234 18.2627 26.7478 18.3058 26.9644C18.3489 27.181 18.4552 27.3799 18.6113 27.536C18.7675 27.6922 18.9664 27.7985 19.183 27.8416C19.3995 27.8847 19.624 27.8626 19.828 27.7781C20.032 27.6936 20.2064 27.5505 20.3291 27.3669C20.4517 27.1833 20.5172 26.9674 20.5172 26.7466C20.513 26.4533 20.3935 26.1734 20.1846 25.9675C19.9757 25.7615 19.6941 25.6461 19.4008 25.6461V25.6302Z" fill="#34B1ED"/>
<path d="M24.4105 29.3063C24.4105 29.6123 24.3198 29.9114 24.1498 30.1658C23.9798 30.4202 23.7382 30.6185 23.4555 30.7356C23.1728 30.8527 22.8617 30.8833 22.5616 30.8237C22.2615 30.764 21.9859 30.6166 21.7695 30.4003C21.5532 30.1839 21.4058 29.9082 21.3461 29.6081C21.2864 29.308 21.3171 28.997 21.4342 28.7143C21.5513 28.4316 21.7496 28.19 22.004 28.02C22.2584 27.85 22.5575 27.7593 22.8635 27.7593C23.2738 27.7593 23.6673 27.9223 23.9574 28.2124C24.2475 28.5025 24.4105 28.896 24.4105 29.3063Z" fill="white"/>
<path d="M22.8621 31.6508C22.3984 31.6508 21.9451 31.5133 21.5595 31.2557C21.174 30.9981 20.8735 30.6319 20.696 30.2035C20.5186 29.7751 20.4722 29.3037 20.5626 28.8489C20.6531 28.3941 20.8764 27.9764 21.2043 27.6485C21.5322 27.3206 21.9499 27.0973 22.4047 27.0068C22.8595 26.9164 23.3309 26.9628 23.7593 27.1403C24.1877 27.3177 24.5538 27.6182 24.8115 28.0038C25.0691 28.3893 25.2066 28.8426 25.2066 29.3063C25.2066 29.9281 24.9596 30.5244 24.5199 30.9641C24.0802 31.4038 23.4839 31.6508 22.8621 31.6508ZM22.8621 28.5567C22.7138 28.5567 22.5689 28.6007 22.4456 28.683C22.3224 28.7654 22.2263 28.8825 22.1695 29.0194C22.1128 29.1564 22.098 29.3071 22.1269 29.4525C22.1558 29.5979 22.2272 29.7315 22.332 29.8363C22.4369 29.9412 22.5704 30.0126 22.7158 30.0415C22.8613 30.0704 23.012 30.0556 23.1489 29.9988C23.2859 29.9421 23.403 29.846 23.4854 29.7228C23.5677 29.5995 23.6117 29.4546 23.6117 29.3063C23.6117 29.1075 23.5327 28.9168 23.3921 28.7762C23.2516 28.6357 23.0609 28.5567 22.8621 28.5567Z" fill="#34B1ED"/>
<path d="M6.46656 3.97926C6.46656 4.55844 6.29471 5.12459 5.97278 5.60604C5.65084 6.0875 5.19329 6.46261 4.65805 6.68388C4.12281 6.90516 3.53395 6.96265 2.96602 6.84907C2.39809 6.7355 1.87663 6.45597 1.46765 6.04588C1.05867 5.63578 0.780571 5.11356 0.668548 4.54532C0.556526 3.97708 0.615621 3.38838 0.838355 2.85375C1.06109 2.31912 1.43745 1.86259 1.91978 1.54197C2.40211 1.22135 2.96872 1.05105 3.5479 1.05262C4.32271 1.05473 5.06506 1.36401 5.61219 1.91263C6.15932 2.46125 6.46657 3.20445 6.46656 3.97926Z" fill="#34B1ED"/>
<path d="M2.46325 3.87576C2.46325 4.41005 2.16022 4.84068 1.78542 4.84068C1.41062 4.84068 1.09961 4.41005 1.09961 3.87576C1.09961 3.34147 1.41062 2.91882 1.78542 2.91882C2.16022 2.91882 2.46325 3.31755 2.46325 3.87576Z" fill="white"/>
<path d="M13.6591 2.27275C13.6606 2.7245 13.528 3.16655 13.278 3.54283C13.028 3.91911 12.6719 4.21267 12.2548 4.38628C11.8378 4.55989 11.3785 4.60572 10.9354 4.51798C10.4922 4.43023 10.0851 4.21285 9.76566 3.89341C9.44622 3.57397 9.22884 3.16685 9.14109 2.7237C9.05335 2.28054 9.09918 1.82131 9.27279 1.40424C9.4464 0.987173 9.73996 0.631057 10.1162 0.381058C10.4925 0.131058 10.9346 -0.00156293 11.3863 1.38992e-05C11.9884 0.00211556 12.5653 0.242238 12.9911 0.668003C13.4168 1.09377 13.657 1.67063 13.6591 2.27275Z" fill="#34B1ED"/>
<path d="M10.5411 2.1928C10.5411 2.60747 10.3098 2.9424 10.0148 2.9424C9.7197 2.9424 9.48047 2.60747 9.48047 2.1928C9.48047 1.77813 9.7197 1.45117 10.0148 1.45117C10.3098 1.45117 10.5411 1.7861 10.5411 2.1928Z" fill="white"/>
<path d="M6.02147 16.8741C6.02147 17.2259 5.91717 17.5697 5.72177 17.8621C5.52637 18.1546 5.24863 18.3825 4.92369 18.5171C4.59874 18.6517 4.24118 18.6869 3.89622 18.6183C3.55127 18.5497 3.2344 18.3803 2.9857 18.1316C2.73699 17.8829 2.56763 17.566 2.49901 17.2211C2.4304 16.8761 2.46561 16.5185 2.60021 16.1936C2.73481 15.8687 2.96274 15.5909 3.25518 15.3955C3.54762 15.2001 3.89144 15.0958 4.24316 15.0958C4.71479 15.0958 5.16712 15.2832 5.50061 15.6167C5.83411 15.9502 6.02147 16.4025 6.02147 16.8741Z" fill="#34B1ED"/>
<path d="M3.58911 16.7782C3.58911 17.0972 3.4057 17.3604 3.17444 17.3604C2.94318 17.3604 2.75977 17.0972 2.75977 16.7782C2.75977 16.4592 2.94318 16.1881 3.17444 16.1881C3.4057 16.1881 3.58911 16.4513 3.58911 16.7782Z" fill="white"/>
<path d="M10.5976 9.89645C10.5976 10.3337 10.4678 10.7611 10.2247 11.1245C9.98165 11.4879 9.63619 11.771 9.2321 11.938C8.828 12.1049 8.38344 12.1482 7.95474 12.0623C7.52603 11.9765 7.13246 11.7653 6.82385 11.4556C6.51525 11.1458 6.30549 10.7515 6.22116 10.3225C6.13683 9.89347 6.18172 9.44908 6.35013 9.04559C6.51855 8.6421 6.80291 8.29766 7.16722 8.0559C7.53152 7.81414 7.95938 7.68594 8.3966 7.68751C8.98106 7.68962 9.54087 7.92328 9.9534 8.33731C10.3659 8.75134 10.5976 9.31198 10.5976 9.89645Z" fill="#34B1ED"/>
<path d="M7.5834 9.8165C7.5834 10.2152 7.35214 10.5422 7.06505 10.5422C6.77797 10.5422 6.55469 10.2152 6.55469 9.8165C6.55469 9.41777 6.78595 9.09082 7.06505 9.09082C7.34416 9.09082 7.5834 9.41777 7.5834 9.8165Z" fill="white"/>
<path d="M8.73221 30.8614C9.94776 30.8614 10.9332 29.876 10.9332 28.6604C10.9332 27.4449 9.94776 26.4595 8.73221 26.4595C7.51665 26.4595 6.53125 27.4449 6.53125 28.6604C6.53125 29.876 7.51665 30.8614 8.73221 30.8614Z" fill="#34B1ED"/>
<path d="M7.91934 28.5807C7.91934 28.9794 7.68807 29.3063 7.40099 29.3063C7.11391 29.3063 6.89062 28.9794 6.89062 28.5807C6.89062 28.1819 7.12188 27.855 7.40099 27.855C7.6801 27.855 7.91934 28.1819 7.91934 28.5807Z" fill="white"/>
<path d="M10.1273 22.456C10.1289 22.7342 10.0477 23.0067 9.8941 23.2387C9.74049 23.4707 9.52138 23.6519 9.2646 23.7591C9.00782 23.8663 8.72496 23.8948 8.45196 23.8409C8.17897 23.787 7.92815 23.6531 7.73139 23.4564C7.53463 23.2596 7.4008 23.0088 7.3469 22.7358C7.293 22.4628 7.32146 22.1799 7.42867 21.9232C7.53589 21.6664 7.71702 21.4473 7.94904 21.2937C8.18107 21.14 8.45351 21.0589 8.73177 21.0604C9.10189 21.0604 9.45686 21.2075 9.71857 21.4692C9.98029 21.7309 10.1273 22.0859 10.1273 22.456Z" fill="#34B1ED"/>
<path d="M8.21446 22.3923C8.21446 22.6475 8.07092 22.8469 7.8875 22.8469C7.70409 22.8469 7.56055 22.6475 7.56055 22.3923C7.56055 22.1371 7.71207 21.9298 7.8875 21.9298C8.06294 21.9298 8.21446 22.1371 8.21446 22.3923Z" fill="white"/>
<path d="M1.10048 12.0893C1.70826 12.0893 2.20096 11.5966 2.20096 10.9888C2.20096 10.381 1.70826 9.88831 1.10048 9.88831C0.4927 9.88831 0 10.381 0 10.9888C0 11.5966 0.4927 12.0893 1.10048 12.0893Z" fill="#34B1ED"/>
<path d="M0.701937 10.9568C0.701937 11.1562 0.582318 11.3156 0.438777 11.3156C0.295236 11.3156 0.183594 11.1562 0.183594 10.9568C0.183594 10.7574 0.303211 10.59 0.438777 10.59C0.574344 10.59 0.701937 10.7574 0.701937 10.9568Z" fill="white"/>
<path d="M3.85916 23.6126C3.85916 23.8302 3.79463 24.043 3.6737 24.224C3.55278 24.4049 3.3809 24.546 3.17982 24.6293C2.97873 24.7126 2.75746 24.7344 2.54399 24.6919C2.33052 24.6494 2.13443 24.5446 1.98053 24.3907C1.82662 24.2368 1.72181 24.0407 1.67935 23.8273C1.63689 23.6138 1.65868 23.3925 1.74197 23.1914C1.82527 22.9903 1.96632 22.8185 2.14729 22.6975C2.32827 22.5766 2.54103 22.5121 2.75869 22.5121C3.05055 22.5121 3.33046 22.628 3.53684 22.8344C3.74322 23.0408 3.85916 23.3207 3.85916 23.6126Z" fill="#34B1ED"/>
<path d="M2.09698 23.9395C2.23791 23.9395 2.35216 23.7788 2.35216 23.5807C2.35216 23.3825 2.23791 23.2218 2.09698 23.2218C1.95605 23.2218 1.8418 23.3825 1.8418 23.5807C1.8418 23.7788 1.95605 23.9395 2.09698 23.9395Z" fill="white"/>
</svg>
