<svg width="36" height="40" viewBox="0 0 36 40" fill="none" xmlns="http://www.w3.org/2000/svg">
<g opacity="0.6">
<path d="M1.71119 27.7426C-0.771824 13.9486 8.02011 6.03091 8.12375 5.99036L8.2995 6.40494L8.59241 6.74743C8.50679 6.82404 0.251119 14.548 2.59443 27.5849L1.71119 27.7426Z" fill="#B2B2B2"/>
<path d="M20.1298 31.0818L17.8766 31.9605L12.7168 5.67034L13.6451 5.31433L20.1298 31.0818Z" fill="#34B1ED"/>
<path d="M28.5878 27.7922L26.3391 28.6664L16.1953 4.31852L17.1236 3.95801L28.5878 27.7922Z" fill="#34B1ED"/>
<path d="M32.8181 26.1474L30.5695 27.0217L17.9336 3.64262L18.8619 3.2821L32.8181 26.1474Z" fill="#34B1ED"/>
<path d="M15.4833 2.80887C13.1435 3.59081 11.0502 4.97388 9.41322 6.81954C9.2273 7.03328 8.969 7.17083 8.68787 7.20576C8.40675 7.24069 8.12263 7.17056 7.89006 7.00881C7.77631 6.91138 7.68413 6.79129 7.61941 6.65622C7.55469 6.52115 7.51886 6.37408 7.51419 6.22438C7.50953 6.07468 7.53614 5.92565 7.59232 5.78681C7.64851 5.64798 7.73303 5.52238 7.8405 5.41806C9.71726 3.28967 12.1195 1.69078 14.8073 0.781006L15.4833 2.80887Z" fill="#DADADA"/>
<path d="M19.3084 3.36784C17.1756 4.61001 14.8613 5.51019 12.4497 6.03561L11.7422 5.10279L19.2002 2.20068L19.3084 3.36784Z" fill="#DADADA"/>
<path d="M19.2057 2.19606L11.7341 5.10267V5.07113C11.4102 4.23259 11.4318 3.29987 11.7941 2.47721C12.1565 1.65456 12.83 1.009 13.6673 0.68192L14.821 0.231283C15.2355 0.0696322 15.6778 -0.00870109 16.1226 0.000766351C16.5674 0.0102338 17.006 0.107316 17.4132 0.286458C17.8205 0.465599 18.1884 0.723284 18.496 1.04477C18.8036 1.36625 19.0447 1.74523 19.2057 2.16001V2.19606Z" fill="#95BCC2"/>
<path d="M13.1118 2.96675C12.9315 3.46696 12.5485 3.79141 12.2601 3.68326C11.9717 3.57511 11.877 3.08842 12.0618 2.58821C12.2466 2.088 12.6251 1.76355 12.9135 1.86719C13.2019 1.97084 13.292 2.46654 13.1118 2.96675Z" fill="white"/>
<path d="M27.6375 38.2381H7.75089C6.03063 38.2381 4.38077 37.5551 3.16394 36.3391C1.94712 35.1231 1.26291 33.4737 1.26172 31.7534V27.6617C12.8836 27.896 23.6358 26.9226 34.1267 25.5842V31.7534C34.1255 33.4737 33.4413 35.1231 32.2244 36.3391C31.0076 37.5551 29.3578 38.2381 27.6375 38.2381Z" fill="#B7D4D9"/>
<path d="M4.65873 28.8871C3.52613 28.8871 2.38602 28.8766 1.2384 28.8556C1.07587 28.8616 0.913828 28.8344 0.762207 28.7755C0.610586 28.7167 0.47258 28.6275 0.35665 28.5135C0.24072 28.3994 0.14931 28.2629 0.0880256 28.1122C0.0267413 27.9616 -0.00312295 27.8 0.000258136 27.6374C0.00363922 27.4748 0.0401978 27.3146 0.107691 27.1666C0.175185 27.0187 0.272193 26.886 0.392764 26.7769C0.513335 26.6677 0.654919 26.5844 0.808855 26.5319C0.962791 26.4794 1.12583 26.4589 1.28796 26.4717C13.8833 26.7241 25.3745 25.4983 33.9727 24.4033C34.1277 24.3835 34.2851 24.3944 34.436 24.4354C34.5868 24.4764 34.7281 24.5467 34.8517 24.6424C34.9754 24.738 35.079 24.857 35.1567 24.9927C35.2343 25.1283 35.2845 25.2779 35.3043 25.433C35.3241 25.588 35.3132 25.7455 35.2722 25.8963C35.2312 26.0471 35.1608 26.1884 35.0652 26.3121C34.9696 26.4357 34.8506 26.5393 34.7149 26.617C34.5793 26.6946 34.4296 26.7448 34.2746 26.7646C26.3794 27.7741 16.0598 28.8871 4.65873 28.8871Z" fill="#DADADA"/>
<path d="M6.23151 36.422H6.21348C5.7655 36.422 5.40234 36.7852 5.40234 37.2332V39.1889C5.40234 39.6369 5.7655 40.0001 6.21348 40.0001H6.23151C6.6795 40.0001 7.04266 39.6369 7.04266 39.1889V37.2332C7.04266 36.7852 6.6795 36.422 6.23151 36.422Z" fill="#DADADA"/>
<path d="M28.1319 36.422H28.1139C27.6659 36.422 27.3027 36.7852 27.3027 37.2332V39.1889C27.3027 39.6369 27.6659 40.0001 28.1139 40.0001H28.1319C28.5799 40.0001 28.943 39.6369 28.943 39.1889V37.2332C28.943 36.7852 28.5799 36.422 28.1319 36.422Z" fill="#DADADA"/>
<g opacity="0.05">
<path d="M6.89816 36.3228C5.5823 36.3228 4.28897 36.2687 3.01367 36.1786C3.6787 36.8887 4.49498 37.4401 5.40204 37.7919V39.1844C5.40263 39.2907 5.42423 39.3958 5.46559 39.4938C5.50696 39.5917 5.56728 39.6805 5.64308 39.755C5.71888 39.8296 5.80866 39.8884 5.90728 39.9281C6.00589 39.9679 6.11139 39.9877 6.21769 39.9865C6.43282 39.9865 6.63914 39.901 6.79126 39.7489C6.94338 39.5968 7.02884 39.3905 7.02884 39.1754V38.184C7.26368 38.2112 7.49992 38.2247 7.73634 38.2245H27.2895V39.1709C27.2895 39.386 27.3749 39.5923 27.5271 39.7444C27.6792 39.8965 27.8855 39.982 28.1006 39.982C28.3158 39.982 28.5221 39.8965 28.6742 39.7444C28.8263 39.5923 28.9118 39.386 28.9118 39.1709V38.0938C30.3745 37.7922 31.6886 36.9956 32.6326 35.8382C33.5766 34.6808 34.0927 33.2334 34.0941 31.7399V27.0532C28.8487 32.5825 18.6373 36.3228 6.89816 36.3228Z" fill="#1A1A16"/>
</g>
</g>
</svg>
