<svg width="49" height="40" viewBox="0 0 49 40" fill="none" xmlns="http://www.w3.org/2000/svg">
<path d="M48.1459 25.5719H0V40.0001H48.1459V25.5719Z" fill="#8FDAFF"/>
<path d="M48.1459 27.2762C46.5869 27.3047 45.0471 26.979 43.6857 26.3328C42.591 25.833 41.3676 25.5713 40.1249 25.5713C38.8822 25.5713 37.6588 25.833 36.5641 26.3328C35.1904 26.9523 33.659 27.2762 32.1039 27.2762C30.5488 27.2762 29.0174 26.9523 27.6438 26.3328C26.5479 25.833 25.3234 25.5713 24.0796 25.5713C22.8358 25.5713 21.6114 25.833 20.5155 26.3328C19.1418 26.9523 17.6104 27.2762 16.0553 27.2762C14.5002 27.2762 12.9688 26.9523 11.5951 26.3328C10.4992 25.833 9.27479 25.5713 8.03101 25.5713C6.78722 25.5713 5.56276 25.833 4.46686 26.3328C3.10335 26.9798 1.56125 27.3054 0 27.2762V25.5714C1.24855 25.5998 2.48204 25.3343 3.56414 24.8042C4.94042 24.1885 6.47235 23.8668 8.02766 23.8668C9.58297 23.8668 11.1149 24.1885 12.4912 24.8042C13.5858 25.3075 14.8107 25.5711 16.0553 25.5711C17.2999 25.5711 18.5248 25.3075 19.6194 24.8042C20.9945 24.1886 22.5254 23.8668 24.0796 23.8668C25.6339 23.8668 27.1647 24.1886 28.5398 24.8042C29.6344 25.3075 30.8594 25.5711 32.1039 25.5711C33.3485 25.5711 34.5735 25.3075 35.6681 24.8042C37.0432 24.1886 38.574 23.8668 40.1283 23.8668C41.6825 23.8668 43.2133 24.1886 44.5884 24.8042C45.6684 25.3335 46.8995 25.599 48.1459 25.5714V27.2762Z" fill="#34B1ED"/>
<path d="M8.69214 5.11414C8.70333 5.64777 8.57565 6.17479 8.3223 6.64079C8.12632 7.01548 8.02374 7.43423 8.02374 7.85959C8.02374 8.28496 8.12632 8.7037 8.3223 9.0784C8.56516 9.54859 8.69215 10.0728 8.69215 10.605C8.69215 11.1373 8.56516 11.6615 8.3223 12.1317C8.12632 12.5068 8.02375 12.9259 8.02375 13.3517C8.02375 13.7774 8.12632 14.1965 8.3223 14.5716C8.56516 15.0418 8.69215 15.566 8.69215 16.0983C8.69215 16.6305 8.56516 17.1547 8.3223 17.6249C8.12632 18 8.02375 18.4191 8.02375 18.8449C8.02375 19.2706 8.12632 19.6897 8.3223 20.0648C8.57594 20.5315 8.70362 21.0594 8.69214 21.5937L8.02376 21.5937C8.0349 21.1664 7.9308 20.7442 7.72298 20.3738C7.4816 19.9027 7.35547 19.3784 7.35547 18.846C7.35547 18.3136 7.4816 17.7893 7.72298 17.3182C7.92032 16.9435 8.02366 16.5243 8.02366 16.0983C8.02366 15.6723 7.92032 15.253 7.72298 14.8783C7.48161 14.4076 7.35547 13.8836 7.35547 13.3517C7.35547 12.8197 7.48161 12.2957 7.72298 11.825C7.92032 11.4503 8.02366 11.031 8.02366 10.605C8.02366 10.1791 7.92032 9.75977 7.72298 9.3851C7.48161 8.91443 7.35547 8.39044 7.35547 7.85845C7.35547 7.32645 7.48161 6.80247 7.72298 6.3318C7.93051 5.96212 8.0346 5.54074 8.02376 5.11414L8.69214 5.11414Z" fill="#8BDC9D"/>
<path d="M18.0535 -0.00012212C18.0647 0.533509 17.937 1.06053 17.6836 1.52653C17.4876 1.90123 17.3851 2.31997 17.3851 2.74533C17.3851 3.1707 17.4876 3.58944 17.6836 3.96414C17.9265 4.43433 18.0535 4.9585 18.0535 5.49079C18.0535 6.02308 17.9265 6.54726 17.6836 7.01745C17.4876 7.39256 17.3851 7.81166 17.3851 8.23739C17.3851 8.66312 17.4876 9.08224 17.6836 9.45735C17.9265 9.92754 18.0535 10.4517 18.0535 10.984C18.0535 11.5163 17.9265 12.0405 17.6836 12.5107C17.4876 12.8858 17.3851 13.3049 17.3851 13.7306C17.3851 14.1563 17.4876 14.5754 17.6836 14.9506C17.9373 15.4173 18.0649 15.9451 18.0535 16.4795L17.3851 16.4795C17.3962 16.0521 17.2921 15.6299 17.0843 15.2595C16.8429 14.7885 16.7168 14.2641 16.7168 13.7317C16.7168 13.1994 16.8429 12.675 17.0843 12.2039C17.2816 11.8293 17.385 11.41 17.385 10.984C17.385 10.558 17.2816 10.1387 17.0843 9.76405C16.8429 9.29338 16.7168 8.76939 16.7168 8.23739C16.7168 7.7054 16.8429 7.18142 17.0843 6.71074C17.2816 6.33608 17.385 5.91679 17.385 5.49079C17.385 5.06479 17.2816 4.64551 17.0843 4.27085C16.8429 3.80017 16.7168 3.27618 16.7168 2.74419C16.7168 2.21219 16.8429 1.68821 17.0843 1.21754C17.2918 0.847866 17.3959 0.426479 17.3851 -0.000122095L18.0535 -0.00012212Z" fill="#8BDC9D"/>
<path d="M25.4089 6.25085C25.4201 6.78449 25.2925 7.31151 25.0391 7.7775C24.8431 8.1522 24.7405 8.57094 24.7405 8.99631C24.7405 9.42168 24.8431 9.84042 25.0391 10.2151C25.282 10.6853 25.4089 11.2095 25.4089 11.7418C25.4089 12.2741 25.282 12.7982 25.0391 13.2684C24.8431 13.6435 24.7405 14.0626 24.7405 14.4884C24.7405 14.9141 24.8431 15.3332 25.0391 15.7083C25.282 16.1785 25.4089 16.7027 25.4089 17.235C25.4089 17.7673 25.282 18.2914 25.0391 18.7616C24.8431 19.1367 24.7405 19.5558 24.7405 19.9816C24.7405 20.4073 24.8431 20.8264 25.0391 21.2015C25.2927 21.6682 25.4204 22.1961 25.4089 22.7305L24.7406 22.7305C24.7517 22.3031 24.6476 21.8809 24.4398 21.5105C24.1984 21.0394 24.0723 20.5151 24.0723 19.9827C24.0723 19.4504 24.1984 18.926 24.4398 18.4549C24.6371 18.0803 24.7405 17.661 24.7405 17.235C24.7405 16.809 24.6371 16.3897 24.4398 16.015C24.1984 15.5444 24.0723 15.0204 24.0723 14.4884C24.0723 13.9564 24.1984 13.4324 24.4398 12.9617C24.6371 12.5871 24.7405 12.1678 24.7405 11.7418C24.7405 11.3158 24.6371 10.8965 24.4398 10.5218C24.1984 10.0512 24.0723 9.52716 24.0723 8.99517C24.0723 8.46317 24.1984 7.93919 24.4398 7.46852C24.6473 7.09884 24.7514 6.67746 24.7406 6.25085L25.4089 6.25085Z" fill="#8BDC9D"/>
<path d="M32.7644 0.568237C32.7756 1.10187 32.6479 1.62889 32.3946 2.09489C32.1986 2.46958 32.096 2.88833 32.096 3.31369C32.096 3.73906 32.1986 4.1578 32.3946 4.5325C32.6374 5.00269 32.7644 5.52686 32.7644 6.05915C32.7644 6.59144 32.6374 7.11562 32.3946 7.58581C32.1986 7.96092 32.096 8.38002 32.096 8.80575C32.096 9.23148 32.1986 9.6506 32.3946 10.0257C32.6374 10.4959 32.7644 11.0201 32.7644 11.5524C32.7644 12.0846 32.6374 12.6088 32.3946 13.079C32.1986 13.4541 32.096 13.8732 32.096 14.299C32.096 14.7247 32.1986 15.1438 32.3946 15.5189C32.6482 15.9856 32.7759 16.5135 32.7644 17.0479L32.096 17.0479C32.1072 16.6205 32.0031 16.1983 31.7953 15.8279C31.5539 15.3568 31.4277 14.8325 31.4277 14.3001C31.4277 13.7677 31.5539 13.2434 31.7953 12.7723C31.9926 12.3976 32.0959 11.9784 32.0959 11.5524C32.0959 11.1264 31.9926 10.7071 31.7953 10.3324C31.5539 9.86174 31.4277 9.33775 31.4277 8.80575C31.4277 8.27376 31.5539 7.74977 31.7953 7.2791C31.9926 6.90444 32.0959 6.48515 32.0959 6.05915C32.0959 5.63315 31.9926 5.21387 31.7952 4.8392C31.5539 4.36853 31.4277 3.84454 31.4277 3.31255C31.4277 2.78055 31.5539 2.25657 31.7952 1.7859C32.0028 1.41623 32.1069 0.994839 32.096 0.568237L32.7644 0.568237Z" fill="#8BDC9D"/>
<path d="M40.7898 6.81921C40.801 7.35285 40.6733 7.87987 40.42 8.34586C40.224 8.72056 40.1214 9.1393 40.1214 9.56467C40.1214 9.99004 40.224 10.4088 40.42 10.7835C40.6628 11.2537 40.7898 11.7778 40.7898 12.3101C40.7898 12.8424 40.6628 13.3666 40.42 13.8368C40.224 14.2119 40.1214 14.631 40.1214 15.0567C40.1214 15.4825 40.224 15.9016 40.42 16.2767C40.6628 16.7469 40.7898 17.271 40.7898 17.8033C40.7898 18.3356 40.6628 18.8598 40.42 19.33C40.224 19.7051 40.1214 20.1242 40.1214 20.5499C40.1214 20.9757 40.224 21.3948 40.42 21.7699C40.6736 22.2366 40.8013 22.7644 40.7898 23.2988L40.1214 23.2988C40.1326 22.8715 40.0285 22.4493 39.8206 22.0789C39.5793 21.6078 39.4531 21.0834 39.4531 20.5511C39.4531 20.0187 39.5793 19.4944 39.8206 19.0233C40.018 18.6486 40.1213 18.2293 40.1213 17.8033C40.1213 17.3773 40.018 16.9581 39.8206 16.5834C39.5793 16.1127 39.4531 15.5887 39.4531 15.0567C39.4531 14.5247 39.5793 14.0008 39.8206 13.5301C40.018 13.1554 40.1213 12.7361 40.1213 12.3101C40.1213 11.8841 40.018 11.4648 39.8206 11.0902C39.5793 10.6195 39.4531 10.0955 39.4531 9.56353C39.4531 9.03153 39.5793 8.50755 39.8206 8.03688C40.0282 7.6672 40.1323 7.24582 40.1214 6.81921L40.7898 6.81921Z" fill="#8BDC9D"/>
<path d="M48.1459 31.1121C46.5869 31.1406 45.0471 30.815 43.6857 30.1688C42.591 29.6689 41.3676 29.4073 40.1249 29.4073C38.8822 29.4073 37.6588 29.6689 36.5641 30.1688C35.1904 30.7882 33.659 31.1121 32.1039 31.1121C30.5488 31.1121 29.0174 30.7882 27.6438 30.1688C26.5479 29.6689 25.3234 29.4073 24.0796 29.4073C22.8358 29.4073 21.6114 29.6689 20.5155 30.1688C19.1418 30.7882 17.6104 31.1121 16.0553 31.1121C14.5002 31.1121 12.9688 30.7882 11.5951 30.1688C10.4992 29.6689 9.27479 29.4073 8.03101 29.4073C6.78722 29.4073 5.56276 29.6689 4.46686 30.1688C3.10335 30.8157 1.56125 31.1414 0 31.1121V29.4073C1.24855 29.4357 2.48204 29.1702 3.56414 28.6402C4.94042 28.0245 6.47235 27.7028 8.02766 27.7028C9.58297 27.7028 11.1149 28.0245 12.4912 28.6402C13.5858 29.1435 14.8107 29.4071 16.0553 29.4071C17.2999 29.4071 18.5248 29.1435 19.6194 28.6402C20.9945 28.0245 22.5254 27.7028 24.0796 27.7028C25.6339 27.7028 27.1647 28.0245 28.5398 28.6402C29.6344 29.1435 30.8594 29.4071 32.1039 29.4071C33.3485 29.4071 34.5735 29.1435 35.6681 28.6402C37.0432 28.0245 38.574 27.7028 40.1283 27.7028C41.6825 27.7028 43.2133 28.0245 44.5884 28.6402C45.6684 29.1695 46.8995 29.435 48.1459 29.4073V31.1121Z" fill="#34B1ED"/>
<path d="M48.1459 34.948C46.5869 34.9766 45.0471 34.6509 43.6857 34.0047C42.591 33.5048 41.3676 33.2432 40.1249 33.2432C38.8822 33.2432 37.6588 33.5048 36.5641 34.0047C35.1904 34.6242 33.659 34.948 32.1039 34.948C30.5488 34.948 29.0174 34.6242 27.6438 34.0047C26.5479 33.5048 25.3234 33.2432 24.0796 33.2432C22.8358 33.2432 21.6114 33.5048 20.5155 34.0047C19.1418 34.6242 17.6104 34.948 16.0553 34.948C14.5002 34.948 12.9688 34.6242 11.5951 34.0047C10.4992 33.5048 9.27479 33.2432 8.03101 33.2432C6.78722 33.2432 5.56276 33.5048 4.46686 34.0047C3.10335 34.6516 1.56125 34.9773 0 34.948V33.2432C1.24855 33.2716 2.48204 33.0062 3.56414 32.4761C4.94042 31.8604 6.47235 31.5387 8.02766 31.5387C9.58297 31.5387 11.1149 31.8604 12.4912 32.4761C13.5858 32.9794 14.8107 33.243 16.0553 33.243C17.2999 33.243 18.5248 32.9794 19.6194 32.4761C20.9945 31.8604 22.5254 31.5387 24.0796 31.5387C25.6339 31.5387 27.1647 31.8604 28.5398 32.4761C29.6344 32.9794 30.8594 33.243 32.1039 33.243C33.3485 33.243 34.5735 32.9794 35.6681 32.4761C37.0432 31.8604 38.574 31.5387 40.1283 31.5387C41.6825 31.5387 43.2133 31.8604 44.5884 32.4761C45.6684 33.0054 46.8995 33.2709 48.1459 33.2432V34.948Z" fill="#34B1ED"/>
<path d="M48.1459 38.7835C46.5869 38.812 45.0471 38.4864 43.6857 37.8402C42.591 37.3403 41.3676 37.0787 40.1249 37.0787C38.8822 37.0787 37.6588 37.3403 36.5641 37.8402C35.1904 38.4596 33.659 38.7835 32.1039 38.7835C30.5488 38.7835 29.0174 38.4596 27.6438 37.8402C26.5479 37.3403 25.3234 37.0787 24.0796 37.0787C22.8358 37.0787 21.6114 37.3403 20.5155 37.8402C19.1418 38.4596 17.6104 38.7835 16.0553 38.7835C14.5002 38.7835 12.9688 38.4596 11.5951 37.8402C10.4992 37.3403 9.27479 37.0787 8.03101 37.0787C6.78722 37.0787 5.56276 37.3403 4.46686 37.8402C3.10335 38.4871 1.56125 38.8128 0 38.7835V37.0787C1.24855 37.1071 2.48204 36.8416 3.56414 36.3115C4.94042 35.6959 6.47235 35.3741 8.02766 35.3741C9.58297 35.3741 11.1149 35.6959 12.4912 36.3115C13.5858 36.8149 14.8107 37.0784 16.0553 37.0784C17.2999 37.0784 18.5248 36.8149 19.6194 36.3115C20.9945 35.6959 22.5254 35.3742 24.0796 35.3742C25.6339 35.3742 27.1647 35.6959 28.5398 36.3115C29.6344 36.8149 30.8594 37.0784 32.1039 37.0784C33.3485 37.0784 34.5735 36.8149 35.6681 36.3115C37.0432 35.6959 38.574 35.3742 40.1283 35.3742C41.6825 35.3742 43.2133 35.6959 44.5884 36.3115C45.6684 36.8409 46.8995 37.1063 48.1459 37.0787V38.7835Z" fill="#34B1ED"/>
</svg>
