<svg width="20" height="40" viewBox="0 0 20 40" fill="none" xmlns="http://www.w3.org/2000/svg">
<path d="M10.3174 0.16957C10.3174 0.16957 6.62943 4.02641 6.46696 7.00718C6.45979 7.8234 6.80135 8.61237 7.42009 9.20878C8.03883 9.80518 8.88674 10.1627 9.78615 10.2066C10.6856 10.2504 11.5667 9.97701 12.2449 9.44378C12.9232 8.91054 13.3458 8.15879 13.4244 7.34605C13.5704 4.36448 10.3174 0.16957 10.3174 0.16957Z" fill="#E6E892"/>
<g opacity="0.05">
<path d="M10.8345 0.52595C11.6463 2.22794 12.5069 4.51366 12.4078 6.39567C12.2888 8.65407 10.7174 10.0003 8.86632 9.91014C8.52546 9.89417 8.18917 9.82791 7.86923 9.71368C8.46952 10.2359 9.24245 10.5373 10.0514 10.5645C10.4948 10.6026 10.9415 10.5521 11.3636 10.4163C11.7857 10.2805 12.1741 10.0622 12.5044 9.77518C12.8346 9.48817 13.0997 9.1386 13.2828 8.74843C13.466 8.35825 13.5633 7.93587 13.5687 7.50781C13.7021 4.97473 11.5629 1.59663 10.8345 0.52595Z" fill="black"/>
</g>
<path d="M9.06979 7.23671C9.03345 7.92676 8.61097 8.47221 8.13405 8.44898C7.65713 8.42575 7.29438 7.83634 7.33042 7.15199C7.36645 6.46764 7.78224 5.91613 8.26618 5.9397C8.75011 5.96327 9.10642 6.54095 9.06979 7.23671Z" fill="white"/>
<path d="M16.4066 6.03238C16.4066 6.03238 13.5867 8.93656 13.4456 11.196C13.4352 11.8149 13.6895 12.4151 14.1551 12.8709C14.6207 13.3266 15.2616 13.6024 15.9433 13.6407C16.6251 13.6789 17.2949 13.4765 17.8125 13.0759C18.33 12.6753 18.655 12.1076 18.7195 11.4918C18.8482 9.23158 16.4066 6.03238 16.4066 6.03238Z" fill="#E6E892"/>
<g opacity="0.05">
<path d="M16.7961 6.30564C17.4015 7.60082 18.0403 9.33892 17.9538 10.7655C17.85 12.4775 16.6503 13.4896 15.2471 13.4109C14.9887 13.3969 14.7341 13.3448 14.4922 13.2564C14.9443 13.6558 15.5286 13.8886 16.1419 13.9137C16.4778 13.9451 16.8169 13.9093 17.1378 13.8086C17.4588 13.708 17.7546 13.5446 18.0068 13.3288C18.2589 13.113 18.462 12.8494 18.6032 12.5546C18.7445 12.2597 18.8208 11.9399 18.8275 11.6154C18.9439 9.69521 17.342 7.12162 16.7961 6.30564Z" fill="black"/>
</g>
<path d="M15.419 11.3846C15.3873 11.9077 15.0637 12.319 14.7022 12.2987C14.3406 12.2784 14.0691 11.8294 14.1006 11.3107C14.132 10.7919 14.4506 10.376 14.8175 10.3966C15.1843 10.4172 15.451 10.8572 15.419 11.3846Z" fill="white"/>
<path d="M3.11562 5.89114C3.11562 5.89114 0.295719 8.79532 0.154573 11.0548C0.144218 11.6737 0.398478 12.2739 0.864093 12.7296C1.32971 13.1853 1.97054 13.4612 2.65232 13.4994C3.3341 13.5377 4.00392 13.3353 4.52145 12.9347C5.03897 12.5341 5.36403 11.9664 5.42853 11.3505C5.55719 9.09034 3.11562 5.89114 3.11562 5.89114Z" fill="#E6E892"/>
<g opacity="0.05">
<path d="M3.50512 6.16441C4.11046 7.45958 4.74929 9.19768 4.66281 10.6243C4.55903 12.3362 3.35927 13.3483 1.95611 13.2697C1.69772 13.2557 1.44311 13.2035 1.20118 13.1151C1.65324 13.5145 2.23755 13.7474 2.85084 13.7725C3.18682 13.8038 3.5259 13.7681 3.84682 13.6674C4.16774 13.5667 4.46357 13.4034 4.71574 13.1876C4.96791 12.9718 5.17099 12.7082 5.31223 12.4133C5.45347 12.1185 5.52982 11.7987 5.5365 11.4741C5.6529 9.55398 4.05101 6.98038 3.50512 6.16441Z" fill="black"/>
</g>
<path d="M2.12802 11.2434C2.09631 11.7665 1.77265 12.1777 1.41114 12.1575C1.04962 12.1372 0.778088 11.6882 0.809535 11.1694C0.840982 10.6507 1.1596 10.2348 1.52644 10.2553C1.89328 10.2759 2.15999 10.716 2.12802 11.2434Z" fill="white"/>
<path d="M4.30253 22.8421C4.75331 22.8421 5.11873 22.4906 5.11873 22.0571C5.11873 21.6235 4.75331 21.2721 4.30253 21.2721C3.85175 21.2721 3.48633 21.6235 3.48633 22.0571C3.48633 22.4906 3.85175 22.8421 4.30253 22.8421Z" fill="#8FDAFF"/>
<path d="M3.99908 22.0317C3.99908 22.1758 3.91297 22.291 3.80813 22.291C3.7033 22.291 3.61719 22.1758 3.61719 22.0317C3.61719 21.8877 3.7033 21.7725 3.80813 21.7725C3.91297 21.7725 3.99908 21.8877 3.99908 22.0317Z" fill="white"/>
<path d="M4.4737 27.0079C4.73424 27.0079 4.94545 26.8048 4.94545 26.5542C4.94545 26.3036 4.73424 26.1005 4.4737 26.1005C4.21316 26.1005 4.00195 26.3036 4.00195 26.5542C4.00195 26.8048 4.21316 27.0079 4.4737 27.0079Z" fill="#8FDAFF"/>
<path d="M4.30098 26.5402C4.30098 26.623 4.24856 26.6878 4.18866 26.6878C4.12875 26.6878 4.08008 26.623 4.08008 26.5402C4.08008 26.4574 4.12875 26.3926 4.18866 26.3926C4.24856 26.3926 4.30098 26.4574 4.30098 26.5402Z" fill="white"/>
<path d="M17.3654 23.6776C17.3661 23.7675 17.3391 23.8556 17.2877 23.9307C17.2363 24.0058 17.1629 24.0645 17.0767 24.0994C16.9906 24.1343 16.8956 24.1438 16.8039 24.1267C16.7121 24.1096 16.6277 24.0667 16.5614 24.0033C16.495 23.94 16.4497 23.8592 16.4312 23.7711C16.4127 23.683 16.4218 23.5916 16.4574 23.5085C16.493 23.4254 16.5535 23.3543 16.6311 23.3043C16.7088 23.2542 16.8001 23.2275 16.8936 23.2275C17.0181 23.2275 17.1375 23.2748 17.2259 23.3592C17.3142 23.4435 17.3644 23.5579 17.3654 23.6776Z" fill="#8FDAFF"/>
<path d="M16.7053 23.6627C16.7053 23.7455 16.6566 23.8103 16.5967 23.8103C16.5368 23.8103 16.4844 23.7455 16.4844 23.6627C16.4844 23.5798 16.533 23.515 16.5967 23.515C16.6603 23.515 16.7053 23.5798 16.7053 23.6627Z" fill="white"/>
<path d="M0.666016 16.0293L0.958052 19.839L2.48937 39.9931H17.9223L19.4536 19.839L19.7457 16.0293H0.666016Z" fill="#C2E1F1"/>
<path d="M1.76367 20.4723L3.19015 39.2688C7.7504 37.3856 12.4342 37.4684 17.2228 39.2688L18.6531 20.4723H1.76367Z" fill="#CDCEA4"/>
<path d="M10.617 27.6233C11.0678 27.6233 11.4332 27.2719 11.4332 26.8383C11.4332 26.4048 11.0678 26.0533 10.617 26.0533C10.1662 26.0533 9.80078 26.4048 9.80078 26.8383C9.80078 27.2719 10.1662 27.6233 10.617 27.6233Z" fill="#8FDAFF"/>
<path d="M10.3174 26.8138C10.3174 26.9543 10.2313 27.0731 10.1265 27.0731C10.0217 27.0731 9.93555 26.9543 9.93555 26.8138C9.93555 26.6734 10.0217 26.5546 10.1265 26.5546C10.2313 26.5546 10.3174 26.6698 10.3174 26.8138Z" fill="white"/>
<path d="M13.8123 30.0294C14.2631 30.0294 14.6285 29.678 14.6285 29.2445C14.6285 28.8109 14.2631 28.4595 13.8123 28.4595C13.3615 28.4595 12.9961 28.8109 12.9961 29.2445C12.9961 29.678 13.3615 30.0294 13.8123 30.0294Z" fill="#8FDAFF"/>
<path d="M13.5108 29.2191C13.5108 29.3631 13.4247 29.4784 13.3199 29.4784C13.215 29.4784 13.1289 29.3631 13.1289 29.2191C13.1289 29.0751 13.215 28.9598 13.3199 28.9598C13.4247 28.9598 13.5108 29.0751 13.5108 29.2191Z" fill="white"/>
<path d="M8.92558 23.3169C9.37635 23.3169 9.74178 22.9655 9.74178 22.5319C9.74178 22.0984 9.37635 21.7469 8.92558 21.7469C8.4748 21.7469 8.10938 22.0984 8.10938 22.5319C8.10938 22.9655 8.4748 23.3169 8.92558 23.3169Z" fill="#8FDAFF"/>
<path d="M8.62603 22.5073C8.62603 22.6477 8.53992 22.763 8.43509 22.763C8.33025 22.763 8.24414 22.6477 8.24414 22.5073C8.24414 22.3669 8.33025 22.248 8.43509 22.248C8.53992 22.248 8.62603 22.3633 8.62603 22.5073Z" fill="white"/>
<path d="M10.6245 30.9768C10.6245 31.0936 10.5885 31.2078 10.5211 31.3049C10.4536 31.402 10.3577 31.4777 10.2455 31.5224C10.1333 31.5671 10.0098 31.5788 9.89072 31.556C9.77161 31.5332 9.6622 31.4769 9.57633 31.3944C9.49046 31.3118 9.43198 31.2065 9.40828 31.092C9.38459 30.9774 9.39675 30.8587 9.44322 30.7508C9.4897 30.6429 9.5684 30.5506 9.66938 30.4858C9.77035 30.4209 9.88907 30.3862 10.0105 30.3862C10.1734 30.3862 10.3295 30.4484 10.4447 30.5592C10.5598 30.6699 10.6245 30.8202 10.6245 30.9768Z" fill="#8FDAFF"/>
<path d="M9.77527 30.9585C9.77527 31.0665 9.71162 31.1529 9.63299 31.1529C9.55437 31.1529 9.50195 31.0773 9.50195 30.9585C9.50195 30.8397 9.5656 30.764 9.64423 30.764C9.72285 30.764 9.77527 30.8505 9.77527 30.9585Z" fill="white"/>
<path d="M14.9679 32.4715C14.9686 32.59 14.9325 32.7059 14.8642 32.8044C14.7959 32.9029 14.6986 32.9796 14.5847 33.0246C14.4708 33.0695 14.3455 33.0807 14.2249 33.0567C14.1043 33.0327 13.994 32.9745 13.908 32.8898C13.822 32.805 13.7643 32.6975 13.7423 32.581C13.7204 32.4644 13.7351 32.3443 13.7846 32.2359C13.8341 32.1274 13.9162 32.0357 14.0203 31.9725C14.1245 31.9093 14.2458 31.8774 14.3689 31.881C14.5288 31.8857 14.6806 31.9498 14.7924 32.06C14.9041 32.1701 14.9671 32.3177 14.9679 32.4715Z" fill="#8FDAFF"/>
<path d="M13.9802 32.6472C14.0587 32.6472 14.1224 32.5601 14.1224 32.4528C14.1224 32.3454 14.0587 32.2583 13.9802 32.2583C13.9016 32.2583 13.8379 32.3454 13.8379 32.4528C13.8379 32.5601 13.9016 32.6472 13.9802 32.6472Z" fill="white"/>
<path d="M6.94874 32.2582C6.948 32.3748 6.91136 32.4887 6.84344 32.5853C6.77552 32.6819 6.67937 32.7571 6.56711 32.8012C6.45485 32.8454 6.33151 32.8565 6.21265 32.8334C6.09379 32.8102 5.98473 32.7536 5.89923 32.6709C5.81373 32.5882 5.75562 32.4829 5.73223 32.3685C5.70884 32.254 5.72122 32.1355 5.7678 32.0278C5.81438 31.9201 5.89308 31.8281 5.99397 31.7633C6.09487 31.6986 6.21343 31.6641 6.33472 31.6641C6.41567 31.6641 6.49582 31.6795 6.57056 31.7094C6.6453 31.7393 6.71316 31.7831 6.77022 31.8383C6.82729 31.8935 6.87244 31.959 6.90308 32.0311C6.93371 32.1032 6.94923 32.1804 6.94874 32.2582Z" fill="#8FDAFF"/>
<path d="M6.10681 32.2369C6.10681 32.345 6.04316 32.4314 5.96454 32.4314C5.88591 32.4314 5.82227 32.345 5.82227 32.2369C5.82227 32.1289 5.88591 32.0425 5.96454 32.0425C6.04316 32.0425 6.10681 32.1289 6.10681 32.2369Z" fill="white"/>
<path d="M12.0027 24.1202C12.3418 24.1202 12.6167 23.8558 12.6167 23.5296C12.6167 23.2035 12.3418 22.9391 12.0027 22.9391C11.6636 22.9391 11.3887 23.2035 11.3887 23.5296C11.3887 23.8558 11.6636 24.1202 12.0027 24.1202Z" fill="#8FDAFF"/>
<path d="M11.7746 23.5151C11.7746 23.6231 11.711 23.7096 11.6323 23.7096C11.5537 23.7096 11.4863 23.6231 11.4863 23.5151C11.4863 23.4071 11.5537 23.3207 11.6323 23.3207C11.711 23.3207 11.7746 23.4035 11.7746 23.5151Z" fill="white"/>
<path d="M15.1476 21.8226C15.1484 21.9404 15.1127 22.0558 15.0451 22.154C14.9775 22.2523 14.881 22.329 14.768 22.3744C14.655 22.4198 14.5305 22.4319 14.4103 22.4091C14.2901 22.3863 14.1797 22.3296 14.0931 22.2463C14.0064 22.163 13.9475 22.0568 13.9238 21.9412C13.9001 21.8256 13.9126 21.7059 13.9599 21.5972C14.0071 21.4885 14.0868 21.3957 14.189 21.3307C14.2912 21.2657 14.4111 21.2314 14.5336 21.2321C14.6962 21.233 14.8518 21.2955 14.9667 21.4061C15.0816 21.5166 15.1467 21.6663 15.1476 21.8226Z" fill="#8FDAFF"/>
<path d="M14.3059 21.8052C14.3059 21.9096 14.2422 21.9996 14.1636 21.9996C14.085 21.9996 14.0176 21.9096 14.0176 21.8052C14.0176 21.7007 14.0812 21.6107 14.1636 21.6107C14.246 21.6107 14.3059 21.7151 14.3059 21.8052Z" fill="white"/>
<path d="M7.63038 25.0779C7.62964 25.1945 7.593 25.3084 7.52508 25.405C7.45716 25.5016 7.36101 25.5768 7.24875 25.6209C7.13649 25.6651 7.01315 25.6762 6.89429 25.6531C6.77543 25.6299 6.66637 25.5733 6.58087 25.4906C6.49537 25.4079 6.43726 25.3027 6.41387 25.1882C6.39048 25.0737 6.40286 24.9552 6.44944 24.8475C6.49602 24.7398 6.57472 24.6478 6.67562 24.583C6.77651 24.5183 6.89507 24.4838 7.01636 24.4838C7.09731 24.4838 7.17746 24.4992 7.2522 24.5291C7.32694 24.559 7.3948 24.6028 7.45187 24.658C7.50893 24.7132 7.55408 24.7787 7.58472 24.8508C7.61536 24.9229 7.63087 25.0001 7.63038 25.0779Z" fill="#8FDAFF"/>
<path d="M6.79822 25.0566C6.79822 25.1647 6.73457 25.2511 6.65595 25.2511C6.57732 25.2511 6.51367 25.1647 6.51367 25.0566C6.51367 24.9486 6.57732 24.8622 6.65595 24.8622C6.73457 24.8622 6.79822 24.9558 6.79822 25.0566Z" fill="white"/>
<path d="M7.27358 28.38C7.27358 28.4697 7.24591 28.5575 7.19407 28.6321C7.14224 28.7067 7.06856 28.7648 6.98236 28.7992C6.89616 28.8335 6.8013 28.8425 6.70979 28.825C6.61828 28.8075 6.53423 28.7643 6.46825 28.7008C6.40227 28.6374 6.35735 28.5565 6.33914 28.4685C6.32094 28.3805 6.33028 28.2893 6.36599 28.2064C6.40169 28.1235 6.46216 28.0526 6.53974 28.0027C6.61732 27.9529 6.70853 27.9263 6.80183 27.9263C6.86392 27.9258 6.92549 27.9372 6.98295 27.9598C7.04041 27.9825 7.09261 28.0159 7.13652 28.0581C7.18042 28.1003 7.21515 28.1505 7.23868 28.2058C7.26222 28.2611 7.27408 28.3203 7.27358 28.38Z" fill="#8FDAFF"/>
<path d="M6.63122 28.366C6.63122 28.4452 6.58254 28.5136 6.52264 28.5136C6.46274 28.5136 6.41406 28.4452 6.41406 28.366C6.41406 28.2867 6.46274 28.2147 6.52264 28.2147C6.58254 28.2147 6.63122 28.2831 6.63122 28.366Z" fill="white"/>
<path d="M16.088 26.6371C16.0888 26.727 16.0617 26.8151 16.0103 26.8902C15.959 26.9653 15.8855 27.024 15.7994 27.0589C15.7133 27.0938 15.6183 27.1033 15.5265 27.0862C15.4348 27.0691 15.3504 27.0261 15.284 26.9628C15.2177 26.8995 15.1724 26.8187 15.1539 26.7306C15.1354 26.6425 15.1445 26.5511 15.1801 26.4679C15.2157 26.3848 15.2761 26.3138 15.3538 26.2637C15.4314 26.2137 15.5228 26.187 15.6163 26.187C15.678 26.1866 15.7393 26.1978 15.7965 26.2203C15.8537 26.2427 15.9058 26.2757 15.9496 26.3176C15.9935 26.3594 16.0283 26.4092 16.052 26.4641C16.0758 26.5189 16.088 26.5777 16.088 26.6371Z" fill="#8FDAFF"/>
<path d="M15.4437 26.6226C15.4437 26.7054 15.395 26.7702 15.3351 26.7702C15.2752 26.7702 15.2266 26.7054 15.2266 26.6226C15.2266 26.5398 15.2752 26.475 15.3351 26.475C15.395 26.475 15.4437 26.5398 15.4437 26.6226Z" fill="white"/>
<path d="M4.86742 16.9873H2.21289L3.86027 38.0632C4.38388 37.8398 4.92463 37.6556 5.4777 37.5123L4.86742 16.9873Z" fill="white"/>
<g opacity="0.05">
<path d="M2.38867 38.639L2.49351 40.0001H17.9227L18.7389 29.2767C16.616 34.8869 8.10957 38.6786 2.38867 38.639Z" fill="#1D1D1B"/>
<g style="mix-blend-mode:multiply" opacity="0.7">
<path d="M2.38867 38.639L2.49351 40.0001H17.9227L18.7389 29.2767C16.616 34.8869 8.10957 38.6786 2.38867 38.639Z" fill="#45ECFF"/>
</g>
</g>
</svg>
