<svg width="42" height="40" viewBox="0 0 42 40" fill="none" xmlns="http://www.w3.org/2000/svg">
<path d="M6.89581 14.2764C6.80894 14.637 6.61723 14.9637 6.34486 15.2154C6.07248 15.4671 5.73165 15.6325 5.36537 15.6908C4.9991 15.749 4.62379 15.6974 4.2868 15.5425C3.94981 15.3877 3.66622 15.1365 3.47185 14.8206C3.27747 14.5047 3.18101 14.1384 3.19463 13.7678C3.20824 13.3971 3.33134 13.0388 3.54836 12.7381C3.76539 12.4374 4.06663 12.2076 4.41408 12.0779C4.76153 11.9482 5.13962 11.9243 5.50063 12.0092C5.98628 12.1249 6.40608 12.4287 6.66773 12.8539C6.92937 13.2791 7.01142 13.7908 6.89581 14.2764Z" fill="#ED8234"/>
<path d="M23.1151 5.33594C23.0636 5.52987 22.9564 5.70445 22.8067 5.83807C22.657 5.97169 22.4714 6.05847 22.2729 6.08768C22.0744 6.11689 21.8716 6.08724 21.6898 6.00241C21.508 5.91758 21.355 5.78128 21.2498 5.6104C21.1447 5.43951 21.0919 5.24154 21.0981 5.04098C21.1044 4.84043 21.1692 4.6461 21.2848 4.48205C21.4003 4.318 21.5614 4.19143 21.7482 4.11801C21.9349 4.0446 22.1391 4.02755 22.3354 4.06899C22.4698 4.10094 22.5966 4.15906 22.7085 4.24004C22.8205 4.32101 22.9154 4.42325 22.9878 4.54091C23.0602 4.65857 23.1087 4.78934 23.1305 4.92576C23.1524 5.06217 23.1471 5.20155 23.1151 5.33594Z" fill="#ED8234"/>
<path d="M18.9444 4.47915C18.8938 4.67359 18.7873 4.8489 18.6379 4.98331C18.4886 5.11773 18.3031 5.20533 18.1044 5.23524C17.9057 5.26516 17.7026 5.23608 17.5203 5.1516C17.338 5.06712 17.1845 4.93098 17.0789 4.76005C16.9733 4.58913 16.9202 4.39095 16.9262 4.19012C16.9323 3.98929 16.9971 3.79465 17.1128 3.63034C17.2284 3.46604 17.3897 3.33932 17.5768 3.2659C17.7638 3.19247 17.9683 3.17559 18.1648 3.21733C18.3004 3.24614 18.4288 3.30212 18.5421 3.38192C18.6555 3.46171 18.7515 3.56365 18.8244 3.68158C18.8972 3.79951 18.9454 3.93098 18.9661 4.06807C18.9867 4.20515 18.9794 4.34499 18.9444 4.47915Z" fill="#E6E892"/>
<path d="M2.72569 8.87002C2.6751 9.06446 2.56852 9.23977 2.41918 9.37419C2.26984 9.5086 2.08431 9.5962 1.88563 9.62611C1.68695 9.65603 1.48387 9.62695 1.30157 9.54247C1.11927 9.45799 0.965787 9.32184 0.860175 9.15092C0.754563 8.98 0.701479 8.78182 0.707491 8.58099C0.713502 8.38016 0.778341 8.18552 0.893986 8.02122C1.00963 7.85692 1.17098 7.73019 1.358 7.65676C1.54503 7.58334 1.74951 7.56646 1.94604 7.6082C2.08164 7.63701 2.20999 7.69299 2.32335 7.77278C2.43671 7.85258 2.53273 7.95452 2.6056 8.07245C2.67847 8.19038 2.72669 8.32185 2.74733 8.45893C2.76797 8.59602 2.7606 8.73586 2.72569 8.87002Z" fill="#ED8234"/>
<path d="M34.8868 30.7774C34.8386 30.9796 34.7315 31.1631 34.579 31.3045C34.4266 31.4458 34.2356 31.5389 34.0303 31.5717C33.8249 31.6046 33.6145 31.5759 33.4255 31.4892C33.2365 31.4024 33.0775 31.2616 32.9685 31.0845C32.8595 30.9075 32.8055 30.702 32.8132 30.4942C32.821 30.2864 32.8902 30.0856 33.012 29.9171C33.1339 29.7487 33.303 29.6201 33.4979 29.5477C33.6929 29.4753 33.9049 29.4624 34.1072 29.5104C34.2433 29.5392 34.3722 29.5953 34.486 29.6754C34.5998 29.7556 34.6961 29.858 34.769 29.9765C34.8419 30.095 34.89 30.2272 34.9103 30.3648C34.9305 30.5025 34.9226 30.6429 34.8868 30.7774Z" fill="#ED8234"/>
<path d="M41.0011 22.7808C40.9505 22.9752 40.8439 23.1505 40.6946 23.2849C40.5452 23.4194 40.3597 23.507 40.161 23.5369C39.9623 23.5668 39.7593 23.5377 39.577 23.4532C39.3947 23.3688 39.2412 23.2326 39.1356 23.0617C39.03 22.8908 38.9769 22.6926 38.9829 22.4918C38.9889 22.2909 39.0537 22.0963 39.1694 21.932C39.285 21.7677 39.4464 21.641 39.6334 21.5675C39.8204 21.4941 40.0249 21.4772 40.2214 21.519C40.357 21.5478 40.4854 21.6038 40.5988 21.6835C40.7121 21.7633 40.8081 21.8653 40.881 21.9832C40.9539 22.1011 41.0021 22.2326 41.0227 22.3697C41.0434 22.5068 41.036 22.6466 41.0011 22.7808Z" fill="#ED8234"/>
<path d="M36.9842 27.0485C36.9327 27.2424 36.8255 27.417 36.6758 27.5506C36.5261 27.6842 36.3405 27.771 36.142 27.8002C35.9435 27.8294 35.7408 27.7998 35.5589 27.7149C35.3771 27.6301 35.2241 27.4938 35.119 27.3229C35.0138 27.152 34.9611 26.9541 34.9673 26.7535C34.9735 26.5529 35.0384 26.3586 35.1539 26.1946C35.2695 26.0305 35.4306 25.904 35.6173 25.8305C35.804 25.7571 36.0082 25.7401 36.2045 25.7815C36.3407 25.8103 36.4696 25.8664 36.5834 25.9465C36.6971 26.0267 36.7934 26.1291 36.8664 26.2476C36.9393 26.3661 36.9873 26.4982 37.0076 26.6359C37.0279 26.7736 37.0199 26.914 36.9842 27.0485Z" fill="#E6E892"/>
<path d="M10.2257 9.92141C10.1751 10.1159 10.0685 10.2912 9.91918 10.4256C9.76984 10.56 9.58431 10.6476 9.38563 10.6775C9.18695 10.7074 8.98387 10.6783 8.80157 10.5939C8.61927 10.5094 8.46579 10.3732 8.36017 10.2023C8.25456 10.0314 8.20148 9.83321 8.20749 9.63238C8.2135 9.43155 8.27836 9.23691 8.394 9.0726C8.50965 8.9083 8.67099 8.78158 8.85802 8.70816C9.04504 8.63473 9.24951 8.61785 9.44604 8.6596C9.58164 8.6884 9.71001 8.74438 9.82337 8.82418C9.93673 8.90397 10.0327 9.00591 10.1056 9.12384C10.1785 9.24177 10.2267 9.37324 10.2473 9.51033C10.268 9.64741 10.2606 9.78725 10.2257 9.92141Z" fill="#ED8234"/>
<path d="M16.837 39.0049C16.7772 39.2545 16.6447 39.4808 16.4562 39.6551C16.2678 39.8294 16.0319 39.9439 15.7784 39.9841C15.5249 40.0243 15.2652 39.9884 15.0321 39.881C14.7989 39.7736 14.6029 39.5995 14.4687 39.3807C14.3346 39.1619 14.2683 38.9082 14.2783 38.6517C14.2884 38.3952 14.3742 38.1475 14.525 37.9398C14.6759 37.7321 14.8849 37.5738 15.1257 37.4849C15.3665 37.3961 15.6283 37.3806 15.8779 37.4405C16.0439 37.4796 16.2005 37.5512 16.3388 37.6512C16.477 37.7512 16.5941 37.8775 16.6832 38.023C16.7724 38.1684 16.8319 38.33 16.8583 38.4986C16.8847 38.6671 16.8775 38.8392 16.837 39.0049Z" fill="#E6E892"/>
<path d="M3.4952 18.9082C3.44016 19.16 3.31134 19.3898 3.12517 19.5682C2.939 19.7465 2.70392 19.8654 2.44992 19.9096C2.19592 19.9538 1.93451 19.9213 1.69903 19.8164C1.46354 19.7114 1.26467 19.5387 1.12777 19.3202C0.990862 19.1017 0.922133 18.8474 0.930346 18.5898C0.93856 18.3321 1.02334 18.0827 1.17388 17.8734C1.32442 17.6641 1.5339 17.5043 1.77559 17.4146C2.01728 17.3248 2.28021 17.3091 2.53088 17.3694C2.86026 17.4499 3.14525 17.6557 3.32531 17.9431C3.50537 18.2304 3.56632 18.5766 3.4952 18.9082Z" fill="#E6E892"/>
<path d="M41.2625 28.1408C41.2072 28.3928 41.0781 28.6225 40.8915 28.8008C40.705 28.979 40.4696 29.0976 40.2154 29.1414C39.9611 29.1852 39.6996 29.1523 39.4642 29.0467C39.2288 28.9412 39.0302 28.7679 38.8937 28.549C38.7572 28.3301 38.6891 28.0754 38.698 27.8176C38.707 27.5598 38.7925 27.3105 38.9438 27.1015C39.0951 26.8925 39.3053 26.7334 39.5474 26.6444C39.7896 26.5555 40.0527 26.5407 40.3033 26.602C40.6332 26.6813 40.9186 26.8871 41.098 27.175C41.2775 27.4629 41.3365 27.8097 41.2625 28.1408Z" fill="#E6E892"/>
<path d="M7.69141 18.4978C7.65233 18.6616 7.56558 18.8101 7.4421 18.9246C7.31861 19.0391 7.16394 19.1144 6.99766 19.141C6.83138 19.1676 6.66095 19.1443 6.50791 19.074C6.35488 19.0038 6.22611 18.8897 6.13789 18.7463C6.04968 18.6028 6.00599 18.4364 6.01232 18.2682C6.01866 18.0999 6.07474 17.9373 6.17349 17.8009C6.27224 17.6645 6.40923 17.5604 6.56711 17.5019C6.725 17.4433 6.8967 17.4329 7.06051 17.4719C7.16965 17.4972 7.27268 17.5439 7.36362 17.6093C7.45457 17.6748 7.53161 17.7576 7.5903 17.853C7.64899 17.9485 7.68815 18.0546 7.70551 18.1653C7.72287 18.2759 7.71807 18.389 7.69141 18.4978Z" fill="#E6E892"/>
<path d="M20.6524 38.2457C20.6133 38.4095 20.5265 38.558 20.403 38.6725C20.2795 38.787 20.1249 38.8623 19.9586 38.8889C19.7923 38.9155 19.6219 38.8922 19.4689 38.8219C19.3158 38.7517 19.1871 38.6376 19.0988 38.4942C19.0106 38.3507 18.9669 38.1844 18.9733 38.0161C18.9796 37.8478 19.0357 37.6852 19.1344 37.5488C19.2332 37.4124 19.3702 37.3083 19.528 37.2498C19.6859 37.1912 19.8576 37.1808 20.0214 37.2198C20.1306 37.2451 20.2336 37.2919 20.3246 37.3573C20.4155 37.4227 20.4926 37.5055 20.5512 37.601C20.6099 37.6964 20.6491 37.8025 20.6664 37.9132C20.6838 38.0239 20.679 38.1369 20.6524 38.2457Z" fill="#ED8234"/>
<path d="M22.9203 1.04773C22.8806 1.20987 22.7938 1.35665 22.6709 1.46959C22.5479 1.58253 22.3943 1.6566 22.2294 1.68246C22.0645 1.70833 21.8956 1.68484 21.744 1.61495C21.5924 1.54507 21.4648 1.4319 21.3774 1.2897C21.2899 1.1475 21.2465 0.982614 21.2525 0.815783C21.2585 0.648951 21.3138 0.487626 21.4112 0.352107C21.5087 0.216588 21.6441 0.112929 21.8004 0.0541664C21.9566 -0.0045961 22.1268 -0.0158374 22.2894 0.0218615C22.3986 0.0471606 22.5016 0.093877 22.5925 0.159299C22.6835 0.224721 22.7605 0.307548 22.8192 0.402977C22.8779 0.498405 22.9171 0.604535 22.9344 0.715213C22.9518 0.825891 22.947 0.938915 22.9203 1.04773Z" fill="#E6E892"/>
<path d="M11.9336 36.753C11.8945 36.9168 11.8078 37.0654 11.6843 37.1798C11.5608 37.2943 11.4061 37.3696 11.2398 37.3962C11.0736 37.4228 10.9031 37.3995 10.7501 37.3293C10.5971 37.259 10.4683 37.1449 10.3801 37.0015C10.2919 36.8581 10.2482 36.6917 10.2545 36.5234C10.2608 36.3551 10.3169 36.1925 10.4157 36.0561C10.5144 35.9197 10.6514 35.8157 10.8093 35.7571C10.9672 35.6986 11.1389 35.6881 11.3027 35.7272C11.5217 35.7807 11.7108 35.9185 11.8289 36.1105C11.947 36.3026 11.9846 36.5334 11.9336 36.753Z" fill="#ED8234"/>
<path d="M3.0586 24.6374C3.01952 24.8012 2.93277 24.9498 2.80928 25.0642C2.6858 25.1787 2.53113 25.254 2.36485 25.2806C2.19857 25.3072 2.02813 25.2839 1.8751 25.2137C1.72206 25.1434 1.5933 25.0293 1.50508 24.8859C1.41687 24.7425 1.37317 24.5761 1.37951 24.4078C1.38585 24.2395 1.44193 24.0769 1.54068 23.9405C1.63943 23.8041 1.77641 23.7001 1.9343 23.6415C2.09219 23.583 2.26389 23.5725 2.4277 23.6116C2.53649 23.6375 2.63911 23.6846 2.7297 23.7502C2.82029 23.8157 2.89707 23.8985 2.95566 23.9938C3.01425 24.0891 3.05349 24.1949 3.07115 24.3054C3.08881 24.4158 3.08455 24.5286 3.0586 24.6374Z" fill="#ED8234"/>
<path d="M40 15.9176C39.9609 16.0814 39.8742 16.2299 39.7507 16.3444C39.6272 16.4589 39.4725 16.5342 39.3063 16.5608C39.14 16.5874 38.9696 16.5641 38.8165 16.4938C38.6635 16.4235 38.5347 16.3095 38.4465 16.166C38.3583 16.0226 38.3146 15.8562 38.3209 15.688C38.3273 15.5197 38.3833 15.3571 38.4821 15.2207C38.5809 15.0843 38.7178 14.9802 38.8757 14.9217C39.0336 14.8631 39.2053 14.8527 39.3691 14.8917C39.4782 14.917 39.5813 14.9637 39.6722 15.0291C39.7632 15.0946 39.8402 15.1774 39.8989 15.2728C39.9576 15.3683 39.9967 15.4744 40.0141 15.5851C40.0315 15.6957 40.0267 15.8088 40 15.9176Z" fill="#E6E892"/>
<path d="M21.8533 24.0787C22.6381 23.5658 22.8125 22.1398 22.2277 21.6115C20.9505 20.4522 22.3765 19.9034 23.0741 20.6728C23.5489 21.1873 23.8341 21.8484 23.8826 22.5469C23.9311 23.2453 23.74 23.9395 23.3408 24.5147C23.0129 24.9611 22.5971 25.3357 22.119 25.6153C21.6409 25.895 21.1105 26.0738 20.5607 26.1407C19.8712 26.218 19.1731 26.1561 18.5079 25.9588C17.8427 25.7614 17.2239 25.4326 16.688 24.9917C16.0919 24.5028 15.5993 23.8998 15.239 23.2181C14.8788 22.5364 14.6582 21.7896 14.5902 21.0216C14.4576 19.7628 14.6714 18.4917 15.2083 17.3455C15.7453 16.1993 16.585 15.2215 17.637 14.5176C18.7888 13.7253 20.1228 13.2381 21.5142 13.1018C22.9056 12.9654 24.3088 13.1843 25.5926 13.738C26.8612 14.2841 27.993 15.1047 28.9065 16.1406C29.82 17.1765 30.4926 18.402 30.8758 19.729C31.1996 20.8027 31.3485 21.9215 31.3169 23.0426C31.2563 24.9595 30.6612 26.8214 29.5986 28.4181C26.1055 33.7013 19.263 35.1888 13.6977 31.8804C11.897 30.8135 10.3728 29.3377 9.2482 27.5724C8.12365 25.8072 7.43038 23.802 7.22444 21.7192V21.6782C7.2141 21.4659 7.17084 21.2565 7.09621 21.0575C7.01238 20.8494 6.86264 20.6745 6.66995 20.5597C6.47725 20.4448 6.25221 20.3962 6.0293 20.4215L8.75297 19.7085C8.6786 21.3311 8.91897 22.9527 9.46082 24.4839C10.249 26.6509 11.6783 28.5266 13.5584 29.8615C15.4385 31.1965 17.6805 31.9275 19.9862 31.9573C21.1235 31.958 22.2526 31.7655 23.3254 31.388C24.6388 30.922 25.8351 30.1761 26.8315 29.2018C27.8279 28.2275 28.6005 27.0483 29.0959 25.7457C29.5604 24.5688 29.7554 23.3028 29.6667 22.0406C29.5779 20.7784 29.2076 19.5522 28.583 18.4518V18.421C27.9733 17.4325 27.1537 16.5902 26.1821 15.9537C25.2106 15.3173 24.111 14.9023 22.9612 14.7382H22.9099C21.7577 14.5934 20.5879 14.7753 19.5341 15.2632C18.4802 15.7512 17.5847 16.5254 16.9496 17.4978L16.9189 17.549C15.7545 19.6008 15.893 21.8577 17.2523 23.3452C18.5295 24.7763 20.2632 25.1199 21.6738 24.2223L21.7404 24.1761L21.8533 24.0787Z" fill="#8FDAFF"/>
<path d="M19.6379 20.0622C19.5302 21.2163 20.5355 21.3548 20.5047 22.155C20.5047 22.4782 19.9251 23.145 18.8069 21.9293C17.9144 20.965 18.2068 19.539 18.73 18.6055C19.159 17.9702 19.7557 17.4661 20.4537 17.1492C21.1518 16.8323 21.924 16.715 22.6847 16.8102C23.5238 16.9264 24.3268 17.2267 25.0362 17.6896C25.7456 18.1525 26.3439 18.7665 26.7882 19.4878C27.2555 20.3207 27.5312 21.2475 27.5951 22.2005C27.659 23.1535 27.5095 24.1087 27.1575 24.9967C26.7726 26.0148 26.1709 26.9372 25.3941 27.6997C24.6174 28.4623 23.6842 29.0469 22.6591 29.413C18.2427 30.9518 13.1082 28.3871 11.4463 23.7707C10.9561 22.4184 10.7483 20.9799 10.8359 19.5442C10.9532 17.9268 11.4372 16.3574 12.2513 14.955C13.0654 13.5526 14.1881 12.354 15.5344 11.4501C18.1048 9.68445 21.2631 8.99242 24.3364 9.52146C27.1359 10.0181 29.6928 11.426 31.6093 13.5262C33.5258 15.6264 34.6945 18.3011 34.9336 21.1343C34.9563 21.3925 35.0735 21.6332 35.2629 21.8102C35.4522 21.9873 35.7003 22.0881 35.9594 22.0935L33.4204 22.791C33.4353 21.5497 33.2624 20.3132 32.9075 19.1236C32.4308 17.4968 31.5986 15.9963 30.4711 14.7304C29.3437 13.4646 27.9491 12.465 26.3881 11.804C24.7791 11.1187 23.0224 10.8534 21.2828 11.0328C19.5431 11.2122 17.8776 11.8306 16.4423 12.8299C15.093 13.751 14.0172 15.0191 13.3284 16.5005C12.6396 17.9819 12.3633 19.6218 12.5286 21.2471C12.6301 22.2886 12.9366 23.2997 13.4305 24.2223C13.9243 25.1449 14.5958 25.9606 15.4062 26.6227C16.1609 27.2381 17.0315 27.6959 17.9662 27.969C18.901 28.2421 19.8811 28.325 20.8484 28.2127C21.6817 28.1071 22.4848 27.8329 23.2087 27.407C23.9327 26.9811 24.5624 26.4123 25.0596 25.7353L25.0955 25.6789C26.4086 23.6271 26.5779 20.7034 24.3569 19.0107C23.8802 18.6323 23.3143 18.3827 22.7134 18.2857C22.1126 18.1887 21.4969 18.2476 20.9253 18.4568C20.5839 18.5802 20.2831 18.7953 20.056 19.0785C19.8288 19.3618 19.6842 19.7021 19.6379 20.0622Z" fill="#8FDAFF"/>
<path d="M36.0559 22.0883H35.9482C35.689 22.083 35.441 21.9821 35.2516 21.8051C35.0623 21.6281 34.945 21.3873 34.9223 21.1291C34.6827 18.2983 33.515 15.6259 31.6006 13.5269C29.6862 11.4279 27.1322 10.0198 24.3354 9.52144C21.2652 8.99081 18.1091 9.67908 15.5386 11.4398C14.1923 12.3437 13.0695 13.5423 12.2554 14.9447C11.4413 16.3472 10.9573 17.9166 10.8401 19.5339L9.76805 19.4364L8.74219 19.7083C8.78897 18.5529 8.99789 17.4099 9.36283 16.3127C10.2552 13.626 12.0096 11.309 14.3537 9.72148C17.3596 7.65086 21.0558 6.83725 24.6534 7.45432H24.679C27.9281 8.04191 30.8936 9.68204 33.1183 12.1218C35.343 14.5615 36.7033 17.6654 36.9894 20.9547C37.0043 21.0908 36.9918 21.2284 36.9526 21.3595C36.9135 21.4906 36.8485 21.6126 36.7615 21.7182C36.6745 21.8239 36.5673 21.911 36.4461 21.9746C36.3249 22.0381 36.1922 22.0768 36.0559 22.0883Z" fill="#34B1ED"/>
<path d="M10.8343 19.5339C10.7467 20.9697 10.9544 22.4082 11.4447 23.7605C13.1066 28.3769 18.2411 30.9415 22.6574 29.4027C23.6815 29.0377 24.6141 28.4547 25.3908 27.694C26.1675 26.9332 26.7697 26.0129 27.1559 24.9966C27.5079 24.1076 27.6569 23.1512 27.5922 22.1973C27.5274 21.2433 27.2504 20.3159 26.7814 19.4826C26.3371 18.7614 25.7389 18.1473 25.0295 17.6844C24.32 17.2215 23.517 16.9213 22.678 16.8051C21.9173 16.7098 21.145 16.8271 20.447 17.144C19.7489 17.4609 19.1523 17.965 18.7232 18.6004C18.2103 19.5339 17.9077 20.9599 18.8002 21.9242C19.9184 23.1398 20.4826 22.473 20.498 22.1499C20.5288 21.3497 19.5234 21.2112 19.6311 20.0571C19.6703 19.698 19.8072 19.3565 20.027 19.0698C20.2468 18.7831 20.541 18.5622 20.8776 18.4311C21.4491 18.2219 22.0648 18.163 22.6657 18.26C23.2665 18.357 23.8324 18.6067 24.3091 18.9851C26.5301 20.6829 26.3608 23.6271 25.0477 25.6532L25.0118 25.7096C24.5146 26.3866 23.8849 26.9554 23.1609 27.3813C22.437 27.8073 21.6339 28.0814 20.8006 28.1871C19.8333 28.2993 18.8532 28.2164 17.9184 27.9433C16.9837 27.6702 16.1132 27.2124 15.3584 26.597C14.548 25.935 13.8766 25.1192 13.3827 24.1966C12.8888 23.2741 12.5824 22.2629 12.4809 21.2214C12.3155 19.5961 12.5918 17.9563 13.2806 16.4748C13.9694 14.9934 15.0452 13.7253 16.3945 12.8042C17.8298 11.8049 19.4953 11.1866 21.235 11.0071C22.9746 10.8277 24.7313 11.0931 26.3403 11.7784C27.8946 12.4437 29.2821 13.4452 30.4032 14.7108C31.5242 15.9764 32.3509 17.4747 32.8238 19.0979C33.1787 20.2875 33.3516 21.524 33.3367 22.7654L32.3673 23.0321H31.2439C31.2756 21.9111 31.1266 20.7923 30.8028 19.7186C30.4196 18.3916 29.7471 17.1661 28.8335 16.1301C27.92 15.0942 26.7882 14.2737 25.5196 13.7275C24.2359 13.1739 22.8326 12.955 21.4413 13.0913C20.0499 13.2277 18.7158 13.7148 17.564 14.5072C16.5236 15.2207 15.697 16.204 15.1729 17.3516C14.6488 18.4992 14.447 19.7678 14.589 21.0214C14.657 21.7894 14.8776 22.5362 15.2379 23.2179C15.5981 23.8996 16.0907 24.5026 16.6869 24.9915C17.2227 25.4324 17.8416 25.7612 18.5068 25.9586C19.172 26.1559 19.87 26.2178 20.5596 26.1405C21.1094 26.0736 21.6397 25.8948 22.1178 25.6151C22.596 25.3355 23.0118 24.9609 23.3396 24.5145C23.7388 23.9393 23.9299 23.2451 23.8815 22.5467C23.833 21.8482 23.5478 21.1871 23.0729 20.6726C22.3753 19.9032 20.9494 20.452 22.2266 21.6113C22.8113 22.1242 22.6369 23.5604 21.8521 24.0785L21.7393 24.1554L21.6726 24.2016C20.262 25.0992 18.5283 24.7556 17.2511 23.3245C15.8867 21.837 15.7534 19.5647 16.9177 17.5283L16.9485 17.477C17.5862 16.5085 18.4828 15.7383 19.5365 15.2541C20.5901 14.7699 21.7585 14.5911 22.9088 14.738H22.9601C24.1071 14.9023 25.2042 15.3164 26.1737 15.951C27.1433 16.5856 27.9619 17.4252 28.5716 18.4106V18.4414C29.1962 19.5417 29.5665 20.768 29.6552 22.0301C29.744 23.2923 29.549 24.5583 29.0845 25.7353C28.5891 27.0378 27.8165 28.2171 26.8201 29.1913C25.8237 30.1656 24.6274 30.9116 23.314 31.3775C22.2412 31.755 21.1121 31.9475 19.9748 31.9469C17.6721 31.9158 15.4333 31.1853 13.5553 29.8524C11.6773 28.5195 10.2489 26.6471 9.45967 24.4837C8.90759 22.9597 8.65504 21.3434 8.71591 19.7237L9.74178 19.4518L10.8343 19.5339Z" fill="#34B1ED"/>
<path d="M7.20807 21.6777V21.7188C7.41401 23.8016 8.10729 25.8068 9.23185 27.572C10.3564 29.3373 11.8807 30.813 13.6813 31.88C19.2569 35.1884 26.0994 33.7009 29.5822 28.4177C30.6448 26.821 31.24 24.9591 31.3005 23.0422H32.4239L33.3933 22.7754C33.3886 25.188 32.6752 27.546 31.3416 29.5564C30.3729 31.0472 29.1193 32.3321 27.6529 33.3373C26.1864 34.3425 24.536 35.0482 22.7961 35.4141C21.8648 35.608 20.916 35.706 19.9647 35.7065C17.3831 35.6933 14.8528 34.9845 12.64 33.6547C10.5576 32.4228 8.79361 30.719 7.49018 28.6805C6.18674 26.6421 5.38031 24.326 5.13583 21.9188C5.13583 21.8009 5.11019 21.7393 5.10506 21.7188C5.0362 21.4751 5.05992 21.2145 5.17166 20.9872C5.2834 20.7599 5.47526 20.582 5.71031 20.4877C5.8072 20.4484 5.90902 20.4225 6.01294 20.4108C6.23586 20.3856 6.4609 20.4341 6.65359 20.549C6.84629 20.6639 6.99601 20.8388 7.07984 21.0468C7.15552 21.2491 7.19879 21.462 7.20807 21.6777Z" fill="#34B1ED"/>
</svg>
