<svg width="40" height="40" viewBox="0 0 40 40" fill="none" xmlns="http://www.w3.org/2000/svg">
<path d="M19.9999 40C31.0455 40 39.9998 31.0457 39.9998 20C39.9998 8.95431 31.0455 0 19.9999 0C8.95426 0 0 8.95431 0 20C0 31.0457 8.95426 40 19.9999 40Z" fill="url(#paint0_radial_301_11452)"/>
<path opacity="0.11" d="M19.9999 11.1799C28.4899 11.1799 35.8957 15.8218 39.8184 22.7056C39.9395 21.8088 40.0002 20.9047 40 19.9997C40.0006 8.95375 31.0456 0.00012207 19.9999 0.00012207C8.95417 0.00012207 4.32565e-07 8.95375 4.32565e-07 19.9997C-0.000186918 20.9047 0.060484 21.8088 0.181599 22.7056C4.10428 15.8216 11.5099 11.1799 19.9999 11.1799Z" fill="white"/>
<path d="M20.0003 35.4403C28.5275 35.4403 35.4401 28.5276 35.4401 20.0004C35.4401 11.4732 28.5275 4.56055 20.0003 4.56055C11.4732 4.56055 4.56055 11.4732 4.56055 20.0004C4.56055 28.5276 11.4732 35.4403 20.0003 35.4403Z" fill="url(#paint1_linear_301_11452)"/>
<path d="M19.9995 34.9211C28.2404 34.9211 34.921 28.2405 34.921 19.9996C34.921 11.7587 28.2404 5.07812 19.9995 5.07812C11.7587 5.07812 5.07812 11.7587 5.07812 19.9996C5.07812 28.2405 11.7587 34.9211 19.9995 34.9211Z" fill="url(#paint2_linear_301_11452)"/>
<path d="M10.6035 20.0203C10.6035 14.8303 14.8107 10.6228 20.0007 10.6228C25.1907 10.6228 29.3981 14.8303 29.3981 20.0203C29.3981 20.0257 29.3981 20.0312 29.3981 20.0366H33.0851C33.0851 20.0312 33.0851 20.0257 33.0851 20.0203C33.0851 12.7939 27.2271 6.93555 20.0005 6.93555C12.7739 6.93555 6.91602 12.7939 6.91602 20.0203V20.0366H10.6033L10.6035 20.0203Z" fill="url(#paint3_linear_301_11452)"/>
<path d="M15.329 9.21277L15.1094 9.31055L15.8141 10.8934L16.0337 10.7957L15.329 9.21277Z" fill="white"/>
<path d="M20.1193 8.24805H19.8789V9.98109H20.1193V8.24805Z" fill="white"/>
<path d="M11.3466 12.0458L11.1855 12.2246L12.4734 13.3842L12.6345 13.2054L11.3466 12.0458Z" fill="white"/>
<path d="M8.85952 16.2536L8.78516 16.4824L10.4334 17.018L10.5077 16.7891L8.85952 16.2536Z" fill="white"/>
<path d="M29.9534 18.8329L29.9785 19.0723L31.7021 18.8911L31.6769 18.6518L29.9534 18.8329Z" fill="white"/>
<path d="M28.7625 14.6852L28.8828 14.8945L30.3906 14.028L30.2702 13.8186L28.7625 14.6852Z" fill="white"/>
<path d="M25.7938 11.8235L25.9883 11.9648L27.0065 10.5634L26.812 10.422L25.7938 11.8235Z" fill="white"/>
<path d="M21.9661 10.1727L22.2012 10.2227L22.5615 8.52757L22.3264 8.4776L21.9661 10.1727Z" fill="white"/>
<path d="M17.7981 10.2238L18.0332 10.1738L17.6729 8.47874L17.4378 8.52872L17.7981 10.2238Z" fill="white"/>
<path d="M14.0125 11.9636L14.207 11.8223L13.1888 10.4208L12.9943 10.5621L14.0125 11.9636Z" fill="white"/>
<path d="M11.2625 15.0932L11.3828 14.8848L9.88196 14.0182L9.76164 14.2266L11.2625 15.0932Z" fill="white"/>
<path d="M10.0217 19.0714L10.0469 18.832L8.32334 18.6509L8.29818 18.8902L10.0217 19.0714Z" fill="white"/>
<path d="M31.2169 16.4828L31.1426 16.2539L29.4944 16.7894L29.5687 17.0183L31.2169 16.4828Z" fill="white"/>
<path d="M28.8153 12.2238L28.6543 12.0449L27.3664 13.2046L27.5274 13.3834L28.8153 12.2238Z" fill="white"/>
<path d="M24.8895 9.31067L24.6699 9.21289L23.9652 10.7958L24.1848 10.8936L24.8895 9.31067Z" fill="white"/>
<path d="M20.837 8.8158L20.6719 8.80469L20.5918 9.99451L20.7569 10.0056L20.837 8.8158Z" fill="white"/>
<path d="M23.1455 9.23666L22.9863 9.19141L22.6603 10.3384L22.8194 10.3836L23.1455 9.23666Z" fill="white"/>
<path d="M25.3143 10.1262L25.168 10.0488L24.6107 11.1028L24.757 11.1801L25.3143 10.1262Z" fill="white"/>
<path d="M27.2482 11.442L27.1211 11.3359L26.3576 12.2513L26.4848 12.3573L27.2482 11.442Z" fill="white"/>
<path d="M28.8679 13.138L28.7656 13.0078L27.8285 13.7439L27.9308 13.8741L28.8679 13.138Z" fill="white"/>
<path d="M30.0984 15.1351L30.0254 14.9863L28.9548 15.5117L29.0278 15.6604L30.0984 15.1351Z" fill="white"/>
<path d="M30.894 17.3403L30.8535 17.1797L29.6971 17.471L29.7376 17.6317L30.894 17.3403Z" fill="white"/>
<path d="M31.2132 19.6695L31.207 19.5039L30.0153 19.5482L30.0215 19.7138L31.2132 19.6695Z" fill="white"/>
<path d="M9.9484 18.5488L9.97656 18.3848L8.79597 18.182L8.7678 18.3461L9.9484 18.5488Z" fill="white"/>
<path d="M10.6689 16.353L10.7305 16.1992L9.62347 15.7558L9.56186 15.9096L10.6689 16.353Z" fill="white"/>
<path d="M11.6305 14.493L11.7227 14.3555L10.7329 13.6921L10.6407 13.8297L11.6305 14.493Z" fill="white"/>
<path d="M12.9593 12.8751L13.0781 12.7598L12.2478 11.9047L12.129 12.0201L12.9593 12.8751Z" fill="white"/>
<path d="M14.5488 11.3768L14.6895 11.2891L14.0576 10.2758L13.9169 10.3635L14.5488 11.3768Z" fill="white"/>
<path d="M16.4735 10.6175L16.6289 10.5605L16.2186 9.44103L16.0632 9.49799L16.4735 10.6175Z" fill="white"/>
<path d="M18.5003 10.0898L18.6641 10.0664L18.4952 8.88593L18.3314 8.90936L18.5003 10.0898Z" fill="white"/>
<path d="M21.6092 8.90539L21.4453 8.88281L21.2826 10.0642L21.4466 10.0867L21.6092 8.90539Z" fill="white"/>
<path d="M23.8881 9.48002L23.7324 9.42383L23.3275 10.5453L23.4832 10.6015L23.8881 9.48002Z" fill="white"/>
<path d="M25.9922 10.517L25.8516 10.4297L25.2225 11.4423L25.3631 11.5297L25.9922 10.517Z" fill="white"/>
<path d="M27.8206 11.9662L27.7012 11.8516L26.8759 12.7115L26.9954 12.8261L27.8206 11.9662Z" fill="white"/>
<path d="M29.3293 13.7718L29.2363 13.6348L28.2505 14.304L28.3435 14.441L29.3293 13.7718Z" fill="white"/>
<path d="M30.4126 16.1521L30.3496 15.998L29.2406 16.4512L29.3035 16.6053L30.4126 16.1521Z" fill="white"/>
<path d="M31.0566 18.1064L31.0273 17.9434L29.8535 18.1537L29.8827 18.3168L31.0566 18.1064Z" fill="white"/>
<path d="M9.98095 19.7574L9.98633 19.5918L8.79444 19.5531L8.78906 19.7187L9.98095 19.7574Z" fill="white"/>
<path d="M10.2495 17.6863L10.2891 17.5254L9.13107 17.2405L9.09149 17.4014L10.2495 17.6863Z" fill="white"/>
<path d="M10.9435 15.7077L11.0156 15.5586L9.94216 15.0392L9.87 15.1883L10.9435 15.7077Z" fill="white"/>
<path d="M12.0332 13.9199L12.1348 13.7891L11.1934 13.0584L11.0919 13.1892L12.0332 13.9199Z" fill="white"/>
<path d="M13.4731 12.3978L13.5996 12.291L12.8307 11.3802L12.7042 11.487L13.4731 12.3978Z" fill="white"/>
<path d="M15.1978 11.2051L15.3438 11.127L14.7811 10.0759L14.6352 10.154L15.1978 11.2051Z" fill="white"/>
<path d="M17.1321 10.3995L17.291 10.3535L16.9593 9.20816L16.8004 9.25419L17.1321 10.3995Z" fill="white"/>
<path d="M19.1904 10.014L19.3555 10.002L19.269 8.81258L19.1039 8.82458L19.1904 10.014Z" fill="white"/>
<path d="M21.4714 20.0679C21.4714 19.7699 21.3809 19.4789 21.2119 19.2335C21.0429 18.988 20.8034 18.7997 20.525 18.6934C20.525 18.6897 20.525 18.6862 20.525 18.6825C20.525 18.3488 20.2902 9.89453 20.0006 9.89453C19.711 9.89453 19.4762 18.3488 19.4762 18.6825C19.4762 18.6862 19.4762 18.6897 19.4762 18.6934C19.2217 18.7905 18.9992 18.9563 18.8334 19.1724C18.6676 19.3885 18.565 19.6463 18.5371 19.9173C18.5091 20.1882 18.5569 20.4616 18.6752 20.707C18.7935 20.9523 18.9775 21.1601 19.2068 21.307L19.0176 24.904C19.0106 25.0373 19.0308 25.1706 19.077 25.2958C19.1232 25.421 19.1944 25.5355 19.2862 25.6323C19.3781 25.7292 19.4887 25.8063 19.6113 25.859C19.7339 25.9116 19.866 25.9388 19.9994 25.9388C20.1329 25.9388 20.265 25.9116 20.3876 25.859C20.5102 25.8063 20.6208 25.7292 20.7127 25.6324C20.8046 25.5355 20.8758 25.421 20.922 25.2958C20.9682 25.1706 20.9884 25.0373 20.9814 24.904L20.7917 21.307C21 21.1742 21.1714 20.9911 21.2903 20.7745C21.4091 20.5579 21.4714 20.3149 21.4714 20.0679Z" fill="#232323"/>
<path opacity="0.24" d="M21.031 20.6029C21.1657 20.0323 20.8123 19.4605 20.2417 19.3258C19.671 19.1912 19.0992 19.5446 18.9646 20.1152C18.8299 20.6858 19.1833 21.2576 19.7539 21.3923C20.3246 21.527 20.8963 21.1736 21.031 20.6029Z" fill="black"/>
<path d="M20.1426 21.2185C20.7753 21.1406 21.225 20.5645 21.1471 19.9318C21.0692 19.2991 20.4931 18.8494 19.8604 18.9273C19.2277 19.0052 18.778 19.5813 18.8559 20.214C18.9338 20.8467 19.5099 21.2964 20.1426 21.2185Z" fill="#0F0F0F"/>
<path d="M20.9354 20.5696C21.212 20.0526 21.0172 19.4093 20.5002 19.1327C19.9833 18.8561 19.34 19.0509 19.0633 19.5679C18.7867 20.0848 18.9816 20.7281 19.4985 21.0048C20.0155 21.2814 20.6588 21.0865 20.9354 20.5696Z" fill="url(#paint4_linear_301_11452)"/>
<path d="M19.9996 21.1357C20.5602 21.1357 21.0148 20.7997 21.0148 20.3852C21.0148 19.9708 20.5602 19.6348 19.9996 19.6348C19.4389 19.6348 18.9844 19.9708 18.9844 20.3852C18.9844 20.7997 19.4389 21.1357 19.9996 21.1357Z" fill="url(#paint5_linear_301_11452)"/>
<path opacity="0.27" d="M19.9996 21.1357C20.5602 21.1357 21.0148 20.7997 21.0148 20.3852C21.0148 19.9708 20.5602 19.6348 19.9996 19.6348C19.4389 19.6348 18.9844 19.9708 18.9844 20.3852C18.9844 20.7997 19.4389 21.1357 19.9996 21.1357Z" fill="black"/>
<path d="M20.8021 20.4978C21.0395 20.0541 20.8723 19.502 20.4286 19.2646C19.985 19.0272 19.4329 19.1944 19.1955 19.6381C18.9581 20.0817 19.1253 20.6339 19.5689 20.8712C20.0126 21.1086 20.5647 20.9414 20.8021 20.4978Z" fill="url(#paint6_radial_301_11452)"/>
<path d="M20.8718 20.217C20.9499 19.7364 20.6235 19.2836 20.1429 19.2056C19.6623 19.1276 19.2095 19.4539 19.1315 19.9345C19.0535 20.4151 19.3798 20.8679 19.8604 20.9459C20.341 21.0239 20.7938 20.6976 20.8718 20.217Z" fill="url(#paint7_radial_301_11452)"/>
<path opacity="0.78" d="M20.0003 19.6816C20.337 19.6816 20.6099 19.5719 20.6099 19.4365C20.6099 19.3011 20.337 19.1914 20.0003 19.1914C19.6636 19.1914 19.3906 19.3011 19.3906 19.4365C19.3906 19.5719 19.6636 19.6816 20.0003 19.6816Z" fill="url(#paint8_linear_301_11452)"/>
<path opacity="0.27" d="M20.0008 20.4956C19.807 20.4955 19.6187 20.4317 19.4648 20.3138C19.311 20.196 19.2003 20.0308 19.1497 19.8438C19.1144 19.9745 19.1096 20.1116 19.1358 20.2445C19.162 20.3773 19.2184 20.5024 19.3007 20.6099C19.383 20.7175 19.489 20.8046 19.6104 20.8646C19.7319 20.9246 19.8655 20.9558 20.0009 20.9558C20.1363 20.9558 20.2699 20.9246 20.3914 20.8646C20.5128 20.8046 20.6188 20.7175 20.7011 20.6099C20.7834 20.5024 20.8398 20.3773 20.866 20.2445C20.8922 20.1116 20.8874 19.9745 20.8521 19.8438C20.8015 20.0308 20.6907 20.196 20.5369 20.3139C20.383 20.4317 20.1946 20.4955 20.0008 20.4956Z" fill="black"/>
<path d="M7.43805 20.9316C7.43805 20.8333 7.43475 20.7494 7.43164 20.68H7.6379L7.64917 20.7865H7.65403C7.67978 20.747 7.71528 20.7149 7.7571 20.6931C7.79891 20.6714 7.84562 20.6608 7.89272 20.6624C7.9943 20.6624 8.0749 20.7138 8.10889 20.7962H8.112C8.13919 20.758 8.17373 20.7257 8.21357 20.701C8.25899 20.6744 8.3109 20.661 8.36351 20.6622C8.5152 20.6622 8.6296 20.7686 8.6296 21.004V21.4684H8.3909V21.0396C8.3909 20.9252 8.3538 20.8591 8.27437 20.8591C8.24889 20.8595 8.22421 20.868 8.20389 20.8834C8.18357 20.8988 8.16866 20.9202 8.16133 20.9446C8.15493 20.9649 8.15172 20.986 8.15181 21.0073V21.4686H7.91312V21.0267C7.91312 20.9267 7.87757 20.8591 7.80027 20.8591C7.77434 20.8601 7.74936 20.8692 7.72883 20.8851C7.70829 20.901 7.69321 20.9228 7.68568 20.9477C7.67865 20.9674 7.67542 20.9882 7.67617 21.0091V21.4686H7.43805V20.9316Z" fill="#3A3A3A"/>
<path d="M9.07776 20.4622C9.07776 20.53 9.02616 20.5848 8.94565 20.5848C8.86806 20.5848 8.81684 20.53 8.81839 20.4622C8.81684 20.3913 8.86844 20.3381 8.9472 20.3381C8.96406 20.3371 8.98095 20.3395 8.99683 20.3453C9.0127 20.3511 9.02721 20.3601 9.03946 20.3717C9.05171 20.3834 9.06143 20.3974 9.06802 20.413C9.07461 20.4286 9.07792 20.4453 9.07776 20.4622ZM8.82557 21.47V20.6815H9.07039V21.47H8.82557Z" fill="#3A3A3A"/>
<path d="M9.26617 20.9333C9.26617 20.835 9.26287 20.7511 9.25977 20.6818H9.47316L9.48441 20.7898H9.48926C9.51621 20.7503 9.55253 20.7182 9.59496 20.6962C9.63738 20.6743 9.68459 20.6633 9.73233 20.6641C9.89334 20.6641 10.0142 20.7705 10.0142 21.0026V21.4703H9.76938V21.0333C9.76938 20.9317 9.73407 20.8624 9.64542 20.8624C9.61769 20.8626 9.59073 20.8715 9.56844 20.8881C9.54616 20.9046 9.5297 20.9278 9.52146 20.9543C9.51438 20.9739 9.51109 20.9948 9.51176 21.0157V21.4703H9.26694L9.26617 20.9333Z" fill="#3A3A3A"/>
<path d="M29.772 20.9316C29.772 20.8333 29.7687 20.7494 29.7656 20.68H29.9721L29.9833 20.7865H29.9882C30.0139 20.747 30.0493 20.7148 30.0911 20.6931C30.1329 20.6713 30.1796 20.6607 30.2267 20.6624C30.3283 20.6624 30.4089 20.7138 30.4429 20.7962H30.446C30.4732 20.758 30.5077 20.7257 30.5476 20.701C30.593 20.6744 30.6449 20.661 30.6975 20.6622C30.8492 20.6622 30.9636 20.7686 30.9636 21.004V21.4684H30.7249V21.0396C30.7249 20.9252 30.688 20.8591 30.6084 20.8591C30.5829 20.8595 30.5582 20.868 30.538 20.8834C30.5177 20.8988 30.5028 20.9202 30.4955 20.9446C30.489 20.9648 30.4857 20.986 30.4858 21.0073V21.4686H30.2477V21.0267C30.2477 20.9267 30.2121 20.8591 30.1348 20.8591C30.1089 20.8601 30.084 20.8692 30.0635 20.8851C30.0429 20.901 30.0279 20.9228 30.0204 20.9477C30.0133 20.9673 30.01 20.9882 30.0107 21.0091V21.4686H29.772V20.9316Z" fill="#3A3A3A"/>
<path d="M31.6046 21.47L31.5903 21.391H31.5854C31.5338 21.4539 31.4533 21.4881 31.36 21.4881C31.2005 21.4881 31.1055 21.3716 31.1055 21.2463C31.1055 21.0414 31.289 20.9431 31.5677 20.9447V20.9334C31.5677 20.8915 31.5451 20.8318 31.4244 20.8318C31.348 20.8326 31.2731 20.8532 31.2069 20.8915L31.1617 20.7335C31.2566 20.6858 31.3617 20.662 31.4678 20.6642C31.7303 20.6642 31.8141 20.8196 31.8141 21.0043V21.2785C31.8128 21.3427 31.8165 21.4069 31.8254 21.4704L31.6046 21.47ZM31.5757 21.0975C31.4469 21.096 31.347 21.1265 31.347 21.2216C31.347 21.2846 31.3889 21.3152 31.444 21.3152C31.472 21.3154 31.4993 21.3068 31.5221 21.2906C31.5449 21.2744 31.5621 21.2514 31.5712 21.2249C31.5746 21.2112 31.5762 21.1971 31.5761 21.183L31.5757 21.0975Z" fill="#3A3A3A"/>
<path d="M32.1954 20.6816L32.273 20.8122C32.2957 20.8526 32.3166 20.893 32.3374 20.9301H32.3407C32.3616 20.8881 32.381 20.8477 32.402 20.8091L32.4712 20.6816H32.7368L32.4776 21.0573L32.7401 21.4702H32.4637L32.3847 21.3282C32.3622 21.2894 32.3428 21.2492 32.3236 21.209H32.3187C32.2993 21.2509 32.2784 21.2896 32.2592 21.3282L32.1851 21.4702H31.916L32.1833 21.0685L31.9226 20.6816H32.1954Z" fill="#3A3A3A"/>
<defs>
<radialGradient id="paint0_radial_301_11452" cx="0" cy="0" r="1" gradientUnits="userSpaceOnUse" gradientTransform="translate(19.9999 20) scale(19.9999 20)">
<stop offset="0.96" stop-color="#333333"/>
<stop offset="1"/>
</radialGradient>
<linearGradient id="paint1_linear_301_11452" x1="20.0003" y1="4.07266" x2="20.0003" y2="35.3944" gradientUnits="userSpaceOnUse">
<stop stop-color="#191919"/>
<stop offset="0.5" stop-color="#686868"/>
<stop offset="1" stop-color="#B3B3B3"/>
</linearGradient>
<linearGradient id="paint2_linear_301_11452" x1="19.9995" y1="34.7348" x2="19.9995" y2="5.13037" gradientUnits="userSpaceOnUse">
<stop offset="0.01" stop-color="#F3F3F3"/>
<stop offset="0.61" stop-color="#F8F8F8"/>
<stop offset="1" stop-color="white"/>
</linearGradient>
<linearGradient id="paint3_linear_301_11452" x1="6.91621" y1="13.4861" x2="33.0853" y2="13.4861" gradientUnits="userSpaceOnUse">
<stop stop-color="#2C9EE7"/>
<stop offset="0.32" stop-color="#21B758"/>
<stop offset="0.51" stop-color="#F7D963"/>
<stop offset="0.77" stop-color="#FD6C3B"/>
<stop offset="1" stop-color="#9C0000"/>
</linearGradient>
<linearGradient id="paint4_linear_301_11452" x1="18.9341" y1="20.0721" x2="21.0573" y2="20.0721" gradientUnits="userSpaceOnUse">
<stop stop-color="white"/>
<stop offset="1" stop-color="#A2A1A1"/>
</linearGradient>
<linearGradient id="paint5_linear_301_11452" x1="18.938" y1="20.3852" x2="21.0612" y2="20.3852" gradientUnits="userSpaceOnUse">
<stop stop-color="white"/>
<stop offset="1" stop-color="#A2A1A1"/>
</linearGradient>
<radialGradient id="paint6_radial_301_11452" cx="0" cy="0" r="1" gradientUnits="userSpaceOnUse" gradientTransform="translate(19.9951 20.0713) scale(0.911089 0.911095)">
<stop stop-color="#666666"/>
<stop offset="1" stop-color="#4D4D4D"/>
</radialGradient>
<radialGradient id="paint7_radial_301_11452" cx="0" cy="0" r="1" gradientUnits="userSpaceOnUse" gradientTransform="translate(20.0036 20.0738) scale(0.881569 0.881573)">
<stop stop-color="#808080"/>
<stop offset="1" stop-color="#1A1A1A"/>
</radialGradient>
<linearGradient id="paint8_linear_301_11452" x1="20.0003" y1="19.1904" x2="20.0003" y2="19.7014" gradientUnits="userSpaceOnUse">
<stop stop-color="white"/>
<stop offset="0.04" stop-color="#F9F9F9"/>
<stop offset="0.5" stop-color="#B6B5B5"/>
<stop offset="0.83" stop-color="#8C8A8A"/>
<stop offset="1" stop-color="#7C7A7A"/>
</linearGradient>
</defs>
</svg>
