<svg width="40" height="40" viewBox="0 0 40 40" fill="none" xmlns="http://www.w3.org/2000/svg">
<circle opacity="0.9" cx="20" cy="20.0001" r="20" fill="#7ED2FC"/>
<path d="M20.5768 21.9962H18.7604C18.7669 21.3712 18.8223 20.8601 18.9264 20.463C19.0371 20.0594 19.2161 19.6915 19.4635 19.3595C19.7109 19.0275 20.0397 18.6499 20.4499 18.2267C20.7493 17.9207 21.0228 17.6342 21.2702 17.3673C21.5241 17.0939 21.7292 16.8009 21.8854 16.4884C22.0417 16.1694 22.1198 15.7885 22.1198 15.3458C22.1198 14.8966 22.0384 14.5092 21.8757 14.1837C21.7194 13.8582 21.485 13.6075 21.1725 13.4318C20.8665 13.256 20.4857 13.1681 20.0299 13.1681C19.6523 13.1681 19.2943 13.2365 18.9557 13.3732C18.6172 13.5099 18.3437 13.7215 18.1354 14.0079C17.9271 14.2879 17.8197 14.6557 17.8132 15.1115H16.0065C16.0195 14.3758 16.2018 13.7443 16.5534 13.2169C16.9115 12.6896 17.3932 12.2859 17.9987 12.006C18.6042 11.726 19.2812 11.5861 20.0299 11.5861C20.8568 11.5861 21.5599 11.7358 22.1393 12.0353C22.7253 12.3348 23.1712 12.7644 23.4772 13.3243C23.7832 13.8777 23.9362 14.5353 23.9362 15.297C23.9362 15.8829 23.8158 16.4233 23.5749 16.9181C23.3405 17.4064 23.0378 17.8654 22.6667 18.295C22.2956 18.7247 21.9017 19.1349 21.485 19.5255C21.127 19.8575 20.8861 20.2319 20.7624 20.6486C20.6387 21.0652 20.5768 21.5144 20.5768 21.9962ZM18.6823 25.0919C18.6823 24.799 18.7734 24.5516 18.9557 24.3497C19.138 24.1479 19.4017 24.047 19.7467 24.047C20.0983 24.047 20.3652 24.1479 20.5475 24.3497C20.7298 24.5516 20.821 24.799 20.821 25.0919C20.821 25.3719 20.7298 25.6128 20.5475 25.8146C20.3652 26.0164 20.0983 26.1173 19.7467 26.1173C19.4017 26.1173 19.138 26.0164 18.9557 25.8146C18.7734 25.6128 18.6823 25.3719 18.6823 25.0919Z" fill="black"/>
</svg>
