<svg width="40" height="40" viewBox="0 0 40 40" fill="none" xmlns="http://www.w3.org/2000/svg">
<path d="M20 40C31.0457 40 40 31.0457 40 20C40 8.9543 31.0457 0 20 0C8.9543 0 0 8.9543 0 20C0 31.0457 8.9543 40 20 40Z" fill="url(#paint0_radial_301_11380)"/>
<path opacity="0.11" d="M20 11.1802C28.49 11.1802 35.8958 15.822 39.8184 22.7059C39.9397 21.809 40.0003 20.905 40 20C40 8.9544 31.0456 0 20 0C8.9544 0 3.5422e-07 8.9544 3.5422e-07 20C-0.000169145 20.905 0.0604922 21.809 0.181574 22.7059C4.10387 15.822 11.51 11.1802 20 11.1802Z" fill="white"/>
<path d="M20.0002 35.4399C28.5273 35.4399 35.4399 28.5273 35.4399 20.0002C35.4399 11.4731 28.5273 4.56055 20.0002 4.56055C11.4731 4.56055 4.56055 11.4731 4.56055 20.0002C4.56055 28.5273 11.4731 35.4399 20.0002 35.4399Z" fill="url(#paint1_linear_301_11380)"/>
<path d="M19.9997 34.9212C28.2406 34.9212 34.9212 28.2406 34.9212 19.9997C34.9212 11.7587 28.2406 5.07812 19.9997 5.07812C11.7587 5.07812 5.07812 11.7587 5.07812 19.9997C5.07812 28.2406 11.7587 34.9212 19.9997 34.9212Z" fill="url(#paint2_linear_301_11380)"/>
<path d="M10.6033 20.0204C10.6033 14.8303 14.8105 10.6231 20.0006 10.6231C25.1906 10.6231 29.3978 14.8303 29.3978 20.0204V20.0366H33.0851V20.0204C33.0851 12.7937 27.2269 6.93555 20.0006 6.93555C12.7742 6.93555 6.91602 12.7937 6.91602 20.0204V20.0366H10.6033V20.0204Z" fill="url(#paint3_linear_301_11380)"/>
<path d="M15.329 9.21277L15.1094 9.31055L15.8141 10.8935L16.0337 10.7957L15.329 9.21277Z" fill="white"/>
<path d="M20.1192 8.24805H19.8789V9.98112H20.1192V8.24805Z" fill="white"/>
<path d="M11.3466 12.0458L11.1855 12.2246L12.4735 13.3843L12.6345 13.2054L11.3466 12.0458Z" fill="white"/>
<path d="M8.85951 16.2536L8.78516 16.4824L10.4334 17.018L10.5078 16.7891L8.85951 16.2536Z" fill="white"/>
<path d="M29.9534 18.833L29.9785 19.0723L31.7021 18.8911L31.6769 18.6518L29.9534 18.833Z" fill="white"/>
<path d="M28.618 14.8854L28.7383 15.0938L30.2392 14.2272L30.1189 14.0188L28.618 14.8854Z" fill="white"/>
<path d="M25.7938 11.8235L25.9883 11.9648L27.0065 10.5633L26.812 10.422L25.7938 11.8235Z" fill="white"/>
<path d="M21.9661 10.1727L22.2012 10.2227L22.5615 8.52754L22.3264 8.47757L21.9661 10.1727Z" fill="white"/>
<path d="M17.7981 10.2238L18.0332 10.1738L17.6729 8.47872L17.4378 8.52869L17.7981 10.2238Z" fill="white"/>
<path d="M14.0125 11.9636L14.207 11.8223L13.1888 10.4208L12.9943 10.5621L14.0125 11.9636Z" fill="white"/>
<path d="M11.2625 15.0932L11.3828 14.8848L9.88193 14.0182L9.76162 14.2266L11.2625 15.0932Z" fill="white"/>
<path d="M10.0217 19.0713L10.0469 18.832L8.3233 18.6509L8.29815 18.8902L10.0217 19.0713Z" fill="white"/>
<path d="M31.215 16.4827L31.1406 16.2539L29.4924 16.7895L29.5667 17.0183L31.215 16.4827Z" fill="white"/>
<path d="M28.8153 12.2237L28.6543 12.0449L27.3664 13.2046L27.5274 13.3834L28.8153 12.2237Z" fill="white"/>
<path d="M24.8915 9.31066L24.6719 9.21289L23.9671 10.7958L24.1867 10.8936L24.8915 9.31066Z" fill="white"/>
<path d="M20.8369 8.8158L20.6719 8.80469L20.5918 9.99447L20.7569 10.0056L20.8369 8.8158Z" fill="white"/>
<path d="M23.1455 9.23665L22.9863 9.19141L22.6603 10.3383L22.8194 10.3836L23.1455 9.23665Z" fill="white"/>
<path d="M25.3143 10.1262L25.168 10.0488L24.6107 11.1027L24.757 11.1801L25.3143 10.1262Z" fill="white"/>
<path d="M27.2482 11.442L27.1211 11.3359L26.3577 12.2513L26.4848 12.3573L27.2482 11.442Z" fill="white"/>
<path d="M28.8698 13.138L28.7676 13.0078L27.8305 13.7439L27.9328 13.8741L28.8698 13.138Z" fill="white"/>
<path d="M30.1003 15.135L30.0273 14.9863L28.9568 15.5117L29.0298 15.6604L30.1003 15.135Z" fill="white"/>
<path d="M30.894 17.3403L30.8535 17.1797L29.6972 17.471L29.7376 17.6316L30.894 17.3403Z" fill="white"/>
<path d="M31.2112 19.6675L31.2051 19.502L30.0134 19.5463L30.0196 19.7118L31.2112 19.6675Z" fill="white"/>
<path d="M10.1123 18.3683L10.1406 18.2051L8.96569 18.0013L8.93738 18.1645L10.1123 18.3683Z" fill="white"/>
<path d="M10.6669 16.351L10.7285 16.1973L9.62154 15.7538L9.55995 15.9076L10.6669 16.351Z" fill="white"/>
<path d="M11.6305 14.4911L11.7227 14.3535L10.7329 13.6902L10.6407 13.8277L11.6305 14.4911Z" fill="white"/>
<path d="M12.9594 12.8673L13.0781 12.752L12.248 11.8968L12.1292 12.0121L12.9594 12.8673Z" fill="white"/>
<path d="M14.5982 11.5587L14.7383 11.4707L14.1041 10.4613L13.964 10.5493L14.5982 11.5587Z" fill="white"/>
<path d="M16.4736 10.6194L16.6289 10.5625L16.2186 9.44302L16.0632 9.49996L16.4736 10.6194Z" fill="white"/>
<path d="M18.4983 10.0918L18.6621 10.0684L18.4933 8.88792L18.3295 8.91134L18.4983 10.0918Z" fill="white"/>
<path d="M21.6092 8.90343L21.4453 8.88086L21.2827 10.0622L21.4465 10.0847L21.6092 8.90343Z" fill="white"/>
<path d="M23.8861 9.48001L23.7305 9.42383L23.3256 10.5453L23.4812 10.6015L23.8861 9.48001Z" fill="white"/>
<path d="M25.9902 10.517L25.8496 10.4297L25.2205 11.4423L25.3611 11.5296L25.9902 10.517Z" fill="white"/>
<path d="M27.8226 11.9662L27.7031 11.8516L26.8779 12.7115L26.9974 12.8261L27.8226 11.9662Z" fill="white"/>
<path d="M29.3274 13.7718L29.2344 13.6348L28.2485 14.304L28.3415 14.441L29.3274 13.7718Z" fill="white"/>
<path d="M30.416 15.8468L30.3535 15.6934L29.2491 16.1432L29.3116 16.2966L30.416 15.8468Z" fill="white"/>
<path d="M31.0546 18.1044L31.0254 17.9414L29.8516 18.1518L29.8808 18.3148L31.0546 18.1044Z" fill="white"/>
<path d="M9.99503 19.8102L10 19.6445L8.80752 19.6088L8.80255 19.7744L9.99503 19.8102Z" fill="white"/>
<path d="M10.2495 17.6862L10.2891 17.5254L9.1311 17.2405L9.09154 17.4014L10.2495 17.6862Z" fill="white"/>
<path d="M10.9435 15.7096L11.0156 15.5605L9.94219 15.0412L9.87005 15.1903L10.9435 15.7096Z" fill="white"/>
<path d="M12.0332 13.9198L12.1348 13.7891L11.1935 13.0584L11.092 13.1892L12.0332 13.9198Z" fill="white"/>
<path d="M13.4731 12.3978L13.5996 12.291L12.8308 11.3802L12.7043 11.487L13.4731 12.3978Z" fill="white"/>
<path d="M15.1979 11.205L15.3438 11.127L14.7811 10.0759L14.6352 10.154L15.1979 11.205Z" fill="white"/>
<path d="M17.134 10.3976L17.293 10.3516L16.9613 9.20624L16.8024 9.25226L17.134 10.3976Z" fill="white"/>
<path d="M19.1905 10.012L19.3555 10L19.269 8.81067L19.104 8.82267L19.1905 10.012Z" fill="white"/>
<path d="M20.0074 18.5859C19.7094 18.586 19.4184 18.6765 19.173 18.8455C18.9275 19.0145 18.7391 19.2541 18.6328 19.5325H18.6222C18.2885 19.5325 9.83398 19.7687 9.83398 20.0574C9.83398 20.3462 18.2885 20.5821 18.6222 20.5821H18.6328C18.73 20.8366 18.8959 21.0591 19.1121 21.2249C19.3282 21.3907 19.5862 21.4932 19.8572 21.521C20.1282 21.5488 20.4016 21.5009 20.647 21.3825C20.8923 21.2641 21.1 21.0799 21.2469 20.8504L24.8438 21.0394C24.977 21.0462 25.1101 21.0259 25.2352 20.9797C25.3602 20.9334 25.4746 20.8622 25.5712 20.7704C25.6679 20.6786 25.7449 20.568 25.7975 20.4455C25.8501 20.323 25.8772 20.1911 25.8771 20.0577C25.8771 19.9244 25.85 19.7925 25.7974 19.6699C25.7448 19.5474 25.6678 19.4369 25.5712 19.345C25.4745 19.2532 25.3602 19.1819 25.2351 19.1357C25.1101 19.0894 24.977 19.069 24.8438 19.0757L21.2469 19.2647C21.1139 19.0566 20.9306 18.8853 20.714 18.7667C20.4974 18.6481 20.2544 18.5859 20.0074 18.5859Z" fill="#232323"/>
<path opacity="0.24" d="M21.0331 20.6049C21.1678 20.0342 20.8144 19.4624 20.2437 19.3277C19.673 19.193 19.1012 19.5464 18.9665 20.1171C18.8318 20.6878 19.1853 21.2596 19.756 21.3943C20.3266 21.529 20.8984 21.1755 21.0331 20.6049Z" fill="black"/>
<path d="M21.1236 20.3385C21.27 19.718 20.8857 19.0962 20.2652 18.9498C19.6447 18.8033 19.023 19.1876 18.8765 19.8081C18.7301 20.4286 19.1143 21.0504 19.7349 21.1968C20.3554 21.3433 20.9771 20.959 21.1236 20.3385Z" fill="#0F0F0F"/>
<path d="M19.9992 21.1351C20.5855 21.1351 21.0609 20.6598 21.0609 20.0734C21.0609 19.4871 20.5855 19.0117 19.9992 19.0117C19.4128 19.0117 18.9375 19.4871 18.9375 20.0734C18.9375 20.6598 19.4128 21.1351 19.9992 21.1351Z" fill="url(#paint4_linear_301_11380)"/>
<path d="M19.9997 21.1358C20.5605 21.1358 21.015 20.7998 21.015 20.3853C21.015 19.9708 20.5605 19.6348 19.9997 19.6348C19.439 19.6348 18.9844 19.9708 18.9844 20.3853C18.9844 20.7998 19.439 21.1358 19.9997 21.1358Z" fill="url(#paint5_linear_301_11380)"/>
<path opacity="0.27" d="M19.9997 21.1358C20.5605 21.1358 21.015 20.7998 21.015 20.3853C21.015 19.9708 20.5605 19.6348 19.9997 19.6348C19.439 19.6348 18.9844 19.9708 18.9844 20.3853C18.9844 20.7998 19.439 21.1358 19.9997 21.1358Z" fill="black"/>
<path d="M19.999 20.9843C20.5022 20.9843 20.9101 20.5764 20.9101 20.0732C20.9101 19.57 20.5022 19.1621 19.999 19.1621C19.4958 19.1621 19.0879 19.57 19.0879 20.0732C19.0879 20.5764 19.4958 20.9843 19.999 20.9843Z" fill="url(#paint6_radial_301_11380)"/>
<path d="M20.858 20.2755C20.9698 19.8016 20.6764 19.3268 20.2025 19.215C19.7286 19.1031 19.2538 19.3966 19.142 19.8705C19.0301 20.3444 19.3236 20.8192 19.7975 20.931C20.2713 21.0429 20.7462 20.7494 20.858 20.2755Z" fill="url(#paint7_radial_301_11380)"/>
<path opacity="0.78" d="M20.0003 19.6815C20.337 19.6815 20.61 19.5718 20.61 19.4365C20.61 19.3011 20.337 19.1914 20.0003 19.1914C19.6636 19.1914 19.3906 19.3011 19.3906 19.4365C19.3906 19.5718 19.6636 19.6815 20.0003 19.6815Z" fill="url(#paint8_linear_301_11380)"/>
<path opacity="0.27" d="M20.0007 20.4956C19.807 20.4956 19.6186 20.4317 19.4648 20.3138C19.3109 20.196 19.2001 20.0308 19.1496 19.8438C19.1143 19.9744 19.1096 20.1115 19.1359 20.2442C19.1621 20.377 19.2186 20.502 19.3009 20.6094C19.3832 20.7169 19.4891 20.8039 19.6105 20.8638C19.7319 20.9237 19.8654 20.9549 20.0007 20.9549C20.1361 20.9549 20.2696 20.9237 20.391 20.8638C20.5123 20.8039 20.6183 20.7169 20.7006 20.6094C20.7829 20.502 20.8394 20.377 20.8656 20.2442C20.8918 20.1115 20.8872 19.9744 20.8519 19.8438C20.8014 20.0308 20.6906 20.1961 20.5368 20.3139C20.3829 20.4317 20.1945 20.4956 20.0007 20.4956Z" fill="black"/>
<path d="M7.43814 20.9336C7.43814 20.8353 7.43489 20.7514 7.43164 20.6821H7.63831L7.64982 20.7886H7.65455C7.68025 20.7491 7.71571 20.7169 7.7575 20.6952C7.7993 20.6734 7.846 20.6628 7.8931 20.6643C7.93848 20.6621 7.98347 20.6737 8.02209 20.6976C8.0607 20.7216 8.09109 20.7567 8.10922 20.7984H8.11247C8.13962 20.7601 8.17415 20.7277 8.21403 20.703C8.2595 20.6765 8.31141 20.6631 8.36401 20.6643C8.51547 20.6643 8.62973 20.7709 8.62973 21.0062V21.4706H8.39118V21.0414C8.39118 20.9271 8.35398 20.861 8.27515 20.861C8.24969 20.8614 8.22502 20.8699 8.2047 20.8852C8.18438 20.9005 8.16945 20.9219 8.16207 20.9463C8.15556 20.9666 8.15227 20.9878 8.15233 21.0092V21.4704H7.91318V21.0275C7.91318 20.9274 7.87775 20.8598 7.8004 20.8598C7.77447 20.8608 7.7495 20.8699 7.72897 20.8858C7.70844 20.9017 7.69337 20.9235 7.68584 20.9484C7.67873 20.968 7.67543 20.9889 7.6761 21.0098V21.4692H7.43755L7.43814 20.9336Z" fill="#3A3A3A"/>
<path d="M9.07783 20.4624C9.07779 20.4792 9.07429 20.4959 9.06757 20.5113C9.06084 20.5267 9.05103 20.5406 9.03873 20.5521C9.02643 20.5636 9.01191 20.5724 8.99606 20.5781C8.98021 20.5837 8.96338 20.586 8.9466 20.5849C8.93041 20.5848 8.91441 20.5815 8.8995 20.5752C8.88459 20.5689 8.87106 20.5597 8.8597 20.5481C8.84834 20.5366 8.83935 20.5229 8.83327 20.5079C8.82718 20.4929 8.82411 20.4768 8.82422 20.4606C8.82434 20.4444 8.82764 20.4284 8.83394 20.4134C8.84024 20.3985 8.84942 20.385 8.86095 20.3736C8.87248 20.3622 8.88613 20.3532 8.90113 20.3471C8.91613 20.341 8.93218 20.338 8.94837 20.3381C8.96517 20.3371 8.98198 20.3397 8.99775 20.3455C9.01353 20.3514 9.02793 20.3604 9.04007 20.3721C9.05222 20.3837 9.06183 20.3978 9.06833 20.4133C9.07482 20.4288 9.07806 20.4455 9.07783 20.4624ZM8.82511 21.47V20.6814H9.06987V21.47H8.82511Z" fill="#3A3A3A"/>
<path d="M9.26625 20.9334C9.26625 20.8351 9.26301 20.7512 9.25977 20.6818H9.47238L9.48359 20.7899H9.4886C9.51552 20.7504 9.55182 20.7182 9.59424 20.6963C9.63665 20.6743 9.68385 20.6633 9.73159 20.6641C9.8926 20.6641 10.0135 20.7707 10.0135 21.0027V21.4704H9.76875V21.0335C9.76875 20.9319 9.73336 20.8625 9.6446 20.8625C9.61691 20.8627 9.59 20.8717 9.56775 20.8882C9.54549 20.9047 9.52904 20.9279 9.52074 20.9543C9.51375 20.974 9.51045 20.9948 9.51101 21.0157V21.4704H9.26625V20.9334Z" fill="#3A3A3A"/>
<path d="M29.7721 20.9336C29.7721 20.8353 29.7689 20.7514 29.7656 20.6821H29.9723L29.9835 20.7886H29.9885C30.0142 20.7491 30.0496 20.7169 30.0914 20.6951C30.1332 20.6733 30.18 20.6627 30.2271 20.6643C30.2725 20.6621 30.3175 20.6737 30.3561 20.6976C30.3947 20.7216 30.4251 20.7567 30.4432 20.7984H30.4465C30.4736 20.7601 30.5081 20.7277 30.548 20.703C30.5935 20.6765 30.6454 20.6631 30.698 20.6643C30.8495 20.6643 30.9637 20.7709 30.9637 21.0062V21.4706H30.7249V21.0414C30.7249 20.9271 30.688 20.861 30.6088 20.861C30.5834 20.8614 30.5588 20.8699 30.5385 20.8852C30.5182 20.9006 30.5034 20.922 30.4961 20.9463C30.4895 20.9666 30.4863 20.9878 30.4863 21.0092V21.4704H30.2478V21.0275C30.2478 20.9274 30.2123 20.8598 30.135 20.8598C30.109 20.8608 30.0841 20.8699 30.0635 20.8858C30.043 20.9017 30.0279 20.9235 30.0204 20.9484C30.0133 20.968 30.01 20.9889 30.0107 21.0098V21.4692H29.7721V20.9336Z" fill="#3A3A3A"/>
<path d="M31.6047 21.4689L31.5903 21.3897H31.5853C31.5573 21.4217 31.5226 21.447 31.4836 21.4638C31.4446 21.4805 31.4024 21.4883 31.36 21.4866C31.2004 21.4866 31.1055 21.3705 31.1055 21.2448C31.1055 21.0399 31.2889 20.9416 31.5676 20.9433V20.9321C31.5676 20.8902 31.5452 20.8305 31.4242 20.8305C31.3479 20.8311 31.2731 20.8515 31.2069 20.8896L31.1618 20.7316C31.2565 20.6838 31.3615 20.66 31.4676 20.6623C31.7303 20.6623 31.8141 20.8173 31.8141 21.0027V21.2767C31.8128 21.3408 31.8166 21.405 31.8253 21.4686L31.6047 21.4689ZM31.5752 21.0966C31.4464 21.0948 31.3467 21.1261 31.3467 21.2206C31.3459 21.2333 31.3479 21.2461 31.3525 21.2581C31.3572 21.27 31.3643 21.2808 31.3735 21.2897C31.3827 21.2986 31.3937 21.3054 31.4058 21.3096C31.4178 21.3138 31.4307 21.3154 31.4434 21.3142C31.4714 21.3143 31.4987 21.3056 31.5215 21.2894C31.5442 21.2732 31.5614 21.2503 31.5705 21.2238C31.5738 21.2101 31.5753 21.196 31.5752 21.1819V21.0966Z" fill="#3A3A3A"/>
<path d="M32.1962 20.6816L32.2737 20.8124C32.2961 20.8526 32.3171 20.893 32.338 20.9305H32.3412C32.3622 20.8886 32.3816 20.8482 32.4026 20.8095L32.4716 20.6819H32.737L32.4778 21.0578L32.7402 21.4711H32.4633L32.3843 21.3291C32.3619 21.2904 32.3424 21.2503 32.3233 21.211H32.3185C32.2991 21.2529 32.2781 21.2916 32.2596 21.3291L32.1855 21.4711H31.916L32.1835 21.0696L31.9225 20.6825L32.1962 20.6816Z" fill="#3A3A3A"/>
<defs>
<radialGradient id="paint0_radial_301_11380" cx="0" cy="0" r="1" gradientUnits="userSpaceOnUse" gradientTransform="translate(20 20) scale(20)">
<stop offset="0.96" stop-color="#333333"/>
<stop offset="1"/>
</radialGradient>
<linearGradient id="paint1_linear_301_11380" x1="20.0002" y1="4.07251" x2="20.0002" y2="35.3945" gradientUnits="userSpaceOnUse">
<stop stop-color="#191919"/>
<stop offset="0.5" stop-color="#686868"/>
<stop offset="1" stop-color="#B3B3B3"/>
</linearGradient>
<linearGradient id="paint2_linear_301_11380" x1="19.9997" y1="34.7349" x2="19.9997" y2="5.13038" gradientUnits="userSpaceOnUse">
<stop offset="0.01" stop-color="#F3F3F3"/>
<stop offset="0.61" stop-color="#F8F8F8"/>
<stop offset="1" stop-color="white"/>
</linearGradient>
<linearGradient id="paint3_linear_301_11380" x1="6.91602" y1="13.4861" x2="33.0851" y2="13.4861" gradientUnits="userSpaceOnUse">
<stop stop-color="#2C9EE7"/>
<stop offset="0.32" stop-color="#21B758"/>
<stop offset="0.51" stop-color="#F7D963"/>
<stop offset="0.77" stop-color="#FD6C3B"/>
<stop offset="1" stop-color="#9C0000"/>
</linearGradient>
<linearGradient id="paint4_linear_301_11380" x1="18.9375" y1="20.0734" x2="21.0609" y2="20.0734" gradientUnits="userSpaceOnUse">
<stop stop-color="white"/>
<stop offset="1" stop-color="#A2A1A1"/>
</linearGradient>
<linearGradient id="paint5_linear_301_11380" x1="18.938" y1="20.3853" x2="21.0614" y2="20.3853" gradientUnits="userSpaceOnUse">
<stop stop-color="white"/>
<stop offset="1" stop-color="#A2A1A1"/>
</linearGradient>
<radialGradient id="paint6_radial_301_11380" cx="0" cy="0" r="1" gradientUnits="userSpaceOnUse" gradientTransform="translate(19.999 20.0732) scale(0.911118)">
<stop stop-color="#666666"/>
<stop offset="1" stop-color="#4D4D4D"/>
</radialGradient>
<radialGradient id="paint7_radial_301_11380" cx="0" cy="0" r="1" gradientUnits="userSpaceOnUse" gradientTransform="translate(19.9991 20.074) scale(0.881594)">
<stop stop-color="#808080"/>
<stop offset="1" stop-color="#1A1A1A"/>
</radialGradient>
<linearGradient id="paint8_linear_301_11380" x1="20.0003" y1="19.1902" x2="20.0003" y2="19.7013" gradientUnits="userSpaceOnUse">
<stop stop-color="white"/>
<stop offset="0.04" stop-color="#F9F9F9"/>
<stop offset="0.5" stop-color="#B6B5B5"/>
<stop offset="0.83" stop-color="#8C8A8A"/>
<stop offset="1" stop-color="#7C7A7A"/>
</linearGradient>
</defs>
</svg>
