<svg width="18" height="21" viewBox="0 0 18 21" fill="none" xmlns="http://www.w3.org/2000/svg">
<circle opacity="0.9" cx="9" cy="10.3326" r="9" fill="#B2D8EB"/>
<path d="M9.54118 12.3981H8.36051C8.36475 11.9918 8.40072 11.6596 8.46842 11.4015C8.54036 11.1391 8.65674 10.9 8.81755 10.6842C8.97835 10.4684 9.19206 10.2229 9.45866 9.94788C9.65332 9.74898 9.83105 9.56278 9.99186 9.38928C10.1569 9.21155 10.2902 9.02112 10.3918 8.81799C10.4933 8.61064 10.5441 8.36308 10.5441 8.07532C10.5441 7.78333 10.4912 7.53153 10.3854 7.31995C10.2839 7.10836 10.1315 6.94543 9.92839 6.83118C9.72949 6.71692 9.48193 6.65979 9.18571 6.65979C8.94027 6.65979 8.70752 6.70422 8.48747 6.79309C8.26742 6.88196 8.08968 7.01949 7.95426 7.20569C7.81885 7.38765 7.74902 7.62675 7.74479 7.92297H6.57048C6.57894 7.44478 6.69743 7.0343 6.92594 6.69153C7.15869 6.34875 7.47184 6.08639 7.8654 5.90442C8.25895 5.72245 8.69906 5.63147 9.18571 5.63147C9.72314 5.63147 10.1802 5.7288 10.5568 5.92346C10.9377 6.11812 11.2275 6.39742 11.4264 6.76135C11.6253 7.12105 11.7248 7.54846 11.7248 8.04358C11.7248 8.42444 11.6465 8.77568 11.4899 9.09729C11.3376 9.41467 11.1408 9.71301 10.8996 9.99231C10.6584 10.2716 10.4023 10.5382 10.1315 10.7921C9.89876 11.0079 9.74219 11.2513 9.66178 11.5221C9.58138 11.7929 9.54118 12.0849 9.54118 12.3981ZM8.30973 14.4103C8.30973 14.2198 8.36898 14.059 8.48747 13.9279C8.60596 13.7967 8.77734 13.7311 9.00163 13.7311C9.23014 13.7311 9.40365 13.7967 9.52214 13.9279C9.64062 14.059 9.69987 14.2198 9.69987 14.4103C9.69987 14.5922 9.64062 14.7488 9.52214 14.88C9.40365 15.0112 9.23014 15.0768 9.00163 15.0768C8.77734 15.0768 8.60596 15.0112 8.48747 14.88C8.36898 14.7488 8.30973 14.5922 8.30973 14.4103Z" fill="black"/>
</svg>
