<svg width="40" height="40" viewBox="0 0 40 40" fill="none" xmlns="http://www.w3.org/2000/svg">
<path d="M20 40C31.0457 40 40 31.0457 40 20C40 8.9543 31.0457 0 20 0C8.9543 0 0 8.9543 0 20C0 31.0457 8.9543 40 20 40Z" fill="url(#paint0_radial_301_11524)"/>
<path opacity="0.11" d="M20 11.1805C28.49 11.1805 35.8958 15.822 39.8184 22.7062C39.9396 21.8093 40.0003 20.9053 40 20.0003C40 8.9544 31.0456 0 20 0C8.9544 0 2.77202e-07 8.9544 2.77202e-07 20.0003C-0.000149642 20.9053 0.0605116 21.8093 0.181574 22.7062C4.10387 15.822 11.51 11.1805 20 11.1805Z" fill="white"/>
<path d="M20.0002 35.4405C28.5273 35.4405 35.4399 28.528 35.4399 20.0008C35.4399 11.4737 28.5273 4.56116 20.0002 4.56116C11.4731 4.56116 4.56055 11.4737 4.56055 20.0008C4.56055 28.528 11.4731 35.4405 20.0002 35.4405Z" fill="url(#paint1_linear_301_11524)"/>
<path d="M19.9997 34.9206C28.2406 34.9206 34.9212 28.24 34.9212 19.9991C34.9212 11.7581 28.2406 5.07751 19.9997 5.07751C11.7587 5.07751 5.07812 11.7581 5.07812 19.9991C5.07812 28.24 11.7587 34.9206 19.9997 34.9206Z" fill="url(#paint2_linear_301_11524)"/>
<path d="M10.6033 20.0206C10.6033 14.8305 14.8105 10.6233 20.0006 10.6233C25.1906 10.6233 29.3978 14.8305 29.3978 20.0206V20.0371H33.0851V20.0206C33.0851 12.7942 27.2269 6.93604 20.0006 6.93604C12.7742 6.93604 6.91602 12.7942 6.91602 20.0206V20.0371H10.6033V20.0206Z" fill="url(#paint3_linear_301_11524)"/>
<path d="M15.329 9.21314L15.1094 9.31091L15.8142 10.8939L16.0338 10.7961L15.329 9.21314Z" fill="white"/>
<path d="M20.1192 8.24707H19.8789V9.98015H20.1192V8.24707Z" fill="white"/>
<path d="M11.3446 12.0454L11.1836 12.2242L12.4715 13.3839L12.6325 13.2051L11.3446 12.0454Z" fill="white"/>
<path d="M8.85951 16.2544L8.78516 16.4833L10.4334 17.0188L10.5078 16.79L8.85951 16.2544Z" fill="white"/>
<path d="M29.9534 18.8331L29.9785 19.0724L31.7021 18.8912L31.6769 18.6519L29.9534 18.8331Z" fill="white"/>
<path d="M28.618 14.8851L28.7383 15.0935L30.2392 14.227L30.1189 14.0186L28.618 14.8851Z" fill="white"/>
<path d="M25.7938 11.8229L25.9883 11.9642L27.0066 10.5627L26.812 10.4214L25.7938 11.8229Z" fill="white"/>
<path d="M21.9661 10.1729L22.2012 10.2229L22.5615 8.52778L22.3264 8.47781L21.9661 10.1729Z" fill="white"/>
<path d="M17.8001 10.2234L18.0352 10.1735L17.6748 8.47834L17.4398 8.52831L17.8001 10.2234Z" fill="white"/>
<path d="M14.0125 11.9646L14.207 11.8232L13.1887 10.4217L12.9942 10.563L14.0125 11.9646Z" fill="white"/>
<path d="M11.2625 15.0932L11.3828 14.8848L9.88193 14.0182L9.76162 14.2266L11.2625 15.0932Z" fill="white"/>
<path d="M10.0217 19.0718L10.0469 18.8325L8.3233 18.6514L8.29815 18.8907L10.0217 19.0718Z" fill="white"/>
<path d="M31.215 16.4832L31.1406 16.2544L29.4924 16.7899L29.5667 17.0188L31.215 16.4832Z" fill="white"/>
<path d="M28.8153 12.2236L28.6543 12.0448L27.3664 13.2045L27.5274 13.3833L28.8153 12.2236Z" fill="white"/>
<path d="M24.8895 9.31164L24.6699 9.21387L23.9651 10.7968L24.1847 10.8946L24.8895 9.31164Z" fill="white"/>
<path d="M20.8408 8.81848L20.6758 8.80737L20.5957 9.99716L20.7608 10.0083L20.8408 8.81848Z" fill="white"/>
<path d="M23.1455 9.23714L22.9863 9.19189L22.6603 10.3388L22.8194 10.3841L23.1455 9.23714Z" fill="white"/>
<path d="M25.3143 10.1263L25.168 10.049L24.6107 11.1029L24.7569 11.1802L25.3143 10.1263Z" fill="white"/>
<path d="M27.2521 11.444L27.125 11.338L26.3615 12.2534L26.4887 12.3594L27.2521 11.444Z" fill="white"/>
<path d="M28.8698 13.1381L28.7676 13.0079L27.8305 13.744L27.9327 13.8742L28.8698 13.1381Z" fill="white"/>
<path d="M30.0984 15.1268L30.0254 14.9781L28.9549 15.5035L29.0278 15.6522L30.0984 15.1268Z" fill="white"/>
<path d="M30.8959 17.3434L30.8555 17.1827L29.6991 17.4741L29.7396 17.6347L30.8959 17.3434Z" fill="white"/>
<path d="M31.2112 19.6755L31.2051 19.51L30.0134 19.5543L30.0196 19.7198L31.2112 19.6755Z" fill="white"/>
<path d="M10.1123 18.3622L10.1406 18.199L8.96569 17.9952L8.93738 18.1584L10.1123 18.3622Z" fill="white"/>
<path d="M10.665 16.355L10.7266 16.2013L9.61959 15.7579L9.558 15.9116L10.665 16.355Z" fill="white"/>
<path d="M11.6266 14.4968L11.7188 14.3593L10.7289 13.6959L10.6368 13.8334L11.6266 14.4968Z" fill="white"/>
<path d="M12.9555 12.8761L13.0742 12.7607L12.2439 11.9057L12.1252 12.021L12.9555 12.8761Z" fill="white"/>
<path d="M14.604 11.5542L14.7441 11.4662L14.1099 10.4568L13.9698 10.5448L14.604 11.5542Z" fill="white"/>
<path d="M16.4775 10.6186L16.6328 10.5616L16.2225 9.44214L16.0671 9.49909L16.4775 10.6186Z" fill="white"/>
<path d="M18.5022 10.0925L18.666 10.0691L18.4972 8.88865L18.3334 8.91208L18.5022 10.0925Z" fill="white"/>
<path d="M21.6053 8.90318L21.4414 8.88062L21.2787 10.0619L21.4426 10.0845L21.6053 8.90318Z" fill="white"/>
<path d="M23.892 9.48245L23.7363 9.42627L23.3315 10.5478L23.4871 10.6039L23.892 9.48245Z" fill="white"/>
<path d="M25.996 10.5208L25.8555 10.4335L25.2264 11.4461L25.367 11.5334L25.996 10.5208Z" fill="white"/>
<path d="M27.8187 11.9617L27.6992 11.847L26.874 12.707L26.9934 12.8216L27.8187 11.9617Z" fill="white"/>
<path d="M29.3313 13.7785L29.2383 13.6415L28.2524 14.3107L28.3454 14.4477L29.3313 13.7785Z" fill="white"/>
<path d="M30.4179 15.8493L30.3555 15.6959L29.2511 16.1457L29.3135 16.2991L30.4179 15.8493Z" fill="white"/>
<path d="M31.0566 18.113L31.0273 17.95L29.8536 18.1603L29.8828 18.3233L31.0566 18.113Z" fill="white"/>
<path d="M9.98095 19.7561L9.98633 19.5906L8.79447 19.5519L8.78909 19.7174L9.98095 19.7561Z" fill="white"/>
<path d="M10.2495 17.686L10.2891 17.5251L9.1311 17.2403L9.09153 17.4011L10.2495 17.686Z" fill="white"/>
<path d="M10.9454 15.704L11.0176 15.5549L9.94414 15.0355L9.872 15.1846L10.9454 15.704Z" fill="white"/>
<path d="M12.0352 13.9187L12.1367 13.788L11.1954 13.0573L11.0939 13.1881L12.0352 13.9187Z" fill="white"/>
<path d="M13.4751 12.3969L13.6016 12.2902L12.8327 11.3794L12.7062 11.4861L13.4751 12.3969Z" fill="white"/>
<path d="M15.1979 11.2055L15.3438 11.1274L14.7811 10.0764L14.6352 10.1545L15.1979 11.2055Z" fill="white"/>
<path d="M17.1301 10.3989L17.2891 10.3529L16.9574 9.20758L16.7985 9.2536L17.1301 10.3989Z" fill="white"/>
<path d="M19.1885 10.0115L19.3535 9.99951L19.267 8.81017L19.102 8.82217L19.1885 10.0115Z" fill="white"/>
<path d="M20.8693 21.2834C21.1085 21.1056 21.288 20.8594 21.3841 20.5774C21.4802 20.2953 21.4884 19.9907 21.4075 19.7039L21.4164 19.6974C21.6842 19.4984 28.328 14.2649 28.1553 14.0323C27.9826 13.7996 21.0577 18.6563 20.7902 18.8553L20.7816 18.8618C20.5518 18.7156 20.2859 18.6361 20.0135 18.6321C19.7411 18.628 19.4729 18.6997 19.2389 18.8391C19.0048 18.9785 18.8141 19.1801 18.6878 19.4215C18.5616 19.6629 18.5049 19.9346 18.5239 20.2064L15.5248 22.201C15.4137 22.2749 15.3188 22.3707 15.2458 22.4824C15.1728 22.5942 15.1234 22.7196 15.1005 22.8511C15.0776 22.9826 15.0817 23.1174 15.1126 23.2472C15.1435 23.3771 15.2005 23.4993 15.2801 23.6064C15.3597 23.7136 15.4604 23.8035 15.5759 23.8705C15.6914 23.9376 15.8194 23.9804 15.952 23.9963C16.0846 24.0123 16.2191 24.0011 16.3472 23.9634C16.4753 23.9257 16.5944 23.8623 16.6973 23.777L19.4708 21.4789C19.7015 21.5663 19.9506 21.5942 20.195 21.5601C20.4395 21.5259 20.6714 21.4308 20.8693 21.2834Z" fill="#232323"/>
<path opacity="0.24" d="M20.9015 20.9245C21.2098 20.4257 21.0554 19.7715 20.5566 19.4632C20.0578 19.1549 19.4036 19.3093 19.0953 19.8081C18.787 20.3068 18.9414 20.9611 19.4402 21.2694C19.939 21.5777 20.5932 21.4233 20.9015 20.9245Z" fill="black"/>
<path d="M20.816 20.8903C21.2669 20.4394 21.2669 19.7085 20.816 19.2577C20.3652 18.8069 19.6343 18.8069 19.1835 19.2577C18.7326 19.7085 18.7327 20.4394 19.1835 20.8903C19.6343 21.3411 20.3652 21.3411 20.816 20.8903Z" fill="#0F0F0F"/>
<path d="M21.0157 20.3911C21.1857 19.83 20.8686 19.2372 20.3074 19.0673C19.7462 18.8973 19.1535 19.2145 18.9835 19.7756C18.8136 20.3368 19.1307 20.9295 19.6919 21.0995C20.2531 21.2695 20.8458 20.9523 21.0157 20.3911Z" fill="url(#paint4_linear_301_11524)"/>
<path d="M19.9997 21.1355C20.5605 21.1355 21.015 20.7995 21.015 20.385C21.015 19.9705 20.5605 19.6345 19.9997 19.6345C19.439 19.6345 18.9844 19.9705 18.9844 20.385C18.9844 20.7995 19.439 21.1355 19.9997 21.1355Z" fill="url(#paint5_linear_301_11524)"/>
<path opacity="0.27" d="M19.9997 21.1355C20.5605 21.1355 21.015 20.7995 21.015 20.385C21.015 19.9705 20.5605 19.6345 19.9997 19.6345C19.439 19.6345 18.9844 19.9705 18.9844 20.385C18.9844 20.7995 19.439 21.1355 19.9997 21.1355Z" fill="black"/>
<path d="M20.4831 20.8447C20.9111 20.5801 21.0436 20.0187 20.7791 19.5906C20.5145 19.1626 19.9531 19.0301 19.525 19.2946C19.097 19.5592 18.9645 20.1207 19.229 20.5487C19.4936 20.9767 20.0551 21.1093 20.4831 20.8447Z" fill="url(#paint6_radial_301_11524)"/>
<path d="M20.624 20.6974C20.9683 20.3531 20.9683 19.7949 20.624 19.4506C20.2798 19.1063 19.7216 19.1063 19.3773 19.4506C19.033 19.7949 19.033 20.3531 19.3773 20.6974C19.7216 21.0416 20.2798 21.0416 20.624 20.6974Z" fill="url(#paint7_radial_301_11524)"/>
<path opacity="0.78" d="M20.0003 19.6815C20.337 19.6815 20.61 19.5718 20.61 19.4365C20.61 19.3011 20.337 19.1914 20.0003 19.1914C19.6636 19.1914 19.3906 19.3011 19.3906 19.4365C19.3906 19.5718 19.6636 19.6815 20.0003 19.6815Z" fill="url(#paint8_linear_301_11524)"/>
<path opacity="0.27" d="M20.0007 20.4946C19.8072 20.4947 19.6191 20.4312 19.4653 20.3138C19.3115 20.1964 19.2005 20.0317 19.1496 19.8451C19.1143 19.9758 19.1096 20.1128 19.1359 20.2456C19.1621 20.3784 19.2186 20.5033 19.3009 20.6108C19.3832 20.7182 19.4891 20.8053 19.6105 20.8652C19.7319 20.9251 19.8654 20.9562 20.0007 20.9562C20.1361 20.9562 20.2696 20.9251 20.391 20.8652C20.5123 20.8053 20.6183 20.7182 20.7006 20.6108C20.7829 20.5033 20.8394 20.3784 20.8656 20.2456C20.8918 20.1128 20.8872 19.9758 20.8519 19.8451C20.801 20.0318 20.69 20.1965 20.5362 20.3139C20.3824 20.4313 20.1942 20.4948 20.0007 20.4946Z" fill="black"/>
<path d="M7.43618 20.9313C7.43618 20.833 7.43294 20.7491 7.42969 20.6797H7.63636L7.64787 20.786H7.65259C7.67831 20.7466 7.71378 20.7144 7.75558 20.6927C7.79737 20.6709 7.84407 20.6604 7.89115 20.662C7.93649 20.6598 7.98144 20.6713 8.02004 20.6952C8.05864 20.7191 8.08906 20.7542 8.10727 20.7958H8.11052C8.13767 20.7576 8.17221 20.7253 8.21208 20.7007C8.25754 20.6742 8.30946 20.6608 8.36206 20.662C8.51352 20.662 8.62778 20.7683 8.62778 21.0039V21.468H8.38922V21.039C8.38922 20.9245 8.35202 20.8584 8.27319 20.8584C8.24769 20.8587 8.22297 20.8673 8.20263 20.8827C8.1823 20.898 8.1674 20.9195 8.16012 20.944C8.15358 20.9643 8.1503 20.9855 8.15037 21.0069V21.468H7.91123V21.0252C7.91123 20.9254 7.8758 20.8575 7.79844 20.8575C7.77251 20.8585 7.74755 20.8676 7.72702 20.8835C7.70649 20.8993 7.69142 20.9212 7.68389 20.946C7.67678 20.9656 7.67348 20.9863 7.67415 21.0072V21.468H7.43559L7.43618 20.9313Z" fill="#3A3A3A"/>
<path d="M9.07597 20.4606C9.07585 20.4774 9.0723 20.494 9.06554 20.5093C9.05878 20.5247 9.04895 20.5385 9.03666 20.5499C9.02437 20.5614 9.00987 20.5701 8.99407 20.5757C8.97826 20.5814 8.96148 20.5837 8.94475 20.5825C8.92807 20.5832 8.91143 20.5805 8.89583 20.5746C8.88023 20.5686 8.866 20.5596 8.854 20.548C8.842 20.5364 8.83248 20.5224 8.82602 20.507C8.81956 20.4916 8.81629 20.475 8.81641 20.4583C8.81653 20.4416 8.82004 20.4251 8.82672 20.4098C8.8334 20.3945 8.84312 20.3807 8.85529 20.3693C8.86745 20.3578 8.88181 20.349 8.89749 20.3433C8.91317 20.3375 8.92985 20.3351 8.94652 20.336C8.96334 20.3351 8.98017 20.3376 8.99597 20.3435C9.01176 20.3493 9.02618 20.3584 9.03833 20.3701C9.05047 20.3818 9.06008 20.3959 9.06656 20.4114C9.07304 20.427 9.07624 20.4437 9.07597 20.4606ZM8.82325 21.4683V20.68H9.06801V21.4683H8.82325Z" fill="#3A3A3A"/>
<path d="M9.26625 20.9329C9.26625 20.8346 9.26301 20.7507 9.25977 20.6813H9.47238L9.48359 20.7894H9.4886C9.51552 20.7499 9.55182 20.7177 9.59423 20.6958C9.63665 20.6738 9.68385 20.6628 9.73159 20.6636C9.8926 20.6636 10.0135 20.7699 10.0135 21.0023V21.4696H9.76874V21.0327C9.76874 20.9308 9.73336 20.8617 9.6446 20.8617C9.61689 20.8619 9.58997 20.8709 9.56771 20.8874C9.54544 20.9039 9.529 20.9271 9.52074 20.9535C9.51372 20.9731 9.51042 20.9939 9.51101 21.0147V21.4696H9.26625V20.9329Z" fill="#3A3A3A"/>
<path d="M29.7721 20.9313C29.7721 20.833 29.7689 20.7491 29.7656 20.6797H29.9723L29.9835 20.786H29.9885C30.0142 20.7465 30.0497 20.7144 30.0915 20.6926C30.1333 20.6709 30.18 20.6604 30.2271 20.662C30.2724 20.6598 30.3174 20.6713 30.356 20.6952C30.3946 20.7191 30.425 20.7542 30.4432 20.7958H30.4465C30.4736 20.7576 30.5081 20.7253 30.548 20.7007C30.5935 20.6742 30.6454 20.6608 30.698 20.662C30.8495 20.662 30.9637 20.7683 30.9637 21.0039V21.468H30.7249V21.039C30.7249 20.9245 30.688 20.8584 30.6088 20.8584C30.5834 20.8588 30.5587 20.8673 30.5385 20.8827C30.5182 20.8981 30.5033 20.9196 30.4961 20.944C30.4895 20.9643 30.4862 20.9855 30.4863 21.0069V21.468H30.2478V21.0252C30.2478 20.9254 30.2123 20.8575 30.135 20.8575C30.109 20.8585 30.0841 20.8676 30.0635 20.8835C30.043 20.8993 30.0279 20.9212 30.0204 20.946C30.0133 20.9656 30.01 20.9863 30.0107 21.0072V21.468H29.7721V20.9313Z" fill="#3A3A3A"/>
<path d="M31.6047 21.4688L31.5903 21.3897H31.5853C31.5573 21.4216 31.5226 21.4469 31.4836 21.4637C31.4446 21.4805 31.4024 21.4883 31.36 21.4865C31.2004 21.4865 31.1055 21.3702 31.1055 21.2444C31.1055 21.0398 31.2889 20.9415 31.5676 20.943V20.9317C31.5676 20.8898 31.5451 20.8302 31.4242 20.8302C31.3479 20.8308 31.2731 20.8511 31.2069 20.8892L31.1618 20.7313C31.2565 20.6835 31.3615 20.6596 31.4676 20.6619C31.7303 20.6619 31.8141 20.8166 31.8141 21.002V21.2763C31.8128 21.3405 31.8166 21.4046 31.8253 21.4682L31.6047 21.4688ZM31.5752 21.0962C31.4464 21.0962 31.3467 21.1257 31.3467 21.2202C31.3459 21.233 31.3479 21.2458 31.3525 21.2577C31.3572 21.2696 31.3643 21.2804 31.3735 21.2893C31.3827 21.2982 31.3937 21.305 31.4058 21.3092C31.4178 21.3135 31.4307 21.315 31.4434 21.3138C31.4714 21.3139 31.4987 21.3053 31.5215 21.2891C31.5443 21.2729 31.5614 21.2499 31.5705 21.2234C31.5738 21.2097 31.5754 21.1956 31.5752 21.1815V21.0962Z" fill="#3A3A3A"/>
<path d="M32.1962 20.6819L32.2737 20.8124C32.2961 20.8528 32.3171 20.893 32.338 20.9305H32.3412C32.3622 20.8886 32.3816 20.8481 32.4026 20.8094L32.4716 20.6822H32.737L32.4778 21.0577L32.7402 21.4711H32.4633L32.3843 21.3291C32.3619 21.2904 32.3424 21.2499 32.3233 21.211H32.3185C32.2991 21.2529 32.2781 21.2916 32.2596 21.3291L32.1855 21.4711H31.916L32.1835 21.0695L31.9225 20.6825L32.1962 20.6819Z" fill="#3A3A3A"/>
<defs>
<radialGradient id="paint0_radial_301_11524" cx="0" cy="0" r="1" gradientUnits="userSpaceOnUse" gradientTransform="translate(20 20) scale(20)">
<stop offset="0.96" stop-color="#333333"/>
<stop offset="1"/>
</radialGradient>
<linearGradient id="paint1_linear_301_11524" x1="20.0002" y1="4.07312" x2="20.0002" y2="35.3948" gradientUnits="userSpaceOnUse">
<stop stop-color="#191919"/>
<stop offset="0.5" stop-color="#686868"/>
<stop offset="1" stop-color="#B3B3B3"/>
</linearGradient>
<linearGradient id="paint2_linear_301_11524" x1="19.9997" y1="34.734" x2="19.9997" y2="5.12977" gradientUnits="userSpaceOnUse">
<stop offset="0.01" stop-color="#F3F3F3"/>
<stop offset="0.61" stop-color="#F8F8F8"/>
<stop offset="1" stop-color="white"/>
</linearGradient>
<linearGradient id="paint3_linear_301_11524" x1="6.91602" y1="13.4866" x2="33.0851" y2="13.4866" gradientUnits="userSpaceOnUse">
<stop stop-color="#2C9EE7"/>
<stop offset="0.32" stop-color="#21B758"/>
<stop offset="0.51" stop-color="#F7D963"/>
<stop offset="0.77" stop-color="#FD6C3B"/>
<stop offset="1" stop-color="#9C0000"/>
</linearGradient>
<linearGradient id="paint4_linear_301_11524" x1="18.9477" y1="20.0815" x2="21.0711" y2="20.0815" gradientUnits="userSpaceOnUse">
<stop stop-color="white"/>
<stop offset="1" stop-color="#A2A1A1"/>
</linearGradient>
<linearGradient id="paint5_linear_301_11524" x1="18.938" y1="20.385" x2="21.0614" y2="20.385" gradientUnits="userSpaceOnUse">
<stop stop-color="white"/>
<stop offset="1" stop-color="#A2A1A1"/>
</linearGradient>
<radialGradient id="paint6_radial_301_11524" cx="0" cy="0" r="1" gradientUnits="userSpaceOnUse" gradientTransform="translate(19.9992 20.0704) scale(0.911118)">
<stop stop-color="#666666"/>
<stop offset="1" stop-color="#4D4D4D"/>
</radialGradient>
<radialGradient id="paint7_radial_301_11524" cx="0" cy="0" r="1" gradientUnits="userSpaceOnUse" gradientTransform="translate(20.0007 20.074) scale(0.881593)">
<stop stop-color="#808080"/>
<stop offset="1" stop-color="#1A1A1A"/>
</radialGradient>
<linearGradient id="paint8_linear_301_11524" x1="20.0003" y1="19.1902" x2="20.0003" y2="19.7013" gradientUnits="userSpaceOnUse">
<stop stop-color="white"/>
<stop offset="0.04" stop-color="#F9F9F9"/>
<stop offset="0.5" stop-color="#B6B5B5"/>
<stop offset="0.83" stop-color="#8C8A8A"/>
<stop offset="1" stop-color="#7C7A7A"/>
</linearGradient>
</defs>
</svg>
